<?xml version="1.0" encoding="UTF-8" standalone="no"?>
<!DOCTYPE svg PUBLIC "-//W3C//DTD SVG 1.1//EN"
 "http://www.w3.org/Graphics/SVG/1.1/DTD/svg11.dtd">
<!-- Generated by graphviz version 12.2.1 (20241206.2353)
 -->
<!-- Title: G Pages: 1 -->
<svg width="1537pt" height="312pt"
 viewBox="0.00 0.00 1536.75 312.00" xmlns="http://www.w3.org/2000/svg" xmlns:xlink="http://www.w3.org/1999/xlink">
<g id="graph0" class="graph" transform="scale(1 1) rotate(0) translate(4 308)">
<title>G</title>
<polygon fill="white" stroke="none" points="-4,4 -4,-308 1532.75,-308 1532.75,4 -4,4"/>
<g id="clust1" class="cluster">
<title>cluster_mcp</title>
<path fill="#f8fafc" stroke="#94a3b8" d="M375.75,-8C375.75,-8 1508.75,-8 1508.75,-8 1514.75,-8 1520.75,-14 1520.75,-20 1520.75,-20 1520.75,-284 1520.75,-284 1520.75,-290 1514.75,-296 1508.75,-296 1508.75,-296 375.75,-296 375.75,-296 369.75,-296 363.75,-290 363.75,-284 363.75,-284 363.75,-20 363.75,-20 363.75,-14 369.75,-8 375.75,-8"/>
<text text-anchor="start" x="887.88" y="-273" font-family="Helvetica,sans-Serif" font-size="20.00">MCP Server</text>
</g>
<g id="clust2" class="cluster">
<title>cluster_mw</title>
<path fill="#fffbeb" stroke="#f59e0b" d="M383.75,-97C383.75,-97 541,-97 541,-97 547,-97 553,-103 553,-109 553,-109 553,-166 553,-166 553,-172 547,-178 541,-178 541,-178 383.75,-178 383.75,-178 377.75,-178 371.75,-172 371.75,-166 371.75,-166 371.75,-109 371.75,-109 371.75,-103 377.75,-97 383.75,-97"/>
<text text-anchor="start" x="411" y="-155" font-family="Helvetica,sans-Serif" font-size="20.00">Middleware</text>
</g>
<g id="clust3" class="cluster">
<title>cluster_svc</title>
<path fill="#f8fafc" stroke="#94a3b8" d="M875.25,-16C875.25,-16 1082,-16 1082,-16 1088,-16 1094,-22 1094,-28 1094,-28 1094,-247 1094,-247 1094,-253 1088,-259 1082,-259 1082,-259 875.25,-259 875.25,-259 869.25,-259 863.25,-253 863.25,-247 863.25,-247 863.25,-28 863.25,-28 863.25,-22 869.25,-16 875.25,-16"/>
<text text-anchor="start" x="882.62" y="-236" font-family="Helvetica,sans-Serif" font-size="20.00">Service Orchestration</text>
</g>
<g id="clust4" class="cluster">
<title>cluster_dspy</title>
<path fill="#f8fafc" stroke="#94a3b8" d="M1244.5,-56C1244.5,-56 1500.75,-56 1500.75,-56 1506.75,-56 1512.75,-62 1512.75,-68 1512.75,-68 1512.75,-233 1512.75,-233 1512.75,-239 1506.75,-245 1500.75,-245 1500.75,-245 1244.5,-245 1244.5,-245 1238.5,-245 1232.5,-239 1232.5,-233 1232.5,-233 1232.5,-68 1232.5,-68 1232.5,-62 1238.5,-56 1244.5,-56"/>
<text text-anchor="start" x="1287.88" y="-222" font-family="Helvetica,sans-Serif" font-size="20.00">DSPy Components</text>
</g>
<!-- C -->
<g id="node1" class="node">
<title>C</title>
<path fill="#ffffff" stroke="#94a3b8" stroke-dasharray="5,2" d="M55,-141C55,-141 12,-141 12,-141 6,-141 0,-135 0,-129 0,-129 0,-117 0,-117 0,-111 6,-105 12,-105 12,-105 55,-105 55,-105 61,-105 67,-111 67,-117 67,-117 67,-129 67,-129 67,-135 61,-141 55,-141"/>
<text text-anchor="middle" x="33.5" y="-114.5" font-family="Helvetica,sans-Serif" font-size="20.00" fill="#0f172a">Client</text>
</g>
<!-- H -->
<g id="node2" class="node">
<title>H</title>
<path fill="#fef3c7" stroke="#f59e0b" d="M324.75,-141C324.75,-141 116,-141 116,-141 110,-141 104,-135 104,-129 104,-129 104,-117 104,-117 104,-111 110,-105 116,-105 116,-105 324.75,-105 324.75,-105 330.75,-105 336.75,-111 336.75,-117 336.75,-117 336.75,-129 336.75,-129 336.75,-135 330.75,-141 324.75,-141"/>
<text text-anchor="middle" x="220.38" y="-114.5" font-family="Helvetica,sans-Serif" font-size="20.00" fill="#4a2c0a">Headers (credentials …)</text>
</g>
<!-- C&#45;&gt;H -->
<g id="edge11" class="edge">
<title>C&#45;&gt;H</title>
<path fill="none" stroke="#6b7280" stroke-width="1.4" d="M67.13,-123C75.05,-123 84,-123 93.5,-123"/>
<polygon fill="#6b7280" stroke="#6b7280" stroke-width="1.4" points="93.45,-125.8 101.45,-123 93.45,-120.2 93.45,-125.8"/>
</g>
<!-- MW -->
<g id="node3" class="node">
<title>MW</title>
<path fill="#fef3c7" stroke="#f59e0b" d="M533,-141C533,-141 391.75,-141 391.75,-141 385.75,-141 379.75,-135 379.75,-129 379.75,-129 379.75,-117 379.75,-117 379.75,-111 385.75,-105 391.75,-105 391.75,-105 533,-105 533,-105 539,-105 545,-111 545,-117 545,-117 545,-129 545,-129 545,-135 539,-141 533,-141"/>
<text text-anchor="middle" x="462.38" y="-114.5" font-family="Helvetica,sans-Serif" font-size="20.00" fill="#4a2c0a">Auth Middleware</text>
</g>
<!-- H&#45;&gt;MW -->
<g id="edge12" class="edge">
<title>H&#45;&gt;MW</title>
<path fill="none" stroke="#6b7280" stroke-width="1.4" d="M337.16,-123C347.97,-123 358.82,-123 369.37,-123"/>
<polygon fill="#6b7280" stroke="#6b7280" stroke-width="1.4" points="369.26,-125.8 377.26,-123 369.26,-120.2 369.26,-125.8"/>
</g>
<!-- A -->
<g id="node4" class="node">
<title>A</title>
<path fill="#dbeafe" stroke="#2563eb" d="M822.25,-141C822.25,-141 594,-141 594,-141 588,-141 582,-135 582,-129 582,-129 582,-117 582,-117 582,-111 588,-105 594,-105 594,-105 822.25,-105 822.25,-105 828.25,-105 834.25,-111 834.25,-117 834.25,-117 834.25,-129 834.25,-129 834.25,-135 828.25,-141 822.25,-141"/>
<text text-anchor="middle" x="708.12" y="-114.5" font-family="Helvetica,sans-Serif" font-size="20.00" fill="#0f172a">assistant Tool (Entry Point)</text>
</g>
<!-- MW&#45;&gt;A -->
<g id="edge1" class="edge">
<title>MW&#45;&gt;A</title>
<path fill="none" stroke="#6b7280" stroke-width="1.4" d="M545.22,-123C553.85,-123 562.79,-123 571.82,-123"/>
<polygon fill="#6b7280" stroke="#6b7280" stroke-width="1.4" points="571.53,-125.8 579.53,-123 571.53,-120.2 571.53,-125.8"/>
</g>
<!-- FD -->
<g id="node5" class="node">
<title>FD</title>
<path fill="#e0f2fe" stroke="#0ea5e9" d="M1072.88,-60C1072.88,-60 884.38,-60 884.38,-60 878.38,-60 872.38,-54 872.38,-48 872.38,-48 872.38,-36 872.38,-36 872.38,-30 878.38,-24 884.38,-24 884.38,-24 1072.88,-24 1072.88,-24 1078.88,-24 1084.88,-30 1084.88,-36 1084.88,-36 1084.88,-48 1084.88,-48 1084.88,-54 1078.88,-60 1072.88,-60"/>
<text text-anchor="middle" x="978.62" y="-33.5" font-family="Helvetica,sans-Serif" font-size="20.00" fill="#0c4a6e">File Discovery Service</text>
</g>
<!-- A&#45;&gt;FD -->
<g id="edge2" class="edge">
<title>A&#45;&gt;FD</title>
<path fill="none" stroke="#6b7280" stroke-width="1.4" d="M757.64,-104.53C787.78,-93.42 827.46,-79.46 863.25,-69 870.33,-66.93 877.69,-64.91 885.12,-62.96"/>
<polygon fill="#6b7280" stroke="#6b7280" stroke-width="1.4" points="885.79,-65.67 892.84,-60.97 884.39,-60.25 885.79,-65.67"/>
</g>
<!-- CS -->
<g id="node6" class="node">
<title>CS</title>
<path fill="#e0f2fe" stroke="#0ea5e9" d="M1074,-114C1074,-114 883.25,-114 883.25,-114 877.25,-114 871.25,-108 871.25,-102 871.25,-102 871.25,-90 871.25,-90 871.25,-84 877.25,-78 883.25,-78 883.25,-78 1074,-78 1074,-78 1080,-78 1086,-84 1086,-90 1086,-90 1086,-102 1086,-102 1086,-108 1080,-114 1074,-114"/>
<text text-anchor="middle" x="978.62" y="-87.5" font-family="Helvetica,sans-Serif" font-size="20.00" fill="#0c4a6e">Chunk Search Service</text>
</g>
<!-- A&#45;&gt;CS -->
<g id="edge3" class="edge">
<title>A&#45;&gt;CS</title>
<path fill="none" stroke="#6b7280" stroke-width="1.4" d="M834.73,-110.37C843.55,-109.48 852.43,-108.59 861.2,-107.71"/>
<polygon fill="#6b7280" stroke="#6b7280" stroke-width="1.4" points="861.27,-110.52 868.94,-106.93 860.7,-104.94 861.27,-110.52"/>
</g>
<!-- AG -->
<g id="node7" class="node">
<title>AG</title>
<path fill="#e0f2fe" stroke="#0ea5e9" d="M1065,-168C1065,-168 892.25,-168 892.25,-168 886.25,-168 880.25,-162 880.25,-156 880.25,-156 880.25,-144 880.25,-144 880.25,-138 886.25,-132 892.25,-132 892.25,-132 1065,-132 1065,-132 1071,-132 1077,-138 1077,-144 1077,-144 1077,-156 1077,-156 1077,-162 1071,-168 1065,-168"/>
<text text-anchor="middle" x="978.62" y="-141.5" font-family="Helvetica,sans-Serif" font-size="20.00" fill="#0c4a6e">Aggregation Service</text>
</g>
<!-- A&#45;&gt;AG -->
<g id="edge4" class="edge">
<title>A&#45;&gt;AG</title>
<path fill="none" stroke="#6b7280" stroke-width="1.4" d="M834.73,-135.63C846.44,-136.81 858.25,-138 869.79,-139.16"/>
<polygon fill="#6b7280" stroke="#6b7280" stroke-width="1.4" points="869.49,-141.94 877.73,-139.96 870.06,-136.37 869.49,-141.94"/>
</g>
<!-- RF -->
<g id="node8" class="node">
<title>RF</title>
<path fill="#e0f2fe" stroke="#0ea5e9" d="M1054.88,-222C1054.88,-222 902.38,-222 902.38,-222 896.38,-222 890.38,-216 890.38,-210 890.38,-210 890.38,-198 890.38,-198 890.38,-192 896.38,-186 902.38,-186 902.38,-186 1054.88,-186 1054.88,-186 1060.88,-186 1066.88,-192 1066.88,-198 1066.88,-198 1066.88,-210 1066.88,-210 1066.88,-216 1060.88,-222 1054.88,-222"/>
<text text-anchor="middle" x="978.62" y="-195.5" font-family="Helvetica,sans-Serif" font-size="20.00" fill="#0c4a6e">Reflection Service</text>
</g>
<!-- A&#45;&gt;RF -->
<g id="edge5" class="edge">
<title>A&#45;&gt;RF</title>
<path fill="none" stroke="#6b7280" stroke-width="1.4" d="M757.64,-141.47C787.78,-152.58 827.46,-166.54 863.25,-177 870.33,-179.07 877.69,-181.09 885.12,-183.04"/>
<polygon fill="#6b7280" stroke="#6b7280" stroke-width="1.4" points="884.39,-185.75 892.84,-185.03 885.79,-180.33 884.39,-185.75"/>
</g>
<!-- QI -->
<g id="node9" class="node">
<title>QI</title>
<path fill="#f3e8ff" stroke="#7c3aed" d="M1492.75,-100C1492.75,-100 1252.5,-100 1252.5,-100 1246.5,-100 1240.5,-94 1240.5,-88 1240.5,-88 1240.5,-76 1240.5,-76 1240.5,-70 1246.5,-64 1252.5,-64 1252.5,-64 1492.75,-64 1492.75,-64 1498.75,-64 1504.75,-70 1504.75,-76 1504.75,-76 1504.75,-88 1504.75,-88 1504.75,-94 1498.75,-100 1492.75,-100"/>
<text text-anchor="middle" x="1372.62" y="-73.5" font-family="Helvetica,sans-Serif" font-size="20.00" fill="#2e1065">Query Intention / Signatures</text>
</g>
<!-- FD&#45;&gt;QI -->
<g id="edge6" class="edge">
<title>FD&#45;&gt;QI</title>
<path fill="none" stroke="#7c3aed" stroke-width="1.4" stroke-dasharray="5,2" d="M1085.29,-47.82C1127.97,-50.64 1177.65,-54.51 1222.5,-59.5 1229.83,-60.32 1237.35,-61.22 1244.93,-62.19"/>
<polygon fill="#7c3aed" stroke="#7c3aed" stroke-width="1.4" points="1244.52,-64.97 1252.82,-63.23 1245.25,-59.41 1244.52,-64.97"/>
<text text-anchor="middle" x="1163.25" y="-60.8" font-family="Helvetica,sans-Serif" font-size="16.00" fill="#7c3aed">guides</text>
</g>
<!-- CS&#45;&gt;QI -->
<g id="edge7" class="edge">
<title>CS&#45;&gt;QI</title>
<path fill="none" stroke="#7c3aed" stroke-width="1.4" stroke-dasharray="5,2" d="M1086.43,-84.61C1092.37,-84.18 1098.26,-83.8 1104,-83.5 1144.94,-81.33 1189.44,-80.48 1230.2,-80.3"/>
<polygon fill="#7c3aed" stroke="#7c3aed" stroke-width="1.4" points="1230.09,-83.1 1238.08,-80.27 1230.07,-77.5 1230.09,-83.1"/>
<text text-anchor="middle" x="1163.25" y="-84.8" font-family="Helvetica,sans-Serif" font-size="16.00" fill="#7c3aed">uses</text>
</g>
<!-- AE -->
<g id="node10" class="node">
<title>AE</title>
<path fill="#f3e8ff" stroke="#7c3aed" d="M1489.38,-154C1489.38,-154 1255.88,-154 1255.88,-154 1249.88,-154 1243.88,-148 1243.88,-142 1243.88,-142 1243.88,-130 1243.88,-130 1243.88,-124 1249.88,-118 1255.88,-118 1255.88,-118 1489.38,-118 1489.38,-118 1495.38,-118 1501.38,-124 1501.38,-130 1501.38,-130 1501.38,-142 1501.38,-142 1501.38,-148 1495.38,-154 1489.38,-154"/>
<text text-anchor="middle" x="1372.62" y="-127.5" font-family="Helvetica,sans-Serif" font-size="20.00" fill="#2e1065">Answer Extraction Modules</text>
</g>
<!-- CS&#45;&gt;AE -->
<g id="edge8" class="edge">
<title>CS&#45;&gt;AE</title>
<path fill="none" stroke="#7c3aed" stroke-width="1.4" stroke-dasharray="5,2" d="M1086.33,-106.69C1128.72,-110.96 1177.92,-115.93 1222.5,-120.5 1226.15,-120.87 1229.84,-121.25 1233.57,-121.64"/>
<polygon fill="#7c3aed" stroke="#7c3aed" stroke-width="1.4" points="1233.15,-124.41 1241.4,-122.44 1233.73,-118.84 1233.15,-124.41"/>
<text text-anchor="middle" x="1163.25" y="-121.8" font-family="Helvetica,sans-Serif" font-size="16.00" fill="#7c3aed">provides context</text>
</g>
<!-- AG&#45;&gt;AE -->
<g id="edge9" class="edge">
<title>AG&#45;&gt;AE</title>
<path fill="none" stroke="#7c3aed" stroke-width="1.4" stroke-dasharray="5,2" d="M1077.28,-146.51C1124.47,-144.83 1181.92,-142.78 1233.5,-140.93"/>
<polygon fill="#7c3aed" stroke="#7c3aed" stroke-width="1.4" points="1233.38,-143.74 1241.27,-140.66 1233.18,-138.14 1233.38,-143.74"/>
<text text-anchor="middle" x="1163.25" y="-146.77" font-family="Helvetica,sans-Serif" font-size="16.00" fill="#7c3aed">formats</text>
</g>
<!-- QM -->
<g id="node11" class="node">
<title>QM</title>
<path fill="#f3e8ff" stroke="#7c3aed" d="M1490.5,-208C1490.5,-208 1254.75,-208 1254.75,-208 1248.75,-208 1242.75,-202 1242.75,-196 1242.75,-196 1242.75,-184 1242.75,-184 1242.75,-178 1248.75,-172 1254.75,-172 1254.75,-172 1490.5,-172 1490.5,-172 1496.5,-172 1502.5,-178 1502.5,-184 1502.5,-184 1502.5,-196 1502.5,-196 1502.5,-202 1496.5,-208 1490.5,-208"/>
<text text-anchor="middle" x="1372.62" y="-181.5" font-family="Helvetica,sans-Serif" font-size="20.00" fill="#2e1065">Quality Assessment Metrics</text>
</g>
<!-- RF&#45;&gt;QM -->
<g id="edge10" class="edge">
<title>RF&#45;&gt;QM</title>
<path fill="none" stroke="#7c3aed" stroke-width="1.4" stroke-dasharray="5,2" d="M1067.11,-200.88C1115.75,-199.14 1177.41,-196.94 1232.5,-194.97"/>
<polygon fill="#7c3aed" stroke="#7c3aed" stroke-width="1.4" points="1232.34,-197.78 1240.23,-194.69 1232.14,-192.18 1232.34,-197.78"/>
<text text-anchor="middle" x="1163.25" y="-200.77" font-family="Helvetica,sans-Serif" font-size="16.00" fill="#7c3aed">evaluates</text>
</g>
</g>
</svg>
