<?xml version="1.0" encoding="UTF-8" standalone="no"?>
<!DOCTYPE svg PUBLIC "-//W3C//DTD SVG 1.1//EN"
 "http://www.w3.org/Graphics/SVG/1.1/DTD/svg11.dtd">
<!-- Generated by graphviz version 12.2.1 (20241206.2353)
 -->
<!-- Title: G Pages: 1 -->
<svg width="985pt" height="610pt"
 viewBox="0.00 0.00 985.25 609.74" xmlns="http://www.w3.org/2000/svg" xmlns:xlink="http://www.w3.org/1999/xlink">
<g id="graph0" class="graph" transform="scale(1 1) rotate(0) translate(4 605.74)">
<title>G</title>
<polygon fill="white" stroke="none" points="-4,4 -4,-605.74 981.25,-605.74 981.25,4 -4,4"/>
<g id="clust1" class="cluster">
<title>cluster_server</title>
<path fill="#f8fafc" stroke="#94a3b8" d="M20,-25.74C20,-25.74 686,-25.74 686,-25.74 692,-25.74 698,-31.74 698,-37.74 698,-37.74 698,-335.74 698,-335.74 698,-341.74 692,-347.74 686,-347.74 686,-347.74 20,-347.74 20,-347.74 14,-347.74 8,-341.74 8,-335.74 8,-335.74 8,-37.74 8,-37.74 8,-31.74 14,-25.74 20,-25.74"/>
<text text-anchor="middle" x="353" y="-334.24" font-family="Helvetica,sans-Serif" font-size="10.00">MCP Server (FastMCP)</text>
</g>
<g id="clust2" class="cluster">
<title>cluster_subtools</title>
<path fill="#f9fafb" stroke="#e5e7eb" d="M554.5,-33.74C554.5,-33.74 678,-33.74 678,-33.74 684,-33.74 690,-39.74 690,-45.74 690,-45.74 690,-308.74 690,-308.74 690,-314.74 684,-320.74 678,-320.74 678,-320.74 554.5,-320.74 554.5,-320.74 548.5,-320.74 542.5,-314.74 542.5,-308.74 542.5,-308.74 542.5,-45.74 542.5,-45.74 542.5,-39.74 548.5,-33.74 554.5,-33.74"/>
<text text-anchor="middle" x="616.25" y="-307.24" font-family="Helvetica,sans-Serif" font-size="10.00">Tools</text>
</g>
<g id="clust3" class="cluster">
<title>cluster_core</title>
<path fill="#f8fafc" stroke="#94a3b8" d="M729,-312.74C729,-312.74 957.25,-312.74 957.25,-312.74 963.25,-312.74 969.25,-318.74 969.25,-324.74 969.25,-324.74 969.25,-371.74 969.25,-371.74 969.25,-377.74 963.25,-383.74 957.25,-383.74 957.25,-383.74 729,-383.74 729,-383.74 723,-383.74 717,-377.74 717,-371.74 717,-371.74 717,-324.74 717,-324.74 717,-318.74 723,-312.74 729,-312.74"/>
<text text-anchor="middle" x="843.12" y="-370.24" font-family="Helvetica,sans-Serif" font-size="10.00">Core + Services</text>
</g>
<g id="clust4" class="cluster">
<title>cluster_ext</title>
<path fill="#f8fafc" stroke="#94a3b8" d="M561.62,-414.74C561.62,-414.74 670.88,-414.74 670.88,-414.74 676.88,-414.74 682.88,-420.74 682.88,-426.74 682.88,-426.74 682.88,-581.74 682.88,-581.74 682.88,-587.74 676.88,-593.74 670.88,-593.74 670.88,-593.74 561.62,-593.74 561.62,-593.74 555.62,-593.74 549.62,-587.74 549.62,-581.74 549.62,-581.74 549.62,-426.74 549.62,-426.74 549.62,-420.74 555.62,-414.74 561.62,-414.74"/>
<text text-anchor="middle" x="616.25" y="-580.24" font-family="Helvetica,sans-Serif" font-size="10.00">External Systems</text>
</g>
<!-- Client -->
<g id="node1" class="node">
<title>Client</title>
<path fill="#dbeafe" stroke="#2563eb" d="M646.75,-404.74C646.75,-404.74 585.75,-404.74 585.75,-404.74 579.75,-404.74 573.75,-398.74 573.75,-392.74 573.75,-392.74 573.75,-378.74 573.75,-378.74 573.75,-372.74 579.75,-366.74 585.75,-366.74 585.75,-366.74 646.75,-366.74 646.75,-366.74 652.75,-366.74 658.75,-372.74 658.75,-378.74 658.75,-378.74 658.75,-392.74 658.75,-392.74 658.75,-398.74 652.75,-404.74 646.75,-404.74"/>
<text text-anchor="middle" x="616.25" y="-387.44" font-family="Helvetica,sans-Serif" font-size="14.00" fill="#0f172a">Client</text>
<text text-anchor="middle" x="616.25" y="-372.44" font-family="Helvetica,sans-Serif" font-size="14.00" fill="#0f172a">IDE / Agent</text>
</g>
<!-- Middleware -->
<g id="node3" class="node">
<title>Middleware</title>
<path fill="#fff6d5" stroke="#a16207" d="M128.38,-320.74C128.38,-320.74 56.88,-320.74 56.88,-320.74 50.87,-320.74 44.88,-314.74 44.88,-308.74 44.88,-308.74 44.88,-294.74 44.88,-294.74 44.88,-288.74 50.88,-282.74 56.88,-282.74 56.88,-282.74 128.38,-282.74 128.38,-282.74 134.38,-282.74 140.38,-288.74 140.38,-294.74 140.38,-294.74 140.38,-308.74 140.38,-308.74 140.38,-314.74 134.38,-320.74 128.38,-320.74"/>
<text text-anchor="middle" x="92.62" y="-303.44" font-family="Helvetica,sans-Serif" font-size="14.00" fill="#3f2d1c">Middleware</text>
<text text-anchor="middle" x="92.62" y="-288.44" font-family="Helvetica,sans-Serif" font-size="14.00" fill="#3f2d1c">Auth • Config</text>
</g>
<!-- Client&#45;&gt;Middleware -->
<g id="edge9" class="edge">
<title>Client&#45;&gt;Middleware</title>
<path fill="none" stroke="#6b7280" stroke-width="1.4" d="M573.28,-378.98C480.2,-363.99 256.36,-327.95 150.68,-310.93"/>
<polygon fill="#6b7280" stroke="#6b7280" stroke-width="1.4" points="151.27,-308.19 142.93,-309.68 150.38,-313.72 151.27,-308.19"/>
<text text-anchor="middle" x="332.12" y="-345.44" font-family="Helvetica,sans-Serif" font-size="14.00">tool call</text>
</g>
<!-- Transport -->
<g id="node2" class="node">
<title>Transport</title>
<path fill="#dcfce7" stroke="#16a34a" d="M157.25,-168.74C157.25,-168.74 28,-168.74 28,-168.74 22,-168.74 16,-162.74 16,-156.74 16,-156.74 16,-142.74 16,-142.74 16,-136.74 22,-130.74 28,-130.74 28,-130.74 157.25,-130.74 157.25,-130.74 163.25,-130.74 169.25,-136.74 169.25,-142.74 169.25,-142.74 169.25,-156.74 169.25,-156.74 169.25,-162.74 163.25,-168.74 157.25,-168.74"/>
<text text-anchor="middle" x="92.62" y="-151.44" font-family="Helvetica,sans-Serif" font-size="14.00" fill="#052e16">Transport</text>
<text text-anchor="middle" x="92.62" y="-136.44" font-family="Helvetica,sans-Serif" font-size="14.00" fill="#052e16">streamable&#45;http • /mcp</text>
</g>
<!-- Router -->
<g id="node4" class="node">
<title>Router</title>
<path fill="#f3e8ff" stroke="#7c3aed" d="M279.25,-307.74C279.25,-307.74 218.25,-307.74 218.25,-307.74 212.25,-307.74 206.25,-301.74 206.25,-295.74 206.25,-295.74 206.25,-283.74 206.25,-283.74 206.25,-277.74 212.25,-271.74 218.25,-271.74 218.25,-271.74 279.25,-271.74 279.25,-271.74 285.25,-271.74 291.25,-277.74 291.25,-283.74 291.25,-283.74 291.25,-295.74 291.25,-295.74 291.25,-301.74 285.25,-307.74 279.25,-307.74"/>
<text text-anchor="middle" x="248.75" y="-283.94" font-family="Helvetica,sans-Serif" font-size="14.00" fill="#2e1065">Tool Router</text>
</g>
<!-- Middleware&#45;&gt;Router -->
<g id="edge1" class="edge">
<title>Middleware&#45;&gt;Router</title>
<path fill="none" stroke="#6b7280" stroke-width="1.4" d="M140.71,-298.08C158.26,-296.71 178.27,-295.15 196.2,-293.75"/>
<polygon fill="#6b7280" stroke="#6b7280" stroke-width="1.4" points="196.05,-296.57 203.81,-293.16 195.62,-290.99 196.05,-296.57"/>
</g>
<!-- assistant -->
<g id="node5" class="node">
<title>assistant</title>
<path fill="#f3e8ff" stroke="#7c3aed" d="M501.5,-239.74C501.5,-239.74 385,-239.74 385,-239.74 379,-239.74 373,-233.74 373,-227.74 373,-227.74 373,-215.74 373,-215.74 373,-209.74 379,-203.74 385,-203.74 385,-203.74 501.5,-203.74 501.5,-203.74 507.5,-203.74 513.5,-209.74 513.5,-215.74 513.5,-215.74 513.5,-227.74 513.5,-227.74 513.5,-233.74 507.5,-239.74 501.5,-239.74"/>
<text text-anchor="middle" x="443.25" y="-215.94" font-family="Helvetica,sans-Serif" font-size="14.00" fill="#2e1065">assistant (Main Tool)</text>
</g>
<!-- Router&#45;&gt;assistant -->
<g id="edge2" class="edge">
<title>Router&#45;&gt;assistant</title>
<path fill="none" stroke="#6b7280" stroke-width="1.4" d="M291.52,-274.99C317.56,-265.79 351.54,-253.78 380.64,-243.5"/>
<polygon fill="#6b7280" stroke="#6b7280" stroke-width="1.4" points="381.29,-246.24 387.9,-240.94 379.43,-240.96 381.29,-246.24"/>
</g>
<!-- Resources -->
<g id="node11" class="node">
<title>Resources</title>
<path fill="#dcfce7" stroke="#16a34a" d="M482.75,-308.74C482.75,-308.74 403.75,-308.74 403.75,-308.74 397.75,-308.74 391.75,-302.74 391.75,-296.74 391.75,-296.74 391.75,-282.74 391.75,-282.74 391.75,-276.74 397.75,-270.74 403.75,-270.74 403.75,-270.74 482.75,-270.74 482.75,-270.74 488.75,-270.74 494.75,-276.74 494.75,-282.74 494.75,-282.74 494.75,-296.74 494.75,-296.74 494.75,-302.74 488.75,-308.74 482.75,-308.74"/>
<text text-anchor="middle" x="443.25" y="-291.44" font-family="Helvetica,sans-Serif" font-size="14.00" fill="#052e16">Resources</text>
<text text-anchor="middle" x="443.25" y="-276.44" font-family="Helvetica,sans-Serif" font-size="14.00" fill="#052e16">prompts • logs</text>
</g>
<!-- Router&#45;&gt;Resources -->
<g id="edge3" class="edge">
<title>Router&#45;&gt;Resources</title>
<path fill="none" stroke="#6b7280" stroke-width="1.4" d="M291.52,-289.74C317.73,-289.74 351.98,-289.74 381.21,-289.74"/>
<polygon fill="#6b7280" stroke="#6b7280" stroke-width="1.4" points="381.2,-292.54 389.2,-289.74 381.2,-286.94 381.2,-292.54"/>
</g>
<!-- assistant&#45;&gt;Client -->
<g id="edge24" class="edge">
<title>assistant&#45;&gt;Client</title>
<path fill="none" stroke="#6b7280" stroke-width="1.4" d="M488.95,-240.12C498.27,-245.81 507.17,-252.96 513.5,-261.74 536.84,-294.13 506.3,-318.78 531.5,-349.74 539.94,-360.11 551.93,-367.55 564.2,-372.88"/>
<polygon fill="#6b7280" stroke="#6b7280" stroke-width="1.4" points="563.15,-375.47 571.62,-375.77 565.19,-370.25 563.15,-375.47"/>
</g>
<!-- FS -->
<g id="node6" class="node">
<title>FS</title>
<path fill="#fff6d5" stroke="#a16207" d="M649.75,-239.74C649.75,-239.74 582.75,-239.74 582.75,-239.74 576.75,-239.74 570.75,-233.74 570.75,-227.74 570.75,-227.74 570.75,-215.74 570.75,-215.74 570.75,-209.74 576.75,-203.74 582.75,-203.74 582.75,-203.74 649.75,-203.74 649.75,-203.74 655.75,-203.74 661.75,-209.74 661.75,-215.74 661.75,-215.74 661.75,-227.74 661.75,-227.74 661.75,-233.74 655.75,-239.74 649.75,-239.74"/>
<text text-anchor="middle" x="616.25" y="-215.94" font-family="Helvetica,sans-Serif" font-size="14.00" fill="#3f2d1c">file_discover</text>
</g>
<!-- assistant&#45;&gt;FS -->
<g id="edge4" class="edge">
<title>assistant&#45;&gt;FS</title>
<path fill="none" stroke="#9ca3af" stroke-width="1.4" stroke-dasharray="5,2" d="M513.8,-221.74C529.28,-221.74 545.48,-221.74 560.27,-221.74"/>
<polygon fill="#9ca3af" stroke="#9ca3af" stroke-width="1.4" points="560.15,-224.54 568.15,-221.74 560.15,-218.94 560.15,-224.54"/>
</g>
<!-- KG -->
<g id="node7" class="node">
<title>KG</title>
<path fill="#fff6d5" stroke="#a16207" d="M670,-293.74C670,-293.74 562.5,-293.74 562.5,-293.74 556.5,-293.74 550.5,-287.74 550.5,-281.74 550.5,-281.74 550.5,-269.74 550.5,-269.74 550.5,-263.74 556.5,-257.74 562.5,-257.74 562.5,-257.74 670,-257.74 670,-257.74 676,-257.74 682,-263.74 682,-269.74 682,-269.74 682,-281.74 682,-281.74 682,-287.74 676,-293.74 670,-293.74"/>
<text text-anchor="middle" x="616.25" y="-269.94" font-family="Helvetica,sans-Serif" font-size="14.00" fill="#3f2d1c">keyword_generator</text>
</g>
<!-- assistant&#45;&gt;KG -->
<g id="edge5" class="edge">
<title>assistant&#45;&gt;KG</title>
<path fill="none" stroke="#9ca3af" stroke-width="1.4" stroke-dasharray="5,2" d="M502.62,-240.17C516.99,-244.71 532.49,-249.61 547.27,-254.27"/>
<polygon fill="#9ca3af" stroke="#9ca3af" stroke-width="1.4" points="546.36,-256.92 554.83,-256.66 548.05,-251.58 546.36,-256.92"/>
</g>
<!-- RET -->
<g id="node8" class="node">
<title>RET</title>
<path fill="#fff6d5" stroke="#a16207" d="M637,-77.74C637,-77.74 595.5,-77.74 595.5,-77.74 589.5,-77.74 583.5,-71.74 583.5,-65.74 583.5,-65.74 583.5,-53.74 583.5,-53.74 583.5,-47.74 589.5,-41.74 595.5,-41.74 595.5,-41.74 637,-41.74 637,-41.74 643,-41.74 649,-47.74 649,-53.74 649,-53.74 649,-65.74 649,-65.74 649,-71.74 643,-77.74 637,-77.74"/>
<text text-anchor="middle" x="616.25" y="-53.94" font-family="Helvetica,sans-Serif" font-size="14.00" fill="#3f2d1c">retriever</text>
</g>
<!-- assistant&#45;&gt;RET -->
<g id="edge6" class="edge">
<title>assistant&#45;&gt;RET</title>
<path fill="none" stroke="#9ca3af" stroke-width="1.4" stroke-dasharray="5,2" d="M453.11,-203.36C467.83,-174.6 499.99,-118.96 542.5,-86.74 551.72,-79.76 562.93,-74.42 573.77,-70.41"/>
<polygon fill="#9ca3af" stroke="#9ca3af" stroke-width="1.4" points="574.46,-73.13 581.14,-67.9 572.66,-67.83 574.46,-73.13"/>
</g>
<!-- FL -->
<g id="node9" class="node">
<title>FL</title>
<path fill="#fff6d5" stroke="#a16207" d="M638.88,-131.74C638.88,-131.74 593.62,-131.74 593.62,-131.74 587.62,-131.74 581.62,-125.74 581.62,-119.74 581.62,-119.74 581.62,-107.74 581.62,-107.74 581.62,-101.74 587.62,-95.74 593.62,-95.74 593.62,-95.74 638.88,-95.74 638.88,-95.74 644.88,-95.74 650.88,-101.74 650.88,-107.74 650.88,-107.74 650.88,-119.74 650.88,-119.74 650.88,-125.74 644.88,-131.74 638.88,-131.74"/>
<text text-anchor="middle" x="616.25" y="-107.94" font-family="Helvetica,sans-Serif" font-size="14.00" fill="#3f2d1c">file_lister</text>
</g>
<!-- assistant&#45;&gt;FL -->
<g id="edge7" class="edge">
<title>assistant&#45;&gt;FL</title>
<path fill="none" stroke="#9ca3af" stroke-width="1.4" stroke-dasharray="5,2" d="M462.41,-203.56C481.13,-185.62 511.85,-158.39 542.5,-140.74 551.61,-135.49 561.93,-130.94 571.87,-127.14"/>
<polygon fill="#9ca3af" stroke="#9ca3af" stroke-width="1.4" points="572.69,-129.82 579.25,-124.45 570.77,-124.56 572.69,-129.82"/>
</g>
<!-- FC -->
<g id="node10" class="node">
<title>FC</title>
<path fill="#fff6d5" stroke="#a16207" d="M641.12,-185.74C641.12,-185.74 591.38,-185.74 591.38,-185.74 585.38,-185.74 579.38,-179.74 579.38,-173.74 579.38,-173.74 579.38,-161.74 579.38,-161.74 579.38,-155.74 585.38,-149.74 591.38,-149.74 591.38,-149.74 641.12,-149.74 641.12,-149.74 647.12,-149.74 653.12,-155.74 653.12,-161.74 653.12,-161.74 653.12,-173.74 653.12,-173.74 653.12,-179.74 647.12,-185.74 641.12,-185.74"/>
<text text-anchor="middle" x="616.25" y="-161.94" font-family="Helvetica,sans-Serif" font-size="14.00" fill="#3f2d1c">file_count</text>
</g>
<!-- assistant&#45;&gt;FC -->
<g id="edge8" class="edge">
<title>assistant&#45;&gt;FC</title>
<path fill="none" stroke="#9ca3af" stroke-width="1.4" stroke-dasharray="5,2" d="M502.62,-203.31C524.5,-196.4 549.03,-188.65 569.6,-182.16"/>
<polygon fill="#9ca3af" stroke="#9ca3af" stroke-width="1.4" points="570.24,-184.89 577.03,-179.81 568.55,-179.55 570.24,-184.89"/>
</g>
<!-- Service -->
<g id="node12" class="node">
<title>Service</title>
<path fill="#dcfce7" stroke="#16a34a" d="M811.5,-356.74C811.5,-356.74 737,-356.74 737,-356.74 731,-356.74 725,-350.74 725,-344.74 725,-344.74 725,-332.74 725,-332.74 725,-326.74 731,-320.74 737,-320.74 737,-320.74 811.5,-320.74 811.5,-320.74 817.5,-320.74 823.5,-326.74 823.5,-332.74 823.5,-332.74 823.5,-344.74 823.5,-344.74 823.5,-350.74 817.5,-356.74 811.5,-356.74"/>
<text text-anchor="middle" x="774.25" y="-332.94" font-family="Helvetica,sans-Serif" font-size="14.00" fill="#052e16">Service Layer</text>
</g>
<!-- assistant&#45;&gt;Service -->
<g id="edge10" class="edge">
<title>assistant&#45;&gt;Service</title>
<path fill="none" stroke="#6b7280" stroke-width="1.4" d="M447.18,-203.51C454.7,-163.55 478.77,-68.72 542.5,-29.74 601.46,6.32 643.66,12.96 698,-29.74 742.39,-64.62 763.88,-240.96 770.73,-310.49"/>
<polygon fill="#6b7280" stroke="#6b7280" stroke-width="1.4" points="767.92,-310.52 771.47,-318.21 773.49,-309.98 767.92,-310.52"/>
</g>
<!-- FS&#45;&gt;Service -->
<g id="edge13" class="edge">
<title>FS&#45;&gt;Service</title>
<path fill="none" stroke="#6b7280" stroke-width="1.4" d="M662.05,-231.89C674.35,-235.93 687.25,-241.41 698,-248.74 722.33,-265.34 743.18,-291.9 756.73,-311.87"/>
<polygon fill="#6b7280" stroke="#6b7280" stroke-width="1.4" points="754.34,-313.34 761.08,-318.49 759.02,-310.26 754.34,-313.34"/>
</g>
<!-- KG&#45;&gt;Service -->
<g id="edge14" class="edge">
<title>KG&#45;&gt;Service</title>
<path fill="none" stroke="#6b7280" stroke-width="1.4" d="M682.48,-292.09C687.78,-293.85 693.01,-295.74 698,-297.74 710.32,-302.7 723.19,-309.18 734.74,-315.52"/>
<polygon fill="#6b7280" stroke="#6b7280" stroke-width="1.4" points="733.09,-317.81 741.43,-319.28 735.83,-312.92 733.09,-317.81"/>
</g>
<!-- RET&#45;&gt;Service -->
<g id="edge15" class="edge">
<title>RET&#45;&gt;Service</title>
<path fill="none" stroke="#6b7280" stroke-width="1.4" d="M649.35,-63.37C665.91,-66.83 685.25,-73.57 698,-86.74 758.63,-149.37 770.68,-258.75 772.89,-310.31"/>
<polygon fill="#6b7280" stroke="#6b7280" stroke-width="1.4" points="770.09,-310.37 773.15,-318.28 775.69,-310.19 770.09,-310.37"/>
</g>
<!-- FL&#45;&gt;Service -->
<g id="edge16" class="edge">
<title>FL&#45;&gt;Service</title>
<path fill="none" stroke="#6b7280" stroke-width="1.4" d="M650.98,-118.19C666.97,-121.87 685.31,-128.56 698,-140.74 746.29,-187.12 763.96,-267.68 770.13,-310.34"/>
<polygon fill="#6b7280" stroke="#6b7280" stroke-width="1.4" points="767.35,-310.67 771.18,-318.23 772.9,-309.93 767.35,-310.67"/>
</g>
<!-- FC&#45;&gt;Service -->
<g id="edge17" class="edge">
<title>FC&#45;&gt;Service</title>
<path fill="none" stroke="#6b7280" stroke-width="1.4" d="M653.6,-173.67C668.67,-177.61 685.51,-184.1 698,-194.74 734.38,-225.75 755.57,-278.81 765.74,-311.14"/>
<polygon fill="#6b7280" stroke="#6b7280" stroke-width="1.4" points="762.95,-311.57 767.93,-318.43 768.31,-309.96 762.95,-311.57"/>
</g>
<!-- Service&#45;&gt;assistant -->
<g id="edge23" class="edge">
<title>Service&#45;&gt;assistant</title>
<path fill="none" stroke="#6b7280" stroke-width="1.4" d="M724.93,-349.24C674.79,-357.28 596.33,-361.57 542.5,-324.74 517.06,-307.34 534.27,-284.52 513.5,-261.74 507.92,-255.62 501.18,-250.18 494.12,-245.44"/>
<polygon fill="#6b7280" stroke="#6b7280" stroke-width="1.4" points="495.81,-243.19 487.54,-241.31 492.83,-247.93 495.81,-243.19"/>
</g>
<!-- Core -->
<g id="node13" class="node">
<title>Core</title>
<path fill="#e6f4ff" stroke="#2563eb" d="M949.25,-356.74C949.25,-356.74 872.5,-356.74 872.5,-356.74 866.5,-356.74 860.5,-350.74 860.5,-344.74 860.5,-344.74 860.5,-332.74 860.5,-332.74 860.5,-326.74 866.5,-320.74 872.5,-320.74 872.5,-320.74 949.25,-320.74 949.25,-320.74 955.25,-320.74 961.25,-326.74 961.25,-332.74 961.25,-332.74 961.25,-344.74 961.25,-344.74 961.25,-350.74 955.25,-356.74 949.25,-356.74"/>
<text text-anchor="middle" x="910.88" y="-332.94" font-family="Helvetica,sans-Serif" font-size="14.00" fill="#0f172a">Core Modules</text>
</g>
<!-- Service&#45;&gt;Core -->
<g id="edge11" class="edge">
<title>Service&#45;&gt;Core</title>
<path fill="none" stroke="#6b7280" stroke-width="1.4" d="M823.85,-338.74C832.5,-338.74 841.59,-338.74 850.5,-338.74"/>
<polygon fill="#6b7280" stroke="#6b7280" stroke-width="1.4" points="850.32,-341.54 858.32,-338.74 850.32,-335.94 850.32,-341.54"/>
</g>
<!-- KB -->
<g id="node14" class="node">
<title>KB</title>
<path fill="#e6f4ff" stroke="#2563eb" d="M662.88,-566.74C662.88,-566.74 569.62,-566.74 569.62,-566.74 563.62,-566.74 557.62,-560.74 557.62,-554.74 557.62,-554.74 557.62,-542.74 557.62,-542.74 557.62,-536.74 563.62,-530.74 569.62,-530.74 569.62,-530.74 662.88,-530.74 662.88,-530.74 668.88,-530.74 674.88,-536.74 674.88,-542.74 674.88,-542.74 674.88,-554.74 674.88,-554.74 674.88,-560.74 668.88,-566.74 662.88,-566.74"/>
<text text-anchor="middle" x="616.25" y="-542.94" font-family="Helvetica,sans-Serif" font-size="14.00" fill="#0f172a">Knowledge Base</text>
</g>
<!-- Core&#45;&gt;KB -->
<g id="edge12" class="edge">
<title>Core&#45;&gt;KB</title>
<path fill="none" stroke="#6b7280" stroke-width="1.4" d="M898.98,-356.89C884.04,-380.78 855.38,-423.21 823.5,-452.74 778.33,-494.59 763.7,-503.71 707,-527.74 699.96,-530.73 692.41,-533.33 684.8,-535.59"/>
<polygon fill="#6b7280" stroke="#6b7280" stroke-width="1.4" points="684.16,-532.86 677.2,-537.7 685.66,-538.26 684.16,-532.86"/>
</g>
<!-- LLM -->
<g id="node15" class="node">
<title>LLM</title>
<path fill="#e6f4ff" stroke="#2563eb" d="M638.5,-458.74C638.5,-458.74 594,-458.74 594,-458.74 588,-458.74 582,-452.74 582,-446.74 582,-446.74 582,-434.74 582,-434.74 582,-428.74 588,-422.74 594,-422.74 594,-422.74 638.5,-422.74 638.5,-422.74 644.5,-422.74 650.5,-428.74 650.5,-434.74 650.5,-434.74 650.5,-446.74 650.5,-446.74 650.5,-452.74 644.5,-458.74 638.5,-458.74"/>
<text text-anchor="middle" x="616.25" y="-434.94" font-family="Helvetica,sans-Serif" font-size="14.00" fill="#0f172a">LLM API</text>
</g>
<!-- Core&#45;&gt;LLM -->
<g id="edge18" class="edge">
<title>Core&#45;&gt;LLM</title>
<path fill="none" stroke="#6b7280" stroke-width="1.4" d="M862.62,-357.15C821.69,-372.88 760.77,-395.73 707,-413.74 691.81,-418.83 675.03,-423.99 660.13,-428.43"/>
<polygon fill="#6b7280" stroke="#6b7280" stroke-width="1.4" points="659.56,-425.68 652.68,-430.63 661.15,-431.05 659.56,-425.68"/>
</g>
<!-- Rerank -->
<g id="node16" class="node">
<title>Rerank</title>
<path fill="#e6f4ff" stroke="#2563eb" d="M652.75,-512.74C652.75,-512.74 579.75,-512.74 579.75,-512.74 573.75,-512.74 567.75,-506.74 567.75,-500.74 567.75,-500.74 567.75,-488.74 567.75,-488.74 567.75,-482.74 573.75,-476.74 579.75,-476.74 579.75,-476.74 652.75,-476.74 652.75,-476.74 658.75,-476.74 664.75,-482.74 664.75,-488.74 664.75,-488.74 664.75,-500.74 664.75,-500.74 664.75,-506.74 658.75,-512.74 652.75,-512.74"/>
<text text-anchor="middle" x="616.25" y="-488.94" font-family="Helvetica,sans-Serif" font-size="14.00" fill="#0f172a">Reranker API</text>
</g>
<!-- Core&#45;&gt;Rerank -->
<g id="edge19" class="edge">
<title>Core&#45;&gt;Rerank</title>
<path fill="none" stroke="#6b7280" stroke-width="1.4" d="M888.76,-357.16C853.63,-386.73 779.81,-444.47 707,-473.74 696.78,-477.85 685.57,-481.27 674.63,-484.07"/>
<polygon fill="#6b7280" stroke="#6b7280" stroke-width="1.4" points="674.3,-481.27 667.19,-485.87 675.62,-486.71 674.3,-481.27"/>
</g>
<!-- KB&#45;&gt;Service -->
<g id="edge20" class="edge">
<title>KB&#45;&gt;Service</title>
<path fill="none" stroke="#6b7280" stroke-width="1.4" d="M674.96,-536.33C683.38,-532.65 691.41,-527.9 698,-521.74 742.92,-479.75 761.81,-407.01 769.11,-367.05"/>
<polygon fill="#6b7280" stroke="#6b7280" stroke-width="1.4" points="771.86,-367.62 770.45,-359.26 766.34,-366.67 771.86,-367.62"/>
</g>
<!-- LLM&#45;&gt;Service -->
<g id="edge21" class="edge">
<title>LLM&#45;&gt;Service</title>
<path fill="none" stroke="#6b7280" stroke-width="1.4" d="M650.99,-433.21C666.08,-428.92 683.66,-422.6 698,-413.74 719.04,-400.75 738.68,-380.8 752.62,-364.74"/>
<polygon fill="#6b7280" stroke="#6b7280" stroke-width="1.4" points="754.58,-366.75 757.61,-358.83 750.31,-363.13 754.58,-366.75"/>
</g>
<!-- Rerank&#45;&gt;Service -->
<g id="edge22" class="edge">
<title>Rerank&#45;&gt;Service</title>
<path fill="none" stroke="#6b7280" stroke-width="1.4" d="M665,-485.02C676.65,-481.04 688.48,-475.48 698,-467.74 731.07,-440.85 752.7,-395.29 763.95,-366.13"/>
<polygon fill="#6b7280" stroke="#6b7280" stroke-width="1.4" points="766.47,-367.39 766.63,-358.91 761.22,-365.44 766.47,-367.39"/>
</g>
</g>
</svg>
