<?xml version="1.0" encoding="UTF-8" standalone="no"?>
<!DOCTYPE svg PUBLIC "-//W3C//DTD SVG 1.1//EN"
 "http://www.w3.org/Graphics/SVG/1.1/DTD/svg11.dtd">
<!-- Generated by graphviz version 12.2.1 (20241206.2353)
 -->
<!-- Title: G Pages: 1 -->
<svg width="2030pt" height="373pt"
 viewBox="0.00 0.00 2030.28 373.45" xmlns="http://www.w3.org/2000/svg" xmlns:xlink="http://www.w3.org/1999/xlink">
<g id="graph0" class="graph" transform="scale(1 1) rotate(0) translate(4 369.45)">
<title>G</title>
<polygon fill="white" stroke="none" points="-4,4 -4,-369.45 2026.28,-369.45 2026.28,4 -4,4"/>
<g id="clust1" class="cluster">
<title>cluster_p1</title>
<path fill="#f8fafc" stroke="#94a3b8" d="M169.5,-215.45C169.5,-215.45 1037.75,-215.45 1037.75,-215.45 1043.75,-215.45 1049.75,-221.45 1049.75,-227.45 1049.75,-227.45 1049.75,-298.45 1049.75,-298.45 1049.75,-304.45 1043.75,-310.45 1037.75,-310.45 1037.75,-310.45 169.5,-310.45 169.5,-310.45 163.5,-310.45 157.5,-304.45 157.5,-298.45 157.5,-298.45 157.5,-227.45 157.5,-227.45 157.5,-221.45 163.5,-215.45 169.5,-215.45"/>
<text text-anchor="start" x="530.5" y="-287.45" font-family="Helvetica,sans-Serif" font-size="20.00">1. File Discovery</text>
</g>
<g id="clust2" class="cluster">
<title>cluster_p2</title>
<path fill="#f8fafc" stroke="#94a3b8" d="M1165.76,-222.45C1165.76,-222.45 1655.15,-222.45 1655.15,-222.45 1661.15,-222.45 1667.15,-228.45 1667.15,-234.45 1667.15,-234.45 1667.15,-345.45 1667.15,-345.45 1667.15,-351.45 1661.15,-357.45 1655.15,-357.45 1655.15,-357.45 1165.76,-357.45 1165.76,-357.45 1159.76,-357.45 1153.76,-351.45 1153.76,-345.45 1153.76,-345.45 1153.76,-234.45 1153.76,-234.45 1153.76,-228.45 1159.76,-222.45 1165.76,-222.45"/>
<text text-anchor="start" x="1279.21" y="-334.45" font-family="Helvetica,sans-Serif" font-size="20.00">2. Multi&#45;variant Chunk Search</text>
</g>
<g id="clust3" class="cluster">
<title>cluster_p3</title>
<path fill="#f8fafc" stroke="#94a3b8" d="M1771.53,-202.45C1771.53,-202.45 2002.28,-202.45 2002.28,-202.45 2008.28,-202.45 2014.28,-208.45 2014.28,-214.45 2014.28,-214.45 2014.28,-271.45 2014.28,-271.45 2014.28,-277.45 2008.28,-283.45 2002.28,-283.45 2002.28,-283.45 1771.53,-283.45 1771.53,-283.45 1765.53,-283.45 1759.53,-277.45 1759.53,-271.45 1759.53,-271.45 1759.53,-214.45 1759.53,-214.45 1759.53,-208.45 1765.53,-202.45 1771.53,-202.45"/>
<text text-anchor="start" x="1769.53" y="-260.45" font-family="Helvetica,sans-Serif" font-size="20.00">3. Information Aggregation</text>
</g>
<g id="clust4" class="cluster">
<title>cluster_p4</title>
<path fill="#fffbeb" stroke="#f59e0b" d="M1451.03,-133.45C1451.03,-133.45 1687.03,-133.45 1687.03,-133.45 1693.03,-133.45 1699.03,-139.45 1699.03,-145.45 1699.03,-145.45 1699.03,-202.45 1699.03,-202.45 1699.03,-208.45 1693.03,-214.45 1687.03,-214.45 1687.03,-214.45 1451.03,-214.45 1451.03,-214.45 1445.03,-214.45 1439.03,-208.45 1439.03,-202.45 1439.03,-202.45 1439.03,-145.45 1439.03,-145.45 1439.03,-139.45 1445.03,-133.45 1451.03,-133.45"/>
<text text-anchor="start" x="1513.9" y="-191.45" font-family="Helvetica,sans-Serif" font-size="20.00">4. Reflection</text>
</g>
<!-- Q -->
<g id="node1" class="node">
<title>Q</title>
<path fill="#dbeafe" stroke="#2563eb" d="M116.5,-266.45C116.5,-266.45 12,-266.45 12,-266.45 6,-266.45 0,-260.45 0,-254.45 0,-254.45 0,-242.45 0,-242.45 0,-236.45 6,-230.45 12,-230.45 12,-230.45 116.5,-230.45 116.5,-230.45 122.5,-230.45 128.5,-236.45 128.5,-242.45 128.5,-242.45 128.5,-254.45 128.5,-254.45 128.5,-260.45 122.5,-266.45 116.5,-266.45"/>
<text text-anchor="middle" x="64.25" y="-238.8" font-family="Helvetica,sans-Serif" font-size="22.00" fill="#0f172a">User Query</text>
</g>
<!-- INT -->
<g id="node2" class="node">
<title>INT</title>
<path fill="#fff6d5" stroke="#a16207" d="M387,-273.45C387,-273.45 177.5,-273.45 177.5,-273.45 171.5,-273.45 165.5,-267.45 165.5,-261.45 165.5,-261.45 165.5,-235.45 165.5,-235.45 165.5,-229.45 171.5,-223.45 177.5,-223.45 177.5,-223.45 387,-223.45 387,-223.45 393,-223.45 399,-229.45 399,-235.45 399,-235.45 399,-261.45 399,-261.45 399,-267.45 393,-273.45 387,-273.45"/>
<text text-anchor="middle" x="282.25" y="-250.45" font-family="Helvetica,sans-Serif" font-size="20.00" fill="#3f2d1c">Query Intent Detector</text>
<text text-anchor="middle" x="282.25" y="-229.45" font-family="Helvetica,sans-Serif" font-size="20.00" fill="#3f2d1c">(extract entities, domain)</text>
</g>
<!-- Q&#45;&gt;INT -->
<g id="edge6" class="edge">
<title>Q&#45;&gt;INT</title>
<path fill="none" stroke="#6b7280" stroke-width="1.4" d="M128.89,-248.45C137.39,-248.45 146.33,-248.45 155.45,-248.45"/>
<polygon fill="#6b7280" stroke="#6b7280" stroke-width="1.4" points="155.28,-251.25 163.28,-248.45 155.28,-245.65 155.28,-251.25"/>
</g>
<!-- QR -->
<g id="node3" class="node">
<title>QR</title>
<path fill="#f3e8ff" stroke="#7c3aed" d="M627.5,-266.45C627.5,-266.45 448,-266.45 448,-266.45 442,-266.45 436,-260.45 436,-254.45 436,-254.45 436,-242.45 436,-242.45 436,-236.45 442,-230.45 448,-230.45 448,-230.45 627.5,-230.45 627.5,-230.45 633.5,-230.45 639.5,-236.45 639.5,-242.45 639.5,-242.45 639.5,-254.45 639.5,-254.45 639.5,-260.45 633.5,-266.45 627.5,-266.45"/>
<text text-anchor="middle" x="537.75" y="-239.95" font-family="Helvetica,sans-Serif" font-size="20.00" fill="#2e1065">LLM Query Rewriting</text>
</g>
<!-- INT&#45;&gt;QR -->
<g id="edge1" class="edge">
<title>INT&#45;&gt;QR</title>
<path fill="none" stroke="#6b7280" stroke-width="1.4" d="M399.24,-248.45C408.05,-248.45 416.93,-248.45 425.71,-248.45"/>
<polygon fill="#6b7280" stroke="#6b7280" stroke-width="1.4" points="425.45,-251.25 433.45,-248.45 425.45,-245.65 425.45,-251.25"/>
</g>
<!-- SR -->
<g id="node4" class="node">
<title>SR</title>
<path fill="#e6f4ff" stroke="#2563eb" d="M847.75,-266.45C847.75,-266.45 688.5,-266.45 688.5,-266.45 682.5,-266.45 676.5,-260.45 676.5,-254.45 676.5,-254.45 676.5,-242.45 676.5,-242.45 676.5,-236.45 682.5,-230.45 688.5,-230.45 688.5,-230.45 847.75,-230.45 847.75,-230.45 853.75,-230.45 859.75,-236.45 859.75,-242.45 859.75,-242.45 859.75,-254.45 859.75,-254.45 859.75,-260.45 853.75,-266.45 847.75,-266.45"/>
<text text-anchor="middle" x="768.12" y="-239.95" font-family="Helvetica,sans-Serif" font-size="20.00" fill="#0f172a">Semantic Retrieval</text>
</g>
<!-- QR&#45;&gt;SR -->
<g id="edge2" class="edge">
<title>QR&#45;&gt;SR</title>
<path fill="none" stroke="#6b7280" stroke-width="1.4" d="M639.92,-248.45C648.58,-248.45 657.34,-248.45 666,-248.45"/>
<polygon fill="#6b7280" stroke="#6b7280" stroke-width="1.4" points="665.99,-251.25 673.99,-248.45 665.99,-245.65 665.99,-251.25"/>
</g>
<!-- FR -->
<g id="node5" class="node">
<title>FR</title>
<path fill="#e0f2fe" stroke="#0ea5e9" d="M1029.75,-266.45C1029.75,-266.45 908.75,-266.45 908.75,-266.45 902.75,-266.45 896.75,-260.45 896.75,-254.45 896.75,-254.45 896.75,-242.45 896.75,-242.45 896.75,-236.45 902.75,-230.45 908.75,-230.45 908.75,-230.45 1029.75,-230.45 1029.75,-230.45 1035.75,-230.45 1041.75,-236.45 1041.75,-242.45 1041.75,-242.45 1041.75,-254.45 1041.75,-254.45 1041.75,-260.45 1035.75,-266.45 1029.75,-266.45"/>
<text text-anchor="middle" x="969.25" y="-239.95" font-family="Helvetica,sans-Serif" font-size="20.00" fill="#0c4a6e">File Reranking</text>
</g>
<!-- SR&#45;&gt;FR -->
<g id="edge3" class="edge">
<title>SR&#45;&gt;FR</title>
<path fill="none" stroke="#6b7280" stroke-width="1.4" d="M860.24,-248.45C868.92,-248.45 877.69,-248.45 886.29,-248.45"/>
<polygon fill="#6b7280" stroke="#6b7280" stroke-width="1.4" points="886.15,-251.25 894.15,-248.45 886.15,-245.65 886.15,-251.25"/>
</g>
<!-- NA -->
<g id="node6" class="node">
<title>NA</title>
<path fill="#e6f4ff" stroke="#2563eb" d="M1300.76,-320.45C1300.76,-320.45 1188.01,-320.45 1188.01,-320.45 1182.01,-320.45 1176.01,-314.45 1176.01,-308.45 1176.01,-308.45 1176.01,-296.45 1176.01,-296.45 1176.01,-290.45 1182.01,-284.45 1188.01,-284.45 1188.01,-284.45 1300.76,-284.45 1300.76,-284.45 1306.76,-284.45 1312.76,-290.45 1312.76,-296.45 1312.76,-296.45 1312.76,-308.45 1312.76,-308.45 1312.76,-314.45 1306.76,-320.45 1300.76,-320.45"/>
<text text-anchor="middle" x="1244.39" y="-293.95" font-family="Helvetica,sans-Serif" font-size="20.00" fill="#0f172a">Direct Search</text>
</g>
<!-- FR&#45;&gt;NA -->
<g id="edge7" class="edge">
<title>FR&#45;&gt;NA</title>
<path fill="none" stroke="#6b7280" stroke-width="1.4" d="M1040.97,-266.93C1053.52,-269.96 1066.49,-272.93 1078.75,-275.45 1107.05,-281.29 1138.29,-286.67 1165.89,-291.07"/>
<polygon fill="#6b7280" stroke="#6b7280" stroke-width="1.4" points="1165.44,-293.84 1173.78,-292.32 1166.32,-288.31 1165.44,-293.84"/>
</g>
<!-- BQ -->
<g id="node7" class="node">
<title>BQ</title>
<path fill="#fff6d5" stroke="#a16207" d="M1315.01,-266.45C1315.01,-266.45 1173.76,-266.45 1173.76,-266.45 1167.76,-266.45 1161.76,-260.45 1161.76,-254.45 1161.76,-254.45 1161.76,-242.45 1161.76,-242.45 1161.76,-236.45 1167.76,-230.45 1173.76,-230.45 1173.76,-230.45 1315.01,-230.45 1315.01,-230.45 1321.01,-230.45 1327.01,-236.45 1327.01,-242.45 1327.01,-242.45 1327.01,-254.45 1327.01,-254.45 1327.01,-260.45 1321.01,-266.45 1315.01,-266.45"/>
<text text-anchor="middle" x="1244.39" y="-239.95" font-family="Helvetica,sans-Serif" font-size="20.00" fill="#3f2d1c">Boosted Queries</text>
</g>
<!-- FR&#45;&gt;BQ -->
<g id="edge8" class="edge">
<title>FR&#45;&gt;BQ</title>
<path fill="none" stroke="#6b7280" stroke-width="1.4" d="M1042.01,-248.45C1075.53,-248.45 1115.83,-248.45 1151.54,-248.45"/>
<polygon fill="#6b7280" stroke="#6b7280" stroke-width="1.4" points="1151.37,-251.25 1159.37,-248.45 1151.37,-245.65 1151.37,-251.25"/>
</g>
<!-- OUT -->
<g id="node12" class="node">
<title>OUT</title>
<ellipse fill="#dcfce7" stroke="#16a34a" cx="1244.39" cy="-191.45" rx="165.64" ry="20.51"/>
<text text-anchor="middle" x="1244.39" y="-182.95" font-family="Helvetica,sans-Serif" font-size="20.00" fill="#052e16">Ranked files: (file, score)</text>
</g>
<!-- FR&#45;&gt;OUT -->
<g id="edge13" class="edge">
<title>FR&#45;&gt;OUT</title>
<path fill="none" stroke="#6b7280" stroke-width="1.4" d="M1032.5,-230.01C1047.56,-225.89 1063.67,-221.77 1078.75,-218.45 1094.24,-215.05 1110.64,-211.87 1126.84,-208.97"/>
<polygon fill="#6b7280" stroke="#6b7280" stroke-width="1.4" points="1126.87,-211.81 1134.27,-207.66 1125.9,-206.29 1126.87,-211.81"/>
</g>
<!-- CAND -->
<g id="node8" class="node">
<title>CAND</title>
<path fill="#f3e8ff" stroke="#7c3aed" d="M1647.15,-266.45C1647.15,-266.45 1490.9,-266.45 1490.9,-266.45 1484.9,-266.45 1478.9,-260.45 1478.9,-254.45 1478.9,-254.45 1478.9,-242.45 1478.9,-242.45 1478.9,-236.45 1484.9,-230.45 1490.9,-230.45 1490.9,-230.45 1647.15,-230.45 1647.15,-230.45 1653.15,-230.45 1659.15,-236.45 1659.15,-242.45 1659.15,-242.45 1659.15,-254.45 1659.15,-254.45 1659.15,-260.45 1653.15,-266.45 1647.15,-266.45"/>
<text text-anchor="middle" x="1569.03" y="-239.95" font-family="Helvetica,sans-Serif" font-size="20.00" fill="#2e1065">Candidate Chunks</text>
</g>
<!-- NA&#45;&gt;CAND -->
<g id="edge4" class="edge">
<title>NA&#45;&gt;CAND</title>
<path fill="none" stroke="#6b7280" stroke-width="1.4" d="M1313.09,-291.46C1342.84,-286.6 1378.18,-280.79 1410.03,-275.45 1429.05,-272.27 1449.35,-268.83 1468.84,-265.51"/>
<polygon fill="#6b7280" stroke="#6b7280" stroke-width="1.4" points="1469.14,-268.3 1476.55,-264.19 1468.19,-262.78 1469.14,-268.3"/>
</g>
<!-- BQ&#45;&gt;CAND -->
<g id="edge5" class="edge">
<title>BQ&#45;&gt;CAND</title>
<path fill="none" stroke="#6b7280" stroke-width="1.4" d="M1327.22,-248.45C1370.27,-248.45 1423.38,-248.45 1468.77,-248.45"/>
<polygon fill="#6b7280" stroke="#6b7280" stroke-width="1.4" points="1468.51,-251.25 1476.51,-248.45 1468.51,-245.65 1468.51,-251.25"/>
</g>
<!-- AGG -->
<g id="node9" class="node">
<title>AGG</title>
<path fill="#e0f2fe" stroke="#0ea5e9" d="M1994.28,-246.45C1994.28,-246.45 1779.53,-246.45 1779.53,-246.45 1773.53,-246.45 1767.53,-240.45 1767.53,-234.45 1767.53,-234.45 1767.53,-222.45 1767.53,-222.45 1767.53,-216.45 1773.53,-210.45 1779.53,-210.45 1779.53,-210.45 1994.28,-210.45 1994.28,-210.45 2000.28,-210.45 2006.28,-216.45 2006.28,-222.45 2006.28,-222.45 2006.28,-234.45 2006.28,-234.45 2006.28,-240.45 2000.28,-246.45 1994.28,-246.45"/>
<text text-anchor="middle" x="1886.9" y="-219.95" font-family="Helvetica,sans-Serif" font-size="20.00" fill="#0c4a6e">Aggregate and Compose</text>
</g>
<!-- CAND&#45;&gt;AGG -->
<g id="edge9" class="edge">
<title>CAND&#45;&gt;AGG</title>
<path fill="none" stroke="#6b7280" stroke-width="1.4" d="M1659.28,-242.8C1689.75,-240.87 1724.45,-238.68 1757.39,-236.59"/>
<polygon fill="#6b7280" stroke="#6b7280" stroke-width="1.4" points="1757.16,-239.41 1764.97,-236.11 1756.81,-233.82 1757.16,-239.41"/>
</g>
<!-- R2 -->
<g id="node10" class="node">
<title>R2</title>
<path fill="#fef3c7" stroke="#ca8a04" d="M1679.03,-177.45C1679.03,-177.45 1459.03,-177.45 1459.03,-177.45 1453.03,-177.45 1447.03,-171.45 1447.03,-165.45 1447.03,-165.45 1447.03,-153.45 1447.03,-153.45 1447.03,-147.45 1453.03,-141.45 1459.03,-141.45 1459.03,-141.45 1679.03,-141.45 1679.03,-141.45 1685.03,-141.45 1691.03,-147.45 1691.03,-153.45 1691.03,-153.45 1691.03,-165.45 1691.03,-165.45 1691.03,-171.45 1685.03,-177.45 1679.03,-177.45"/>
<text text-anchor="middle" x="1569.03" y="-150.95" font-family="Helvetica,sans-Serif" font-size="20.00" fill="#4a2c0a">Answer Quality Reflection</text>
</g>
<!-- AGG&#45;&gt;R2 -->
<g id="edge10" class="edge">
<title>AGG&#45;&gt;R2</title>
<path fill="none" stroke="#6b7280" stroke-width="1.4" d="M1799.21,-210.02C1785.92,-207.17 1772.35,-204.25 1759.53,-201.45 1727.75,-194.54 1693,-186.87 1662.03,-179.99"/>
<polygon fill="#6b7280" stroke="#6b7280" stroke-width="1.4" points="1663.04,-177.35 1654.62,-178.35 1661.82,-182.81 1663.04,-177.35"/>
</g>
<!-- R2&#45;&gt;AGG -->
<g id="edge11" class="edge">
<title>R2&#45;&gt;AGG</title>
<path fill="none" stroke="#f59e0b" stroke-width="1.4" stroke-dasharray="5,2" d="M1691.1,-147.91C1712.21,-151.05 1732.74,-157.95 1749.53,-170.95 1760.81,-179.69 1748.92,-191.92 1759.53,-201.45 1760.65,-202.46 1761.8,-203.44 1762.97,-204.38"/>
<polygon fill="#f59e0b" stroke="#f59e0b" stroke-width="1.4" points="1761.21,-206.55 1769.35,-208.89 1764.44,-201.98 1761.21,-206.55"/>
<text text-anchor="middle" x="1729.28" y="-172.25" font-family="Helvetica,sans-Serif" font-size="16.00" fill="#92400e">refine</text>
</g>
<!-- A -->
<g id="node11" class="node">
<title>A</title>
<ellipse fill="#dbeafe" stroke="#2563eb" cx="1886.9" cy="-96.45" rx="92.45" ry="92.45"/>
<ellipse fill="none" stroke="#2563eb" cx="1886.9" cy="-96.45" rx="96.45" ry="96.45"/>
<text text-anchor="middle" x="1886.9" y="-87.95" font-family="Helvetica,sans-Serif" font-size="20.00" fill="#0f172a">Final Answer</text>
</g>
<!-- R2&#45;&gt;A -->
<g id="edge12" class="edge">
<title>R2&#45;&gt;A</title>
<path fill="none" stroke="#6b7280" stroke-width="1.4" d="M1639.41,-141.02C1661.57,-135.46 1686.25,-129.61 1709.03,-124.95 1732.33,-120.19 1757.49,-115.73 1781.33,-111.82"/>
<polygon fill="#6b7280" stroke="#6b7280" stroke-width="1.4" points="1781.55,-114.62 1789,-110.57 1780.65,-109.09 1781.55,-114.62"/>
<text text-anchor="middle" x="1729.28" y="-126.25" font-family="Helvetica,sans-Serif" font-size="16.00">pass</text>
</g>
</g>
</svg>
