<?xml version="1.0" encoding="UTF-8" standalone="no"?>
<!DOCTYPE svg PUBLIC "-//W3C//DTD SVG 1.1//EN"
 "http://www.w3.org/Graphics/SVG/1.1/DTD/svg11.dtd">
<!-- Generated by graphviz version 12.2.1 (20241206.2353)
 -->
<!-- Title: PoolArchitecture Pages: 1 -->
<svg width="923pt" height="208pt"
 viewBox="21.60 21.60 901.50 186.66" xmlns="http://www.w3.org/2000/svg" xmlns:xlink="http://www.w3.org/1999/xlink">
<g id="graph0" class="graph" transform="scale(1 1) rotate(0) translate(25.6 182.66)">
<title>PoolArchitecture</title>
<polygon fill="white" stroke="none" points="-4,4 -4,-161.06 875.9,-161.06 875.9,4 -4,4"/>
<g id="clust1" class="cluster">
<title>cluster_pool</title>
<path fill="white" stroke="black" d="M20,-8C20,-8 365,-8 365,-8 371,-8 377,-14 377,-20 377,-20 377,-88 377,-88 377,-94 371,-100 365,-100 365,-100 20,-100 20,-100 14,-100 8,-94 8,-88 8,-88 8,-20 8,-20 8,-14 14,-8 20,-8"/>
<text text-anchor="middle" x="192.5" y="-82.7" font-family="Monaco, monospace" font-size="14.00">Pool Protocol</text>
</g>
<!-- purchase -->
<g id="node1" class="node">
<title>purchase</title>
<path fill="none" stroke="black" d="M99.4,-59C99.4,-59 34.6,-59 34.6,-59 28.6,-59 22.6,-53 22.6,-47 22.6,-47 22.6,-35 22.6,-35 22.6,-29 28.6,-23 34.6,-23 34.6,-23 99.4,-23 99.4,-23 105.4,-23 111.4,-29 111.4,-35 111.4,-35 111.4,-47 111.4,-47 111.4,-53 105.4,-59 99.4,-59"/>
<text text-anchor="middle" x="67" y="-37.1" font-family="Monaco, monospace" font-size="12.00">Purchase</text>
</g>
<!-- article -->
<g id="node4" class="node">
<title>article</title>
<path fill="none" stroke="black" d="M519.9,-63.2C519.9,-63.2 410.1,-63.2 410.1,-63.2 404.1,-63.2 398.1,-57.2 398.1,-51.2 398.1,-51.2 398.1,-30.8 398.1,-30.8 398.1,-24.8 404.1,-18.8 410.1,-18.8 410.1,-18.8 519.9,-18.8 519.9,-18.8 525.9,-18.8 531.9,-24.8 531.9,-30.8 531.9,-30.8 531.9,-51.2 531.9,-51.2 531.9,-57.2 525.9,-63.2 519.9,-63.2"/>
<text text-anchor="middle" x="465" y="-44.6" font-family="Monaco, monospace" font-size="12.00">Article module</text>
<text text-anchor="middle" x="465" y="-29.6" font-family="Monaco, monospace" font-size="12.00">(domain rules)</text>
</g>
<!-- purchase&#45;&gt;article -->
<g id="edge1" class="edge">
<title>purchase&#45;&gt;article</title>
<path fill="none" stroke="black" stroke-width="1.5" d="M77.34,-59.32C90.56,-80.67 115.67,-114.82 148,-129 237.54,-168.28 276.78,-164.21 368,-129 398.36,-117.28 425.09,-91.16 442.76,-70.4"/>
<polygon fill="black" stroke="black" stroke-width="1.5" points="444.6,-72.02 447.18,-65.07 440.83,-68.9 444.6,-72.02"/>
</g>
<!-- rental -->
<g id="node5" class="node">
<title>rental</title>
<path fill="none" stroke="black" d="M689.9,-63.2C689.9,-63.2 580.1,-63.2 580.1,-63.2 574.1,-63.2 568.1,-57.2 568.1,-51.2 568.1,-51.2 568.1,-30.8 568.1,-30.8 568.1,-24.8 574.1,-18.8 580.1,-18.8 580.1,-18.8 689.9,-18.8 689.9,-18.8 695.9,-18.8 701.9,-24.8 701.9,-30.8 701.9,-30.8 701.9,-51.2 701.9,-51.2 701.9,-57.2 695.9,-63.2 689.9,-63.2"/>
<text text-anchor="middle" x="635" y="-44.6" font-family="Monaco, monospace" font-size="12.00">Rental module</text>
<text text-anchor="middle" x="635" y="-29.6" font-family="Monaco, monospace" font-size="12.00">(domain rules)</text>
</g>
<!-- purchase&#45;&gt;rental -->
<g id="edge2" class="edge">
<title>purchase&#45;&gt;rental</title>
<path fill="none" stroke="black" stroke-width="1.5" d="M77.34,-59.32C90.56,-80.67 115.67,-114.82 148,-129 226.14,-163.28 451.94,-158.54 532,-129 563.72,-117.3 592.29,-90.99 611.25,-70.17"/>
<polygon fill="black" stroke="black" stroke-width="1.5" points="612.98,-71.91 615.8,-65.05 609.32,-68.66 612.98,-71.91"/>
</g>
<!-- future -->
<g id="node6" class="node">
<title>future</title>
<path fill="none" stroke="black" d="M859.9,-63.2C859.9,-63.2 750.1,-63.2 750.1,-63.2 744.1,-63.2 738.1,-57.2 738.1,-51.2 738.1,-51.2 738.1,-30.8 738.1,-30.8 738.1,-24.8 744.1,-18.8 750.1,-18.8 750.1,-18.8 859.9,-18.8 859.9,-18.8 865.9,-18.8 871.9,-24.8 871.9,-30.8 871.9,-30.8 871.9,-51.2 871.9,-51.2 871.9,-57.2 865.9,-63.2 859.9,-63.2"/>
<text text-anchor="middle" x="805" y="-44.6" font-family="Monaco, monospace" font-size="12.00">Future module</text>
<text text-anchor="middle" x="805" y="-29.6" font-family="Monaco, monospace" font-size="12.00">(domain rules)</text>
</g>
<!-- purchase&#45;&gt;future -->
<g id="edge3" class="edge">
<title>purchase&#45;&gt;future</title>
<path fill="none" stroke="black" stroke-width="1.5" d="M77.34,-59.32C90.56,-80.67 115.67,-114.82 148,-129 204.37,-153.73 644.25,-150.31 702,-129 733.72,-117.3 762.29,-90.99 781.25,-70.17"/>
<polygon fill="black" stroke="black" stroke-width="1.5" points="782.98,-71.91 785.8,-65.05 779.32,-68.66 782.98,-71.91"/>
</g>
<!-- split -->
<g id="node2" class="node">
<title>split</title>
<path fill="none" stroke="black" d="M202.15,-59C202.15,-59 159.85,-59 159.85,-59 153.85,-59 147.85,-53 147.85,-47 147.85,-47 147.85,-35 147.85,-35 147.85,-29 153.85,-23 159.85,-23 159.85,-23 202.15,-23 202.15,-23 208.15,-23 214.15,-29 214.15,-35 214.15,-35 214.15,-47 214.15,-47 214.15,-53 208.15,-59 202.15,-59"/>
<text text-anchor="middle" x="181" y="-37.1" font-family="Monaco, monospace" font-size="12.00">Split</text>
</g>
<!-- entitlement -->
<g id="node3" class="node">
<title>entitlement</title>
<path fill="none" stroke="black" d="M349.65,-59C349.65,-59 262.35,-59 262.35,-59 256.35,-59 250.35,-53 250.35,-47 250.35,-47 250.35,-35 250.35,-35 250.35,-29 256.35,-23 262.35,-23 262.35,-23 349.65,-23 349.65,-23 355.65,-23 361.65,-29 361.65,-35 361.65,-35 361.65,-47 361.65,-47 361.65,-53 355.65,-59 349.65,-59"/>
<text text-anchor="middle" x="306" y="-37.1" font-family="Monaco, monospace" font-size="12.00">Entitlement</text>
</g>
</g>
</svg>
