<?xml version="1.0" encoding="UTF-8" standalone="no"?>
<!DOCTYPE svg PUBLIC "-//W3C//DTD SVG 1.1//EN"
 "http://www.w3.org/Graphics/SVG/1.1/DTD/svg11.dtd">
<!-- Generated by graphviz version 12.2.1 (20241206.2353)
 -->
<!-- Title: ArticleVsRental Pages: 1 -->
<svg width="336pt" height="620pt"
 viewBox="0.00 0.00 335.65 619.75" xmlns="http://www.w3.org/2000/svg" xmlns:xlink="http://www.w3.org/1999/xlink">
<g id="graph0" class="graph" transform="scale(1 1) rotate(0) translate(4 615.75)">
<title>ArticleVsRental</title>
<polygon fill="white" stroke="none" points="-4,4 -4,-615.75 331.65,-615.75 331.65,4 -4,4"/>
<text text-anchor="middle" x="163.82" y="-596.35" font-family="Helvetica,sans-Serif" font-size="12.00">Article vs Rental: The Fundamental Difference</text>
<g id="clust1" class="cluster">
<title>cluster_article</title>
<path fill="#f0fdf4" stroke="#16a34a" d="M29.12,-8C29.12,-8 300.15,-8 300.15,-8 306.15,-8 312.15,-14 312.15,-20 312.15,-20 312.15,-301 312.15,-301 312.15,-307 306.15,-313 300.15,-313 300.15,-313 29.12,-313 29.12,-313 23.12,-313 17.12,-307 17.12,-301 17.12,-301 17.12,-20 17.12,-20 17.12,-14 23.12,-8 29.12,-8"/>
<text text-anchor="middle" x="164.64" y="-297.6" font-family="Helvetica,sans-Serif" font-size="12.00">Article Subscription</text>
</g>
<g id="clust2" class="cluster">
<title>cluster_rental</title>
<path fill="#fffbeb" stroke="#f59e0b" d="M20,-321C20,-321 307.65,-321 307.65,-321 313.65,-321 319.65,-327 319.65,-333 319.65,-333 319.65,-571 319.65,-571 319.65,-577 313.65,-583 307.65,-583 307.65,-583 20,-583 20,-583 14,-583 8,-577 8,-571 8,-571 8,-333 8,-333 8,-327 14,-321 20,-321"/>
<text text-anchor="middle" x="163.82" y="-567.6" font-family="Helvetica,sans-Serif" font-size="12.00">Rental (Exclusive)</text>
</g>
<!-- Article -->
<g id="node1" class="node">
<title>Article</title>
<path fill="#bbf7d0" stroke="#16a34a" d="M292.15,-147.4C292.15,-147.4 230.2,-147.4 230.2,-147.4 224.2,-147.4 218.2,-141.4 218.2,-135.4 218.2,-135.4 218.2,-106.6 218.2,-106.6 218.2,-100.6 224.2,-94.6 230.2,-94.6 230.2,-94.6 292.15,-94.6 292.15,-94.6 298.15,-94.6 304.15,-100.6 304.15,-106.6 304.15,-106.6 304.15,-135.4 304.15,-135.4 304.15,-141.4 298.15,-147.4 292.15,-147.4"/>
<text text-anchor="middle" x="261.17" y="-122.55" font-family="Helvetica,sans-Serif" font-size="11.00">Article A</text>
<text text-anchor="middle" x="261.17" y="-110.55" font-family="Helvetica,sans-Serif" font-size="11.00">(content)</text>
</g>
<!-- User1 -->
<g id="node2" class="node">
<title>User1</title>
<ellipse fill="#e5e7eb" stroke="#9ca3af" cx="78.47" cy="-45" rx="53.35" ry="28.85"/>
<text text-anchor="middle" x="78.47" y="-40.55" font-family="Helvetica,sans-Serif" font-size="11.00">User 1</text>
</g>
<!-- User1&#45;&gt;Article -->
<g id="edge1" class="edge">
<title>User1&#45;&gt;Article</title>
<path fill="none" stroke="#16a34a" stroke-width="2" d="M121.39,-62.63C146.86,-73.34 179.63,-87.12 206.93,-98.6"/>
<polygon fill="#16a34a" stroke="#16a34a" stroke-width="2" points="205.56,-101.45 215.08,-102.03 208,-95.64 205.56,-101.45"/>
</g>
<!-- User2 -->
<g id="node3" class="node">
<title>User2</title>
<ellipse fill="#e5e7eb" stroke="#9ca3af" cx="78.47" cy="-121" rx="53.35" ry="28.85"/>
<text text-anchor="middle" x="78.47" y="-116.55" font-family="Helvetica,sans-Serif" font-size="11.00">User 2</text>
</g>
<!-- User2&#45;&gt;Article -->
<g id="edge2" class="edge">
<title>User2&#45;&gt;Article</title>
<path fill="none" stroke="#16a34a" stroke-width="2" d="M132.23,-121C155.47,-121 182.75,-121 206.14,-121"/>
<polygon fill="#16a34a" stroke="#16a34a" stroke-width="2" points="205.94,-124.15 214.94,-121 205.94,-117.85 205.94,-124.15"/>
</g>
<!-- User3 -->
<g id="node4" class="node">
<title>User3</title>
<ellipse fill="#e5e7eb" stroke="#9ca3af" cx="78.47" cy="-197" rx="53.35" ry="28.85"/>
<text text-anchor="middle" x="78.47" y="-192.55" font-family="Helvetica,sans-Serif" font-size="11.00">User 3</text>
</g>
<!-- User3&#45;&gt;Article -->
<g id="edge3" class="edge">
<title>User3&#45;&gt;Article</title>
<path fill="none" stroke="#16a34a" stroke-width="2" d="M121.39,-179.37C146.86,-168.66 179.63,-154.88 206.93,-143.4"/>
<polygon fill="#16a34a" stroke="#16a34a" stroke-width="2" points="208,-146.36 215.08,-139.97 205.56,-140.55 208,-146.36"/>
</g>
<!-- NoConflict -->
<g id="node5" class="node">
<title>NoConflict</title>
<path fill="#dcfce7" stroke="none" d="M113.57,-284.02C113.57,-284.02 43.37,-284.02 43.37,-284.02 37.38,-284.02 31.38,-278.02 31.38,-272.02 31.38,-272.02 31.38,-255.97 31.38,-255.97 31.38,-249.97 37.38,-243.97 43.38,-243.97 43.38,-243.97 113.57,-243.97 113.57,-243.97 119.57,-243.97 125.57,-249.97 125.57,-255.97 125.57,-255.97 125.57,-272.02 125.57,-272.02 125.57,-278.02 119.57,-284.02 113.57,-284.02"/>
<text text-anchor="middle" x="78.47" y="-260.12" font-family="Helvetica,sans-Serif" font-size="10.00">(no conflict)</text>
</g>
<!-- Rental -->
<g id="node6" class="node">
<title>Rental</title>
<path fill="#fef3c7" stroke="#f59e0b" d="M299.65,-438.4C299.65,-438.4 222.7,-438.4 222.7,-438.4 216.7,-438.4 210.7,-432.4 210.7,-426.4 210.7,-426.4 210.7,-397.6 210.7,-397.6 210.7,-391.6 216.7,-385.6 222.7,-385.6 222.7,-385.6 299.65,-385.6 299.65,-385.6 305.65,-385.6 311.65,-391.6 311.65,-397.6 311.65,-397.6 311.65,-426.4 311.65,-426.4 311.65,-432.4 305.65,-438.4 299.65,-438.4"/>
<text text-anchor="middle" x="261.17" y="-413.55" font-family="Helvetica,sans-Serif" font-size="11.00">Venue / Car</text>
<text text-anchor="middle" x="261.17" y="-401.55" font-family="Helvetica,sans-Serif" font-size="11.00">(asset)</text>
</g>
<!-- UserA -->
<g id="node7" class="node">
<title>UserA</title>
<ellipse fill="#fde68a" stroke="#d97706" cx="78.47" cy="-366" rx="53.88" ry="37.34"/>
<text text-anchor="middle" x="78.47" y="-367.55" font-family="Helvetica,sans-Serif" font-size="11.00">User A</text>
<text text-anchor="middle" x="78.47" y="-355.55" font-family="Helvetica,sans-Serif" font-size="11.00">(now)</text>
</g>
<!-- UserA&#45;&gt;Rental -->
<g id="edge4" class="edge">
<title>UserA&#45;&gt;Rental</title>
<path fill="none" stroke="#16a34a" stroke-width="2.5" d="M129.33,-378.69C150.66,-384.12 175.79,-390.52 198.29,-396.25"/>
<polygon fill="#16a34a" stroke="#16a34a" stroke-width="2.5" points="197.32,-399.25 206.82,-398.42 198.87,-393.14 197.32,-399.25"/>
</g>
<!-- UserB -->
<g id="node8" class="node">
<title>UserB</title>
<ellipse fill="#fee2e2" stroke="#dc2626" cx="78.47" cy="-459" rx="61.84" ry="37.34"/>
<text text-anchor="middle" x="78.47" y="-460.55" font-family="Helvetica,sans-Serif" font-size="11.00">User B</text>
<text text-anchor="middle" x="78.47" y="-448.55" font-family="Helvetica,sans-Serif" font-size="11.00">(blocked)</text>
</g>
<!-- UserB&#45;&gt;Rental -->
<g id="edge5" class="edge">
<title>UserB&#45;&gt;Rental</title>
<path fill="none" stroke="#dc2626" stroke-width="2" stroke-dasharray="5,2" d="M135.66,-444.39C155.76,-439.16 178.5,-433.24 199,-427.91"/>
<polygon fill="#dc2626" stroke="#dc2626" stroke-width="2" points="199.61,-431.01 207.52,-425.69 198.02,-424.91 199.61,-431.01"/>
<text text-anchor="middle" x="175.82" y="-440.06" font-family="Helvetica,sans-Serif" font-size="10.00">blocked</text>
</g>
<!-- Exclusive -->
<g id="node9" class="node">
<title>Exclusive</title>
<path fill="#fef3c7" stroke="none" d="M128.95,-554.02C128.95,-554.02 28,-554.02 28,-554.02 22,-554.02 16,-548.02 16,-542.02 16,-542.02 16,-525.98 16,-525.98 16,-519.98 22,-513.98 28,-513.98 28,-513.98 128.95,-513.98 128.95,-513.98 134.95,-513.98 140.95,-519.98 140.95,-525.98 140.95,-525.98 140.95,-542.02 140.95,-542.02 140.95,-548.02 134.95,-554.02 128.95,-554.02"/>
<text text-anchor="middle" x="78.47" y="-530.12" font-family="Helvetica,sans-Serif" font-size="10.00">(exclusive access)</text>
</g>
</g>
</svg>
