<?xml version="1.0" encoding="UTF-8" standalone="no"?>
<!DOCTYPE svg PUBLIC "-//W3C//DTD SVG 1.1//EN"
 "http://www.w3.org/Graphics/SVG/1.1/DTD/svg11.dtd">
<!-- Generated by graphviz version 12.2.1 (20241206.2353)
 -->
<!-- Title: PaygRentalArch Pages: 1 -->
<svg width="413pt" height="342pt"
 viewBox="0.00 0.00 412.94 342.15" xmlns="http://www.w3.org/2000/svg" xmlns:xlink="http://www.w3.org/1999/xlink">
<g id="graph0" class="graph" transform="scale(1 1) rotate(0) translate(4 338.15)">
<title>PaygRentalArch</title>
<polygon fill="white" stroke="none" points="-4,4 -4,-338.15 408.94,-338.15 408.94,4 -4,4"/>
<text text-anchor="middle" x="202.47" y="-318.75" font-family="Helvetica,sans-Serif" font-size="12.00">Rental Services: Domain layer on top of PAYG payment core</text>
<g id="clust1" class="cluster">
<title>cluster_core</title>
<path fill="white" stroke="#0ea5e9" d="M238.72,-8C238.72,-8 362.73,-8 362.73,-8 368.73,-8 374.73,-14 374.73,-20 374.73,-20 374.73,-121.55 374.73,-121.55 374.73,-127.55 368.73,-133.55 362.73,-133.55 362.73,-133.55 238.72,-133.55 238.72,-133.55 232.72,-133.55 226.72,-127.55 226.72,-121.55 226.72,-121.55 226.72,-20 226.72,-20 226.72,-14 232.72,-8 238.72,-8"/>
<text text-anchor="middle" x="300.73" y="-118.15" font-family="Helvetica,sans-Serif" font-size="12.00">Core Layer (Protocol)</text>
</g>
<!-- User -->
<g id="node1" class="node">
<title>User</title>
<path fill="#e5e7eb" stroke="#9ca3af" d="M111.45,-313.4C111.45,-313.4 18,-313.4 18,-313.4 12,-313.4 6,-307.4 6,-301.4 6,-301.4 6,-284.6 6,-284.6 6,-278.6 12,-272.6 18,-272.6 18,-272.6 111.45,-272.6 111.45,-272.6 117.45,-272.6 123.45,-278.6 123.45,-284.6 123.45,-284.6 123.45,-301.4 123.45,-301.4 123.45,-307.4 117.45,-313.4 111.45,-313.4"/>
<text text-anchor="middle" x="64.72" y="-288.55" font-family="Helvetica,sans-Serif" font-size="11.00">User / DApp UI</text>
</g>
<!-- SpacePPU -->
<g id="node5" class="node">
<title>SpacePPU</title>
<path fill="#fde68a" stroke="#d97706" d="M117.45,-219.35C117.45,-219.35 12,-219.35 12,-219.35 6,-219.35 0,-213.35 0,-207.35 0,-207.35 0,-178.55 0,-178.55 0,-172.55 6,-166.55 12,-166.55 12,-166.55 117.45,-166.55 117.45,-166.55 123.45,-166.55 129.45,-172.55 129.45,-178.55 129.45,-178.55 129.45,-207.35 129.45,-207.35 129.45,-213.35 123.45,-219.35 117.45,-219.35"/>
<text text-anchor="middle" x="64.72" y="-194.5" font-family="Helvetica,sans-Serif" font-size="11.00">SpacePayPerUse</text>
<text text-anchor="middle" x="64.72" y="-182.5" font-family="Helvetica,sans-Serif" font-size="11.00">(example)</text>
</g>
<!-- User&#45;&gt;SpacePPU -->
<g id="edge1" class="edge">
<title>User&#45;&gt;SpacePPU</title>
<path fill="none" stroke="#d97706" stroke-width="1.4" d="M64.72,-272.16C64.72,-260 64.72,-244.08 64.72,-229.77"/>
<polygon fill="#d97706" stroke="#d97706" stroke-width="1.4" points="67.53,-229.84 64.73,-221.84 61.93,-229.84 67.53,-229.84"/>
<text text-anchor="middle" x="72.97" y="-245.1" font-family="Helvetica,sans-Serif" font-size="10.00">rent</text>
</g>
<!-- Provider -->
<g id="node2" class="node">
<title>Provider</title>
<path fill="#e5e7eb" stroke="#9ca3af" d="M392.08,-313.4C392.08,-313.4 293.38,-313.4 293.38,-313.4 287.38,-313.4 281.38,-307.4 281.38,-301.4 281.38,-301.4 281.38,-284.6 281.38,-284.6 281.38,-278.6 287.38,-272.6 293.38,-272.6 293.38,-272.6 392.08,-272.6 392.08,-272.6 398.08,-272.6 404.08,-278.6 404.08,-284.6 404.08,-284.6 404.08,-301.4 404.08,-301.4 404.08,-307.4 398.08,-313.4 392.08,-313.4"/>
<text text-anchor="middle" x="342.73" y="-288.55" font-family="Helvetica,sans-Serif" font-size="11.00">Service Provider</text>
</g>
<!-- PAYG -->
<g id="node3" class="node">
<title>PAYG</title>
<path fill="#e0f2fe" stroke="#0ea5e9" d="M354.58,-104.8C354.58,-104.8 246.88,-104.8 246.88,-104.8 240.88,-104.8 234.88,-98.8 234.88,-92.8 234.88,-92.8 234.88,-28 234.88,-28 234.88,-22 240.88,-16 246.88,-16 246.88,-16 354.58,-16 354.58,-16 360.58,-16 366.58,-22 366.58,-28 366.58,-28 366.58,-92.8 366.58,-92.8 366.58,-98.8 360.58,-104.8 354.58,-104.8"/>
<text text-anchor="middle" x="300.73" y="-79.95" font-family="Helvetica,sans-Serif" font-size="11.00">PayAsYouGoBase</text>
<text text-anchor="middle" x="300.73" y="-67.95" font-family="Helvetica,sans-Serif" font-size="11.00">&#45; pricing</text>
<text text-anchor="middle" x="300.73" y="-55.95" font-family="Helvetica,sans-Serif" font-size="11.00">&#45; payment</text>
<text text-anchor="middle" x="300.73" y="-43.95" font-family="Helvetica,sans-Serif" font-size="11.00">&#45; earnings</text>
<text text-anchor="middle" x="300.73" y="-31.95" font-family="Helvetica,sans-Serif" font-size="11.00">&#45; withdraw</text>
</g>
<!-- Provider&#45;&gt;PAYG -->
<g id="edge2" class="edge">
<title>Provider&#45;&gt;PAYG</title>
<path fill="none" stroke="#0ea5e9" stroke-width="1.4" d="M332.35,-272.16C326.07,-259.19 318.52,-241.7 314.48,-225.35 305.53,-189.16 302.13,-147.27 300.95,-114.88"/>
<polygon fill="#0ea5e9" stroke="#0ea5e9" stroke-width="1.4" points="303.76,-115.18 300.72,-107.27 298.16,-115.36 303.76,-115.18"/>
<text text-anchor="middle" x="338.1" y="-189.08" font-family="Helvetica,sans-Serif" font-size="10.00">list service</text>
</g>
<!-- Provider&#45;&gt;PAYG -->
<g id="edge3" class="edge">
<title>Provider&#45;&gt;PAYG</title>
<path fill="none" stroke="#0ea5e9" stroke-width="1.4" d="M350.53,-272.51C359.8,-246.55 372.71,-199.38 361.73,-160.55 357.08,-144.13 348.86,-127.76 339.94,-113.19"/>
<polygon fill="#0ea5e9" stroke="#0ea5e9" stroke-width="1.4" points="342.41,-111.86 335.76,-106.62 337.69,-114.87 342.41,-111.86"/>
<text text-anchor="middle" x="385.44" y="-189.08" font-family="Helvetica,sans-Serif" font-size="10.00">withdraw</text>
</g>
<!-- RentalBase -->
<g id="node4" class="node">
<title>RentalBase</title>
<path fill="#fef3c7" stroke="#f59e0b" d="M252.45,-225.35C252.45,-225.35 177,-225.35 177,-225.35 171,-225.35 165,-219.35 165,-213.35 165,-213.35 165,-172.55 165,-172.55 165,-166.55 171,-160.55 177,-160.55 177,-160.55 252.45,-160.55 252.45,-160.55 258.45,-160.55 264.45,-166.55 264.45,-172.55 264.45,-172.55 264.45,-213.35 264.45,-213.35 264.45,-219.35 258.45,-225.35 252.45,-225.35"/>
<text text-anchor="middle" x="214.72" y="-200.5" font-family="Helvetica,sans-Serif" font-size="11.00">RentalBase</text>
<text text-anchor="middle" x="214.72" y="-188.5" font-family="Helvetica,sans-Serif" font-size="11.00">&#45; availability</text>
<text text-anchor="middle" x="214.72" y="-176.5" font-family="Helvetica,sans-Serif" font-size="11.00">&#45; exclusivity</text>
</g>
<!-- RentalBase&#45;&gt;PAYG -->
<g id="edge4" class="edge">
<title>RentalBase&#45;&gt;PAYG</title>
<path fill="none" stroke="#4b5563" stroke-width="1.4" d="M235.54,-160.35C244.86,-146.21 256.08,-129.17 266.57,-113.25"/>
<polygon fill="#4b5563" stroke="#4b5563" stroke-width="1.4" points="268.75,-115.03 270.81,-106.81 264.07,-111.95 268.75,-115.03"/>
</g>
<!-- SpacePPU&#45;&gt;RentalBase -->
<g id="edge5" class="edge">
<title>SpacePPU&#45;&gt;RentalBase</title>
<path fill="none" stroke="#4b5563" stroke-width="1.4" d="M129.76,-192.95C138.02,-192.95 146.28,-192.95 154.54,-192.95"/>
<polygon fill="#4b5563" stroke="#4b5563" stroke-width="1.4" points="154.49,-195.75 162.49,-192.95 154.49,-190.15 154.49,-195.75"/>
</g>
</g>
</svg>
