<?xml version="1.0" encoding="UTF-8" standalone="no"?>
<!DOCTYPE svg PUBLIC "-//W3C//DTD SVG 1.1//EN"
 "http://www.w3.org/Graphics/SVG/1.1/DTD/svg11.dtd">
<!-- Generated by graphviz version 12.2.1 (20241206.2353)
 -->
<!-- Title: RentalSequence Pages: 1 -->
<svg width="382pt" height="464pt"
 viewBox="0.00 0.00 382.35 463.75" xmlns="http://www.w3.org/2000/svg" xmlns:xlink="http://www.w3.org/1999/xlink">
<g id="graph0" class="graph" transform="scale(1 1) rotate(0) translate(4 459.75)">
<title>RentalSequence</title>
<polygon fill="white" stroke="none" points="-4,4 -4,-459.75 378.35,-459.75 378.35,4 -4,4"/>
<text text-anchor="middle" x="187.18" y="-440.35" font-family="Helvetica,sans-Serif" font-size="12.00">Rental Flow: User to Provider</text>
<!-- User -->
<g id="node1" class="node">
<title>User</title>
<path fill="#e5e7eb" stroke="#9ca3af" d="M132,-419.62C132,-419.62 12,-419.62 12,-419.62 6,-419.62 0,-413.62 0,-407.62 0,-407.62 0,-390.82 0,-390.82 0,-384.82 6,-378.82 12,-378.82 12,-378.82 132,-378.82 132,-378.82 138,-378.82 144,-384.82 144,-390.82 144,-390.82 144,-407.62 144,-407.62 144,-413.62 138,-419.62 132,-419.62"/>
<text text-anchor="middle" x="72" y="-394.77" font-family="Helvetica,sans-Serif" font-size="11.00">User / UI</text>
</g>
<!-- SpacePPU -->
<g id="node2" class="node">
<title>SpacePPU</title>
<path fill="#fde68a" stroke="#d97706" d="M132,-316.2C132,-316.2 12,-316.2 12,-316.2 6,-316.2 0,-310.2 0,-304.2 0,-304.2 0,-287.4 0,-287.4 0,-281.4 6,-275.4 12,-275.4 12,-275.4 132,-275.4 132,-275.4 138,-275.4 144,-281.4 144,-287.4 144,-287.4 144,-304.2 144,-304.2 144,-310.2 138,-316.2 132,-316.2"/>
<text text-anchor="middle" x="72" y="-291.35" font-family="Helvetica,sans-Serif" font-size="11.00">SpacePayPerUse</text>
</g>
<!-- User&#45;&gt;SpacePPU -->
<g id="edge1" class="edge">
<title>User&#45;&gt;SpacePPU</title>
<path fill="none" stroke="#d97706" stroke-width="2.5" d="M72,-378.67C72,-364.59 72,-345.28 72,-328.94"/>
<polygon fill="#d97706" stroke="#d97706" stroke-width="2.5" points="75.15,-329.43 72,-320.43 68.85,-329.43 75.15,-329.43"/>
<text text-anchor="middle" x="83.25" y="-335.95" font-family="Helvetica,sans-Serif" font-size="10.00">rent()</text>
</g>
<!-- RentalBase -->
<g id="node3" class="node">
<title>RentalBase</title>
<path fill="#fef3c7" stroke="#f59e0b" d="M132,-216.9C132,-216.9 12,-216.9 12,-216.9 6,-216.9 0,-210.9 0,-204.9 0,-204.9 0,-188.1 0,-188.1 0,-182.1 6,-176.1 12,-176.1 12,-176.1 132,-176.1 132,-176.1 138,-176.1 144,-182.1 144,-188.1 144,-188.1 144,-204.9 144,-204.9 144,-210.9 138,-216.9 132,-216.9"/>
<text text-anchor="middle" x="72" y="-192.05" font-family="Helvetica,sans-Serif" font-size="11.00">RentalBase</text>
</g>
<!-- SpacePPU&#45;&gt;RentalBase -->
<g id="edge2" class="edge">
<title>SpacePPU&#45;&gt;RentalBase</title>
<path fill="none" stroke="#f59e0b" stroke-width="2.5" d="M72,-275.11C72,-262.05 72,-244.62 72,-229.59"/>
<polygon fill="#f59e0b" stroke="#f59e0b" stroke-width="2.5" points="75.15,-229.94 72,-220.94 68.85,-229.94 75.15,-229.94"/>
<text text-anchor="middle" x="109.5" y="-247.9" font-family="Helvetica,sans-Serif" font-size="10.00">check availability</text>
<text text-anchor="middle" x="109.5" y="-236.65" font-family="Helvetica,sans-Serif" font-size="10.00">exclusivity</text>
</g>
<!-- PAYG -->
<g id="node4" class="node">
<title>PAYG</title>
<path fill="#e0f2fe" stroke="#0ea5e9" d="M132,-128.85C132,-128.85 12,-128.85 12,-128.85 6,-128.85 0,-122.85 0,-116.85 0,-116.85 0,-100.05 0,-100.05 0,-94.05 6,-88.05 12,-88.05 12,-88.05 132,-88.05 132,-88.05 138,-88.05 144,-94.05 144,-100.05 144,-100.05 144,-116.85 144,-116.85 144,-122.85 138,-128.85 132,-128.85"/>
<text text-anchor="middle" x="72" y="-104" font-family="Helvetica,sans-Serif" font-size="11.00">PayAsYouGoBase</text>
</g>
<!-- RentalBase&#45;&gt;PAYG -->
<g id="edge3" class="edge">
<title>RentalBase&#45;&gt;PAYG</title>
<path fill="none" stroke="#0ea5e9" stroke-width="2.5" d="M72,-175.97C72,-165.92 72,-153.4 72,-141.95"/>
<polygon fill="#0ea5e9" stroke="#0ea5e9" stroke-width="2.5" points="75.15,-141.98 72,-132.98 68.85,-141.98 75.15,-141.98"/>
<text text-anchor="middle" x="104.25" y="-148.6" font-family="Helvetica,sans-Serif" font-size="10.00">settle payment</text>
</g>
<!-- Provider -->
<g id="node5" class="node">
<title>Provider</title>
<path fill="#dcfce7" stroke="#16a34a" d="M132,-40.8C132,-40.8 12,-40.8 12,-40.8 6,-40.8 0,-34.8 0,-28.8 0,-28.8 0,-12 0,-12 0,-6 6,0 12,0 12,0 132,0 132,0 138,0 144,-6 144,-12 144,-12 144,-28.8 144,-28.8 144,-34.8 138,-40.8 132,-40.8"/>
<text text-anchor="middle" x="72" y="-15.95" font-family="Helvetica,sans-Serif" font-size="11.00">Provider</text>
</g>
<!-- PAYG&#45;&gt;Provider -->
<g id="edge4" class="edge">
<title>PAYG&#45;&gt;Provider</title>
<path fill="none" stroke="#16a34a" stroke-width="2.5" d="M72,-87.92C72,-77.87 72,-65.35 72,-53.9"/>
<polygon fill="#16a34a" stroke="#16a34a" stroke-width="2.5" points="75.15,-53.93 72,-44.93 68.85,-53.93 75.15,-53.93"/>
<text text-anchor="middle" x="103.88" y="-60.55" font-family="Helvetica,sans-Serif" font-size="10.00">credit earnings</text>
</g>
<!-- Note1 -->
<g id="node6" class="node">
<title>Note1</title>
<polygon fill="#fff7ed" stroke="#f97316" points="368.35,-435 161.65,-435 161.65,-363.45 374.35,-363.45 374.35,-429 368.35,-435"/>
<polyline fill="none" stroke="#f97316" points="368.35,-435 368.35,-429"/>
<polyline fill="none" stroke="#f97316" points="374.35,-429 368.35,-429"/>
<text text-anchor="middle" x="268" y="-411.1" font-family="Helvetica,sans-Serif" font-size="10.00" fill="#9a3412">❌ no off&#45;chain booking</text>
<text text-anchor="middle" x="268" y="-396.85" font-family="Helvetica,sans-Serif" font-size="10.00" fill="#9a3412">❌ no calendar</text>
<text text-anchor="middle" x="268" y="-382.6" font-family="Helvetica,sans-Serif" font-size="10.00" fill="#9a3412">✅ atomic rent + payment + exclusivity</text>
</g>
</g>
</svg>
