<?xml version="1.0" encoding="UTF-8" standalone="no"?>
<!DOCTYPE svg PUBLIC "-//W3C//DTD SVG 1.1//EN"
 "http://www.w3.org/Graphics/SVG/1.1/DTD/svg11.dtd">
<!-- Generated by graphviz version 12.2.1 (20241206.2353)
 -->
<!-- Title: RentalStateMachine Pages: 1 -->
<svg width="294pt" height="236pt"
 viewBox="0.00 0.00 294.10 235.90" xmlns="http://www.w3.org/2000/svg" xmlns:xlink="http://www.w3.org/1999/xlink">
<g id="graph0" class="graph" transform="scale(1 1) rotate(0) translate(4 231.9)">
<title>RentalStateMachine</title>
<polygon fill="white" stroke="none" points="-4,4 -4,-231.9 290.1,-231.9 290.1,4 -4,4"/>
<text text-anchor="middle" x="143.05" y="-212.5" font-family="Helvetica,sans-Serif" font-size="12.00">Exclusive Rental: State Machine</text>
<!-- Available -->
<g id="node1" class="node">
<title>Available</title>
<path fill="#dcfce7" stroke="#16a34a" d="M103.6,-202.27C103.6,-202.27 19.75,-202.27 19.75,-202.27 13.75,-202.27 7.75,-196.27 7.75,-190.27 7.75,-190.27 7.75,-158.32 7.75,-158.32 7.75,-152.32 13.75,-146.32 19.75,-146.32 19.75,-146.32 103.6,-146.32 103.6,-146.32 109.6,-146.32 115.6,-152.32 115.6,-158.32 115.6,-158.32 115.6,-190.27 115.6,-190.27 115.6,-196.27 109.6,-202.27 103.6,-202.27"/>
<text text-anchor="middle" x="61.68" y="-169.27" font-family="Helvetica,sans-Serif" font-size="12.00">Available</text>
</g>
<!-- Occupied -->
<g id="node2" class="node">
<title>Occupied</title>
<path fill="#fee2e2" stroke="#dc2626" d="M163.35,-81.45C163.35,-81.45 12,-81.45 12,-81.45 6,-81.45 0,-75.45 0,-69.45 0,-69.45 0,-12 0,-12 0,-6 6,0 12,0 12,0 163.35,0 163.35,0 169.35,0 175.35,-6 175.35,-12 175.35,-12 175.35,-69.45 175.35,-69.45 175.35,-75.45 169.35,-81.45 163.35,-81.45"/>
<text text-anchor="middle" x="87.68" y="-48.45" font-family="Helvetica,sans-Serif" font-size="12.00">Occupied</text>
<text text-anchor="middle" x="87.68" y="-35.7" font-family="Helvetica,sans-Serif" font-size="12.00">(currentRenter set)</text>
<text text-anchor="middle" x="87.68" y="-22.95" font-family="Helvetica,sans-Serif" font-size="12.00">(exclusiveUntil &gt; now)</text>
</g>
<!-- Available&#45;&gt;Occupied -->
<g id="edge1" class="edge">
<title>Available&#45;&gt;Occupied</title>
<path fill="none" stroke="#16a34a" stroke-width="2.5" d="M36.68,-146.17C26.99,-132.31 19.67,-115.1 26.43,-99.45 27.36,-97.28 28.42,-95.16 29.59,-93.08"/>
<polygon fill="#16a34a" stroke="#16a34a" stroke-width="2.5" points="32.46,-95.09 35.18,-84.85 26.67,-91.16 32.46,-95.09"/>
<text text-anchor="middle" x="77.05" y="-113" font-family="Helvetica,sans-Serif" font-size="11.00">rent()</text>
<text text-anchor="middle" x="77.05" y="-101" font-family="Helvetica,sans-Serif" font-size="11.00">checks exclusiveUntil</text>
</g>
<!-- Occupied&#45;&gt;Available -->
<g id="edge2" class="edge">
<title>Occupied&#45;&gt;Available</title>
<path fill="none" stroke="#f59e0b" stroke-width="2.5" d="M122.94,-81.68C130.5,-94.99 134.43,-109.87 127.68,-123.45 125.4,-128.03 122.48,-132.29 119.14,-136.25"/>
<polygon fill="#f59e0b" stroke="#f59e0b" stroke-width="2.5" points="116.69,-133.74 112.13,-143.3 121.66,-138.67 116.69,-133.74"/>
<text text-anchor="middle" x="167.52" y="-113" font-family="Helvetica,sans-Serif" font-size="11.00">expiry / release</text>
<text text-anchor="middle" x="167.52" y="-101" font-family="Helvetica,sans-Serif" font-size="11.00">(auto unlock)</text>
</g>
<!-- Note1 -->
<g id="node3" class="node">
<title>Note1</title>
<polygon fill="#fff7ed" stroke="#f97316" points="280.1,-207.15 151.25,-207.15 151.25,-141.45 286.1,-141.45 286.1,-201.15 280.1,-207.15"/>
<polyline fill="none" stroke="#f97316" points="280.1,-207.15 280.1,-201.15"/>
<polyline fill="none" stroke="#f97316" points="286.1,-201.15 280.1,-201.15"/>
<text text-anchor="middle" x="218.68" y="-176.05" font-family="Helvetica,sans-Serif" font-size="10.00" fill="#9a3412">No calendar</text>
<text text-anchor="middle" x="218.68" y="-164.8" font-family="Helvetica,sans-Serif" font-size="10.00" fill="#9a3412">No future booking</text>
</g>
<!-- Occupied&#45;&gt;Note1 -->
</g>
</svg>
