<?xml version="1.0" encoding="utf-8" standalone="no"?>
<!DOCTYPE svg PUBLIC "-//W3C//DTD SVG 1.1//EN"
  "http://www.w3.org/Graphics/SVG/1.1/DTD/svg11.dtd">
<svg xmlns:xlink="http://www.w3.org/1999/xlink" width="713.139688pt" height="414.019696pt" viewBox="0 0 713.139688 414.019696" xmlns="http://www.w3.org/2000/svg" version="1.1">
 <metadata>
  <rdf:RDF xmlns:dc="http://purl.org/dc/elements/1.1/" xmlns:cc="http://creativecommons.org/ns#" xmlns:rdf="http://www.w3.org/1999/02/22-rdf-syntax-ns#">
   <cc:Work>
    <dc:type rdf:resource="http://purl.org/dc/dcmitype/StillImage"/>
    <dc:date>2026-06-11T16:42:08.336144</dc:date>
    <dc:format>image/svg+xml</dc:format>
    <dc:creator>
     <cc:Agent>
      <dc:title>Matplotlib v3.10.8, https://matplotlib.org/</dc:title>
     </cc:Agent>
    </dc:creator>
   </cc:Work>
  </rdf:RDF>
 </metadata>
 <defs>
  <style type="text/css">*{stroke-linejoin: round; stroke-linecap: butt}</style>
 </defs>
 <g id="figure_1">
  <g id="patch_1">
   <path d="M 0 414.019696 
L 713.139688 414.019696 
L 713.139688 0 
L 0 0 
z
" style="fill: #f7f6f3"/>
  </g>
  <g id="axes_1">
   <g id="patch_2">
    <path d="M 74.139688 349.341478 
L 687.939688 349.341478 
L 687.939688 27.789478 
L 74.139688 27.789478 
z
" style="fill: #f7f6f3"/>
   </g>
   <g id="matplotlib.axis_1">
    <g id="xtick_1">
     <g id="line2d_1">
      <defs>
       <path id="meeb18d3af7" d="M 0 0 
L 0 3.5 
" style="stroke: #2b2b2b; stroke-width: 0.8"/>
      </defs>
      <g>
       <use xlink:href="#meeb18d3af7" x="144.59901" y="349.341478" style="fill: #2b2b2b; stroke: #2b2b2b; stroke-width: 0.8"/>
      </g>
     </g>
     <g id="text_1">
      <!-- USDY -->
      <g style="fill: #2b2b2b" transform="translate(126.539166 365.646634) scale(0.13 -0.13)">
       <defs>
        <path id="Arial-BoldMT-55" d="M 459 4581 
L 1384 4581 
L 1384 2100 
Q 1384 1509 1419 1334 
Q 1478 1053 1701 883 
Q 1925 713 2313 713 
Q 2706 713 2906 873 
Q 3106 1034 3147 1268 
Q 3188 1503 3188 2047 
L 3188 4581 
L 4113 4581 
L 4113 2175 
Q 4113 1350 4038 1009 
Q 3963 669 3761 434 
Q 3559 200 3221 61 
Q 2884 -78 2341 -78 
Q 1684 -78 1345 73 
Q 1006 225 809 467 
Q 613 709 550 975 
Q 459 1369 459 2138 
L 459 4581 
z
" transform="scale(0.015625)"/>
        <path id="Arial-BoldMT-53" d="M 231 1491 
L 1131 1578 
Q 1213 1125 1461 912 
Q 1709 700 2131 700 
Q 2578 700 2804 889 
Q 3031 1078 3031 1331 
Q 3031 1494 2936 1608 
Q 2841 1722 2603 1806 
Q 2441 1863 1863 2006 
Q 1119 2191 819 2459 
Q 397 2838 397 3381 
Q 397 3731 595 4036 
Q 794 4341 1167 4500 
Q 1541 4659 2069 4659 
Q 2931 4659 3367 4281 
Q 3803 3903 3825 3272 
L 2900 3231 
Q 2841 3584 2645 3739 
Q 2450 3894 2059 3894 
Q 1656 3894 1428 3728 
Q 1281 3622 1281 3444 
Q 1281 3281 1419 3166 
Q 1594 3019 2269 2859 
Q 2944 2700 3267 2529 
Q 3591 2359 3773 2064 
Q 3956 1769 3956 1334 
Q 3956 941 3737 597 
Q 3519 253 3119 86 
Q 2719 -81 2122 -81 
Q 1253 -81 787 320 
Q 322 722 231 1491 
z
" transform="scale(0.015625)"/>
        <path id="Arial-BoldMT-44" d="M 463 4581 
L 2153 4581 
Q 2725 4581 3025 4494 
Q 3428 4375 3715 4072 
Q 4003 3769 4153 3330 
Q 4303 2891 4303 2247 
Q 4303 1681 4163 1272 
Q 3991 772 3672 463 
Q 3431 228 3022 97 
Q 2716 0 2203 0 
L 463 0 
L 463 4581 
z
M 1388 3806 
L 1388 772 
L 2078 772 
Q 2466 772 2638 816 
Q 2863 872 3011 1006 
Q 3159 1141 3253 1448 
Q 3347 1756 3347 2288 
Q 3347 2819 3253 3103 
Q 3159 3388 2990 3547 
Q 2822 3706 2563 3763 
Q 2369 3806 1803 3806 
L 1388 3806 
z
" transform="scale(0.015625)"/>
        <path id="Arial-BoldMT-59" d="M 1669 0 
L 1669 1928 
L -9 4581 
L 1075 4581 
L 2153 2769 
L 3209 4581 
L 4275 4581 
L 2591 1922 
L 2591 0 
L 1669 0 
z
" transform="scale(0.015625)"/>
       </defs>
       <use xlink:href="#Arial-BoldMT-55"/>
       <use xlink:href="#Arial-BoldMT-53" transform="translate(72.216797 0)"/>
       <use xlink:href="#Arial-BoldMT-44" transform="translate(138.916016 0)"/>
       <use xlink:href="#Arial-BoldMT-59" transform="translate(211.132812 0)"/>
      </g>
     </g>
    </g>
    <g id="xtick_2">
     <g id="line2d_2">
      <g>
       <use xlink:href="#meeb18d3af7" x="262.819349" y="349.341478" style="fill: #2b2b2b; stroke: #2b2b2b; stroke-width: 0.8"/>
      </g>
     </g>
     <g id="text_2">
      <!-- BUIDL -->
      <g style="fill: #2b2b2b" transform="translate(242.960833 365.646634) scale(0.13 -0.13)">
       <defs>
        <path id="Arial-BoldMT-42" d="M 469 4581 
L 2300 4581 
Q 2844 4581 3111 4536 
Q 3378 4491 3589 4347 
Q 3800 4203 3940 3964 
Q 4081 3725 4081 3428 
Q 4081 3106 3907 2837 
Q 3734 2569 3438 2434 
Q 3856 2313 4081 2019 
Q 4306 1725 4306 1328 
Q 4306 1016 4161 720 
Q 4016 425 3764 248 
Q 3513 72 3144 31 
Q 2913 6 2028 0 
L 469 0 
L 469 4581 
z
M 1394 3819 
L 1394 2759 
L 2000 2759 
Q 2541 2759 2672 2775 
Q 2909 2803 3045 2939 
Q 3181 3075 3181 3297 
Q 3181 3509 3064 3642 
Q 2947 3775 2716 3803 
Q 2578 3819 1925 3819 
L 1394 3819 
z
M 1394 1997 
L 1394 772 
L 2250 772 
Q 2750 772 2884 800 
Q 3091 838 3220 983 
Q 3350 1128 3350 1372 
Q 3350 1578 3250 1722 
Q 3150 1866 2961 1931 
Q 2772 1997 2141 1997 
L 1394 1997 
z
" transform="scale(0.015625)"/>
        <path id="Arial-BoldMT-49" d="M 438 0 
L 438 4581 
L 1363 4581 
L 1363 0 
L 438 0 
z
" transform="scale(0.015625)"/>
        <path id="Arial-BoldMT-4c" d="M 491 0 
L 491 4544 
L 1416 4544 
L 1416 772 
L 3716 772 
L 3716 0 
L 491 0 
z
" transform="scale(0.015625)"/>
       </defs>
       <use xlink:href="#Arial-BoldMT-42"/>
       <use xlink:href="#Arial-BoldMT-55" transform="translate(72.216797 0)"/>
       <use xlink:href="#Arial-BoldMT-49" transform="translate(144.433594 0)"/>
       <use xlink:href="#Arial-BoldMT-44" transform="translate(172.216797 0)"/>
       <use xlink:href="#Arial-BoldMT-4c" transform="translate(244.433594 0)"/>
      </g>
     </g>
    </g>
    <g id="xtick_3">
     <g id="line2d_3">
      <g>
       <use xlink:href="#meeb18d3af7" x="381.039688" y="349.341478" style="fill: #2b2b2b; stroke: #2b2b2b; stroke-width: 0.8"/>
      </g>
     </g>
     <g id="text_3">
      <!-- PAXG -->
      <g style="fill: #2b2b2b" transform="translate(363.097656 365.646634) scale(0.13 -0.13)">
       <defs>
        <path id="Arial-BoldMT-50" d="M 466 0 
L 466 4581 
L 1950 4581 
Q 2794 4581 3050 4513 
Q 3444 4409 3709 4064 
Q 3975 3719 3975 3172 
Q 3975 2750 3822 2462 
Q 3669 2175 3433 2011 
Q 3197 1847 2953 1794 
Q 2622 1728 1994 1728 
L 1391 1728 
L 1391 0 
L 466 0 
z
M 1391 3806 
L 1391 2506 
L 1897 2506 
Q 2444 2506 2628 2578 
Q 2813 2650 2917 2803 
Q 3022 2956 3022 3159 
Q 3022 3409 2875 3571 
Q 2728 3734 2503 3775 
Q 2338 3806 1838 3806 
L 1391 3806 
z
" transform="scale(0.015625)"/>
        <path id="Arial-BoldMT-41" d="M 4597 0 
L 3591 0 
L 3191 1041 
L 1359 1041 
L 981 0 
L 0 0 
L 1784 4581 
L 2763 4581 
L 4597 0 
z
M 2894 1813 
L 2263 3513 
L 1644 1813 
L 2894 1813 
z
" transform="scale(0.015625)"/>
        <path id="Arial-BoldMT-58" d="M 0 0 
L 1566 2391 
L 147 4581 
L 1228 4581 
L 2147 3109 
L 3047 4581 
L 4119 4581 
L 2694 2356 
L 4259 0 
L 3144 0 
L 2128 1584 
L 1109 0 
L 0 0 
z
" transform="scale(0.015625)"/>
        <path id="Arial-BoldMT-47" d="M 2597 1684 
L 2597 2456 
L 4591 2456 
L 4591 631 
Q 4300 350 3748 136 
Q 3197 -78 2631 -78 
Q 1913 -78 1378 223 
Q 844 525 575 1086 
Q 306 1647 306 2306 
Q 306 3022 606 3578 
Q 906 4134 1484 4431 
Q 1925 4659 2581 4659 
Q 3434 4659 3914 4301 
Q 4394 3944 4531 3313 
L 3613 3141 
Q 3516 3478 3248 3673 
Q 2981 3869 2581 3869 
Q 1975 3869 1617 3484 
Q 1259 3100 1259 2344 
Q 1259 1528 1621 1120 
Q 1984 713 2572 713 
Q 2863 713 3155 827 
Q 3447 941 3656 1103 
L 3656 1684 
L 2597 1684 
z
" transform="scale(0.015625)"/>
       </defs>
       <use xlink:href="#Arial-BoldMT-50"/>
       <use xlink:href="#Arial-BoldMT-41" transform="translate(59.324219 0)"/>
       <use xlink:href="#Arial-BoldMT-58" transform="translate(131.541016 0)"/>
       <use xlink:href="#Arial-BoldMT-47" transform="translate(198.240234 0)"/>
      </g>
     </g>
    </g>
    <g id="xtick_4">
     <g id="line2d_4">
      <g>
       <use xlink:href="#meeb18d3af7" x="499.260026" y="349.341478" style="fill: #2b2b2b; stroke: #2b2b2b; stroke-width: 0.8"/>
      </g>
     </g>
     <g id="text_4">
      <!-- BENJI -->
      <g style="fill: #2b2b2b" transform="translate(480.115495 365.646634) scale(0.13 -0.13)">
       <defs>
        <path id="Arial-BoldMT-45" d="M 466 0 
L 466 4581 
L 3863 4581 
L 3863 3806 
L 1391 3806 
L 1391 2791 
L 3691 2791 
L 3691 2019 
L 1391 2019 
L 1391 772 
L 3950 772 
L 3950 0 
L 466 0 
z
" transform="scale(0.015625)"/>
        <path id="Arial-BoldMT-4e" d="M 475 0 
L 475 4581 
L 1375 4581 
L 3250 1522 
L 3250 4581 
L 4109 4581 
L 4109 0 
L 3181 0 
L 1334 2988 
L 1334 0 
L 475 0 
z
" transform="scale(0.015625)"/>
        <path id="Arial-BoldMT-4a" d="M 2119 4581 
L 3041 4581 
L 3041 1681 
Q 3041 1113 2941 806 
Q 2806 406 2453 164 
Q 2100 -78 1522 -78 
Q 844 -78 478 301 
Q 113 681 109 1416 
L 981 1516 
Q 997 1122 1097 959 
Q 1247 713 1553 713 
Q 1863 713 1991 889 
Q 2119 1066 2119 1622 
L 2119 4581 
z
" transform="scale(0.015625)"/>
       </defs>
       <use xlink:href="#Arial-BoldMT-42"/>
       <use xlink:href="#Arial-BoldMT-45" transform="translate(72.216797 0)"/>
       <use xlink:href="#Arial-BoldMT-4e" transform="translate(138.916016 0)"/>
       <use xlink:href="#Arial-BoldMT-4a" transform="translate(211.132812 0)"/>
       <use xlink:href="#Arial-BoldMT-49" transform="translate(266.748047 0)"/>
      </g>
     </g>
    </g>
    <g id="xtick_5">
     <g id="line2d_5">
      <g>
       <use xlink:href="#meeb18d3af7" x="617.480365" y="349.341478" style="fill: #2b2b2b; stroke: #2b2b2b; stroke-width: 0.8"/>
      </g>
     </g>
     <g id="text_5">
      <!-- bCSPX -->
      <g style="fill: #2b2b2b" transform="translate(595.808959 365.646634) scale(0.13 -0.13)">
       <defs>
        <path id="Arial-BoldMT-62" d="M 422 0 
L 422 4581 
L 1300 4581 
L 1300 2931 
Q 1706 3394 2263 3394 
Q 2869 3394 3266 2955 
Q 3663 2516 3663 1694 
Q 3663 844 3258 384 
Q 2853 -75 2275 -75 
Q 1991 -75 1714 67 
Q 1438 209 1238 488 
L 1238 0 
L 422 0 
z
M 1294 1731 
Q 1294 1216 1456 969 
Q 1684 619 2063 619 
Q 2353 619 2558 867 
Q 2763 1116 2763 1650 
Q 2763 2219 2556 2470 
Q 2350 2722 2028 2722 
Q 1713 2722 1503 2476 
Q 1294 2231 1294 1731 
z
" transform="scale(0.015625)"/>
        <path id="Arial-BoldMT-43" d="M 3397 1684 
L 4294 1400 
Q 4088 650 3608 286 
Q 3128 -78 2391 -78 
Q 1478 -78 890 545 
Q 303 1169 303 2250 
Q 303 3394 893 4026 
Q 1484 4659 2447 4659 
Q 3288 4659 3813 4163 
Q 4125 3869 4281 3319 
L 3366 3100 
Q 3284 3456 3026 3662 
Q 2769 3869 2400 3869 
Q 1891 3869 1573 3503 
Q 1256 3138 1256 2319 
Q 1256 1450 1568 1081 
Q 1881 713 2381 713 
Q 2750 713 3015 947 
Q 3281 1181 3397 1684 
z
" transform="scale(0.015625)"/>
       </defs>
       <use xlink:href="#Arial-BoldMT-62"/>
       <use xlink:href="#Arial-BoldMT-43" transform="translate(61.083984 0)"/>
       <use xlink:href="#Arial-BoldMT-53" transform="translate(133.300781 0)"/>
       <use xlink:href="#Arial-BoldMT-50" transform="translate(200 0)"/>
       <use xlink:href="#Arial-BoldMT-58" transform="translate(266.699219 0)"/>
      </g>
     </g>
    </g>
   </g>
   <g id="matplotlib.axis_2">
    <g id="ytick_1">
     <g id="line2d_6">
      <path d="M 74.139688 337.827481 
L 687.939688 337.827481 
" clip-path="url(#pb877518a00)" style="fill: none; stroke: #d9d7d1; stroke-width: 0.7; stroke-linecap: square"/>
     </g>
     <g id="line2d_7">
      <defs>
       <path id="mf82bce1e31" d="M 0 0 
L -3.5 0 
" style="stroke: #2b2b2b; stroke-width: 0.8"/>
      </defs>
      <g>
       <use xlink:href="#mf82bce1e31" x="74.139688" y="337.827481" style="fill: #2b2b2b; stroke: #2b2b2b; stroke-width: 0.8"/>
      </g>
     </g>
     <g id="text_6">
      <!-- $\mathdefault{10^{-4}}$ -->
      <g style="fill: #2b2b2b" transform="translate(41.399688 344.465606) scale(0.13 -0.13)">
       <defs>
        <path id="ArialMT-31" d="M 2384 0 
L 1822 0 
L 1822 3584 
Q 1619 3391 1289 3197 
Q 959 3003 697 2906 
L 697 3450 
Q 1169 3672 1522 3987 
Q 1875 4303 2022 4600 
L 2384 4600 
L 2384 0 
z
" transform="scale(0.015625)"/>
        <path id="ArialMT-30" d="M 266 2259 
Q 266 3072 433 3567 
Q 600 4063 929 4331 
Q 1259 4600 1759 4600 
Q 2128 4600 2406 4451 
Q 2684 4303 2865 4023 
Q 3047 3744 3150 3342 
Q 3253 2941 3253 2259 
Q 3253 1453 3087 958 
Q 2922 463 2592 192 
Q 2263 -78 1759 -78 
Q 1097 -78 719 397 
Q 266 969 266 2259 
z
M 844 2259 
Q 844 1131 1108 757 
Q 1372 384 1759 384 
Q 2147 384 2411 759 
Q 2675 1134 2675 2259 
Q 2675 3391 2411 3762 
Q 2147 4134 1753 4134 
Q 1366 4134 1134 3806 
Q 844 3388 844 2259 
z
" transform="scale(0.015625)"/>
        <path id="ArialMT-2212" d="M 3381 1997 
L 356 1997 
L 356 2522 
L 3381 2522 
L 3381 1997 
z
" transform="scale(0.015625)"/>
        <path id="ArialMT-34" d="M 2069 0 
L 2069 1097 
L 81 1097 
L 81 1613 
L 2172 4581 
L 2631 4581 
L 2631 1613 
L 3250 1613 
L 3250 1097 
L 2631 1097 
L 2631 0 
L 2069 0 
z
M 2069 1613 
L 2069 3678 
L 634 1613 
L 2069 1613 
z
" transform="scale(0.015625)"/>
       </defs>
       <use xlink:href="#ArialMT-31" transform="translate(0 0.201563)"/>
       <use xlink:href="#ArialMT-30" transform="translate(55.615234 0.201563)"/>
       <use xlink:href="#ArialMT-2212" transform="translate(112.972813 69.895313) scale(0.7)"/>
       <use xlink:href="#ArialMT-34" transform="translate(153.851719 69.895313) scale(0.7)"/>
      </g>
     </g>
    </g>
    <g id="ytick_2">
     <g id="line2d_8">
      <path d="M 74.139688 299.578811 
L 687.939688 299.578811 
" clip-path="url(#pb877518a00)" style="fill: none; stroke: #d9d7d1; stroke-width: 0.7; stroke-linecap: square"/>
     </g>
     <g id="line2d_9">
      <g>
       <use xlink:href="#mf82bce1e31" x="74.139688" y="299.578811" style="fill: #2b2b2b; stroke: #2b2b2b; stroke-width: 0.8"/>
      </g>
     </g>
     <g id="text_7">
      <!-- $\mathdefault{10^{-3}}$ -->
      <g style="fill: #2b2b2b" transform="translate(41.399688 306.281936) scale(0.13 -0.13)">
       <defs>
        <path id="ArialMT-33" d="M 269 1209 
L 831 1284 
Q 928 806 1161 595 
Q 1394 384 1728 384 
Q 2125 384 2398 659 
Q 2672 934 2672 1341 
Q 2672 1728 2419 1979 
Q 2166 2231 1775 2231 
Q 1616 2231 1378 2169 
L 1441 2663 
Q 1497 2656 1531 2656 
Q 1891 2656 2178 2843 
Q 2466 3031 2466 3422 
Q 2466 3731 2256 3934 
Q 2047 4138 1716 4138 
Q 1388 4138 1169 3931 
Q 950 3725 888 3313 
L 325 3413 
Q 428 3978 793 4289 
Q 1159 4600 1703 4600 
Q 2078 4600 2393 4439 
Q 2709 4278 2876 4000 
Q 3044 3722 3044 3409 
Q 3044 3113 2884 2869 
Q 2725 2625 2413 2481 
Q 2819 2388 3044 2092 
Q 3269 1797 3269 1353 
Q 3269 753 2831 336 
Q 2394 -81 1725 -81 
Q 1122 -81 723 278 
Q 325 638 269 1209 
z
" transform="scale(0.015625)"/>
       </defs>
       <use xlink:href="#ArialMT-31" transform="translate(0 0.99375)"/>
       <use xlink:href="#ArialMT-30" transform="translate(55.615234 0.99375)"/>
       <use xlink:href="#ArialMT-2212" transform="translate(112.972813 70.6875) scale(0.7)"/>
       <use xlink:href="#ArialMT-33" transform="translate(153.851719 70.6875) scale(0.7)"/>
      </g>
     </g>
    </g>
    <g id="ytick_3">
     <g id="line2d_10">
      <path d="M 74.139688 261.330142 
L 687.939688 261.330142 
" clip-path="url(#pb877518a00)" style="fill: none; stroke: #d9d7d1; stroke-width: 0.7; stroke-linecap: square"/>
     </g>
     <g id="line2d_11">
      <g>
       <use xlink:href="#mf82bce1e31" x="74.139688" y="261.330142" style="fill: #2b2b2b; stroke: #2b2b2b; stroke-width: 0.8"/>
      </g>
     </g>
     <g id="text_8">
      <!-- $\mathdefault{10^{-2}}$ -->
      <g style="fill: #2b2b2b" transform="translate(41.399688 268.033267) scale(0.13 -0.13)">
       <defs>
        <path id="ArialMT-32" d="M 3222 541 
L 3222 0 
L 194 0 
Q 188 203 259 391 
Q 375 700 629 1000 
Q 884 1300 1366 1694 
Q 2113 2306 2375 2664 
Q 2638 3022 2638 3341 
Q 2638 3675 2398 3904 
Q 2159 4134 1775 4134 
Q 1369 4134 1125 3890 
Q 881 3647 878 3216 
L 300 3275 
Q 359 3922 746 4261 
Q 1134 4600 1788 4600 
Q 2447 4600 2831 4234 
Q 3216 3869 3216 3328 
Q 3216 3053 3103 2787 
Q 2991 2522 2730 2228 
Q 2469 1934 1863 1422 
Q 1356 997 1212 845 
Q 1069 694 975 541 
L 3222 541 
z
" transform="scale(0.015625)"/>
       </defs>
       <use xlink:href="#ArialMT-31" transform="translate(0 0.99375)"/>
       <use xlink:href="#ArialMT-30" transform="translate(55.615234 0.99375)"/>
       <use xlink:href="#ArialMT-2212" transform="translate(112.972813 70.6875) scale(0.7)"/>
       <use xlink:href="#ArialMT-32" transform="translate(153.851719 70.6875) scale(0.7)"/>
      </g>
     </g>
    </g>
    <g id="ytick_4">
     <g id="line2d_12">
      <path d="M 74.139688 223.081472 
L 687.939688 223.081472 
" clip-path="url(#pb877518a00)" style="fill: none; stroke: #d9d7d1; stroke-width: 0.7; stroke-linecap: square"/>
     </g>
     <g id="line2d_13">
      <g>
       <use xlink:href="#mf82bce1e31" x="74.139688" y="223.081472" style="fill: #2b2b2b; stroke: #2b2b2b; stroke-width: 0.8"/>
      </g>
     </g>
     <g id="text_9">
      <!-- $\mathdefault{10^{-1}}$ -->
      <g style="fill: #2b2b2b" transform="translate(41.399688 229.784597) scale(0.13 -0.13)">
       <use xlink:href="#ArialMT-31" transform="translate(0 0.99375)"/>
       <use xlink:href="#ArialMT-30" transform="translate(55.615234 0.99375)"/>
       <use xlink:href="#ArialMT-2212" transform="translate(112.972813 70.6875) scale(0.7)"/>
       <use xlink:href="#ArialMT-31" transform="translate(153.851719 70.6875) scale(0.7)"/>
      </g>
     </g>
    </g>
    <g id="ytick_5">
     <g id="line2d_14">
      <path d="M 74.139688 184.832803 
L 687.939688 184.832803 
" clip-path="url(#pb877518a00)" style="fill: none; stroke: #d9d7d1; stroke-width: 0.7; stroke-linecap: square"/>
     </g>
     <g id="line2d_15">
      <g>
       <use xlink:href="#mf82bce1e31" x="74.139688" y="184.832803" style="fill: #2b2b2b; stroke: #2b2b2b; stroke-width: 0.8"/>
      </g>
     </g>
     <g id="text_10">
      <!-- $\mathdefault{10^{0}}$ -->
      <g style="fill: #2b2b2b" transform="translate(46.729688 191.535928) scale(0.13 -0.13)">
       <use xlink:href="#ArialMT-31" transform="translate(0 0.99375)"/>
       <use xlink:href="#ArialMT-30" transform="translate(55.615234 0.99375)"/>
       <use xlink:href="#ArialMT-30" transform="translate(112.972813 70.6875) scale(0.7)"/>
      </g>
     </g>
    </g>
    <g id="ytick_6">
     <g id="line2d_16">
      <path d="M 74.139688 146.584133 
L 687.939688 146.584133 
" clip-path="url(#pb877518a00)" style="fill: none; stroke: #d9d7d1; stroke-width: 0.7; stroke-linecap: square"/>
     </g>
     <g id="line2d_17">
      <g>
       <use xlink:href="#mf82bce1e31" x="74.139688" y="146.584133" style="fill: #2b2b2b; stroke: #2b2b2b; stroke-width: 0.8"/>
      </g>
     </g>
     <g id="text_11">
      <!-- $\mathdefault{10^{1}}$ -->
      <g style="fill: #2b2b2b" transform="translate(46.729688 153.287258) scale(0.13 -0.13)">
       <use xlink:href="#ArialMT-31" transform="translate(0 0.99375)"/>
       <use xlink:href="#ArialMT-30" transform="translate(55.615234 0.99375)"/>
       <use xlink:href="#ArialMT-31" transform="translate(112.972813 70.6875) scale(0.7)"/>
      </g>
     </g>
    </g>
    <g id="ytick_7">
     <g id="line2d_18">
      <path d="M 74.139688 108.335464 
L 687.939688 108.335464 
" clip-path="url(#pb877518a00)" style="fill: none; stroke: #d9d7d1; stroke-width: 0.7; stroke-linecap: square"/>
     </g>
     <g id="line2d_19">
      <g>
       <use xlink:href="#mf82bce1e31" x="74.139688" y="108.335464" style="fill: #2b2b2b; stroke: #2b2b2b; stroke-width: 0.8"/>
      </g>
     </g>
     <g id="text_12">
      <!-- $\mathdefault{10^{2}}$ -->
      <g style="fill: #2b2b2b" transform="translate(46.729688 115.038589) scale(0.13 -0.13)">
       <use xlink:href="#ArialMT-31" transform="translate(0 0.99375)"/>
       <use xlink:href="#ArialMT-30" transform="translate(55.615234 0.99375)"/>
       <use xlink:href="#ArialMT-32" transform="translate(112.972813 70.6875) scale(0.7)"/>
      </g>
     </g>
    </g>
    <g id="ytick_8">
     <g id="line2d_20">
      <path d="M 74.139688 70.086794 
L 687.939688 70.086794 
" clip-path="url(#pb877518a00)" style="fill: none; stroke: #d9d7d1; stroke-width: 0.7; stroke-linecap: square"/>
     </g>
     <g id="line2d_21">
      <g>
       <use xlink:href="#mf82bce1e31" x="74.139688" y="70.086794" style="fill: #2b2b2b; stroke: #2b2b2b; stroke-width: 0.8"/>
      </g>
     </g>
     <g id="text_13">
      <!-- $\mathdefault{10^{3}}$ -->
      <g style="fill: #2b2b2b" transform="translate(46.729688 76.789919) scale(0.13 -0.13)">
       <use xlink:href="#ArialMT-31" transform="translate(0 0.99375)"/>
       <use xlink:href="#ArialMT-30" transform="translate(55.615234 0.99375)"/>
       <use xlink:href="#ArialMT-33" transform="translate(112.972813 70.6875) scale(0.7)"/>
      </g>
     </g>
    </g>
    <g id="ytick_9">
     <g id="line2d_22">
      <path d="M 74.139688 31.838125 
L 687.939688 31.838125 
" clip-path="url(#pb877518a00)" style="fill: none; stroke: #d9d7d1; stroke-width: 0.7; stroke-linecap: square"/>
     </g>
     <g id="line2d_23">
      <g>
       <use xlink:href="#mf82bce1e31" x="74.139688" y="31.838125" style="fill: #2b2b2b; stroke: #2b2b2b; stroke-width: 0.8"/>
      </g>
     </g>
     <g id="text_14">
      <!-- $\mathdefault{10^{4}}$ -->
      <g style="fill: #2b2b2b" transform="translate(46.729688 38.47625) scale(0.13 -0.13)">
       <use xlink:href="#ArialMT-31" transform="translate(0 0.201563)"/>
       <use xlink:href="#ArialMT-30" transform="translate(55.615234 0.201563)"/>
       <use xlink:href="#ArialMT-34" transform="translate(112.972813 69.895313) scale(0.7)"/>
      </g>
     </g>
    </g>
    <g id="ytick_10">
     <g id="line2d_24">
      <defs>
       <path id="m155a946478" d="M 0 0 
L -2 0 
" style="stroke: #2b2b2b; stroke-width: 0.6"/>
      </defs>
      <g>
       <use xlink:href="#m155a946478" x="74.139688" y="349.341478" style="fill: #2b2b2b; stroke: #2b2b2b; stroke-width: 0.6"/>
      </g>
     </g>
    </g>
    <g id="ytick_11">
     <g id="line2d_25">
      <g>
       <use xlink:href="#m155a946478" x="74.139688" y="346.3129" style="fill: #2b2b2b; stroke: #2b2b2b; stroke-width: 0.6"/>
      </g>
     </g>
    </g>
    <g id="ytick_12">
     <g id="line2d_26">
      <g>
       <use xlink:href="#m155a946478" x="74.139688" y="343.752275" style="fill: #2b2b2b; stroke: #2b2b2b; stroke-width: 0.6"/>
      </g>
     </g>
    </g>
    <g id="ytick_13">
     <g id="line2d_27">
      <g>
       <use xlink:href="#m155a946478" x="74.139688" y="341.53416" style="fill: #2b2b2b; stroke: #2b2b2b; stroke-width: 0.6"/>
      </g>
     </g>
    </g>
    <g id="ytick_14">
     <g id="line2d_28">
      <g>
       <use xlink:href="#m155a946478" x="74.139688" y="339.577644" style="fill: #2b2b2b; stroke: #2b2b2b; stroke-width: 0.6"/>
      </g>
     </g>
    </g>
    <g id="ytick_15">
     <g id="line2d_29">
      <g>
       <use xlink:href="#m155a946478" x="74.139688" y="326.313484" style="fill: #2b2b2b; stroke: #2b2b2b; stroke-width: 0.6"/>
      </g>
     </g>
    </g>
    <g id="ytick_16">
     <g id="line2d_30">
      <g>
       <use xlink:href="#m155a946478" x="74.139688" y="319.578228" style="fill: #2b2b2b; stroke: #2b2b2b; stroke-width: 0.6"/>
      </g>
     </g>
    </g>
    <g id="ytick_17">
     <g id="line2d_31">
      <g>
       <use xlink:href="#m155a946478" x="74.139688" y="314.799487" style="fill: #2b2b2b; stroke: #2b2b2b; stroke-width: 0.6"/>
      </g>
     </g>
    </g>
    <g id="ytick_18">
     <g id="line2d_32">
      <g>
       <use xlink:href="#m155a946478" x="74.139688" y="311.092808" style="fill: #2b2b2b; stroke: #2b2b2b; stroke-width: 0.6"/>
      </g>
     </g>
    </g>
    <g id="ytick_19">
     <g id="line2d_33">
      <g>
       <use xlink:href="#m155a946478" x="74.139688" y="308.064231" style="fill: #2b2b2b; stroke: #2b2b2b; stroke-width: 0.6"/>
      </g>
     </g>
    </g>
    <g id="ytick_20">
     <g id="line2d_34">
      <g>
       <use xlink:href="#m155a946478" x="74.139688" y="305.503605" style="fill: #2b2b2b; stroke: #2b2b2b; stroke-width: 0.6"/>
      </g>
     </g>
    </g>
    <g id="ytick_21">
     <g id="line2d_35">
      <g>
       <use xlink:href="#m155a946478" x="74.139688" y="303.28549" style="fill: #2b2b2b; stroke: #2b2b2b; stroke-width: 0.6"/>
      </g>
     </g>
    </g>
    <g id="ytick_22">
     <g id="line2d_36">
      <g>
       <use xlink:href="#m155a946478" x="74.139688" y="301.328974" style="fill: #2b2b2b; stroke: #2b2b2b; stroke-width: 0.6"/>
      </g>
     </g>
    </g>
    <g id="ytick_23">
     <g id="line2d_37">
      <g>
       <use xlink:href="#m155a946478" x="74.139688" y="288.064814" style="fill: #2b2b2b; stroke: #2b2b2b; stroke-width: 0.6"/>
      </g>
     </g>
    </g>
    <g id="ytick_24">
     <g id="line2d_38">
      <g>
       <use xlink:href="#m155a946478" x="74.139688" y="281.329558" style="fill: #2b2b2b; stroke: #2b2b2b; stroke-width: 0.6"/>
      </g>
     </g>
    </g>
    <g id="ytick_25">
     <g id="line2d_39">
      <g>
       <use xlink:href="#m155a946478" x="74.139688" y="276.550818" style="fill: #2b2b2b; stroke: #2b2b2b; stroke-width: 0.6"/>
      </g>
     </g>
    </g>
    <g id="ytick_26">
     <g id="line2d_40">
      <g>
       <use xlink:href="#m155a946478" x="74.139688" y="272.844139" style="fill: #2b2b2b; stroke: #2b2b2b; stroke-width: 0.6"/>
      </g>
     </g>
    </g>
    <g id="ytick_27">
     <g id="line2d_41">
      <g>
       <use xlink:href="#m155a946478" x="74.139688" y="269.815561" style="fill: #2b2b2b; stroke: #2b2b2b; stroke-width: 0.6"/>
      </g>
     </g>
    </g>
    <g id="ytick_28">
     <g id="line2d_42">
      <g>
       <use xlink:href="#m155a946478" x="74.139688" y="267.254936" style="fill: #2b2b2b; stroke: #2b2b2b; stroke-width: 0.6"/>
      </g>
     </g>
    </g>
    <g id="ytick_29">
     <g id="line2d_43">
      <g>
       <use xlink:href="#m155a946478" x="74.139688" y="265.036821" style="fill: #2b2b2b; stroke: #2b2b2b; stroke-width: 0.6"/>
      </g>
     </g>
    </g>
    <g id="ytick_30">
     <g id="line2d_44">
      <g>
       <use xlink:href="#m155a946478" x="74.139688" y="263.080305" style="fill: #2b2b2b; stroke: #2b2b2b; stroke-width: 0.6"/>
      </g>
     </g>
    </g>
    <g id="ytick_31">
     <g id="line2d_45">
      <g>
       <use xlink:href="#m155a946478" x="74.139688" y="249.816145" style="fill: #2b2b2b; stroke: #2b2b2b; stroke-width: 0.6"/>
      </g>
     </g>
    </g>
    <g id="ytick_32">
     <g id="line2d_46">
      <g>
       <use xlink:href="#m155a946478" x="74.139688" y="243.080889" style="fill: #2b2b2b; stroke: #2b2b2b; stroke-width: 0.6"/>
      </g>
     </g>
    </g>
    <g id="ytick_33">
     <g id="line2d_47">
      <g>
       <use xlink:href="#m155a946478" x="74.139688" y="238.302148" style="fill: #2b2b2b; stroke: #2b2b2b; stroke-width: 0.6"/>
      </g>
     </g>
    </g>
    <g id="ytick_34">
     <g id="line2d_48">
      <g>
       <use xlink:href="#m155a946478" x="74.139688" y="234.595469" style="fill: #2b2b2b; stroke: #2b2b2b; stroke-width: 0.6"/>
      </g>
     </g>
    </g>
    <g id="ytick_35">
     <g id="line2d_49">
      <g>
       <use xlink:href="#m155a946478" x="74.139688" y="231.566892" style="fill: #2b2b2b; stroke: #2b2b2b; stroke-width: 0.6"/>
      </g>
     </g>
    </g>
    <g id="ytick_36">
     <g id="line2d_50">
      <g>
       <use xlink:href="#m155a946478" x="74.139688" y="229.006266" style="fill: #2b2b2b; stroke: #2b2b2b; stroke-width: 0.6"/>
      </g>
     </g>
    </g>
    <g id="ytick_37">
     <g id="line2d_51">
      <g>
       <use xlink:href="#m155a946478" x="74.139688" y="226.788151" style="fill: #2b2b2b; stroke: #2b2b2b; stroke-width: 0.6"/>
      </g>
     </g>
    </g>
    <g id="ytick_38">
     <g id="line2d_52">
      <g>
       <use xlink:href="#m155a946478" x="74.139688" y="224.831635" style="fill: #2b2b2b; stroke: #2b2b2b; stroke-width: 0.6"/>
      </g>
     </g>
    </g>
    <g id="ytick_39">
     <g id="line2d_53">
      <g>
       <use xlink:href="#m155a946478" x="74.139688" y="211.567476" style="fill: #2b2b2b; stroke: #2b2b2b; stroke-width: 0.6"/>
      </g>
     </g>
    </g>
    <g id="ytick_40">
     <g id="line2d_54">
      <g>
       <use xlink:href="#m155a946478" x="74.139688" y="204.832219" style="fill: #2b2b2b; stroke: #2b2b2b; stroke-width: 0.6"/>
      </g>
     </g>
    </g>
    <g id="ytick_41">
     <g id="line2d_55">
      <g>
       <use xlink:href="#m155a946478" x="74.139688" y="200.053479" style="fill: #2b2b2b; stroke: #2b2b2b; stroke-width: 0.6"/>
      </g>
     </g>
    </g>
    <g id="ytick_42">
     <g id="line2d_56">
      <g>
       <use xlink:href="#m155a946478" x="74.139688" y="196.3468" style="fill: #2b2b2b; stroke: #2b2b2b; stroke-width: 0.6"/>
      </g>
     </g>
    </g>
    <g id="ytick_43">
     <g id="line2d_57">
      <g>
       <use xlink:href="#m155a946478" x="74.139688" y="193.318222" style="fill: #2b2b2b; stroke: #2b2b2b; stroke-width: 0.6"/>
      </g>
     </g>
    </g>
    <g id="ytick_44">
     <g id="line2d_58">
      <g>
       <use xlink:href="#m155a946478" x="74.139688" y="190.757597" style="fill: #2b2b2b; stroke: #2b2b2b; stroke-width: 0.6"/>
      </g>
     </g>
    </g>
    <g id="ytick_45">
     <g id="line2d_59">
      <g>
       <use xlink:href="#m155a946478" x="74.139688" y="188.539482" style="fill: #2b2b2b; stroke: #2b2b2b; stroke-width: 0.6"/>
      </g>
     </g>
    </g>
    <g id="ytick_46">
     <g id="line2d_60">
      <g>
       <use xlink:href="#m155a946478" x="74.139688" y="186.582966" style="fill: #2b2b2b; stroke: #2b2b2b; stroke-width: 0.6"/>
      </g>
     </g>
    </g>
    <g id="ytick_47">
     <g id="line2d_61">
      <g>
       <use xlink:href="#m155a946478" x="74.139688" y="173.318806" style="fill: #2b2b2b; stroke: #2b2b2b; stroke-width: 0.6"/>
      </g>
     </g>
    </g>
    <g id="ytick_48">
     <g id="line2d_62">
      <g>
       <use xlink:href="#m155a946478" x="74.139688" y="166.58355" style="fill: #2b2b2b; stroke: #2b2b2b; stroke-width: 0.6"/>
      </g>
     </g>
    </g>
    <g id="ytick_49">
     <g id="line2d_63">
      <g>
       <use xlink:href="#m155a946478" x="74.139688" y="161.804809" style="fill: #2b2b2b; stroke: #2b2b2b; stroke-width: 0.6"/>
      </g>
     </g>
    </g>
    <g id="ytick_50">
     <g id="line2d_64">
      <g>
       <use xlink:href="#m155a946478" x="74.139688" y="158.09813" style="fill: #2b2b2b; stroke: #2b2b2b; stroke-width: 0.6"/>
      </g>
     </g>
    </g>
    <g id="ytick_51">
     <g id="line2d_65">
      <g>
       <use xlink:href="#m155a946478" x="74.139688" y="155.069553" style="fill: #2b2b2b; stroke: #2b2b2b; stroke-width: 0.6"/>
      </g>
     </g>
    </g>
    <g id="ytick_52">
     <g id="line2d_66">
      <g>
       <use xlink:href="#m155a946478" x="74.139688" y="152.508927" style="fill: #2b2b2b; stroke: #2b2b2b; stroke-width: 0.6"/>
      </g>
     </g>
    </g>
    <g id="ytick_53">
     <g id="line2d_67">
      <g>
       <use xlink:href="#m155a946478" x="74.139688" y="150.290812" style="fill: #2b2b2b; stroke: #2b2b2b; stroke-width: 0.6"/>
      </g>
     </g>
    </g>
    <g id="ytick_54">
     <g id="line2d_68">
      <g>
       <use xlink:href="#m155a946478" x="74.139688" y="148.334297" style="fill: #2b2b2b; stroke: #2b2b2b; stroke-width: 0.6"/>
      </g>
     </g>
    </g>
    <g id="ytick_55">
     <g id="line2d_69">
      <g>
       <use xlink:href="#m155a946478" x="74.139688" y="135.070137" style="fill: #2b2b2b; stroke: #2b2b2b; stroke-width: 0.6"/>
      </g>
     </g>
    </g>
    <g id="ytick_56">
     <g id="line2d_70">
      <g>
       <use xlink:href="#m155a946478" x="74.139688" y="128.33488" style="fill: #2b2b2b; stroke: #2b2b2b; stroke-width: 0.6"/>
      </g>
     </g>
    </g>
    <g id="ytick_57">
     <g id="line2d_71">
      <g>
       <use xlink:href="#m155a946478" x="74.139688" y="123.55614" style="fill: #2b2b2b; stroke: #2b2b2b; stroke-width: 0.6"/>
      </g>
     </g>
    </g>
    <g id="ytick_58">
     <g id="line2d_72">
      <g>
       <use xlink:href="#m155a946478" x="74.139688" y="119.849461" style="fill: #2b2b2b; stroke: #2b2b2b; stroke-width: 0.6"/>
      </g>
     </g>
    </g>
    <g id="ytick_59">
     <g id="line2d_73">
      <g>
       <use xlink:href="#m155a946478" x="74.139688" y="116.820883" style="fill: #2b2b2b; stroke: #2b2b2b; stroke-width: 0.6"/>
      </g>
     </g>
    </g>
    <g id="ytick_60">
     <g id="line2d_74">
      <g>
       <use xlink:href="#m155a946478" x="74.139688" y="114.260258" style="fill: #2b2b2b; stroke: #2b2b2b; stroke-width: 0.6"/>
      </g>
     </g>
    </g>
    <g id="ytick_61">
     <g id="line2d_75">
      <g>
       <use xlink:href="#m155a946478" x="74.139688" y="112.042143" style="fill: #2b2b2b; stroke: #2b2b2b; stroke-width: 0.6"/>
      </g>
     </g>
    </g>
    <g id="ytick_62">
     <g id="line2d_76">
      <g>
       <use xlink:href="#m155a946478" x="74.139688" y="110.085627" style="fill: #2b2b2b; stroke: #2b2b2b; stroke-width: 0.6"/>
      </g>
     </g>
    </g>
    <g id="ytick_63">
     <g id="line2d_77">
      <g>
       <use xlink:href="#m155a946478" x="74.139688" y="96.821467" style="fill: #2b2b2b; stroke: #2b2b2b; stroke-width: 0.6"/>
      </g>
     </g>
    </g>
    <g id="ytick_64">
     <g id="line2d_78">
      <g>
       <use xlink:href="#m155a946478" x="74.139688" y="90.086211" style="fill: #2b2b2b; stroke: #2b2b2b; stroke-width: 0.6"/>
      </g>
     </g>
    </g>
    <g id="ytick_65">
     <g id="line2d_79">
      <g>
       <use xlink:href="#m155a946478" x="74.139688" y="85.30747" style="fill: #2b2b2b; stroke: #2b2b2b; stroke-width: 0.6"/>
      </g>
     </g>
    </g>
    <g id="ytick_66">
     <g id="line2d_80">
      <g>
       <use xlink:href="#m155a946478" x="74.139688" y="81.600791" style="fill: #2b2b2b; stroke: #2b2b2b; stroke-width: 0.6"/>
      </g>
     </g>
    </g>
    <g id="ytick_67">
     <g id="line2d_81">
      <g>
       <use xlink:href="#m155a946478" x="74.139688" y="78.572214" style="fill: #2b2b2b; stroke: #2b2b2b; stroke-width: 0.6"/>
      </g>
     </g>
    </g>
    <g id="ytick_68">
     <g id="line2d_82">
      <g>
       <use xlink:href="#m155a946478" x="74.139688" y="76.011588" style="fill: #2b2b2b; stroke: #2b2b2b; stroke-width: 0.6"/>
      </g>
     </g>
    </g>
    <g id="ytick_69">
     <g id="line2d_83">
      <g>
       <use xlink:href="#m155a946478" x="74.139688" y="73.793474" style="fill: #2b2b2b; stroke: #2b2b2b; stroke-width: 0.6"/>
      </g>
     </g>
    </g>
    <g id="ytick_70">
     <g id="line2d_84">
      <g>
       <use xlink:href="#m155a946478" x="74.139688" y="71.836958" style="fill: #2b2b2b; stroke: #2b2b2b; stroke-width: 0.6"/>
      </g>
     </g>
    </g>
    <g id="ytick_71">
     <g id="line2d_85">
      <g>
       <use xlink:href="#m155a946478" x="74.139688" y="58.572798" style="fill: #2b2b2b; stroke: #2b2b2b; stroke-width: 0.6"/>
      </g>
     </g>
    </g>
    <g id="ytick_72">
     <g id="line2d_86">
      <g>
       <use xlink:href="#m155a946478" x="74.139688" y="51.837541" style="fill: #2b2b2b; stroke: #2b2b2b; stroke-width: 0.6"/>
      </g>
     </g>
    </g>
    <g id="ytick_73">
     <g id="line2d_87">
      <g>
       <use xlink:href="#m155a946478" x="74.139688" y="47.058801" style="fill: #2b2b2b; stroke: #2b2b2b; stroke-width: 0.6"/>
      </g>
     </g>
    </g>
    <g id="ytick_74">
     <g id="line2d_88">
      <g>
       <use xlink:href="#m155a946478" x="74.139688" y="43.352122" style="fill: #2b2b2b; stroke: #2b2b2b; stroke-width: 0.6"/>
      </g>
     </g>
    </g>
    <g id="ytick_75">
     <g id="line2d_89">
      <g>
       <use xlink:href="#m155a946478" x="74.139688" y="40.323544" style="fill: #2b2b2b; stroke: #2b2b2b; stroke-width: 0.6"/>
      </g>
     </g>
    </g>
    <g id="ytick_76">
     <g id="line2d_90">
      <g>
       <use xlink:href="#m155a946478" x="74.139688" y="37.762919" style="fill: #2b2b2b; stroke: #2b2b2b; stroke-width: 0.6"/>
      </g>
     </g>
    </g>
    <g id="ytick_77">
     <g id="line2d_91">
      <g>
       <use xlink:href="#m155a946478" x="74.139688" y="35.544804" style="fill: #2b2b2b; stroke: #2b2b2b; stroke-width: 0.6"/>
      </g>
     </g>
    </g>
    <g id="ytick_78">
     <g id="line2d_92">
      <g>
       <use xlink:href="#m155a946478" x="74.139688" y="33.588288" style="fill: #2b2b2b; stroke: #2b2b2b; stroke-width: 0.6"/>
      </g>
     </g>
    </g>
    <g id="text_15">
     <!-- USD (log scale) -->
     <g style="fill: #2b2b2b" transform="translate(34.663594 234.076649) rotate(-90) scale(0.13 -0.13)">
      <defs>
       <path id="ArialMT-55" d="M 3500 4581 
L 4106 4581 
L 4106 1934 
Q 4106 1244 3950 837 
Q 3794 431 3386 176 
Q 2978 -78 2316 -78 
Q 1672 -78 1262 144 
Q 853 366 678 786 
Q 503 1206 503 1934 
L 503 4581 
L 1109 4581 
L 1109 1938 
Q 1109 1341 1220 1058 
Q 1331 775 1601 622 
Q 1872 469 2263 469 
Q 2931 469 3215 772 
Q 3500 1075 3500 1938 
L 3500 4581 
z
" transform="scale(0.015625)"/>
       <path id="ArialMT-53" d="M 288 1472 
L 859 1522 
Q 900 1178 1048 958 
Q 1197 738 1509 602 
Q 1822 466 2213 466 
Q 2559 466 2825 569 
Q 3091 672 3220 851 
Q 3350 1031 3350 1244 
Q 3350 1459 3225 1620 
Q 3100 1781 2813 1891 
Q 2628 1963 1997 2114 
Q 1366 2266 1113 2400 
Q 784 2572 623 2826 
Q 463 3081 463 3397 
Q 463 3744 659 4045 
Q 856 4347 1234 4503 
Q 1613 4659 2075 4659 
Q 2584 4659 2973 4495 
Q 3363 4331 3572 4012 
Q 3781 3694 3797 3291 
L 3216 3247 
Q 3169 3681 2898 3903 
Q 2628 4125 2100 4125 
Q 1550 4125 1298 3923 
Q 1047 3722 1047 3438 
Q 1047 3191 1225 3031 
Q 1400 2872 2139 2705 
Q 2878 2538 3153 2413 
Q 3553 2228 3743 1945 
Q 3934 1663 3934 1294 
Q 3934 928 3725 604 
Q 3516 281 3123 101 
Q 2731 -78 2241 -78 
Q 1619 -78 1198 103 
Q 778 284 539 648 
Q 300 1013 288 1472 
z
" transform="scale(0.015625)"/>
       <path id="ArialMT-44" d="M 494 0 
L 494 4581 
L 2072 4581 
Q 2606 4581 2888 4516 
Q 3281 4425 3559 4188 
Q 3922 3881 4101 3404 
Q 4281 2928 4281 2316 
Q 4281 1794 4159 1391 
Q 4038 988 3847 723 
Q 3656 459 3429 307 
Q 3203 156 2883 78 
Q 2563 0 2147 0 
L 494 0 
z
M 1100 541 
L 2078 541 
Q 2531 541 2789 625 
Q 3047 709 3200 863 
Q 3416 1078 3536 1442 
Q 3656 1806 3656 2325 
Q 3656 3044 3420 3430 
Q 3184 3816 2847 3947 
Q 2603 4041 2063 4041 
L 1100 4041 
L 1100 541 
z
" transform="scale(0.015625)"/>
       <path id="ArialMT-20" transform="scale(0.015625)"/>
       <path id="ArialMT-28" d="M 1497 -1347 
Q 1031 -759 709 28 
Q 388 816 388 1659 
Q 388 2403 628 3084 
Q 909 3875 1497 4659 
L 1900 4659 
Q 1522 4009 1400 3731 
Q 1209 3300 1100 2831 
Q 966 2247 966 1656 
Q 966 153 1900 -1347 
L 1497 -1347 
z
" transform="scale(0.015625)"/>
       <path id="ArialMT-6c" d="M 409 0 
L 409 4581 
L 972 4581 
L 972 0 
L 409 0 
z
" transform="scale(0.015625)"/>
       <path id="ArialMT-6f" d="M 213 1659 
Q 213 2581 725 3025 
Q 1153 3394 1769 3394 
Q 2453 3394 2887 2945 
Q 3322 2497 3322 1706 
Q 3322 1066 3130 698 
Q 2938 331 2570 128 
Q 2203 -75 1769 -75 
Q 1072 -75 642 372 
Q 213 819 213 1659 
z
M 791 1659 
Q 791 1022 1069 705 
Q 1347 388 1769 388 
Q 2188 388 2466 706 
Q 2744 1025 2744 1678 
Q 2744 2294 2464 2611 
Q 2184 2928 1769 2928 
Q 1347 2928 1069 2612 
Q 791 2297 791 1659 
z
" transform="scale(0.015625)"/>
       <path id="ArialMT-67" d="M 319 -275 
L 866 -356 
Q 900 -609 1056 -725 
Q 1266 -881 1628 -881 
Q 2019 -881 2231 -725 
Q 2444 -569 2519 -288 
Q 2563 -116 2559 434 
Q 2191 0 1641 0 
Q 956 0 581 494 
Q 206 988 206 1678 
Q 206 2153 378 2554 
Q 550 2956 876 3175 
Q 1203 3394 1644 3394 
Q 2231 3394 2613 2919 
L 2613 3319 
L 3131 3319 
L 3131 450 
Q 3131 -325 2973 -648 
Q 2816 -972 2473 -1159 
Q 2131 -1347 1631 -1347 
Q 1038 -1347 672 -1080 
Q 306 -813 319 -275 
z
M 784 1719 
Q 784 1066 1043 766 
Q 1303 466 1694 466 
Q 2081 466 2343 764 
Q 2606 1063 2606 1700 
Q 2606 2309 2336 2618 
Q 2066 2928 1684 2928 
Q 1309 2928 1046 2623 
Q 784 2319 784 1719 
z
" transform="scale(0.015625)"/>
       <path id="ArialMT-73" d="M 197 991 
L 753 1078 
Q 800 744 1014 566 
Q 1228 388 1613 388 
Q 2000 388 2187 545 
Q 2375 703 2375 916 
Q 2375 1106 2209 1216 
Q 2094 1291 1634 1406 
Q 1016 1563 777 1677 
Q 538 1791 414 1992 
Q 291 2194 291 2438 
Q 291 2659 392 2848 
Q 494 3038 669 3163 
Q 800 3259 1026 3326 
Q 1253 3394 1513 3394 
Q 1903 3394 2198 3281 
Q 2494 3169 2634 2976 
Q 2775 2784 2828 2463 
L 2278 2388 
Q 2241 2644 2061 2787 
Q 1881 2931 1553 2931 
Q 1166 2931 1000 2803 
Q 834 2675 834 2503 
Q 834 2394 903 2306 
Q 972 2216 1119 2156 
Q 1203 2125 1616 2013 
Q 2213 1853 2448 1751 
Q 2684 1650 2818 1456 
Q 2953 1263 2953 975 
Q 2953 694 2789 445 
Q 2625 197 2315 61 
Q 2006 -75 1616 -75 
Q 969 -75 630 194 
Q 291 463 197 991 
z
" transform="scale(0.015625)"/>
       <path id="ArialMT-63" d="M 2588 1216 
L 3141 1144 
Q 3050 572 2676 248 
Q 2303 -75 1759 -75 
Q 1078 -75 664 370 
Q 250 816 250 1647 
Q 250 2184 428 2587 
Q 606 2991 970 3192 
Q 1334 3394 1763 3394 
Q 2303 3394 2647 3120 
Q 2991 2847 3088 2344 
L 2541 2259 
Q 2463 2594 2264 2762 
Q 2066 2931 1784 2931 
Q 1359 2931 1093 2626 
Q 828 2322 828 1663 
Q 828 994 1084 691 
Q 1341 388 1753 388 
Q 2084 388 2306 591 
Q 2528 794 2588 1216 
z
" transform="scale(0.015625)"/>
       <path id="ArialMT-61" d="M 2588 409 
Q 2275 144 1986 34 
Q 1697 -75 1366 -75 
Q 819 -75 525 192 
Q 231 459 231 875 
Q 231 1119 342 1320 
Q 453 1522 633 1644 
Q 813 1766 1038 1828 
Q 1203 1872 1538 1913 
Q 2219 1994 2541 2106 
Q 2544 2222 2544 2253 
Q 2544 2597 2384 2738 
Q 2169 2928 1744 2928 
Q 1347 2928 1158 2789 
Q 969 2650 878 2297 
L 328 2372 
Q 403 2725 575 2942 
Q 747 3159 1072 3276 
Q 1397 3394 1825 3394 
Q 2250 3394 2515 3294 
Q 2781 3194 2906 3042 
Q 3031 2891 3081 2659 
Q 3109 2516 3109 2141 
L 3109 1391 
Q 3109 606 3145 398 
Q 3181 191 3288 0 
L 2700 0 
Q 2613 175 2588 409 
z
M 2541 1666 
Q 2234 1541 1622 1453 
Q 1275 1403 1131 1340 
Q 988 1278 909 1158 
Q 831 1038 831 891 
Q 831 666 1001 516 
Q 1172 366 1500 366 
Q 1825 366 2078 508 
Q 2331 650 2450 897 
Q 2541 1088 2541 1459 
L 2541 1666 
z
" transform="scale(0.015625)"/>
       <path id="ArialMT-65" d="M 2694 1069 
L 3275 997 
Q 3138 488 2766 206 
Q 2394 -75 1816 -75 
Q 1088 -75 661 373 
Q 234 822 234 1631 
Q 234 2469 665 2931 
Q 1097 3394 1784 3394 
Q 2450 3394 2872 2941 
Q 3294 2488 3294 1666 
Q 3294 1616 3291 1516 
L 816 1516 
Q 847 969 1125 678 
Q 1403 388 1819 388 
Q 2128 388 2347 550 
Q 2566 713 2694 1069 
z
M 847 1978 
L 2700 1978 
Q 2663 2397 2488 2606 
Q 2219 2931 1791 2931 
Q 1403 2931 1139 2672 
Q 875 2413 847 1978 
z
" transform="scale(0.015625)"/>
       <path id="ArialMT-29" d="M 791 -1347 
L 388 -1347 
Q 1322 153 1322 1656 
Q 1322 2244 1188 2822 
Q 1081 3291 891 3722 
Q 769 4003 388 4659 
L 791 4659 
Q 1378 3875 1659 3084 
Q 1900 2403 1900 1659 
Q 1900 816 1576 28 
Q 1253 -759 791 -1347 
z
" transform="scale(0.015625)"/>
      </defs>
      <use xlink:href="#ArialMT-55"/>
      <use xlink:href="#ArialMT-53" transform="translate(72.216797 0)"/>
      <use xlink:href="#ArialMT-44" transform="translate(138.916016 0)"/>
      <use xlink:href="#ArialMT-20" transform="translate(211.132812 0)"/>
      <use xlink:href="#ArialMT-28" transform="translate(238.916016 0)"/>
      <use xlink:href="#ArialMT-6c" transform="translate(272.216797 0)"/>
      <use xlink:href="#ArialMT-6f" transform="translate(294.433594 0)"/>
      <use xlink:href="#ArialMT-67" transform="translate(350.048828 0)"/>
      <use xlink:href="#ArialMT-20" transform="translate(405.664062 0)"/>
      <use xlink:href="#ArialMT-73" transform="translate(433.447266 0)"/>
      <use xlink:href="#ArialMT-63" transform="translate(483.447266 0)"/>
      <use xlink:href="#ArialMT-61" transform="translate(533.447266 0)"/>
      <use xlink:href="#ArialMT-6c" transform="translate(589.0625 0)"/>
      <use xlink:href="#ArialMT-65" transform="translate(611.279297 0)"/>
      <use xlink:href="#ArialMT-29" transform="translate(666.894531 0)"/>
     </g>
    </g>
   </g>
   <g id="patch_3">
    <path d="M 74.139688 349.341478 
L 74.139688 27.789478 
" style="fill: none; stroke: #d9d7d1; stroke-width: 0.8; stroke-linejoin: miter; stroke-linecap: square"/>
   </g>
   <g id="patch_4">
    <path d="M 74.139687 349.341478 
L 687.939687 349.341478 
" style="fill: none; stroke: #d9d7d1; stroke-width: 0.8; stroke-linejoin: miter; stroke-linecap: square"/>
   </g>
   <g id="patch_5">
    <path d="M 102.039688 38433.50227 
L 130.412569 38433.50227 
L 130.412569 68.594434 
L 102.039688 68.594434 
z
" clip-path="url(#pb877518a00)" style="fill: #4c6a91; opacity: 0.92"/>
   </g>
   <g id="patch_6">
    <path d="M 220.260026 38433.50227 
L 248.632908 38433.50227 
L 248.632908 98.710637 
L 220.260026 98.710637 
z
" clip-path="url(#pb877518a00)" style="fill: #4c6a91; opacity: 0.92"/>
   </g>
   <g id="patch_7">
    <path d="M 338.480365 38433.50227 
L 366.853247 38433.50227 
L 366.853247 63.098766 
L 338.480365 63.098766 
z
" clip-path="url(#pb877518a00)" style="fill: #4c6a91; opacity: 0.92"/>
   </g>
   <g id="patch_8">
    <path d="M 456.700704 38433.50227 
L 485.073586 38433.50227 
L 485.073586 127.366965 
L 456.700704 127.366965 
z
" clip-path="url(#pb877518a00)" style="fill: #4c6a91; opacity: 0.92"/>
   </g>
   <g id="patch_9">
    <path d="M 574.921043 38433.50227 
L 603.293925 38433.50227 
L 603.293925 156.215606 
L 574.921043 156.215606 
z
" clip-path="url(#pb877518a00)" style="fill: #4c6a91; opacity: 0.92"/>
   </g>
   <g id="text_16">
    <!-- $1.1B -->
    <g style="fill: #2b2b2b" transform="translate(105.773628 65.72602) scale(0.08 -0.08)">
     <defs>
      <path id="ArialMT-24" d="M 1594 -659 
L 1594 -97 
Q 1172 -44 908 92 
Q 644 228 451 531 
Q 259 834 228 1272 
L 794 1378 
Q 859 925 1025 713 
Q 1263 413 1594 378 
L 1594 2169 
Q 1247 2234 884 2438 
Q 616 2588 470 2853 
Q 325 3119 325 3456 
Q 325 4056 750 4428 
Q 1034 4678 1594 4734 
L 1594 5003 
L 1925 5003 
L 1925 4734 
Q 2416 4688 2703 4447 
Q 3072 4141 3147 3606 
L 2566 3519 
Q 2516 3850 2358 4026 
Q 2200 4203 1925 4259 
L 1925 2638 
Q 2350 2531 2488 2472 
Q 2750 2356 2915 2190 
Q 3081 2025 3170 1797 
Q 3259 1569 3259 1303 
Q 3259 719 2887 328 
Q 2516 -63 1925 -91 
L 1925 -659 
L 1594 -659 
z
M 1594 4266 
Q 1266 4216 1077 4003 
Q 888 3791 888 3500 
Q 888 3213 1048 3019 
Q 1209 2825 1594 2709 
L 1594 4266 
z
M 1925 378 
Q 2253 419 2467 662 
Q 2681 906 2681 1266 
Q 2681 1572 2529 1758 
Q 2378 1944 1925 2091 
L 1925 378 
z
" transform="scale(0.015625)"/>
      <path id="ArialMT-2e" d="M 581 0 
L 581 641 
L 1222 641 
L 1222 0 
L 581 0 
z
" transform="scale(0.015625)"/>
      <path id="ArialMT-42" d="M 469 0 
L 469 4581 
L 2188 4581 
Q 2713 4581 3030 4442 
Q 3347 4303 3526 4014 
Q 3706 3725 3706 3409 
Q 3706 3116 3547 2856 
Q 3388 2597 3066 2438 
Q 3481 2316 3704 2022 
Q 3928 1728 3928 1328 
Q 3928 1006 3792 729 
Q 3656 453 3456 303 
Q 3256 153 2954 76 
Q 2653 0 2216 0 
L 469 0 
z
M 1075 2656 
L 2066 2656 
Q 2469 2656 2644 2709 
Q 2875 2778 2992 2937 
Q 3109 3097 3109 3338 
Q 3109 3566 3000 3739 
Q 2891 3913 2687 3977 
Q 2484 4041 1991 4041 
L 1075 4041 
L 1075 2656 
z
M 1075 541 
L 2216 541 
Q 2509 541 2628 563 
Q 2838 600 2978 687 
Q 3119 775 3209 942 
Q 3300 1109 3300 1328 
Q 3300 1584 3169 1773 
Q 3038 1963 2805 2039 
Q 2572 2116 2134 2116 
L 1075 2116 
L 1075 541 
z
" transform="scale(0.015625)"/>
     </defs>
     <use xlink:href="#ArialMT-24"/>
     <use xlink:href="#ArialMT-31" transform="translate(55.615234 0)"/>
     <use xlink:href="#ArialMT-2e" transform="translate(111.230469 0)"/>
     <use xlink:href="#ArialMT-31" transform="translate(139.013672 0)"/>
     <use xlink:href="#ArialMT-42" transform="translate(194.628906 0)"/>
    </g>
   </g>
   <g id="text_17">
    <!-- $178M -->
    <g style="fill: #2b2b2b" transform="translate(222.217092 95.842223) scale(0.08 -0.08)">
     <defs>
      <path id="ArialMT-37" d="M 303 3981 
L 303 4522 
L 3269 4522 
L 3269 4084 
Q 2831 3619 2401 2847 
Q 1972 2075 1738 1259 
Q 1569 684 1522 0 
L 944 0 
Q 953 541 1156 1306 
Q 1359 2072 1739 2783 
Q 2119 3494 2547 3981 
L 303 3981 
z
" transform="scale(0.015625)"/>
      <path id="ArialMT-38" d="M 1131 2484 
Q 781 2613 612 2850 
Q 444 3088 444 3419 
Q 444 3919 803 4259 
Q 1163 4600 1759 4600 
Q 2359 4600 2725 4251 
Q 3091 3903 3091 3403 
Q 3091 3084 2923 2848 
Q 2756 2613 2416 2484 
Q 2838 2347 3058 2040 
Q 3278 1734 3278 1309 
Q 3278 722 2862 322 
Q 2447 -78 1769 -78 
Q 1091 -78 675 323 
Q 259 725 259 1325 
Q 259 1772 486 2073 
Q 713 2375 1131 2484 
z
M 1019 3438 
Q 1019 3113 1228 2906 
Q 1438 2700 1772 2700 
Q 2097 2700 2305 2904 
Q 2513 3109 2513 3406 
Q 2513 3716 2298 3927 
Q 2084 4138 1766 4138 
Q 1444 4138 1231 3931 
Q 1019 3725 1019 3438 
z
M 838 1322 
Q 838 1081 952 856 
Q 1066 631 1291 507 
Q 1516 384 1775 384 
Q 2178 384 2440 643 
Q 2703 903 2703 1303 
Q 2703 1709 2433 1975 
Q 2163 2241 1756 2241 
Q 1359 2241 1098 1978 
Q 838 1716 838 1322 
z
" transform="scale(0.015625)"/>
      <path id="ArialMT-4d" d="M 475 0 
L 475 4581 
L 1388 4581 
L 2472 1338 
Q 2622 884 2691 659 
Q 2769 909 2934 1394 
L 4031 4581 
L 4847 4581 
L 4847 0 
L 4263 0 
L 4263 3834 
L 2931 0 
L 2384 0 
L 1059 3900 
L 1059 0 
L 475 0 
z
" transform="scale(0.015625)"/>
     </defs>
     <use xlink:href="#ArialMT-24"/>
     <use xlink:href="#ArialMT-31" transform="translate(55.615234 0)"/>
     <use xlink:href="#ArialMT-37" transform="translate(111.230469 0)"/>
     <use xlink:href="#ArialMT-38" transform="translate(166.845703 0)"/>
     <use xlink:href="#ArialMT-4d" transform="translate(222.460938 0)"/>
    </g>
   </g>
   <g id="text_18">
    <!-- $1.5B -->
    <g style="fill: #2b2b2b" transform="translate(342.214306 60.230352) scale(0.08 -0.08)">
     <defs>
      <path id="ArialMT-35" d="M 266 1200 
L 856 1250 
Q 922 819 1161 601 
Q 1400 384 1738 384 
Q 2144 384 2425 690 
Q 2706 997 2706 1503 
Q 2706 1984 2436 2262 
Q 2166 2541 1728 2541 
Q 1456 2541 1237 2417 
Q 1019 2294 894 2097 
L 366 2166 
L 809 4519 
L 3088 4519 
L 3088 3981 
L 1259 3981 
L 1013 2750 
Q 1425 3038 1878 3038 
Q 2478 3038 2890 2622 
Q 3303 2206 3303 1553 
Q 3303 931 2941 478 
Q 2500 -78 1738 -78 
Q 1113 -78 717 272 
Q 322 622 266 1200 
z
" transform="scale(0.015625)"/>
     </defs>
     <use xlink:href="#ArialMT-24"/>
     <use xlink:href="#ArialMT-31" transform="translate(55.615234 0)"/>
     <use xlink:href="#ArialMT-2e" transform="translate(111.230469 0)"/>
     <use xlink:href="#ArialMT-35" transform="translate(139.013672 0)"/>
     <use xlink:href="#ArialMT-42" transform="translate(194.628906 0)"/>
    </g>
   </g>
   <g id="text_19">
    <!-- $32M -->
    <g style="fill: #2b2b2b" transform="translate(460.882145 124.49855) scale(0.08 -0.08)">
     <use xlink:href="#ArialMT-24"/>
     <use xlink:href="#ArialMT-33" transform="translate(55.615234 0)"/>
     <use xlink:href="#ArialMT-32" transform="translate(111.230469 0)"/>
     <use xlink:href="#ArialMT-4d" transform="translate(166.845703 0)"/>
    </g>
   </g>
   <g id="text_20">
    <!-- $6M -->
    <g style="fill: #2b2b2b" transform="translate(581.326859 153.347192) scale(0.08 -0.08)">
     <defs>
      <path id="ArialMT-36" d="M 3184 3459 
L 2625 3416 
Q 2550 3747 2413 3897 
Q 2184 4138 1850 4138 
Q 1581 4138 1378 3988 
Q 1113 3794 959 3422 
Q 806 3050 800 2363 
Q 1003 2672 1297 2822 
Q 1591 2972 1913 2972 
Q 2475 2972 2870 2558 
Q 3266 2144 3266 1488 
Q 3266 1056 3080 686 
Q 2894 316 2569 119 
Q 2244 -78 1831 -78 
Q 1128 -78 684 439 
Q 241 956 241 2144 
Q 241 3472 731 4075 
Q 1159 4600 1884 4600 
Q 2425 4600 2770 4297 
Q 3116 3994 3184 3459 
z
M 888 1484 
Q 888 1194 1011 928 
Q 1134 663 1356 523 
Q 1578 384 1822 384 
Q 2178 384 2434 671 
Q 2691 959 2691 1453 
Q 2691 1928 2437 2201 
Q 2184 2475 1800 2475 
Q 1419 2475 1153 2201 
Q 888 1928 888 1484 
z
" transform="scale(0.015625)"/>
     </defs>
     <use xlink:href="#ArialMT-24"/>
     <use xlink:href="#ArialMT-36" transform="translate(55.615234 0)"/>
     <use xlink:href="#ArialMT-4d" transform="translate(111.230469 0)"/>
    </g>
   </g>
   <g id="patch_10">
    <path d="M 130.412569 38433.50227 
L 158.78545 38433.50227 
L 158.78545 62.331468 
L 130.412569 62.331468 
z
" clip-path="url(#pb877518a00)" style="fill: #6e8fb3; opacity: 0.92"/>
   </g>
   <g id="patch_11">
    <path d="M 248.632908 38433.50227 
L 277.005789 38433.50227 
L 277.005789 116.71051 
L 248.632908 116.71051 
z
" clip-path="url(#pb877518a00)" style="fill: #6e8fb3; opacity: 0.92"/>
   </g>
   <g id="patch_12">
    <path d="M 366.853247 38433.50227 
L 395.226128 38433.50227 
L 395.226128 74.909891 
L 366.853247 74.909891 
z
" clip-path="url(#pb877518a00)" style="fill: #6e8fb3; opacity: 0.92"/>
   </g>
   <g id="patch_13">
    <path d="M 485.073586 38433.50227 
L 513.446467 38433.50227 
L 513.446467 281.329558 
L 485.073586 281.329558 
z
" clip-path="url(#pb877518a00)" style="fill: #6e8fb3; opacity: 0.92"/>
   </g>
   <g id="patch_14">
    <path d="M 603.293925 38433.50227 
L 631.666806 38433.50227 
L 631.666806 337.827481 
L 603.293925 337.827481 
z
" clip-path="url(#pb877518a00)" style="fill: #6e8fb3; opacity: 0.92"/>
   </g>
   <g id="text_21">
    <!-- $1.6B -->
    <g style="fill: #2b2b2b" transform="translate(134.14651 59.463054) scale(0.08 -0.08)">
     <use xlink:href="#ArialMT-24"/>
     <use xlink:href="#ArialMT-31" transform="translate(55.615234 0)"/>
     <use xlink:href="#ArialMT-2e" transform="translate(111.230469 0)"/>
     <use xlink:href="#ArialMT-36" transform="translate(139.013672 0)"/>
     <use xlink:href="#ArialMT-42" transform="translate(194.628906 0)"/>
    </g>
   </g>
   <g id="text_22">
    <!-- $60M -->
    <g style="fill: #2b2b2b" transform="translate(252.814349 113.842096) scale(0.08 -0.08)">
     <use xlink:href="#ArialMT-24"/>
     <use xlink:href="#ArialMT-36" transform="translate(55.615234 0)"/>
     <use xlink:href="#ArialMT-30" transform="translate(111.230469 0)"/>
     <use xlink:href="#ArialMT-4d" transform="translate(166.845703 0)"/>
    </g>
   </g>
   <g id="text_23">
    <!-- $748M -->
    <g style="fill: #2b2b2b" transform="translate(368.810313 72.041476) scale(0.08 -0.08)">
     <use xlink:href="#ArialMT-24"/>
     <use xlink:href="#ArialMT-37" transform="translate(55.615234 0)"/>
     <use xlink:href="#ArialMT-34" transform="translate(111.230469 0)"/>
     <use xlink:href="#ArialMT-38" transform="translate(166.845703 0)"/>
     <use xlink:href="#ArialMT-4d" transform="translate(222.460938 0)"/>
    </g>
   </g>
   <g id="text_24">
    <!-- $3k -->
    <g style="fill: #2b2b2b" transform="translate(492.811276 278.461144) scale(0.08 -0.08)">
     <defs>
      <path id="ArialMT-6b" d="M 425 0 
L 425 4581 
L 988 4581 
L 988 1969 
L 2319 3319 
L 3047 3319 
L 1778 2088 
L 3175 0 
L 2481 0 
L 1384 1697 
L 988 1316 
L 988 0 
L 425 0 
z
" transform="scale(0.015625)"/>
     </defs>
     <use xlink:href="#ArialMT-24"/>
     <use xlink:href="#ArialMT-33" transform="translate(55.615234 0)"/>
     <use xlink:href="#ArialMT-6b" transform="translate(111.230469 0)"/>
    </g>
   </g>
   <g id="text_25">
    <!-- ~$0 -->
    <g style="fill: #2b2b2b" transform="translate(610.695365 334.959067) scale(0.08 -0.08)">
     <defs>
      <path id="ArialMT-7e" d="M 272 1741 
L 272 2381 
Q 603 2756 1141 2756 
Q 1328 2756 1534 2701 
Q 1741 2647 2122 2484 
Q 2338 2394 2445 2366 
Q 2553 2338 2663 2338 
Q 2866 2338 3083 2459 
Q 3300 2581 3469 2766 
L 3469 2103 
Q 3269 1916 3064 1831 
Q 2859 1747 2603 1747 
Q 2416 1747 2245 1790 
Q 2075 1834 1704 2000 
Q 1334 2166 1088 2166 
Q 888 2166 711 2080 
Q 534 1994 272 1741 
z
" transform="scale(0.015625)"/>
     </defs>
     <use xlink:href="#ArialMT-7e"/>
     <use xlink:href="#ArialMT-24" transform="translate(58.398438 0)"/>
     <use xlink:href="#ArialMT-30" transform="translate(114.013672 0)"/>
    </g>
   </g>
   <g id="patch_15">
    <path d="M 158.78545 38433.50227 
L 187.158332 38433.50227 
L 187.158332 220.052895 
L 158.78545 220.052895 
z
" clip-path="url(#pb877518a00)" style="fill: #9a8f7a; opacity: 0.92"/>
   </g>
   <g id="patch_16">
    <path d="M 277.005789 38433.50227 
L 305.378671 38433.50227 
L 305.378671 337.827481 
L 277.005789 337.827481 
z
" clip-path="url(#pb877518a00)" style="fill: #9a8f7a; opacity: 0.92"/>
   </g>
   <g id="patch_17">
    <path d="M 395.226128 38433.50227 
L 423.59901 38433.50227 
L 423.59901 121.019261 
L 395.226128 121.019261 
z
" clip-path="url(#pb877518a00)" style="fill: #9a8f7a; opacity: 0.92"/>
   </g>
   <g id="patch_18">
    <path d="M 513.446467 38433.50227 
L 541.819349 38433.50227 
L 541.819349 337.827481 
L 513.446467 337.827481 
z
" clip-path="url(#pb877518a00)" style="fill: #9a8f7a; opacity: 0.92"/>
   </g>
   <g id="patch_19">
    <path d="M 631.666806 38433.50227 
L 660.039688 38433.50227 
L 660.039688 159.848293 
L 631.666806 159.848293 
z
" clip-path="url(#pb877518a00)" style="fill: #9a8f7a; opacity: 0.92"/>
   </g>
   <g id="text_26">
    <!-- $120k -->
    <g style="fill: #2b2b2b" transform="translate(162.074391 217.184481) scale(0.08 -0.08)">
     <use xlink:href="#ArialMT-24"/>
     <use xlink:href="#ArialMT-31" transform="translate(55.615234 0)"/>
     <use xlink:href="#ArialMT-32" transform="translate(111.230469 0)"/>
     <use xlink:href="#ArialMT-30" transform="translate(166.845703 0)"/>
     <use xlink:href="#ArialMT-6b" transform="translate(222.460938 0)"/>
    </g>
   </g>
   <g id="text_27">
    <!-- ~$0 -->
    <g style="fill: #2b2b2b" transform="translate(284.40723 334.959067) scale(0.08 -0.08)">
     <use xlink:href="#ArialMT-7e"/>
     <use xlink:href="#ArialMT-24" transform="translate(58.398438 0)"/>
     <use xlink:href="#ArialMT-30" transform="translate(114.013672 0)"/>
    </g>
   </g>
   <g id="text_28">
    <!-- $47M -->
    <g style="fill: #2b2b2b" transform="translate(399.407569 118.150847) scale(0.08 -0.08)">
     <use xlink:href="#ArialMT-24"/>
     <use xlink:href="#ArialMT-34" transform="translate(55.615234 0)"/>
     <use xlink:href="#ArialMT-37" transform="translate(111.230469 0)"/>
     <use xlink:href="#ArialMT-4d" transform="translate(166.845703 0)"/>
    </g>
   </g>
   <g id="text_29">
    <!-- ~$0 -->
    <g style="fill: #2b2b2b" transform="translate(520.847908 334.959067) scale(0.08 -0.08)">
     <use xlink:href="#ArialMT-7e"/>
     <use xlink:href="#ArialMT-24" transform="translate(58.398438 0)"/>
     <use xlink:href="#ArialMT-30" transform="translate(114.013672 0)"/>
    </g>
   </g>
   <g id="text_30">
    <!-- $4M -->
    <g style="fill: #2b2b2b" transform="translate(638.072622 156.979879) scale(0.08 -0.08)">
     <use xlink:href="#ArialMT-24"/>
     <use xlink:href="#ArialMT-34" transform="translate(55.615234 0)"/>
     <use xlink:href="#ArialMT-4d" transform="translate(111.230469 0)"/>
    </g>
   </g>
   <g id="legend_1">
    <g id="patch_20">
     <path d="M 565.942813 45.563071 
L 587.942813 45.563071 
L 587.942813 37.863071 
L 565.942813 37.863071 
z
" style="fill: #4c6a91; opacity: 0.92"/>
    </g>
    <g id="text_31">
     <!-- Asset value -->
     <g style="fill: #2b2b2b" transform="translate(596.742813 45.563071) scale(0.11 -0.11)">
      <defs>
       <path id="ArialMT-41" d="M -9 0 
L 1750 4581 
L 2403 4581 
L 4278 0 
L 3588 0 
L 3053 1388 
L 1138 1388 
L 634 0 
L -9 0 
z
M 1313 1881 
L 2866 1881 
L 2388 3150 
Q 2169 3728 2063 4100 
Q 1975 3659 1816 3225 
L 1313 1881 
z
" transform="scale(0.015625)"/>
       <path id="ArialMT-74" d="M 1650 503 
L 1731 6 
Q 1494 -44 1306 -44 
Q 1000 -44 831 53 
Q 663 150 594 308 
Q 525 466 525 972 
L 525 2881 
L 113 2881 
L 113 3319 
L 525 3319 
L 525 4141 
L 1084 4478 
L 1084 3319 
L 1650 3319 
L 1650 2881 
L 1084 2881 
L 1084 941 
Q 1084 700 1114 631 
Q 1144 563 1211 522 
Q 1278 481 1403 481 
Q 1497 481 1650 503 
z
" transform="scale(0.015625)"/>
       <path id="ArialMT-76" d="M 1344 0 
L 81 3319 
L 675 3319 
L 1388 1331 
Q 1503 1009 1600 663 
Q 1675 925 1809 1294 
L 2547 3319 
L 3125 3319 
L 1869 0 
L 1344 0 
z
" transform="scale(0.015625)"/>
       <path id="ArialMT-75" d="M 2597 0 
L 2597 488 
Q 2209 -75 1544 -75 
Q 1250 -75 995 37 
Q 741 150 617 320 
Q 494 491 444 738 
Q 409 903 409 1263 
L 409 3319 
L 972 3319 
L 972 1478 
Q 972 1038 1006 884 
Q 1059 663 1231 536 
Q 1403 409 1656 409 
Q 1909 409 2131 539 
Q 2353 669 2445 892 
Q 2538 1116 2538 1541 
L 2538 3319 
L 3100 3319 
L 3100 0 
L 2597 0 
z
" transform="scale(0.015625)"/>
      </defs>
      <use xlink:href="#ArialMT-41"/>
      <use xlink:href="#ArialMT-73" transform="translate(66.699219 0)"/>
      <use xlink:href="#ArialMT-73" transform="translate(116.699219 0)"/>
      <use xlink:href="#ArialMT-65" transform="translate(166.699219 0)"/>
      <use xlink:href="#ArialMT-74" transform="translate(222.314453 0)"/>
      <use xlink:href="#ArialMT-20" transform="translate(250.097656 0)"/>
      <use xlink:href="#ArialMT-76" transform="translate(277.880859 0)"/>
      <use xlink:href="#ArialMT-61" transform="translate(327.880859 0)"/>
      <use xlink:href="#ArialMT-6c" transform="translate(383.496094 0)"/>
      <use xlink:href="#ArialMT-75" transform="translate(405.712891 0)"/>
      <use xlink:href="#ArialMT-65" transform="translate(461.328125 0)"/>
     </g>
    </g>
    <g id="patch_21">
     <path d="M 565.942813 61.256978 
L 587.942813 61.256978 
L 587.942813 53.556978 
L 565.942813 53.556978 
z
" style="fill: #6e8fb3; opacity: 0.92"/>
    </g>
    <g id="text_32">
     <!-- May transfer vol. -->
     <g style="fill: #2b2b2b" transform="translate(596.742813 61.256978) scale(0.11 -0.11)">
      <defs>
       <path id="ArialMT-79" d="M 397 -1278 
L 334 -750 
Q 519 -800 656 -800 
Q 844 -800 956 -737 
Q 1069 -675 1141 -563 
Q 1194 -478 1313 -144 
Q 1328 -97 1363 -6 
L 103 3319 
L 709 3319 
L 1400 1397 
Q 1534 1031 1641 628 
Q 1738 1016 1872 1384 
L 2581 3319 
L 3144 3319 
L 1881 -56 
Q 1678 -603 1566 -809 
Q 1416 -1088 1222 -1217 
Q 1028 -1347 759 -1347 
Q 597 -1347 397 -1278 
z
" transform="scale(0.015625)"/>
       <path id="ArialMT-72" d="M 416 0 
L 416 3319 
L 922 3319 
L 922 2816 
Q 1116 3169 1280 3281 
Q 1444 3394 1641 3394 
Q 1925 3394 2219 3213 
L 2025 2691 
Q 1819 2813 1613 2813 
Q 1428 2813 1281 2702 
Q 1134 2591 1072 2394 
Q 978 2094 978 1738 
L 978 0 
L 416 0 
z
" transform="scale(0.015625)"/>
       <path id="ArialMT-6e" d="M 422 0 
L 422 3319 
L 928 3319 
L 928 2847 
Q 1294 3394 1984 3394 
Q 2284 3394 2536 3286 
Q 2788 3178 2913 3003 
Q 3038 2828 3088 2588 
Q 3119 2431 3119 2041 
L 3119 0 
L 2556 0 
L 2556 2019 
Q 2556 2363 2490 2533 
Q 2425 2703 2258 2804 
Q 2091 2906 1866 2906 
Q 1506 2906 1245 2678 
Q 984 2450 984 1813 
L 984 0 
L 422 0 
z
" transform="scale(0.015625)"/>
       <path id="ArialMT-66" d="M 556 0 
L 556 2881 
L 59 2881 
L 59 3319 
L 556 3319 
L 556 3672 
Q 556 4006 616 4169 
Q 697 4388 901 4523 
Q 1106 4659 1475 4659 
Q 1713 4659 2000 4603 
L 1916 4113 
Q 1741 4144 1584 4144 
Q 1328 4144 1222 4034 
Q 1116 3925 1116 3625 
L 1116 3319 
L 1763 3319 
L 1763 2881 
L 1116 2881 
L 1116 0 
L 556 0 
z
" transform="scale(0.015625)"/>
      </defs>
      <use xlink:href="#ArialMT-4d"/>
      <use xlink:href="#ArialMT-61" transform="translate(83.300781 0)"/>
      <use xlink:href="#ArialMT-79" transform="translate(138.916016 0)"/>
      <use xlink:href="#ArialMT-20" transform="translate(188.916016 0)"/>
      <use xlink:href="#ArialMT-74" transform="translate(216.699219 0)"/>
      <use xlink:href="#ArialMT-72" transform="translate(244.482422 0)"/>
      <use xlink:href="#ArialMT-61" transform="translate(277.783203 0)"/>
      <use xlink:href="#ArialMT-6e" transform="translate(333.398438 0)"/>
      <use xlink:href="#ArialMT-73" transform="translate(389.013672 0)"/>
      <use xlink:href="#ArialMT-66" transform="translate(439.013672 0)"/>
      <use xlink:href="#ArialMT-65" transform="translate(466.796875 0)"/>
      <use xlink:href="#ArialMT-72" transform="translate(522.412109 0)"/>
      <use xlink:href="#ArialMT-20" transform="translate(555.712891 0)"/>
      <use xlink:href="#ArialMT-76" transform="translate(583.496094 0)"/>
      <use xlink:href="#ArialMT-6f" transform="translate(633.496094 0)"/>
      <use xlink:href="#ArialMT-6c" transform="translate(689.111328 0)"/>
      <use xlink:href="#ArialMT-2e" transform="translate(711.328125 0)"/>
     </g>
    </g>
    <g id="patch_22">
     <path d="M 565.942813 76.945728 
L 587.942813 76.945728 
L 587.942813 69.245728 
L 565.942813 69.245728 
z
" style="fill: #9a8f7a; opacity: 0.92"/>
    </g>
    <g id="text_33">
     <!-- Best pool TVL -->
     <g style="fill: #2b2b2b" transform="translate(596.742813 76.945728) scale(0.11 -0.11)">
      <defs>
       <path id="ArialMT-70" d="M 422 -1272 
L 422 3319 
L 934 3319 
L 934 2888 
Q 1116 3141 1344 3267 
Q 1572 3394 1897 3394 
Q 2322 3394 2647 3175 
Q 2972 2956 3137 2557 
Q 3303 2159 3303 1684 
Q 3303 1175 3120 767 
Q 2938 359 2589 142 
Q 2241 -75 1856 -75 
Q 1575 -75 1351 44 
Q 1128 163 984 344 
L 984 -1272 
L 422 -1272 
z
M 931 1641 
Q 931 1000 1190 694 
Q 1450 388 1819 388 
Q 2194 388 2461 705 
Q 2728 1022 2728 1688 
Q 2728 2322 2467 2637 
Q 2206 2953 1844 2953 
Q 1484 2953 1207 2617 
Q 931 2281 931 1641 
z
" transform="scale(0.015625)"/>
       <path id="ArialMT-54" d="M 1659 0 
L 1659 4041 
L 150 4041 
L 150 4581 
L 3781 4581 
L 3781 4041 
L 2266 4041 
L 2266 0 
L 1659 0 
z
" transform="scale(0.015625)"/>
       <path id="ArialMT-56" d="M 1803 0 
L 28 4581 
L 684 4581 
L 1875 1253 
Q 2019 853 2116 503 
Q 2222 878 2363 1253 
L 3600 4581 
L 4219 4581 
L 2425 0 
L 1803 0 
z
" transform="scale(0.015625)"/>
       <path id="ArialMT-4c" d="M 469 0 
L 469 4581 
L 1075 4581 
L 1075 541 
L 3331 541 
L 3331 0 
L 469 0 
z
" transform="scale(0.015625)"/>
      </defs>
      <use xlink:href="#ArialMT-42"/>
      <use xlink:href="#ArialMT-65" transform="translate(66.699219 0)"/>
      <use xlink:href="#ArialMT-73" transform="translate(122.314453 0)"/>
      <use xlink:href="#ArialMT-74" transform="translate(172.314453 0)"/>
      <use xlink:href="#ArialMT-20" transform="translate(200.097656 0)"/>
      <use xlink:href="#ArialMT-70" transform="translate(227.880859 0)"/>
      <use xlink:href="#ArialMT-6f" transform="translate(283.496094 0)"/>
      <use xlink:href="#ArialMT-6f" transform="translate(339.111328 0)"/>
      <use xlink:href="#ArialMT-6c" transform="translate(394.726562 0)"/>
      <use xlink:href="#ArialMT-20" transform="translate(416.943359 0)"/>
      <use xlink:href="#ArialMT-54" transform="translate(442.976562 0)"/>
      <use xlink:href="#ArialMT-56" transform="translate(504.060547 0)"/>
      <use xlink:href="#ArialMT-4c" transform="translate(570.759766 0)"/>
     </g>
    </g>
   </g>
  </g>
  <g id="text_34">
   <!-- May 2026 ERC-20 transfers (local) · pool TVL snapshot 2026-06-04 · bCSPX pool on Gnosis -->
   <g style="fill: #5f6368" transform="translate(186.305703 386.925478) scale(0.09 -0.09)">
    <defs>
     <path id="ArialMT-45" d="M 506 0 
L 506 4581 
L 3819 4581 
L 3819 4041 
L 1113 4041 
L 1113 2638 
L 3647 2638 
L 3647 2100 
L 1113 2100 
L 1113 541 
L 3925 541 
L 3925 0 
L 506 0 
z
" transform="scale(0.015625)"/>
     <path id="ArialMT-52" d="M 503 0 
L 503 4581 
L 2534 4581 
Q 3147 4581 3465 4457 
Q 3784 4334 3975 4021 
Q 4166 3709 4166 3331 
Q 4166 2844 3850 2509 
Q 3534 2175 2875 2084 
Q 3116 1969 3241 1856 
Q 3506 1613 3744 1247 
L 4541 0 
L 3778 0 
L 3172 953 
Q 2906 1366 2734 1584 
Q 2563 1803 2427 1890 
Q 2291 1978 2150 2013 
Q 2047 2034 1813 2034 
L 1109 2034 
L 1109 0 
L 503 0 
z
M 1109 2559 
L 2413 2559 
Q 2828 2559 3062 2645 
Q 3297 2731 3419 2920 
Q 3541 3109 3541 3331 
Q 3541 3656 3305 3865 
Q 3069 4075 2559 4075 
L 1109 4075 
L 1109 2559 
z
" transform="scale(0.015625)"/>
     <path id="ArialMT-43" d="M 3763 1606 
L 4369 1453 
Q 4178 706 3683 314 
Q 3188 -78 2472 -78 
Q 1731 -78 1267 223 
Q 803 525 561 1097 
Q 319 1669 319 2325 
Q 319 3041 592 3573 
Q 866 4106 1370 4382 
Q 1875 4659 2481 4659 
Q 3169 4659 3637 4309 
Q 4106 3959 4291 3325 
L 3694 3184 
Q 3534 3684 3231 3912 
Q 2928 4141 2469 4141 
Q 1941 4141 1586 3887 
Q 1231 3634 1087 3207 
Q 944 2781 944 2328 
Q 944 1744 1114 1308 
Q 1284 872 1643 656 
Q 2003 441 2422 441 
Q 2931 441 3284 734 
Q 3638 1028 3763 1606 
z
" transform="scale(0.015625)"/>
     <path id="ArialMT-2d" d="M 203 1375 
L 203 1941 
L 1931 1941 
L 1931 1375 
L 203 1375 
z
" transform="scale(0.015625)"/>
     <path id="ArialMT-b7" d="M 744 1991 
L 744 2631 
L 1384 2631 
L 1384 1991 
L 744 1991 
z
" transform="scale(0.015625)"/>
     <path id="ArialMT-68" d="M 422 0 
L 422 4581 
L 984 4581 
L 984 2938 
Q 1378 3394 1978 3394 
Q 2347 3394 2619 3248 
Q 2891 3103 3008 2847 
Q 3125 2591 3125 2103 
L 3125 0 
L 2563 0 
L 2563 2103 
Q 2563 2525 2380 2717 
Q 2197 2909 1863 2909 
Q 1613 2909 1392 2779 
Q 1172 2650 1078 2428 
Q 984 2206 984 1816 
L 984 0 
L 422 0 
z
" transform="scale(0.015625)"/>
     <path id="ArialMT-62" d="M 941 0 
L 419 0 
L 419 4581 
L 981 4581 
L 981 2947 
Q 1338 3394 1891 3394 
Q 2197 3394 2470 3270 
Q 2744 3147 2920 2923 
Q 3097 2700 3197 2384 
Q 3297 2069 3297 1709 
Q 3297 856 2875 390 
Q 2453 -75 1863 -75 
Q 1275 -75 941 416 
L 941 0 
z
M 934 1684 
Q 934 1088 1097 822 
Q 1363 388 1816 388 
Q 2184 388 2453 708 
Q 2722 1028 2722 1663 
Q 2722 2313 2464 2622 
Q 2206 2931 1841 2931 
Q 1472 2931 1203 2611 
Q 934 2291 934 1684 
z
" transform="scale(0.015625)"/>
     <path id="ArialMT-50" d="M 494 0 
L 494 4581 
L 2222 4581 
Q 2678 4581 2919 4538 
Q 3256 4481 3484 4323 
Q 3713 4166 3852 3881 
Q 3991 3597 3991 3256 
Q 3991 2672 3619 2267 
Q 3247 1863 2275 1863 
L 1100 1863 
L 1100 0 
L 494 0 
z
M 1100 2403 
L 2284 2403 
Q 2872 2403 3119 2622 
Q 3366 2841 3366 3238 
Q 3366 3525 3220 3729 
Q 3075 3934 2838 4000 
Q 2684 4041 2272 4041 
L 1100 4041 
L 1100 2403 
z
" transform="scale(0.015625)"/>
     <path id="ArialMT-58" d="M 28 0 
L 1800 2388 
L 238 4581 
L 959 4581 
L 1791 3406 
Q 2050 3041 2159 2844 
Q 2313 3094 2522 3366 
L 3444 4581 
L 4103 4581 
L 2494 2422 
L 4228 0 
L 3478 0 
L 2325 1634 
Q 2228 1775 2125 1941 
Q 1972 1691 1906 1597 
L 756 0 
L 28 0 
z
" transform="scale(0.015625)"/>
     <path id="ArialMT-47" d="M 2638 1797 
L 2638 2334 
L 4578 2338 
L 4578 638 
Q 4131 281 3656 101 
Q 3181 -78 2681 -78 
Q 2006 -78 1454 211 
Q 903 500 622 1047 
Q 341 1594 341 2269 
Q 341 2938 620 3517 
Q 900 4097 1425 4378 
Q 1950 4659 2634 4659 
Q 3131 4659 3532 4498 
Q 3934 4338 4162 4050 
Q 4391 3763 4509 3300 
L 3963 3150 
Q 3859 3500 3706 3700 
Q 3553 3900 3268 4020 
Q 2984 4141 2638 4141 
Q 2222 4141 1919 4014 
Q 1616 3888 1430 3681 
Q 1244 3475 1141 3228 
Q 966 2803 966 2306 
Q 966 1694 1177 1281 
Q 1388 869 1791 669 
Q 2194 469 2647 469 
Q 3041 469 3416 620 
Q 3791 772 3984 944 
L 3984 1797 
L 2638 1797 
z
" transform="scale(0.015625)"/>
     <path id="ArialMT-69" d="M 425 3934 
L 425 4581 
L 988 4581 
L 988 3934 
L 425 3934 
z
M 425 0 
L 425 3319 
L 988 3319 
L 988 0 
L 425 0 
z
" transform="scale(0.015625)"/>
    </defs>
    <use xlink:href="#ArialMT-4d"/>
    <use xlink:href="#ArialMT-61" transform="translate(83.300781 0)"/>
    <use xlink:href="#ArialMT-79" transform="translate(138.916016 0)"/>
    <use xlink:href="#ArialMT-20" transform="translate(188.916016 0)"/>
    <use xlink:href="#ArialMT-32" transform="translate(216.699219 0)"/>
    <use xlink:href="#ArialMT-30" transform="translate(272.314453 0)"/>
    <use xlink:href="#ArialMT-32" transform="translate(327.929688 0)"/>
    <use xlink:href="#ArialMT-36" transform="translate(383.544922 0)"/>
    <use xlink:href="#ArialMT-20" transform="translate(439.160156 0)"/>
    <use xlink:href="#ArialMT-45" transform="translate(466.943359 0)"/>
    <use xlink:href="#ArialMT-52" transform="translate(533.642578 0)"/>
    <use xlink:href="#ArialMT-43" transform="translate(605.859375 0)"/>
    <use xlink:href="#ArialMT-2d" transform="translate(678.076172 0)"/>
    <use xlink:href="#ArialMT-32" transform="translate(711.376953 0)"/>
    <use xlink:href="#ArialMT-30" transform="translate(766.992188 0)"/>
    <use xlink:href="#ArialMT-20" transform="translate(822.607422 0)"/>
    <use xlink:href="#ArialMT-74" transform="translate(850.390625 0)"/>
    <use xlink:href="#ArialMT-72" transform="translate(878.173828 0)"/>
    <use xlink:href="#ArialMT-61" transform="translate(911.474609 0)"/>
    <use xlink:href="#ArialMT-6e" transform="translate(967.089844 0)"/>
    <use xlink:href="#ArialMT-73" transform="translate(1022.705078 0)"/>
    <use xlink:href="#ArialMT-66" transform="translate(1072.705078 0)"/>
    <use xlink:href="#ArialMT-65" transform="translate(1100.488281 0)"/>
    <use xlink:href="#ArialMT-72" transform="translate(1156.103516 0)"/>
    <use xlink:href="#ArialMT-73" transform="translate(1189.404297 0)"/>
    <use xlink:href="#ArialMT-20" transform="translate(1239.404297 0)"/>
    <use xlink:href="#ArialMT-28" transform="translate(1267.1875 0)"/>
    <use xlink:href="#ArialMT-6c" transform="translate(1300.488281 0)"/>
    <use xlink:href="#ArialMT-6f" transform="translate(1322.705078 0)"/>
    <use xlink:href="#ArialMT-63" transform="translate(1378.320312 0)"/>
    <use xlink:href="#ArialMT-61" transform="translate(1428.320312 0)"/>
    <use xlink:href="#ArialMT-6c" transform="translate(1483.935547 0)"/>
    <use xlink:href="#ArialMT-29" transform="translate(1506.152344 0)"/>
    <use xlink:href="#ArialMT-20" transform="translate(1539.453125 0)"/>
    <use xlink:href="#ArialMT-b7" transform="translate(1567.236328 0)"/>
    <use xlink:href="#ArialMT-20" transform="translate(1600.537109 0)"/>
    <use xlink:href="#ArialMT-70" transform="translate(1628.320312 0)"/>
    <use xlink:href="#ArialMT-6f" transform="translate(1683.935547 0)"/>
    <use xlink:href="#ArialMT-6f" transform="translate(1739.550781 0)"/>
    <use xlink:href="#ArialMT-6c" transform="translate(1795.166016 0)"/>
    <use xlink:href="#ArialMT-20" transform="translate(1817.382812 0)"/>
    <use xlink:href="#ArialMT-54" transform="translate(1843.416016 0)"/>
    <use xlink:href="#ArialMT-56" transform="translate(1904.5 0)"/>
    <use xlink:href="#ArialMT-4c" transform="translate(1971.199219 0)"/>
    <use xlink:href="#ArialMT-20" transform="translate(2023.064453 0)"/>
    <use xlink:href="#ArialMT-73" transform="translate(2050.847656 0)"/>
    <use xlink:href="#ArialMT-6e" transform="translate(2100.847656 0)"/>
    <use xlink:href="#ArialMT-61" transform="translate(2156.462891 0)"/>
    <use xlink:href="#ArialMT-70" transform="translate(2212.078125 0)"/>
    <use xlink:href="#ArialMT-73" transform="translate(2267.693359 0)"/>
    <use xlink:href="#ArialMT-68" transform="translate(2317.693359 0)"/>
    <use xlink:href="#ArialMT-6f" transform="translate(2373.308594 0)"/>
    <use xlink:href="#ArialMT-74" transform="translate(2428.923828 0)"/>
    <use xlink:href="#ArialMT-20" transform="translate(2456.707031 0)"/>
    <use xlink:href="#ArialMT-32" transform="translate(2484.490234 0)"/>
    <use xlink:href="#ArialMT-30" transform="translate(2540.105469 0)"/>
    <use xlink:href="#ArialMT-32" transform="translate(2595.720703 0)"/>
    <use xlink:href="#ArialMT-36" transform="translate(2651.335938 0)"/>
    <use xlink:href="#ArialMT-2d" transform="translate(2706.951172 0)"/>
    <use xlink:href="#ArialMT-30" transform="translate(2740.251953 0)"/>
    <use xlink:href="#ArialMT-36" transform="translate(2795.867188 0)"/>
    <use xlink:href="#ArialMT-2d" transform="translate(2851.482422 0)"/>
    <use xlink:href="#ArialMT-30" transform="translate(2884.783203 0)"/>
    <use xlink:href="#ArialMT-34" transform="translate(2940.398438 0)"/>
    <use xlink:href="#ArialMT-20" transform="translate(2996.013672 0)"/>
    <use xlink:href="#ArialMT-b7" transform="translate(3023.796875 0)"/>
    <use xlink:href="#ArialMT-20" transform="translate(3057.097656 0)"/>
    <use xlink:href="#ArialMT-62" transform="translate(3084.880859 0)"/>
    <use xlink:href="#ArialMT-43" transform="translate(3140.496094 0)"/>
    <use xlink:href="#ArialMT-53" transform="translate(3212.712891 0)"/>
    <use xlink:href="#ArialMT-50" transform="translate(3279.412109 0)"/>
    <use xlink:href="#ArialMT-58" transform="translate(3346.111328 0)"/>
    <use xlink:href="#ArialMT-20" transform="translate(3412.810547 0)"/>
    <use xlink:href="#ArialMT-70" transform="translate(3440.59375 0)"/>
    <use xlink:href="#ArialMT-6f" transform="translate(3496.208984 0)"/>
    <use xlink:href="#ArialMT-6f" transform="translate(3551.824219 0)"/>
    <use xlink:href="#ArialMT-6c" transform="translate(3607.439453 0)"/>
    <use xlink:href="#ArialMT-20" transform="translate(3629.65625 0)"/>
    <use xlink:href="#ArialMT-6f" transform="translate(3657.439453 0)"/>
    <use xlink:href="#ArialMT-6e" transform="translate(3713.054688 0)"/>
    <use xlink:href="#ArialMT-20" transform="translate(3768.669922 0)"/>
    <use xlink:href="#ArialMT-47" transform="translate(3796.453125 0)"/>
    <use xlink:href="#ArialMT-6e" transform="translate(3874.236328 0)"/>
    <use xlink:href="#ArialMT-6f" transform="translate(3929.851562 0)"/>
    <use xlink:href="#ArialMT-73" transform="translate(3985.466797 0)"/>
    <use xlink:href="#ArialMT-69" transform="translate(4035.466797 0)"/>
    <use xlink:href="#ArialMT-73" transform="translate(4057.683594 0)"/>
   </g>
  </g>
 </g>
 <defs>
  <clipPath id="pb877518a00">
   <rect x="74.139688" y="27.789478" width="613.8" height="321.552"/>
  </clipPath>
 </defs>
</svg>
