<?xml version="1.0" encoding="UTF-8" standalone="no"?>
<!DOCTYPE svg PUBLIC "-//W3C//DTD SVG 1.1//EN"
 "http://www.w3.org/Graphics/SVG/1.1/DTD/svg11.dtd">
<!-- Generated by graphviz version 12.2.1 (20241206.2353)
 -->
<!-- Title: PaygFig1 Pages: 1 -->
<svg width="633pt" height="243pt"
 viewBox="0.00 0.00 632.99 243.43" xmlns="http://www.w3.org/2000/svg" xmlns:xlink="http://www.w3.org/1999/xlink">
<g id="graph0" class="graph" transform="scale(1 1) rotate(0) translate(4 239.43)">
<title>PaygFig1</title>
<polygon fill="white" stroke="none" points="-4,4 -4,-239.43 628.99,-239.43 628.99,4 -4,4"/>
<text text-anchor="middle" x="312.49" y="-220.03" font-family="Helvetica,sans-Serif" font-size="12.00">Figure 1. Three contracts = three UX routes (UI picks a route; contract settles to provider(s))</text>
<!-- UI -->
<g id="node1" class="node">
<title>UI</title>
<path fill="#e5e7eb" stroke="#9ca3af" d="M142.83,-139.68C142.83,-139.68 12,-139.68 12,-139.68 6,-139.68 0,-133.68 0,-127.68 0,-127.68 0,-94.5 0,-94.5 0,-88.5 6,-82.5 12,-82.5 12,-82.5 142.83,-82.5 142.83,-82.5 148.83,-82.5 154.83,-88.5 154.83,-94.5 154.83,-94.5 154.83,-127.68 154.83,-127.68 154.83,-133.68 148.83,-139.68 142.83,-139.68"/>
<text text-anchor="middle" x="77.41" y="-112.44" font-family="Helvetica,sans-Serif" font-size="12.00">UI / dApp</text>
<text text-anchor="middle" x="77.41" y="-99.69" font-family="Helvetica,sans-Serif" font-size="12.00">(user chooses route)</text>
</g>
<!-- PPR -->
<g id="node2" class="node">
<title>PPR</title>
<path fill="#c7d2fe" stroke="#4338ca" d="M367.78,-214.68C367.78,-214.68 242.95,-214.68 242.95,-214.68 236.95,-214.68 230.95,-208.68 230.95,-202.68 230.95,-202.68 230.95,-169.5 230.95,-169.5 230.95,-163.5 236.95,-157.5 242.95,-157.5 242.95,-157.5 367.78,-157.5 367.78,-157.5 373.78,-157.5 379.78,-163.5 379.78,-169.5 379.78,-169.5 379.78,-202.68 379.78,-202.68 379.78,-208.68 373.78,-214.68 367.78,-214.68"/>
<text text-anchor="middle" x="305.37" y="-187.44" font-family="Helvetica,sans-Serif" font-size="12.00">ArticlePayPerRead</text>
<text text-anchor="middle" x="305.37" y="-174.69" font-family="Helvetica,sans-Serif" font-size="12.00">(pay per read)</text>
</g>
<!-- UI&#45;&gt;PPR -->
<g id="edge1" class="edge">
<title>UI&#45;&gt;PPR</title>
<path fill="none" stroke="#4b5563" stroke-width="1.4" d="M155.23,-136.59C176.23,-143.56 199.09,-151.15 220.47,-158.24"/>
<polygon fill="#4b5563" stroke="#4b5563" stroke-width="1.4" points="219.28,-161.17 228.81,-161.01 221.26,-155.19 219.28,-161.17"/>
<text text-anchor="middle" x="188.95" y="-154.83" font-family="Helvetica,sans-Serif" font-size="10.00">route A</text>
</g>
<!-- SUB -->
<g id="node3" class="node">
<title>SUB</title>
<path fill="#bbf7d0" stroke="#16a34a" d="M375.66,-139.68C375.66,-139.68 235.08,-139.68 235.08,-139.68 229.08,-139.68 223.08,-133.68 223.08,-127.68 223.08,-127.68 223.08,-94.5 223.08,-94.5 223.08,-88.5 229.08,-82.5 235.08,-82.5 235.08,-82.5 375.66,-82.5 375.66,-82.5 381.66,-82.5 387.66,-88.5 387.66,-94.5 387.66,-94.5 387.66,-127.68 387.66,-127.68 387.66,-133.68 381.66,-139.68 375.66,-139.68"/>
<text text-anchor="middle" x="305.37" y="-112.44" font-family="Helvetica,sans-Serif" font-size="12.00">ArticleSubscription</text>
<text text-anchor="middle" x="305.37" y="-99.69" font-family="Helvetica,sans-Serif" font-size="12.00">(buy once, read many)</text>
</g>
<!-- UI&#45;&gt;SUB -->
<g id="edge2" class="edge">
<title>UI&#45;&gt;SUB</title>
<path fill="none" stroke="#4b5563" stroke-width="1.4" d="M155.23,-111.09C173.41,-111.09 192.99,-111.09 211.79,-111.09"/>
<polygon fill="#4b5563" stroke="#4b5563" stroke-width="1.4" points="211.63,-114.24 220.63,-111.09 211.63,-107.94 211.63,-114.24"/>
<text text-anchor="middle" x="188.95" y="-112.84" font-family="Helvetica,sans-Serif" font-size="10.00">route B</text>
</g>
<!-- BND -->
<g id="node4" class="node">
<title>BND</title>
<path fill="#fde68a" stroke="#d97706" d="M367.03,-64.68C367.03,-64.68 243.7,-64.68 243.7,-64.68 237.7,-64.68 231.7,-58.68 231.7,-52.68 231.7,-52.68 231.7,-19.5 231.7,-19.5 231.7,-13.5 237.7,-7.5 243.7,-7.5 243.7,-7.5 367.03,-7.5 367.03,-7.5 373.03,-7.5 379.03,-13.5 379.03,-19.5 379.03,-19.5 379.03,-52.68 379.03,-52.68 379.03,-58.68 373.03,-64.68 367.03,-64.68"/>
<text text-anchor="middle" x="305.37" y="-37.44" font-family="Helvetica,sans-Serif" font-size="12.00">ArticleBundle</text>
<text text-anchor="middle" x="305.37" y="-24.69" font-family="Helvetica,sans-Serif" font-size="12.00">(buy many at once)</text>
</g>
<!-- UI&#45;&gt;BND -->
<g id="edge3" class="edge">
<title>UI&#45;&gt;BND</title>
<path fill="none" stroke="#4b5563" stroke-width="1.4" d="M155.23,-85.59C176.45,-78.55 199.57,-70.88 221.14,-63.72"/>
<polygon fill="#4b5563" stroke="#4b5563" stroke-width="1.4" points="222.02,-66.74 229.57,-60.92 220.04,-60.76 222.02,-66.74"/>
<text text-anchor="middle" x="188.95" y="-79.83" font-family="Helvetica,sans-Serif" font-size="10.00">route C</text>
</g>
<!-- OneProv -->
<g id="node5" class="node">
<title>OneProv</title>
<path fill="#dcfce7" stroke="#16a34a" d="M605.11,-182.06C605.11,-182.06 507.28,-182.06 507.28,-182.06 501.28,-182.06 495.28,-176.06 495.28,-170.06 495.28,-170.06 495.28,-124.12 495.28,-124.12 495.28,-118.12 501.28,-112.12 507.28,-112.12 507.28,-112.12 605.11,-112.12 605.11,-112.12 611.11,-112.12 617.11,-118.12 617.11,-124.12 617.11,-124.12 617.11,-170.06 617.11,-170.06 617.11,-176.06 611.11,-182.06 605.11,-182.06"/>
<text text-anchor="middle" x="556.2" y="-154.81" font-family="Helvetica,sans-Serif" font-size="12.00">Provider</text>
<text text-anchor="middle" x="556.2" y="-142.06" font-family="Helvetica,sans-Serif" font-size="12.00">(single payee)</text>
<text text-anchor="middle" x="556.2" y="-129.31" font-family="Helvetica,sans-Serif" font-size="12.00">(p2p)</text>
</g>
<!-- PPR&#45;&gt;OneProv -->
<g id="edge4" class="edge">
<title>PPR&#45;&gt;OneProv</title>
<path fill="none" stroke="#4b5563" stroke-width="1.4" d="M380.02,-174.55C412.98,-169.38 451.68,-163.32 484.31,-158.2"/>
<polygon fill="#4b5563" stroke="#4b5563" stroke-width="1.4" points="484.63,-161.34 493.03,-156.83 483.65,-155.12 484.63,-161.34"/>
<text text-anchor="middle" x="437.53" y="-171.83" font-family="Helvetica,sans-Serif" font-size="10.00">settle earnings</text>
</g>
<!-- SUB&#45;&gt;OneProv -->
<g id="edge5" class="edge">
<title>SUB&#45;&gt;OneProv</title>
<path fill="none" stroke="#4b5563" stroke-width="1.4" d="M387.85,-122.88C418.9,-127.37 454.02,-132.45 484.04,-136.8"/>
<polygon fill="#4b5563" stroke="#4b5563" stroke-width="1.4" points="483.4,-139.88 492.76,-138.06 484.3,-133.65 483.4,-139.88"/>
<text text-anchor="middle" x="437.53" y="-136.17" font-family="Helvetica,sans-Serif" font-size="10.00">settle earnings</text>
</g>
<!-- ManyProv -->
<g id="node6" class="node">
<title>ManyProv</title>
<path fill="#dcfce7" stroke="#16a34a" d="M612.99,-72.18C612.99,-72.18 499.41,-72.18 499.41,-72.18 493.41,-72.18 487.41,-66.18 487.41,-60.18 487.41,-60.18 487.41,-12 487.41,-12 487.41,-6 493.41,0 499.41,0 499.41,0 612.99,0 612.99,0 618.99,0 624.99,-6 624.99,-12 624.99,-12 624.99,-60.18 624.99,-60.18 624.99,-66.18 618.99,-72.18 612.99,-72.18"/>
<text text-anchor="middle" x="556.2" y="-44.94" font-family="Helvetica,sans-Serif" font-size="12.00">Providers</text>
<text text-anchor="middle" x="556.2" y="-32.19" font-family="Helvetica,sans-Serif" font-size="12.00">(multiple payees)</text>
<text text-anchor="middle" x="556.2" y="-19.44" font-family="Helvetica,sans-Serif" font-size="12.00">(p2p → split)</text>
</g>
<!-- BND&#45;&gt;ManyProv -->
<g id="edge6" class="edge">
<title>BND&#45;&gt;ManyProv</title>
<path fill="none" stroke="#4b5563" stroke-width="1.4" d="M379.35,-36.09C409.75,-36.09 445.12,-36.09 476.14,-36.09"/>
<polygon fill="#4b5563" stroke="#4b5563" stroke-width="1.4" points="475.8,-39.24 484.8,-36.09 475.8,-32.94 475.8,-39.24"/>
<text text-anchor="middle" x="437.53" y="-37.84" font-family="Helvetica,sans-Serif" font-size="10.00">split + settle</text>
</g>
</g>
</svg>
