<?xml version="1.0" encoding="UTF-8" standalone="no"?>
<!DOCTYPE svg PUBLIC "-//W3C//DTD SVG 1.1//EN"
 "http://www.w3.org/Graphics/SVG/1.1/DTD/svg11.dtd">
<!-- Generated by graphviz version 12.2.1 (20241206.2353)
 -->
<!-- Title: PaygFig2 Pages: 1 -->
<svg width="518pt" height="489pt"
 viewBox="0.00 0.00 518.15 488.67" xmlns="http://www.w3.org/2000/svg" xmlns:xlink="http://www.w3.org/1999/xlink">
<g id="graph0" class="graph" transform="scale(1 1) rotate(0) translate(4 484.67)">
<title>PaygFig2</title>
<polygon fill="white" stroke="none" points="-4,4 -4,-484.67 514.15,-484.67 514.15,4 -4,4"/>
<text text-anchor="middle" x="255.07" y="-465.27" font-family="Helvetica,sans-Serif" font-size="12.00">How the contracts compose (and where to extend)</text>
<!-- Base -->
<g id="node1" class="node">
<title>Base</title>
<path fill="#e0f2fe" stroke="#0ea5e9" d="M498.15,-350.3C498.15,-350.3 379.95,-350.3 379.95,-350.3 373.95,-350.3 367.95,-344.3 367.95,-338.3 367.95,-338.3 367.95,-308 367.95,-308 367.95,-302 373.95,-296 379.95,-296 379.95,-296 498.15,-296 498.15,-296 504.15,-296 510.15,-302 510.15,-308 510.15,-308 510.15,-338.3 510.15,-338.3 510.15,-344.3 504.15,-350.3 498.15,-350.3"/>
<text text-anchor="middle" x="439.05" y="-324.5" font-family="Helvetica,sans-Serif" font-size="12.00">PayAsYouGoBase</text>
<text text-anchor="middle" x="439.05" y="-311.75" font-family="Helvetica,sans-Serif" font-size="12.00">(payment core)</text>
</g>
<!-- AccessLib -->
<g id="node2" class="node">
<title>AccessLib</title>
<path fill="#f3e8ff" stroke="#7c3aed" d="M489.9,-202.3C489.9,-202.3 388.2,-202.3 388.2,-202.3 382.2,-202.3 376.2,-196.3 376.2,-190.3 376.2,-190.3 376.2,-160 376.2,-160 376.2,-154 382.2,-148 388.2,-148 388.2,-148 489.9,-148 489.9,-148 495.9,-148 501.9,-154 501.9,-160 501.9,-160 501.9,-190.3 501.9,-190.3 501.9,-196.3 495.9,-202.3 489.9,-202.3"/>
<text text-anchor="middle" x="439.05" y="-176.5" font-family="Helvetica,sans-Serif" font-size="12.00">AccessLib</text>
<text text-anchor="middle" x="439.05" y="-163.75" font-family="Helvetica,sans-Serif" font-size="12.00">(expiry helpers)</text>
</g>
<!-- Base&#45;&gt;AccessLib -->
<!-- Registry -->
<g id="node3" class="node">
<title>Registry</title>
<path fill="#fef3c7" stroke="#f59e0b" d="M493.65,-54.3C493.65,-54.3 384.45,-54.3 384.45,-54.3 378.45,-54.3 372.45,-48.3 372.45,-42.3 372.45,-42.3 372.45,-12 372.45,-12 372.45,-6 378.45,0 384.45,0 384.45,0 493.65,0 493.65,0 499.65,0 505.65,-6 505.65,-12 505.65,-12 505.65,-42.3 505.65,-42.3 505.65,-48.3 499.65,-54.3 493.65,-54.3"/>
<text text-anchor="middle" x="439.05" y="-28.5" font-family="Helvetica,sans-Serif" font-size="12.00">IArticleRegistry</text>
<text text-anchor="middle" x="439.05" y="-15.75" font-family="Helvetica,sans-Serif" font-size="12.00">(provider lookup)</text>
</g>
<!-- AccessLib&#45;&gt;Registry -->
<!-- SUB -->
<g id="node4" class="node">
<title>SUB</title>
<path fill="#bbf7d0" stroke="#16a34a" d="M179.33,-459.92C179.33,-459.92 59.63,-459.92 59.63,-459.92 53.63,-459.92 47.63,-453.92 47.63,-447.92 47.63,-447.92 47.63,-430.38 47.63,-430.38 47.63,-424.38 53.63,-418.38 59.63,-418.38 59.63,-418.38 179.33,-418.38 179.33,-418.38 185.33,-418.38 191.33,-424.38 191.33,-430.38 191.33,-430.38 191.33,-447.92 191.33,-447.92 191.33,-453.92 185.33,-459.92 179.33,-459.92"/>
<text text-anchor="middle" x="119.48" y="-434.12" font-family="Helvetica,sans-Serif" font-size="12.00">ArticleSubscription</text>
</g>
<!-- SUB&#45;&gt;Base -->
<g id="edge5" class="edge">
<title>SUB&#45;&gt;Base</title>
<path fill="none" stroke="#4b5563" stroke-width="1.4" d="M143.15,-418.11C143.15,-388.37 143.15,-337.61 143.15,-337.61 143.15,-337.61 357.68,-337.61 357.68,-337.61"/>
<polygon fill="#4b5563" stroke="#4b5563" stroke-width="1.4" points="357.68,-340.41 365.68,-337.61 357.68,-334.81 357.68,-340.41"/>
</g>
<!-- SUB&#45;&gt;AccessLib -->
<g id="edge8" class="edge">
<title>SUB&#45;&gt;AccessLib</title>
<path fill="none" stroke="#7c3aed" stroke-width="1.4" stroke-dasharray="5,2" d="M191.66,-439.15C199.18,-439.15 204.15,-439.15 204.15,-439.15 204.15,-439.15 204.15,-190.11 204.15,-190.11 204.15,-190.11 365.67,-190.11 365.67,-190.11"/>
<polygon fill="#7c3aed" stroke="#7c3aed" stroke-width="1.4" points="365.67,-192.91 373.67,-190.11 365.67,-187.31 365.67,-192.91"/>
<text text-anchor="middle" x="303.45" y="-400.9" font-family="Helvetica,sans-Serif" font-size="10.00">expiry/renewal</text>
</g>
<!-- PPR -->
<g id="node5" class="node">
<title>PPR</title>
<path fill="#c7d2fe" stroke="#4338ca" d="M180.45,-324.92C180.45,-324.92 58.5,-324.92 58.5,-324.92 52.5,-324.92 46.5,-318.92 46.5,-312.92 46.5,-312.92 46.5,-295.38 46.5,-295.38 46.5,-289.38 52.5,-283.38 58.5,-283.38 58.5,-283.38 180.45,-283.38 180.45,-283.38 186.45,-283.38 192.45,-289.38 192.45,-295.38 192.45,-295.38 192.45,-312.92 192.45,-312.92 192.45,-318.92 186.45,-324.92 180.45,-324.92"/>
<text text-anchor="middle" x="119.48" y="-299.12" font-family="Helvetica,sans-Serif" font-size="12.00">ArticlePayPerRead</text>
</g>
<!-- SUB&#45;&gt;PPR -->
<!-- PPR&#45;&gt;Base -->
<g id="edge6" class="edge">
<title>PPR&#45;&gt;Base</title>
<path fill="none" stroke="#4b5563" stroke-width="1.4" d="M192.79,-317.69C192.79,-317.69 357.33,-317.69 357.33,-317.69"/>
<polygon fill="#4b5563" stroke="#4b5563" stroke-width="1.4" points="357.33,-320.49 365.33,-317.69 357.33,-314.89 357.33,-320.49"/>
</g>
<!-- BND -->
<g id="node6" class="node">
<title>BND</title>
<path fill="#fde68a" stroke="#d97706" d="M165.08,-177.93C165.08,-177.93 73.88,-177.93 73.88,-177.93 67.88,-177.93 61.88,-171.93 61.88,-165.93 61.88,-165.93 61.88,-148.38 61.88,-148.38 61.88,-142.38 67.88,-136.38 73.88,-136.38 73.88,-136.38 165.08,-136.38 165.08,-136.38 171.08,-136.38 177.08,-142.38 177.08,-148.38 177.08,-148.38 177.08,-165.93 177.08,-165.93 177.08,-171.93 171.08,-177.93 165.08,-177.93"/>
<text text-anchor="middle" x="119.48" y="-152.12" font-family="Helvetica,sans-Serif" font-size="12.00">ArticleBundle</text>
</g>
<!-- PPR&#45;&gt;BND -->
<!-- BND&#45;&gt;Base -->
<g id="edge7" class="edge">
<title>BND&#45;&gt;Base</title>
<path fill="none" stroke="#4b5563" stroke-width="1.4" d="M177.39,-167.95C197.97,-167.95 216.15,-167.95 216.15,-167.95 216.15,-167.95 216.15,-310.46 216.15,-310.46 216.15,-310.46 357.48,-310.46 357.48,-310.46"/>
<polygon fill="#4b5563" stroke="#4b5563" stroke-width="1.4" points="357.48,-313.26 365.48,-310.46 357.48,-307.66 357.48,-313.26"/>
</g>
<!-- BND&#45;&gt;AccessLib -->
<g id="edge9" class="edge">
<title>BND&#45;&gt;AccessLib</title>
<path fill="none" stroke="#7c3aed" stroke-width="1.4" stroke-dasharray="5,2" d="M177.35,-157.97C177.35,-157.97 365.74,-157.97 365.74,-157.97"/>
<polygon fill="#7c3aed" stroke="#7c3aed" stroke-width="1.4" points="365.74,-160.78 373.74,-157.98 365.74,-155.18 365.74,-160.78"/>
<text text-anchor="middle" x="303.45" y="-284.9" font-family="Helvetica,sans-Serif" font-size="10.00">bundle expiry</text>
</g>
<!-- BND&#45;&gt;Registry -->
<g id="edge10" class="edge">
<title>BND&#45;&gt;Registry</title>
<path fill="none" stroke="#f59e0b" stroke-width="1.4" stroke-dasharray="5,2" d="M177.42,-142.19C264.27,-142.19 418.15,-142.19 418.15,-142.19 418.15,-142.19 418.15,-64.82 418.15,-64.82"/>
<polygon fill="#f59e0b" stroke="#f59e0b" stroke-width="1.4" points="420.95,-64.82 418.15,-56.82 415.35,-64.82 420.95,-64.82"/>
<text text-anchor="middle" x="303.45" y="-221.9" font-family="Helvetica,sans-Serif" font-size="10.00">providers</text>
</g>
<!-- Ext -->
<g id="node7" class="node">
<title>Ext</title>
<polygon fill="#fff7ed" stroke="#f97316" points="232.95,-89.55 0,-89.55 0,-24.75 238.95,-24.75 238.95,-83.55 232.95,-89.55"/>
<polyline fill="none" stroke="#f97316" points="232.95,-89.55 232.95,-83.55"/>
<polyline fill="none" stroke="#f97316" points="238.95,-83.55 232.95,-83.55"/>
<text text-anchor="middle" x="119.48" y="-64.7" font-family="Helvetica,sans-Serif" font-size="11.00" fill="#9a3412">Extension point:</text>
<text text-anchor="middle" x="119.48" y="-52.7" font-family="Helvetica,sans-Serif" font-size="11.00" fill="#9a3412">new service types call PayAsYouGoBase</text>
<text text-anchor="middle" x="119.48" y="-40.7" font-family="Helvetica,sans-Serif" font-size="11.00" fill="#9a3412">(+ optional helpers)</text>
</g>
<!-- Ext&#45;&gt;Base -->
<g id="edge11" class="edge">
<title>Ext&#45;&gt;Base</title>
<path fill="none" stroke="#f97316" stroke-width="1.4" stroke-dasharray="1,5" d="M227.15,-89.83C227.15,-156.77 227.15,-303.23 227.15,-303.23 227.15,-303.23 358.49,-303.23 358.49,-303.23"/>
<polygon fill="#f97316" stroke="#f97316" stroke-width="1.4" points="358.49,-305.68 365.49,-303.23 358.49,-300.78 358.49,-305.68"/>
</g>
</g>
</svg>
