<?xml version="1.0" encoding="UTF-8" standalone="no"?>
<!DOCTYPE svg PUBLIC "-//W3C//DTD SVG 1.1//EN"
 "http://www.w3.org/Graphics/SVG/1.1/DTD/svg11.dtd">
<!-- Generated by graphviz version 12.2.1 (20241206.2353)
 -->
<!-- Title: PaygArticleModes Pages: 1 -->
<svg width="525pt" height="302pt"
 viewBox="0.00 0.00 524.90 301.80" xmlns="http://www.w3.org/2000/svg" xmlns:xlink="http://www.w3.org/1999/xlink">
<g id="graph0" class="graph" transform="scale(1 1) rotate(0) translate(4 297.8)">
<title>PaygArticleModes</title>
<polygon fill="white" stroke="none" points="-4,4 -4,-297.8 520.9,-297.8 520.9,4 -4,4"/>
<text text-anchor="middle" x="258.45" y="-278.4" font-family="Helvetica,sans-Serif" font-size="12.00">PAYG article contracts (Solidity)</text>
<text text-anchor="middle" x="258.45" y="-265.65" font-family="Helvetica,sans-Serif" font-size="12.00">shared payment core + expiry helper</text>
<!-- Base -->
<g id="node1" class="node">
<title>Base</title>
<path fill="#e0f2fe" stroke="#0ea5e9" d="M481.27,-139.3C481.27,-139.3 363.07,-139.3 363.07,-139.3 357.07,-139.3 351.07,-133.3 351.07,-127.3 351.07,-127.3 351.07,-97 351.07,-97 351.07,-91 357.07,-85 363.07,-85 363.07,-85 481.27,-85 481.27,-85 487.27,-85 493.27,-91 493.27,-97 493.27,-97 493.27,-127.3 493.27,-127.3 493.27,-133.3 487.27,-139.3 481.27,-139.3"/>
<text text-anchor="middle" x="422.17" y="-113.5" font-family="Helvetica,sans-Serif" font-size="12.00">PayAsYouGoBase</text>
<text text-anchor="middle" x="422.17" y="-100.75" font-family="Helvetica,sans-Serif" font-size="12.00">payment core</text>
</g>
<!-- AccessLib -->
<g id="node2" class="node">
<title>AccessLib</title>
<path fill="#f3e8ff" stroke="#7c3aed" d="M493.65,-54.3C493.65,-54.3 350.7,-54.3 350.7,-54.3 344.7,-54.3 338.7,-48.3 338.7,-42.3 338.7,-42.3 338.7,-12 338.7,-12 338.7,-6 344.7,0 350.7,0 350.7,0 493.65,0 493.65,0 499.65,0 505.65,-6 505.65,-12 505.65,-12 505.65,-42.3 505.65,-42.3 505.65,-48.3 499.65,-54.3 493.65,-54.3"/>
<text text-anchor="middle" x="422.17" y="-28.5" font-family="Helvetica,sans-Serif" font-size="12.00">AccessLib</text>
<text text-anchor="middle" x="422.17" y="-15.75" font-family="Helvetica,sans-Serif" font-size="12.00">computeExpiry / isValid</text>
</g>
<!-- PPR -->
<g id="node3" class="node">
<title>PPR</title>
<path fill="#c7d2fe" stroke="#4338ca" d="M213.45,-260.3C213.45,-260.3 12,-260.3 12,-260.3 6,-260.3 0,-254.3 0,-248.3 0,-248.3 0,-218 0,-218 0,-212 6,-206 12,-206 12,-206 213.45,-206 213.45,-206 219.45,-206 225.45,-212 225.45,-218 225.45,-218 225.45,-248.3 225.45,-248.3 225.45,-254.3 219.45,-260.3 213.45,-260.3"/>
<text text-anchor="middle" x="112.73" y="-234.5" font-family="Helvetica,sans-Serif" font-size="12.00">ArticlePayPerRead</text>
<text text-anchor="middle" x="112.73" y="-221.75" font-family="Helvetica,sans-Serif" font-size="12.00">pay&#45;per&#45;read (no per&#45;user storage)</text>
</g>
<!-- PPR&#45;&gt;Base -->
<g id="edge1" class="edge">
<title>PPR&#45;&gt;Base</title>
<path fill="none" stroke="#4b5563" stroke-width="1.4" d="M225.76,-215.51C261.62,-208.04 295.63,-198.44 309.45,-187.15 324.24,-175.08 313.52,-161.2 327.45,-148.15 331.96,-143.93 337.02,-140.18 342.38,-136.87"/>
<polygon fill="#4b5563" stroke="#4b5563" stroke-width="1.4" points="343.59,-139.4 349.19,-133.04 340.84,-134.52 343.59,-139.4"/>
<text text-anchor="middle" x="276.45" y="-212.56" font-family="Helvetica,sans-Serif" font-size="10.00">uses</text>
</g>
<!-- Registry -->
<g id="node6" class="node">
<title>Registry</title>
<path fill="#fef3c7" stroke="#f59e0b" d="M504.9,-211.3C504.9,-211.3 339.45,-211.3 339.45,-211.3 333.45,-211.3 327.45,-205.3 327.45,-199.3 327.45,-199.3 327.45,-169 327.45,-169 327.45,-163 333.45,-157 339.45,-157 339.45,-157 504.9,-157 504.9,-157 510.9,-157 516.9,-163 516.9,-169 516.9,-169 516.9,-199.3 516.9,-199.3 516.9,-205.3 510.9,-211.3 504.9,-211.3"/>
<text text-anchor="middle" x="422.17" y="-185.5" font-family="Helvetica,sans-Serif" font-size="12.00">IArticleRegistry</text>
<text text-anchor="middle" x="422.17" y="-172.75" font-family="Helvetica,sans-Serif" font-size="12.00">existence + provider lookup</text>
</g>
<!-- PPR&#45;&gt;Registry -->
<g id="edge7" class="edge">
<title>PPR&#45;&gt;Registry</title>
<path fill="none" stroke="#9ca3af" stroke-width="1.4" stroke-dasharray="1,5" d="M225.75,-237C253.33,-236.11 282.63,-233.6 309.45,-228.15 323.95,-225.21 338.99,-220.51 353.16,-215.27"/>
<polygon fill="#9ca3af" stroke="#9ca3af" stroke-width="1.4" points="353.89,-217.99 360.36,-212.51 351.89,-212.76 353.89,-217.99"/>
<text text-anchor="middle" x="276.45" y="-237.83" font-family="Helvetica,sans-Serif" font-size="10.00">implements</text>
</g>
<!-- SUB -->
<g id="node4" class="node">
<title>SUB</title>
<path fill="#bbf7d0" stroke="#16a34a" d="M192.83,-143.3C192.83,-143.3 32.63,-143.3 32.63,-143.3 26.63,-143.3 20.63,-137.3 20.63,-131.3 20.63,-131.3 20.63,-101 20.63,-101 20.63,-95 26.63,-89 32.63,-89 32.63,-89 192.83,-89 192.83,-89 198.83,-89 204.83,-95 204.83,-101 204.83,-101 204.83,-131.3 204.83,-131.3 204.83,-137.3 198.83,-143.3 192.83,-143.3"/>
<text text-anchor="middle" x="112.73" y="-117.5" font-family="Helvetica,sans-Serif" font-size="12.00">ArticleSubscription</text>
<text text-anchor="middle" x="112.73" y="-104.75" font-family="Helvetica,sans-Serif" font-size="12.00">purchase once, read many</text>
</g>
<!-- SUB&#45;&gt;Base -->
<g id="edge2" class="edge">
<title>SUB&#45;&gt;Base</title>
<path fill="none" stroke="#4b5563" stroke-width="1.4" d="M205.14,-114.96C248.14,-114.4 298.98,-113.74 340.54,-113.2"/>
<polygon fill="#4b5563" stroke="#4b5563" stroke-width="1.4" points="340.54,-116 348.5,-113.1 340.46,-110.4 340.54,-116"/>
<text text-anchor="middle" x="276.45" y="-116.14" font-family="Helvetica,sans-Serif" font-size="10.00">uses</text>
</g>
<!-- SUB&#45;&gt;AccessLib -->
<g id="edge4" class="edge">
<title>SUB&#45;&gt;AccessLib</title>
<path fill="none" stroke="#7c3aed" stroke-width="1.4" stroke-dasharray="5,2" d="M205.14,-89.69C244.22,-78.37 289.77,-65.19 328.94,-53.85"/>
<polygon fill="#7c3aed" stroke="#7c3aed" stroke-width="1.4" points="329.3,-56.66 336.2,-51.75 327.74,-51.28 329.3,-56.66"/>
<text text-anchor="middle" x="276.45" y="-78.73" font-family="Helvetica,sans-Serif" font-size="10.00">expiry/renewal</text>
</g>
<!-- SUB&#45;&gt;Registry -->
<g id="edge8" class="edge">
<title>SUB&#45;&gt;Registry</title>
<path fill="none" stroke="#9ca3af" stroke-width="1.4" stroke-dasharray="1,5" d="M187.1,-143.78C205.31,-149.87 224.93,-155.8 243.45,-160.15 267.16,-165.72 292.97,-170.12 317.39,-173.56"/>
<polygon fill="#9ca3af" stroke="#9ca3af" stroke-width="1.4" points="316.99,-176.33 325.3,-174.64 317.75,-170.78 316.99,-176.33"/>
<text text-anchor="middle" x="276.45" y="-173.71" font-family="Helvetica,sans-Serif" font-size="10.00">implements</text>
</g>
<!-- BND -->
<g id="node5" class="node">
<title>BND</title>
<path fill="#fde68a" stroke="#d97706" d="M197.33,-71.3C197.33,-71.3 28.13,-71.3 28.13,-71.3 22.13,-71.3 16.13,-65.3 16.13,-59.3 16.13,-59.3 16.13,-29 16.13,-29 16.13,-23 22.13,-17 28.13,-17 28.13,-17 197.33,-17 197.33,-17 203.33,-17 209.33,-23 209.33,-29 209.33,-29 209.33,-59.3 209.33,-59.3 209.33,-65.3 203.33,-71.3 197.33,-71.3"/>
<text text-anchor="middle" x="112.73" y="-45.5" font-family="Helvetica,sans-Serif" font-size="12.00">ArticleBundle</text>
<text text-anchor="middle" x="112.73" y="-32.75" font-family="Helvetica,sans-Serif" font-size="12.00">bundle purchase, equal split</text>
</g>
<!-- BND&#45;&gt;Base -->
<g id="edge3" class="edge">
<title>BND&#45;&gt;Base</title>
<path fill="none" stroke="#4b5563" stroke-width="1.4" d="M209.44,-32.1C242.14,-31.44 278.29,-34.66 309.45,-46.9 319.48,-50.84 318.6,-56.99 327.45,-63.15 335.79,-68.95 344.9,-74.54 354.06,-79.72"/>
<polygon fill="#4b5563" stroke="#4b5563" stroke-width="1.4" points="352.62,-82.13 360.98,-83.54 355.33,-77.23 352.62,-82.13"/>
<text text-anchor="middle" x="276.45" y="-48.65" font-family="Helvetica,sans-Serif" font-size="10.00">uses</text>
</g>
<!-- BND&#45;&gt;AccessLib -->
<g id="edge5" class="edge">
<title>BND&#45;&gt;AccessLib</title>
<path fill="none" stroke="#7c3aed" stroke-width="1.4" stroke-dasharray="5,2" d="M209.61,-18.38C220.95,-16.13 232.41,-14.21 243.45,-12.9 272.58,-9.44 280.18,-11.04 309.45,-12.9 315.6,-13.29 321.92,-13.8 328.29,-14.39"/>
<polygon fill="#7c3aed" stroke="#7c3aed" stroke-width="1.4" points="327.96,-17.18 336.2,-15.18 328.52,-11.6 327.96,-17.18"/>
<text text-anchor="middle" x="276.45" y="-14.65" font-family="Helvetica,sans-Serif" font-size="10.00">bundle expiry</text>
</g>
<!-- BND&#45;&gt;Registry -->
<g id="edge6" class="edge">
<title>BND&#45;&gt;Registry</title>
<path fill="none" stroke="#f59e0b" stroke-width="1.4" stroke-dasharray="5,2" d="M209.74,-68.34C215.39,-71.77 220.7,-75.68 225.45,-80.15 241.44,-95.19 227.4,-111.17 243.45,-126.15 265.92,-147.14 280.2,-137.43 309.45,-146.9 316,-149.02 322.77,-151.23 329.57,-153.47"/>
<polygon fill="#f59e0b" stroke="#f59e0b" stroke-width="1.4" points="328.37,-156.02 336.85,-155.86 330.12,-150.7 328.37,-156.02"/>
<text text-anchor="middle" x="276.45" y="-148.65" font-family="Helvetica,sans-Serif" font-size="10.00">provider lookup</text>
</g>
</g>
</svg>
