<?xml version="1.0" encoding="UTF-8" standalone="no"?>
<!DOCTYPE svg PUBLIC "-//W3C//DTD SVG 1.1//EN"
 "http://www.w3.org/Graphics/SVG/1.1/DTD/svg11.dtd">
<!-- Generated by graphviz version 12.2.1 (20241206.2353)
 -->
<!-- Title: G Pages: 1 -->
<svg width="1584pt" height="402pt"
 viewBox="0.00 0.00 1584.33 402.00" xmlns="http://www.w3.org/2000/svg" xmlns:xlink="http://www.w3.org/1999/xlink">
<g id="graph0" class="graph" transform="scale(1 1) rotate(0) translate(4 398)">
<title>G</title>
<polygon fill="white" stroke="none" points="-4,4 -4,-398 1580.33,-398 1580.33,4 -4,4"/>
<g id="clust1" class="cluster">
<title>cluster_p1</title>
<path fill="#f8fafc" stroke="#94a3b8" d="M126.75,-223C126.75,-223 1069,-223 1069,-223 1075,-223 1081,-229 1081,-235 1081,-235 1081,-284 1081,-284 1081,-290 1075,-296 1069,-296 1069,-296 126.75,-296 126.75,-296 120.75,-296 114.75,-290 114.75,-284 114.75,-284 114.75,-235 114.75,-235 114.75,-229 120.75,-223 126.75,-223"/>
<text text-anchor="middle" x="597.88" y="-282.5" font-family="Helvetica,sans-Serif" font-size="10.00">1. File Search</text>
</g>
<g id="clust2" class="cluster">
<title>cluster_p2</title>
<path fill="#f8fafc" stroke="#94a3b8" d="M1132.29,-225C1132.29,-225 1536.46,-225 1536.46,-225 1542.46,-225 1548.46,-231 1548.46,-237 1548.46,-237 1548.46,-338 1548.46,-338 1548.46,-344 1542.46,-350 1536.46,-350 1536.46,-350 1132.29,-350 1132.29,-350 1126.29,-350 1120.29,-344 1120.29,-338 1120.29,-338 1120.29,-237 1120.29,-237 1120.29,-231 1126.29,-225 1132.29,-225"/>
<text text-anchor="middle" x="1334.37" y="-336.5" font-family="Helvetica,sans-Serif" font-size="10.00">2. Parallel Chunk Search</text>
</g>
<g id="clust3" class="cluster">
<title>cluster_p3</title>
<path fill="#f8fafc" stroke="#94a3b8" d="M1397.58,-8C1397.58,-8 1556.33,-8 1556.33,-8 1562.33,-8 1568.33,-14 1568.33,-20 1568.33,-20 1568.33,-67 1568.33,-67 1568.33,-73 1562.33,-79 1556.33,-79 1556.33,-79 1397.58,-79 1397.58,-79 1391.58,-79 1385.58,-73 1385.58,-67 1385.58,-67 1385.58,-20 1385.58,-20 1385.58,-14 1391.58,-8 1397.58,-8"/>
<text text-anchor="middle" x="1476.96" y="-65.5" font-family="Helvetica,sans-Serif" font-size="10.00">3. Information Aggregation</text>
</g>
<g id="clust4" class="cluster">
<title>cluster_p4</title>
<path fill="#fffbeb" stroke="#f59e0b" d="M1128.54,-72C1128.54,-72 1305.29,-72 1305.29,-72 1311.29,-72 1317.29,-78 1317.29,-84 1317.29,-84 1317.29,-185 1317.29,-185 1317.29,-191 1311.29,-197 1305.29,-197 1305.29,-197 1128.54,-197 1128.54,-197 1122.54,-197 1116.54,-191 1116.54,-185 1116.54,-185 1116.54,-84 1116.54,-84 1116.54,-78 1122.54,-72 1128.54,-72"/>
<text text-anchor="middle" x="1216.92" y="-183.5" font-family="Helvetica,sans-Serif" font-size="10.00">4. Reflection</text>
</g>
<!-- Q -->
<g id="node1" class="node">
<title>Q</title>
<path fill="#dbeafe" stroke="#2563eb" d="M73.75,-268C73.75,-268 12,-268 12,-268 6,-268 0,-262 0,-256 0,-256 0,-244 0,-244 0,-238 6,-232 12,-232 12,-232 73.75,-232 73.75,-232 79.75,-232 85.75,-238 85.75,-244 85.75,-244 85.75,-256 85.75,-256 85.75,-262 79.75,-268 73.75,-268"/>
<text text-anchor="middle" x="42.88" y="-244.2" font-family="Helvetica,sans-Serif" font-size="14.00" fill="#0f172a">User Query</text>
</g>
<!-- INT -->
<g id="node2" class="node">
<title>INT</title>
<path fill="#fff6d5" stroke="#a16207" d="M275.25,-269C275.25,-269 134.75,-269 134.75,-269 128.75,-269 122.75,-263 122.75,-257 122.75,-257 122.75,-243 122.75,-243 122.75,-237 128.75,-231 134.75,-231 134.75,-231 275.25,-231 275.25,-231 281.25,-231 287.25,-237 287.25,-243 287.25,-243 287.25,-257 287.25,-257 287.25,-263 281.25,-269 275.25,-269"/>
<text text-anchor="middle" x="205" y="-251.7" font-family="Helvetica,sans-Serif" font-size="14.00" fill="#3f2d1c">Query Intent Detector</text>
<text text-anchor="middle" x="205" y="-236.7" font-family="Helvetica,sans-Serif" font-size="14.00" fill="#3f2d1c">(extract entities, domain)</text>
</g>
<!-- Q&#45;&gt;INT -->
<g id="edge7" class="edge">
<title>Q&#45;&gt;INT</title>
<path fill="none" stroke="#6b7280" stroke-width="1.4" d="M85.95,-250C94.25,-250 103.26,-250 112.48,-250"/>
<polygon fill="#6b7280" stroke="#6b7280" stroke-width="1.4" points="112.42,-252.8 120.42,-250 112.42,-247.2 112.42,-252.8"/>
</g>
<!-- QR -->
<g id="node3" class="node">
<title>QR</title>
<path fill="#f3e8ff" stroke="#7c3aed" d="M514.25,-269C514.25,-269 336.25,-269 336.25,-269 330.25,-269 324.25,-263 324.25,-257 324.25,-257 324.25,-243 324.25,-243 324.25,-237 330.25,-231 336.25,-231 336.25,-231 514.25,-231 514.25,-231 520.25,-231 526.25,-237 526.25,-243 526.25,-243 526.25,-257 526.25,-257 526.25,-263 520.25,-269 514.25,-269"/>
<text text-anchor="middle" x="425.25" y="-251.7" font-family="Helvetica,sans-Serif" font-size="14.00" fill="#2e1065">LLM Query Rewriting</text>
<text text-anchor="middle" x="425.25" y="-236.7" font-family="Helvetica,sans-Serif" font-size="14.00" fill="#2e1065">(preserve entities, domain hint)</text>
</g>
<!-- INT&#45;&gt;QR -->
<g id="edge1" class="edge">
<title>INT&#45;&gt;QR</title>
<path fill="none" stroke="#6b7280" stroke-width="1.4" d="M287.58,-250C296.2,-250 305.07,-250 313.94,-250"/>
<polygon fill="#6b7280" stroke="#6b7280" stroke-width="1.4" points="313.84,-252.8 321.84,-250 313.84,-247.2 313.84,-252.8"/>
</g>
<!-- KR -->
<g id="node4" class="node">
<title>KR</title>
<path fill="#e6f4ff" stroke="#2563eb" d="M676.75,-269C676.75,-269 575.25,-269 575.25,-269 569.25,-269 563.25,-263 563.25,-257 563.25,-257 563.25,-243 563.25,-243 563.25,-237 569.25,-231 575.25,-231 575.25,-231 676.75,-231 676.75,-231 682.75,-231 688.75,-237 688.75,-243 688.75,-243 688.75,-257 688.75,-257 688.75,-263 682.75,-269 676.75,-269"/>
<text text-anchor="middle" x="626" y="-251.7" font-family="Helvetica,sans-Serif" font-size="14.00" fill="#0f172a">Keyword Retrieval</text>
<text text-anchor="middle" x="626" y="-236.7" font-family="Helvetica,sans-Serif" font-size="14.00" fill="#0f172a">(larger files)</text>
</g>
<!-- QR&#45;&gt;KR -->
<g id="edge2" class="edge">
<title>QR&#45;&gt;KR</title>
<path fill="none" stroke="#6b7280" stroke-width="1.4" d="M526.5,-250C535.44,-250 544.38,-250 553.02,-250"/>
<polygon fill="#6b7280" stroke="#6b7280" stroke-width="1.4" points="552.88,-252.8 560.88,-250 552.88,-247.2 552.88,-252.8"/>
</g>
<!-- SR -->
<g id="node5" class="node">
<title>SR</title>
<path fill="#e6f4ff" stroke="#2563eb" d="M843.75,-269C843.75,-269 737.75,-269 737.75,-269 731.75,-269 725.75,-263 725.75,-257 725.75,-257 725.75,-243 725.75,-243 725.75,-237 731.75,-231 737.75,-231 737.75,-231 843.75,-231 843.75,-231 849.75,-231 855.75,-237 855.75,-243 855.75,-243 855.75,-257 855.75,-257 855.75,-263 849.75,-269 843.75,-269"/>
<text text-anchor="middle" x="790.75" y="-251.7" font-family="Helvetica,sans-Serif" font-size="14.00" fill="#0f172a">Semantic Retrieval</text>
<text text-anchor="middle" x="790.75" y="-236.7" font-family="Helvetica,sans-Serif" font-size="14.00" fill="#0f172a">(smaller files)</text>
</g>
<!-- KR&#45;&gt;SR -->
<g id="edge3" class="edge">
<title>KR&#45;&gt;SR</title>
<path fill="none" stroke="#6b7280" stroke-width="1.4" d="M688.99,-250C697.67,-250 706.67,-250 715.54,-250"/>
<polygon fill="#6b7280" stroke="#6b7280" stroke-width="1.4" points="715.38,-252.8 723.38,-250 715.38,-247.2 715.38,-252.8"/>
</g>
<!-- RR -->
<g id="node6" class="node">
<title>RR</title>
<path fill="#e0f2fe" stroke="#0ea5e9" d="M1061,-269C1061,-269 904.75,-269 904.75,-269 898.75,-269 892.75,-263 892.75,-257 892.75,-257 892.75,-245 892.75,-245 892.75,-239 898.75,-233 904.75,-233 904.75,-233 1061,-233 1061,-233 1067,-233 1073,-239 1073,-245 1073,-245 1073,-257 1073,-257 1073,-263 1067,-269 1061,-269"/>
<text text-anchor="middle" x="982.88" y="-245.2" font-family="Helvetica,sans-Serif" font-size="14.00" fill="#0c4a6e">Reranking by original query</text>
</g>
<!-- SR&#45;&gt;RR -->
<g id="edge4" class="edge">
<title>SR&#45;&gt;RR</title>
<path fill="none" stroke="#6b7280" stroke-width="1.4" d="M856.12,-250.34C864.57,-250.38 873.39,-250.43 882.26,-250.48"/>
<polygon fill="#6b7280" stroke="#6b7280" stroke-width="1.4" points="882.14,-253.28 890.16,-250.52 882.17,-247.68 882.14,-253.28"/>
</g>
<!-- NA -->
<g id="node7" class="node">
<title>NA</title>
<path fill="#e6f4ff" stroke="#2563eb" d="M1231.92,-323C1231.92,-323 1201.92,-323 1201.92,-323 1195.92,-323 1189.92,-317 1189.92,-311 1189.92,-311 1189.92,-299 1189.92,-299 1189.92,-293 1195.92,-287 1201.92,-287 1201.92,-287 1231.92,-287 1231.92,-287 1237.92,-287 1243.92,-293 1243.92,-299 1243.92,-299 1243.92,-311 1243.92,-311 1243.92,-317 1237.92,-323 1231.92,-323"/>
<text text-anchor="middle" x="1216.92" y="-299.2" font-family="Helvetica,sans-Serif" font-size="14.00" fill="#0f172a">Naive</text>
</g>
<!-- RR&#45;&gt;NA -->
<g id="edge8" class="edge">
<title>RR&#45;&gt;NA</title>
<path fill="none" stroke="#6b7280" stroke-width="1.4" d="M1063.08,-269.43C1102.77,-278.67 1148.87,-289.4 1179.97,-296.64"/>
<polygon fill="#6b7280" stroke="#6b7280" stroke-width="1.4" points="1179.03,-299.29 1187.45,-298.38 1180.3,-293.84 1179.03,-299.29"/>
</g>
<!-- AD -->
<g id="node8" class="node">
<title>AD</title>
<path fill="#fff6d5" stroke="#a16207" d="M1293.54,-269C1293.54,-269 1140.29,-269 1140.29,-269 1134.29,-269 1128.29,-263 1128.29,-257 1128.29,-257 1128.29,-245 1128.29,-245 1128.29,-239 1134.29,-233 1140.29,-233 1140.29,-233 1293.54,-233 1293.54,-233 1299.54,-233 1305.54,-239 1305.54,-245 1305.54,-245 1305.54,-257 1305.54,-257 1305.54,-263 1299.54,-269 1293.54,-269"/>
<text text-anchor="middle" x="1216.92" y="-245.2" font-family="Helvetica,sans-Serif" font-size="14.00" fill="#3f2d1c">Advanced Content Booster</text>
</g>
<!-- RR&#45;&gt;AD -->
<g id="edge9" class="edge">
<title>RR&#45;&gt;AD</title>
<path fill="none" stroke="#6b7280" stroke-width="1.4" d="M1073.26,-251C1088.02,-251 1103.4,-251 1118.35,-251"/>
<polygon fill="#6b7280" stroke="#6b7280" stroke-width="1.4" points="1117.99,-253.8 1125.99,-251 1117.99,-248.2 1117.99,-253.8"/>
</g>
<!-- R1 -->
<g id="node11" class="node">
<title>R1</title>
<path fill="#fef3c7" stroke="#ca8a04" d="M1297.29,-116C1297.29,-116 1136.54,-116 1136.54,-116 1130.54,-116 1124.54,-110 1124.54,-104 1124.54,-104 1124.54,-92 1124.54,-92 1124.54,-86 1130.54,-80 1136.54,-80 1136.54,-80 1297.29,-80 1297.29,-80 1303.29,-80 1309.29,-86 1309.29,-92 1309.29,-92 1309.29,-104 1309.29,-104 1309.29,-110 1303.29,-116 1297.29,-116"/>
<text text-anchor="middle" x="1216.92" y="-92.2" font-family="Helvetica,sans-Serif" font-size="14.00" fill="#4a2c0a">Search Coverage Reflection</text>
</g>
<!-- RR&#45;&gt;R1 -->
<g id="edge10" class="edge">
<title>RR&#45;&gt;R1</title>
<path fill="none" stroke="#6b7280" stroke-width="1.4" d="M1011.4,-232.58C1034.99,-215.77 1068.75,-189.16 1092,-160 1102.9,-146.32 1096.32,-135.9 1110,-125 1111.78,-123.58 1113.62,-122.24 1115.52,-120.97"/>
<polygon fill="#6b7280" stroke="#6b7280" stroke-width="1.4" points="1116.91,-123.4 1122.36,-116.9 1114.05,-118.58 1116.91,-123.4"/>
</g>
<!-- OUT -->
<g id="node14" class="node">
<title>OUT</title>
<ellipse fill="#dcfce7" stroke="#16a34a" cx="1216.92" cy="-376" rx="106.92" ry="18"/>
<text text-anchor="middle" x="1216.92" y="-370.2" font-family="Helvetica,sans-Serif" font-size="14.00" fill="#052e16">Ranked files: (file, score)</text>
</g>
<!-- RR&#45;&gt;OUT -->
<g id="edge16" class="edge">
<title>RR&#45;&gt;OUT</title>
<path fill="none" stroke="#6b7280" stroke-width="1.4" d="M1000.74,-269.42C1023.29,-292.86 1065.6,-332.83 1110,-354 1115.45,-356.6 1121.2,-358.89 1127.1,-360.91"/>
<polygon fill="#6b7280" stroke="#6b7280" stroke-width="1.4" points="1125.96,-363.49 1134.43,-363.24 1127.65,-358.15 1125.96,-363.49"/>
</g>
<!-- CAND -->
<g id="node9" class="node">
<title>CAND</title>
<path fill="#f3e8ff" stroke="#7c3aed" d="M1528.46,-271C1528.46,-271 1425.46,-271 1425.46,-271 1419.46,-271 1413.46,-265 1413.46,-259 1413.46,-259 1413.46,-247 1413.46,-247 1413.46,-241 1419.46,-235 1425.46,-235 1425.46,-235 1528.46,-235 1528.46,-235 1534.46,-235 1540.46,-241 1540.46,-247 1540.46,-247 1540.46,-259 1540.46,-259 1540.46,-265 1534.46,-271 1528.46,-271"/>
<text text-anchor="middle" x="1476.96" y="-247.2" font-family="Helvetica,sans-Serif" font-size="14.00" fill="#2e1065">Candidate Chunks</text>
</g>
<!-- NA&#45;&gt;CAND -->
<g id="edge5" class="edge">
<title>NA&#45;&gt;CAND</title>
<path fill="none" stroke="#6b7280" stroke-width="1.4" d="M1244.08,-299.73C1281.11,-292.27 1350.22,-278.34 1403.39,-267.62"/>
<polygon fill="#6b7280" stroke="#6b7280" stroke-width="1.4" points="1403.76,-270.41 1411.05,-266.08 1402.65,-264.92 1403.76,-270.41"/>
</g>
<!-- AD&#45;&gt;CAND -->
<g id="edge6" class="edge">
<title>AD&#45;&gt;CAND</title>
<path fill="none" stroke="#6b7280" stroke-width="1.4" d="M1306,-251.68C1337.61,-251.93 1372.88,-252.2 1403.06,-252.44"/>
<polygon fill="#6b7280" stroke="#6b7280" stroke-width="1.4" points="1402.95,-255.23 1410.97,-252.5 1402.99,-249.63 1402.95,-255.23"/>
</g>
<!-- AGG -->
<g id="node10" class="node">
<title>AGG</title>
<path fill="#e0f2fe" stroke="#0ea5e9" d="M1548.33,-52C1548.33,-52 1405.58,-52 1405.58,-52 1399.58,-52 1393.58,-46 1393.58,-40 1393.58,-40 1393.58,-28 1393.58,-28 1393.58,-22 1399.58,-16 1405.58,-16 1405.58,-16 1548.33,-16 1548.33,-16 1554.33,-16 1560.33,-22 1560.33,-28 1560.33,-28 1560.33,-40 1560.33,-40 1560.33,-46 1554.33,-52 1548.33,-52"/>
<text text-anchor="middle" x="1476.96" y="-28.2" font-family="Helvetica,sans-Serif" font-size="14.00" fill="#0c4a6e">Aggregate and Compose</text>
</g>
<!-- CAND&#45;&gt;AGG -->
<g id="edge12" class="edge">
<title>CAND&#45;&gt;AGG</title>
<path fill="none" stroke="#6b7280" stroke-width="1.4" d="M1413.1,-249.42C1391.03,-244.73 1368.42,-235.34 1354.71,-217 1320.1,-170.73 1323,-135.3 1354.71,-87 1363.22,-74.03 1375.67,-64.22 1389.4,-56.8"/>
<polygon fill="#6b7280" stroke="#6b7280" stroke-width="1.4" points="1390.27,-59.49 1396.19,-53.42 1387.78,-54.47 1390.27,-59.49"/>
</g>
<!-- R2 -->
<g id="node12" class="node">
<title>R2</title>
<path fill="#fef3c7" stroke="#ca8a04" d="M1290.54,-170C1290.54,-170 1143.29,-170 1143.29,-170 1137.29,-170 1131.29,-164 1131.29,-158 1131.29,-158 1131.29,-146 1131.29,-146 1131.29,-140 1137.29,-134 1143.29,-134 1143.29,-134 1290.54,-134 1290.54,-134 1296.54,-134 1302.54,-140 1302.54,-146 1302.54,-146 1302.54,-158 1302.54,-158 1302.54,-164 1296.54,-170 1290.54,-170"/>
<text text-anchor="middle" x="1216.92" y="-146.2" font-family="Helvetica,sans-Serif" font-size="14.00" fill="#4a2c0a">Answer Quality Reflection</text>
</g>
<!-- AGG&#45;&gt;R2 -->
<g id="edge13" class="edge">
<title>AGG&#45;&gt;R2</title>
<path fill="none" stroke="#6b7280" stroke-width="1.4" d="M1433.65,-52.48C1418.16,-59.79 1400.74,-68.67 1385.58,-78 1356.21,-96.08 1354.89,-110 1323.83,-125 1320.08,-126.81 1316.2,-128.51 1312.23,-130.1"/>
<polygon fill="#6b7280" stroke="#6b7280" stroke-width="1.4" points="1311.33,-127.45 1304.83,-132.88 1313.3,-132.69 1311.33,-127.45"/>
</g>
<!-- R1&#45;&gt;QR -->
<g id="edge11" class="edge">
<title>R1&#45;&gt;QR</title>
<path fill="none" stroke="#f59e0b" stroke-width="1.4" stroke-dasharray="5,2" d="M1138.07,-116.48C1076.85,-130.72 999.38,-148 983.88,-148 625,-148 625,-148 625,-148 558.2,-148 491.31,-194.18 454.7,-224.39"/>
<polygon fill="#f59e0b" stroke="#f59e0b" stroke-width="1.4" points="453.29,-221.91 448.98,-229.21 456.9,-226.2 453.29,-221.91"/>
<text text-anchor="middle" x="790.75" y="-149.7" font-family="Helvetica,sans-Serif" font-size="14.00" fill="#92400e">expand or relax</text>
</g>
<!-- R2&#45;&gt;AGG -->
<g id="edge14" class="edge">
<title>R2&#45;&gt;AGG</title>
<path fill="none" stroke="#f59e0b" stroke-width="1.4" stroke-dasharray="5,2" d="M1302.83,-139.1C1310.54,-135.45 1317.72,-130.83 1323.83,-125 1343.66,-106.07 1321.85,-84.78 1341.83,-66 1353.53,-55 1368.31,-47.57 1383.75,-42.59"/>
<polygon fill="#f59e0b" stroke="#f59e0b" stroke-width="1.4" points="1384.48,-45.3 1391.39,-40.39 1382.93,-39.91 1384.48,-45.3"/>
<text text-anchor="middle" x="1358.71" y="-67.7" font-family="Helvetica,sans-Serif" font-size="14.00" fill="#92400e">refine</text>
</g>
<!-- A -->
<g id="node13" class="node">
<title>A</title>
<ellipse fill="#dbeafe" stroke="#2563eb" cx="1476.96" cy="-152" rx="61.09" ry="61.09"/>
<ellipse fill="none" stroke="#2563eb" cx="1476.96" cy="-152" rx="65.09" ry="65.09"/>
<text text-anchor="middle" x="1476.96" y="-146.2" font-family="Helvetica,sans-Serif" font-size="14.00" fill="#0f172a">Final Answer</text>
</g>
<!-- R2&#45;&gt;A -->
<g id="edge15" class="edge">
<title>R2&#45;&gt;A</title>
<path fill="none" stroke="#6b7280" stroke-width="1.4" d="M1302.77,-152C1334.71,-152 1370.76,-152 1401.67,-152"/>
<polygon fill="#6b7280" stroke="#6b7280" stroke-width="1.4" points="1401.39,-154.8 1409.39,-152 1401.39,-149.2 1401.39,-154.8"/>
<text text-anchor="middle" x="1358.71" y="-153.7" font-family="Helvetica,sans-Serif" font-size="14.00">pass</text>
</g>
</g>
</svg>
