<?xml version="1.0" encoding="UTF-8" standalone="no"?>
<!DOCTYPE svg PUBLIC "-//W3C//DTD SVG 1.1//EN"
 "http://www.w3.org/Graphics/SVG/1.1/DTD/svg11.dtd">
<!-- Generated by graphviz version 12.2.1 (20241206.2353)
 -->
<!-- Title: KBBridgeLogTimeline Pages: 1 -->
<svg width="1216pt" height="111pt"
 viewBox="0.00 0.00 1215.50 110.80" xmlns="http://www.w3.org/2000/svg" xmlns:xlink="http://www.w3.org/1999/xlink">
<g id="graph0" class="graph" transform="scale(1 1) rotate(0) translate(4 106.8)">
<title>KBBridgeLogTimeline</title>
<polygon fill="white" stroke="none" points="-4,4 -4,-106.8 1211.5,-106.8 1211.5,4 -4,4"/>
<text text-anchor="middle" x="603.75" y="-85.5" font-family="Helvetica,sans-Serif" font-size="14.00">`kb&#45;bridge` Execution Timeline (from notebook logs)</text>
<!-- kw -->
<g id="node1" class="node">
<title>kw</title>
<path fill="#c6f6d5" stroke="#2f855a" d="M244.5,-79.8C244.5,-79.8 12,-79.8 12,-79.8 6,-79.8 0,-73.8 0,-67.8 0,-67.8 0,-12 0,-12 0,-6 6,0 12,0 12,0 244.5,0 244.5,0 250.5,0 256.5,-6 256.5,-12 256.5,-12 256.5,-67.8 256.5,-67.8 256.5,-73.8 250.5,-79.8 244.5,-79.8"/>
<text text-anchor="start" x="25.88" y="-49.3" font-family="Helvetica,sans-Serif" font-size="18.00"> </text>
<text text-anchor="start" x="31.12" y="-49.3" font-family="Helvetica,sans-Serif" font-weight="bold" font-size="18.00">1️⃣ Keyword Generation</text>
<text text-anchor="start" x="18" y="-34.15" font-family="Helvetica,sans-Serif" font-size="15.00">&quot;Executing keyword_generator...&quot;</text>
<text text-anchor="start" x="27.75" y="-16.3" font-family="Helvetica,sans-Serif" font-size="15.00">✅ Generated 3 keyword sets</text>
<text text-anchor="start" x="223.5" y="-16.3" font-family="Helvetica,sans-Serif" font-size="18.00"> </text>
</g>
<!-- fd -->
<g id="node2" class="node">
<title>fd</title>
<path fill="#bee3f8" stroke="#2b6cb0" d="M491.25,-79.8C491.25,-79.8 304.5,-79.8 304.5,-79.8 298.5,-79.8 292.5,-73.8 292.5,-67.8 292.5,-67.8 292.5,-12 292.5,-12 292.5,-6 298.5,0 304.5,0 304.5,0 491.25,0 491.25,0 497.25,0 503.25,-6 503.25,-12 503.25,-12 503.25,-67.8 503.25,-67.8 503.25,-73.8 497.25,-79.8 491.25,-79.8"/>
<text text-anchor="start" x="322.88" y="-49.3" font-family="Helvetica,sans-Serif" font-size="18.00"> </text>
<text text-anchor="start" x="328.12" y="-49.3" font-family="Helvetica,sans-Serif" font-weight="bold" font-size="18.00">2️⃣ File Discovery</text>
<text text-anchor="start" x="310.5" y="-34.15" font-family="Helvetica,sans-Serif" font-size="15.00">&quot;Executing file_discover...&quot;</text>
<text text-anchor="start" x="338.62" y="-16.3" font-family="Helvetica,sans-Serif" font-size="15.00">✅ Found 10 files</text>
<text text-anchor="start" x="451.88" y="-16.3" font-family="Helvetica,sans-Serif" font-size="18.00"> </text>
</g>
<!-- kw&#45;&gt;fd -->
<g id="edge1" class="edge">
<title>kw&#45;&gt;fd</title>
<path fill="none" stroke="#444444" stroke-width="2" d="M256.79,-39.9C264.94,-39.9 273.11,-39.9 281.2,-39.9"/>
<polygon fill="#444444" stroke="#444444" stroke-width="2" points="281.13,-42.7 289.13,-39.9 281.13,-37.1 281.13,-42.7"/>
</g>
<!-- cb -->
<g id="node3" class="node">
<title>cb</title>
<path fill="#feebc8" stroke="#dd6b20" d="M936.75,-79.8C936.75,-79.8 551.25,-79.8 551.25,-79.8 545.25,-79.8 539.25,-73.8 539.25,-67.8 539.25,-67.8 539.25,-12 539.25,-12 539.25,-6 545.25,0 551.25,0 551.25,0 936.75,0 936.75,0 942.75,0 948.75,-6 948.75,-12 948.75,-12 948.75,-67.8 948.75,-67.8 948.75,-73.8 942.75,-79.8 936.75,-79.8"/>
<text text-anchor="start" x="609" y="-49.3" font-family="Helvetica,sans-Serif" font-size="18.00"> </text>
<text text-anchor="start" x="614.25" y="-49.3" font-family="Helvetica,sans-Serif" font-weight="bold" font-size="18.00">3️⃣ Assistant + Content Booster</text>
<text text-anchor="start" x="557.25" y="-34.15" font-family="Helvetica,sans-Serif" font-size="15.00">&quot;Content Booster: ENABLED (max_boost_keywords=1)&quot;</text>
<text text-anchor="start" x="615.38" y="-16.3" font-family="Helvetica,sans-Serif" font-size="15.00">19 candidates (18 advanced, 1 direct)</text>
<text text-anchor="start" x="867.38" y="-16.3" font-family="Helvetica,sans-Serif" font-size="18.00"> </text>
</g>
<!-- fd&#45;&gt;cb -->
<g id="edge2" class="edge">
<title>fd&#45;&gt;cb</title>
<path fill="none" stroke="#444444" stroke-width="2" d="M503.53,-39.9C511.43,-39.9 519.56,-39.9 527.84,-39.9"/>
<polygon fill="#444444" stroke="#444444" stroke-width="2" points="527.76,-42.7 535.76,-39.9 527.76,-37.1 527.76,-42.7"/>
</g>
<!-- rf -->
<g id="node4" class="node">
<title>rf</title>
<path fill="#e9d8fd" stroke="#805ad5" d="M1195.5,-79.8C1195.5,-79.8 996.75,-79.8 996.75,-79.8 990.75,-79.8 984.75,-73.8 984.75,-67.8 984.75,-67.8 984.75,-12 984.75,-12 984.75,-6 990.75,0 996.75,0 996.75,0 1195.5,0 1195.5,0 1201.5,0 1207.5,-6 1207.5,-12 1207.5,-12 1207.5,-67.8 1207.5,-67.8 1207.5,-73.8 1201.5,-79.8 1195.5,-79.8"/>
<text text-anchor="start" x="1038.38" y="-49.3" font-family="Helvetica,sans-Serif" font-size="18.00"> </text>
<text text-anchor="start" x="1043.62" y="-49.3" font-family="Helvetica,sans-Serif" font-weight="bold" font-size="18.00">4️⃣ Reflection</text>
<text text-anchor="start" x="1007.62" y="-34.15" font-family="Helvetica,sans-Serif" font-size="15.00">Score 0.51 ≥ threshold 0.5</text>
<text text-anchor="start" x="1002.75" y="-16.3" font-family="Helvetica,sans-Serif" font-size="15.00">&quot;Returning verbose results&quot;</text>
<text text-anchor="start" x="1184.25" y="-16.3" font-family="Helvetica,sans-Serif" font-size="18.00"> </text>
</g>
<!-- cb&#45;&gt;rf -->
<g id="edge3" class="edge">
<title>cb&#45;&gt;rf</title>
<path fill="none" stroke="#444444" stroke-width="2" d="M949.18,-39.9C957.43,-39.9 965.59,-39.9 973.59,-39.9"/>
<polygon fill="#444444" stroke="#444444" stroke-width="2" points="973.36,-42.7 981.36,-39.9 973.36,-37.1 973.36,-42.7"/>
</g>
</g>
</svg>
