<?xml version="1.0" encoding="UTF-8" standalone="no"?>
<!DOCTYPE svg PUBLIC "-//W3C//DTD SVG 1.1//EN"
 "http://www.w3.org/Graphics/SVG/1.1/DTD/svg11.dtd">
<!-- Generated by graphviz version 12.2.1 (20241206.2353)
 -->
<!-- Title: KBBridgeFlow Pages: 1 -->
<svg width="500pt" height="1015pt"
 viewBox="0.00 0.00 500.00 1014.60" xmlns="http://www.w3.org/2000/svg" xmlns:xlink="http://www.w3.org/1999/xlink">
<g id="graph0" class="graph" transform="scale(1 1) rotate(0) translate(4 1010.6)">
<title>KBBridgeFlow</title>
<polygon fill="white" stroke="none" points="-4,4 -4,-1010.6 496,-1010.6 496,4 -4,4"/>
<text text-anchor="middle" x="246" y="-989.3" font-family="Helvetica,sans-Serif" font-size="14.00">KB&#45;Bridge Information Flow</text>
<g id="clust1" class="cluster">
<title>cluster_search</title>
</g>
<!-- query -->
<g id="node1" class="node">
<title>query</title>
<path fill="#4a90e2" stroke="black" stroke-width="2" d="M359.85,-983.6C359.85,-983.6 228.15,-983.6 228.15,-983.6 222.15,-983.6 216.15,-977.6 216.15,-971.6 216.15,-971.6 216.15,-944.3 216.15,-944.3 216.15,-938.3 222.15,-932.3 228.15,-932.3 228.15,-932.3 359.85,-932.3 359.85,-932.3 365.85,-932.3 371.85,-938.3 371.85,-944.3 371.85,-944.3 371.85,-971.6 371.85,-971.6 371.85,-977.6 365.85,-983.6 359.85,-983.6"/>
<text text-anchor="middle" x="294" y="-948.3" font-family="Helvetica,sans-Serif" font-size="22.00" fill="white">User Query</text>
</g>
<!-- keywords -->
<g id="node2" class="node">
<title>keywords</title>
<path fill="#7ed321" stroke="#5fa619" d="M313.73,-873.3C313.73,-873.3 92.28,-873.3 92.28,-873.3 86.28,-873.3 80.28,-867.3 80.28,-861.3 80.28,-861.3 80.28,-800.75 80.28,-800.75 80.28,-794.75 86.28,-788.75 92.28,-788.75 92.28,-788.75 313.73,-788.75 313.73,-788.75 319.73,-788.75 325.73,-794.75 325.73,-800.75 325.73,-800.75 325.73,-861.3 325.73,-861.3 325.73,-867.3 319.73,-873.3 313.73,-873.3"/>
<text text-anchor="start" x="105.88" y="-836.9" font-family="Helvetica,sans-Serif" font-weight="bold" font-size="20.00">Keyword Generation</text>
<text text-anchor="start" x="173" y="-808.8" font-family="Helvetica,sans-Serif" font-size="18.00">(3 sets)</text>
</g>
<!-- query&#45;&gt;keywords -->
<g id="edge1" class="edge">
<title>query&#45;&gt;keywords</title>
<path fill="none" stroke="#333333" stroke-width="2" d="M275.8,-931.97C265.47,-917.78 252.15,-899.5 239.74,-882.46"/>
<polygon fill="#333333" stroke="#333333" stroke-width="2" points="242.1,-880.95 235.13,-876.13 237.58,-884.25 242.1,-880.95"/>
</g>
<!-- direct -->
<g id="node4" class="node">
<title>direct</title>
<path fill="#50e3c2" stroke="#22d3bc" d="M463.73,-542.95C463.73,-542.95 308.27,-542.95 308.27,-542.95 302.27,-542.95 296.27,-536.95 296.27,-530.95 296.27,-530.95 296.27,-470.4 296.27,-470.4 296.27,-464.4 302.27,-458.4 308.27,-458.4 308.27,-458.4 463.73,-458.4 463.73,-458.4 469.73,-458.4 475.73,-464.4 475.73,-470.4 475.73,-470.4 475.73,-530.95 475.73,-530.95 475.73,-536.95 469.73,-542.95 463.73,-542.95"/>
<text text-anchor="start" x="321.88" y="-506.55" font-family="Helvetica,sans-Serif" font-weight="bold" font-size="20.00">Direct Search</text>
<text text-anchor="start" x="330.88" y="-478.45" font-family="Helvetica,sans-Serif" font-size="18.00" fill="#0c4a6e">[OK] 1 source</text>
</g>
<!-- query&#45;&gt;direct -->
<g id="edge3" class="edge">
<title>query&#45;&gt;direct</title>
<path fill="none" stroke="#999999" stroke-width="2" stroke-dasharray="5,2" d="M312.8,-931.98C323.78,-916.04 336.86,-894.46 344,-873.3 380.9,-764.03 386.81,-627.47 386.98,-554.11"/>
<polygon fill="#999999" stroke="#999999" stroke-width="2" points="389.78,-554.35 386.96,-546.35 384.18,-554.36 389.78,-554.35"/>
<text text-anchor="middle" x="397.29" y="-746.45" font-family="Times,serif" font-size="14.00"> all files </text>
</g>
<!-- files -->
<g id="node3" class="node">
<title>files</title>
<path fill="#7ed321" stroke="#5fa619" d="M270.73,-714.25C270.73,-714.25 109.28,-714.25 109.28,-714.25 103.28,-714.25 97.28,-708.25 97.28,-702.25 97.28,-702.25 97.28,-641.7 97.28,-641.7 97.28,-635.7 103.28,-629.7 109.28,-629.7 109.28,-629.7 270.73,-629.7 270.73,-629.7 276.73,-629.7 282.73,-635.7 282.73,-641.7 282.73,-641.7 282.73,-702.25 282.73,-702.25 282.73,-708.25 276.73,-714.25 270.73,-714.25"/>
<text text-anchor="start" x="122.88" y="-677.85" font-family="Helvetica,sans-Serif" font-weight="bold" font-size="20.00">File Discovery</text>
<text text-anchor="start" x="131.12" y="-649.75" font-family="Helvetica,sans-Serif" font-size="18.00">(10 files found)</text>
</g>
<!-- keywords&#45;&gt;files -->
<g id="edge2" class="edge">
<title>keywords&#45;&gt;files</title>
<path fill="none" stroke="#333333" stroke-width="2" d="M199.55,-788.35C197.95,-769.02 196.03,-745.83 194.33,-725.33"/>
<polygon fill="#333333" stroke="#333333" stroke-width="2" points="197.14,-725.33 193.69,-717.59 191.56,-725.79 197.14,-725.33"/>
</g>
<!-- advanced -->
<g id="node5" class="node">
<title>advanced</title>
<path fill="#50e3c2" stroke="#22d3bc" d="M248.35,-555.2C248.35,-555.2 27.65,-555.2 27.65,-555.2 21.65,-555.2 15.65,-549.2 15.65,-543.2 15.65,-543.2 15.65,-458.15 15.65,-458.15 15.65,-452.15 21.65,-446.15 27.65,-446.15 27.65,-446.15 248.35,-446.15 248.35,-446.15 254.35,-446.15 260.35,-452.15 260.35,-458.15 260.35,-458.15 260.35,-543.2 260.35,-543.2 260.35,-549.2 254.35,-555.2 248.35,-555.2"/>
<text text-anchor="start" x="54.38" y="-518.8" font-family="Helvetica,sans-Serif" font-weight="bold" font-size="20.00">Advanced Search</text>
<text text-anchor="start" x="41.25" y="-492.6" font-family="Helvetica,sans-Serif" font-size="16.00">+ Content Booster (max=1)</text>
<text text-anchor="start" x="78.38" y="-466.2" font-family="Helvetica,sans-Serif" font-size="18.00" fill="#0c4a6e">[OK] 7 sources</text>
</g>
<!-- files&#45;&gt;advanced -->
<g id="edge4" class="edge">
<title>files&#45;&gt;advanced</title>
<path fill="none" stroke="#333333" stroke-width="2" d="M177.28,-629.56C171.39,-610.38 164.25,-587.15 157.69,-565.78"/>
<polygon fill="#333333" stroke="#333333" stroke-width="2" points="160.44,-565.18 155.41,-558.36 155.08,-566.83 160.44,-565.18"/>
<text text-anchor="middle" x="191.11" y="-587.4" font-family="Times,serif" font-size="14.00"> 10 files </text>
</g>
<!-- extract -->
<g id="node6" class="node">
<title>extract</title>
<path fill="#f5a623" stroke="#e09615" d="M445.6,-369.4C445.6,-369.4 124.4,-369.4 124.4,-369.4 118.4,-369.4 112.4,-363.4 112.4,-357.4 112.4,-357.4 112.4,-296.85 112.4,-296.85 112.4,-290.85 118.4,-284.85 124.4,-284.85 124.4,-284.85 445.6,-284.85 445.6,-284.85 451.6,-284.85 457.6,-290.85 457.6,-296.85 457.6,-296.85 457.6,-357.4 457.6,-357.4 457.6,-363.4 451.6,-369.4 445.6,-369.4"/>
<text text-anchor="start" x="138" y="-333" font-family="Helvetica,sans-Serif" font-weight="bold" font-size="20.00">Answer Extraction &amp; Synthesis</text>
<text text-anchor="start" x="209.62" y="-304.9" font-family="Helvetica,sans-Serif" font-size="18.00">(1 + 7 = 8 sources)</text>
</g>
<!-- direct&#45;&gt;extract -->
<g id="edge5" class="edge">
<title>direct&#45;&gt;extract</title>
<path fill="none" stroke="#333333" stroke-width="2" d="M361.55,-458.15C347.57,-434.41 329.93,-404.44 315.1,-379.26"/>
<polygon fill="#333333" stroke="#333333" stroke-width="2" points="317.58,-377.95 311.11,-372.47 312.76,-380.79 317.58,-377.95"/>
<text text-anchor="middle" x="343.38" y="-401.95" font-family="Times,serif" font-size="16.00"> 1 </text>
</g>
<!-- advanced&#45;&gt;extract -->
<g id="edge6" class="edge">
<title>advanced&#45;&gt;extract</title>
<path fill="none" stroke="#333333" stroke-width="2" d="M184.11,-445.87C202.69,-424.18 224,-399.31 242.23,-378.03"/>
<polygon fill="#333333" stroke="#333333" stroke-width="2" points="244.27,-379.96 247.35,-372.07 240.02,-376.32 244.27,-379.96"/>
<text text-anchor="middle" x="232.54" y="-401.95" font-family="Times,serif" font-size="16.00"> 7 </text>
</g>
<!-- reflection -->
<g id="node7" class="node">
<title>reflection</title>
<path fill="#50e3c2" stroke="#22d3bc" d="M461.35,-225.85C461.35,-225.85 108.65,-225.85 108.65,-225.85 102.65,-225.85 96.65,-219.85 96.65,-213.85 96.65,-213.85 96.65,-153.3 96.65,-153.3 96.65,-147.3 102.65,-141.3 108.65,-141.3 108.65,-141.3 461.35,-141.3 461.35,-141.3 467.35,-141.3 473.35,-147.3 473.35,-153.3 473.35,-153.3 473.35,-213.85 473.35,-213.85 473.35,-219.85 467.35,-225.85 461.35,-225.85"/>
<text text-anchor="start" x="122.25" y="-189.45" font-family="Helvetica,sans-Serif" font-weight="bold" font-size="20.00">[PASS] Reflection &amp; Quality Check</text>
<text text-anchor="start" x="233.25" y="-161.35" font-family="Helvetica,sans-Serif" font-size="18.00">(Score: 0.51)</text>
</g>
<!-- extract&#45;&gt;reflection -->
<g id="edge7" class="edge">
<title>extract&#45;&gt;reflection</title>
<path fill="none" stroke="#333333" stroke-width="2" d="M285,-284.42C285,-269.45 285,-252.37 285,-236.63"/>
<polygon fill="#333333" stroke="#333333" stroke-width="2" points="287.8,-237.01 285,-229.01 282.2,-237.01 287.8,-237.01"/>
</g>
<!-- answer -->
<g id="node8" class="node">
<title>answer</title>
<path fill="#9013fe" stroke="#7a0fd8" stroke-width="2" d="M439.98,-82.3C439.98,-82.3 130.02,-82.3 130.02,-82.3 124.02,-82.3 118.03,-76.3 118.03,-70.3 118.03,-70.3 118.03,-12 118.03,-12 118.03,-6 124.03,0 130.03,0 130.03,0 439.98,0 439.98,0 445.98,0 451.98,-6 451.98,-12 451.98,-12 451.98,-70.3 451.98,-70.3 451.98,-76.3 445.98,-82.3 439.98,-82.3"/>
<text text-anchor="start" x="223.5" y="-45.9" font-family="Helvetica,sans-Serif" font-weight="bold" font-size="20.00" fill="white">Final Answer</text>
<text text-anchor="start" x="143.62" y="-19.7" font-family="Helvetica,sans-Serif" font-size="16.00" fill="white">&quot;The obligations that remain in effect...&quot;</text>
</g>
<!-- reflection&#45;&gt;answer -->
<g id="edge8" class="edge">
<title>reflection&#45;&gt;answer</title>
<path fill="none" stroke="#333333" stroke-width="2" d="M285,-140.82C285,-125.85 285,-108.79 285,-93.12"/>
<polygon fill="#333333" stroke="#333333" stroke-width="2" points="287.8,-93.56 285,-85.56 282.2,-93.56 287.8,-93.56"/>
</g>
</g>
</svg>
