<?xml version="1.0" encoding="UTF-8" standalone="no"?>
<!DOCTYPE svg PUBLIC "-//W3C//DTD SVG 1.1//EN"
 "http://www.w3.org/Graphics/SVG/1.1/DTD/svg11.dtd">
<!-- Generated by graphviz version 12.2.1 (20241206.2353)
 -->
<!-- Title: G Pages: 1 -->
<svg width="1030pt" height="608pt"
 viewBox="0.00 0.00 1029.50 607.61" xmlns="http://www.w3.org/2000/svg" xmlns:xlink="http://www.w3.org/1999/xlink">
<g id="graph0" class="graph" transform="scale(1 1) rotate(0) translate(4 603.61)">
<title>G</title>
<polygon fill="white" stroke="none" points="-4,4 -4,-603.61 1025.5,-603.61 1025.5,4 -4,4"/>
<g id="clust1" class="cluster">
<title>cluster_server</title>
<path fill="#f8fafc" stroke="#94a3b8" d="M20,-23.61C20,-23.61 730.25,-23.61 730.25,-23.61 736.25,-23.61 742.25,-29.61 742.25,-35.61 742.25,-35.61 742.25,-333.61 742.25,-333.61 742.25,-339.61 736.25,-345.61 730.25,-345.61 730.25,-345.61 20,-345.61 20,-345.61 14,-345.61 8,-339.61 8,-333.61 8,-333.61 8,-35.61 8,-35.61 8,-29.61 14,-23.61 20,-23.61"/>
<text text-anchor="middle" x="375.12" y="-332.11" font-family="Helvetica,sans-Serif" font-size="10.00">MCP Server (FastMCP)</text>
</g>
<g id="clust2" class="cluster">
<title>cluster_subtools</title>
<path fill="#f9fafb" stroke="#e5e7eb" d="M616.75,-31.61C616.75,-31.61 722.25,-31.61 722.25,-31.61 728.25,-31.61 734.25,-37.61 734.25,-43.61 734.25,-43.61 734.25,-306.61 734.25,-306.61 734.25,-312.61 728.25,-318.61 722.25,-318.61 722.25,-318.61 616.75,-318.61 616.75,-318.61 610.75,-318.61 604.75,-312.61 604.75,-306.61 604.75,-306.61 604.75,-43.61 604.75,-43.61 604.75,-37.61 610.75,-31.61 616.75,-31.61"/>
<text text-anchor="middle" x="669.5" y="-305.11" font-family="Helvetica,sans-Serif" font-size="10.00">Internal Subtools</text>
</g>
<g id="clust3" class="cluster">
<title>cluster_core</title>
<path fill="#f8fafc" stroke="#94a3b8" d="M773.25,-310.61C773.25,-310.61 1001.5,-310.61 1001.5,-310.61 1007.5,-310.61 1013.5,-316.61 1013.5,-322.61 1013.5,-322.61 1013.5,-369.61 1013.5,-369.61 1013.5,-375.61 1007.5,-381.61 1001.5,-381.61 1001.5,-381.61 773.25,-381.61 773.25,-381.61 767.25,-381.61 761.25,-375.61 761.25,-369.61 761.25,-369.61 761.25,-322.61 761.25,-322.61 761.25,-316.61 767.25,-310.61 773.25,-310.61"/>
<text text-anchor="middle" x="887.38" y="-368.11" font-family="Helvetica,sans-Serif" font-size="10.00">Core + Services</text>
</g>
<g id="clust4" class="cluster">
<title>cluster_ext</title>
<path fill="#f8fafc" stroke="#94a3b8" d="M610.75,-412.61C610.75,-412.61 728.25,-412.61 728.25,-412.61 734.25,-412.61 740.25,-418.61 740.25,-424.61 740.25,-424.61 740.25,-579.61 740.25,-579.61 740.25,-585.61 734.25,-591.61 728.25,-591.61 728.25,-591.61 610.75,-591.61 610.75,-591.61 604.75,-591.61 598.75,-585.61 598.75,-579.61 598.75,-579.61 598.75,-424.61 598.75,-424.61 598.75,-418.61 604.75,-412.61 610.75,-412.61"/>
<text text-anchor="middle" x="669.5" y="-578.11" font-family="Helvetica,sans-Serif" font-size="10.00">External Systems</text>
</g>
<!-- Client -->
<g id="node1" class="node">
<title>Client</title>
<path fill="#dbeafe" stroke="#2563eb" d="M700,-402.61C700,-402.61 639,-402.61 639,-402.61 633,-402.61 627,-396.61 627,-390.61 627,-390.61 627,-376.61 627,-376.61 627,-370.61 633,-364.61 639,-364.61 639,-364.61 700,-364.61 700,-364.61 706,-364.61 712,-370.61 712,-376.61 712,-376.61 712,-390.61 712,-390.61 712,-396.61 706,-402.61 700,-402.61"/>
<text text-anchor="middle" x="669.5" y="-385.31" font-family="Helvetica,sans-Serif" font-size="14.00" fill="#0f172a">Client</text>
<text text-anchor="middle" x="669.5" y="-370.31" font-family="Helvetica,sans-Serif" font-size="14.00" fill="#0f172a">IDE / Agent</text>
</g>
<!-- Middleware -->
<g id="node3" class="node">
<title>Middleware</title>
<path fill="#fff6d5" stroke="#a16207" d="M128.38,-318.61C128.38,-318.61 56.88,-318.61 56.88,-318.61 50.87,-318.61 44.88,-312.61 44.88,-306.61 44.88,-306.61 44.88,-292.61 44.88,-292.61 44.88,-286.61 50.88,-280.61 56.88,-280.61 56.88,-280.61 128.38,-280.61 128.38,-280.61 134.38,-280.61 140.38,-286.61 140.38,-292.61 140.38,-292.61 140.38,-306.61 140.38,-306.61 140.38,-312.61 134.38,-318.61 128.38,-318.61"/>
<text text-anchor="middle" x="92.62" y="-301.31" font-family="Helvetica,sans-Serif" font-size="14.00" fill="#3f2d1c">Middleware</text>
<text text-anchor="middle" x="92.62" y="-286.31" font-family="Helvetica,sans-Serif" font-size="14.00" fill="#3f2d1c">Auth • Config</text>
</g>
<!-- Client&#45;&gt;Middleware -->
<g id="edge9" class="edge">
<title>Client&#45;&gt;Middleware</title>
<path fill="none" stroke="#6b7280" stroke-width="1.4" d="M626.71,-377.5C525.24,-362.67 265.74,-324.76 150.38,-307.9"/>
<polygon fill="#6b7280" stroke="#6b7280" stroke-width="1.4" points="151.09,-305.17 142.77,-306.79 150.28,-310.71 151.09,-305.17"/>
<text text-anchor="middle" x="364.38" y="-348.86" font-family="Helvetica,sans-Serif" font-size="14.00">tool call + headers</text>
</g>
<!-- Transport -->
<g id="node2" class="node">
<title>Transport</title>
<path fill="#dcfce7" stroke="#16a34a" d="M157.25,-166.61C157.25,-166.61 28,-166.61 28,-166.61 22,-166.61 16,-160.61 16,-154.61 16,-154.61 16,-140.61 16,-140.61 16,-134.61 22,-128.61 28,-128.61 28,-128.61 157.25,-128.61 157.25,-128.61 163.25,-128.61 169.25,-134.61 169.25,-140.61 169.25,-140.61 169.25,-154.61 169.25,-154.61 169.25,-160.61 163.25,-166.61 157.25,-166.61"/>
<text text-anchor="middle" x="92.62" y="-149.31" font-family="Helvetica,sans-Serif" font-size="14.00" fill="#052e16">Transport</text>
<text text-anchor="middle" x="92.62" y="-134.31" font-family="Helvetica,sans-Serif" font-size="14.00" fill="#052e16">streamable&#45;http • /mcp</text>
</g>
<!-- Router -->
<g id="node4" class="node">
<title>Router</title>
<path fill="#f3e8ff" stroke="#7c3aed" d="M279.25,-305.61C279.25,-305.61 218.25,-305.61 218.25,-305.61 212.25,-305.61 206.25,-299.61 206.25,-293.61 206.25,-293.61 206.25,-281.61 206.25,-281.61 206.25,-275.61 212.25,-269.61 218.25,-269.61 218.25,-269.61 279.25,-269.61 279.25,-269.61 285.25,-269.61 291.25,-275.61 291.25,-281.61 291.25,-281.61 291.25,-293.61 291.25,-293.61 291.25,-299.61 285.25,-305.61 279.25,-305.61"/>
<text text-anchor="middle" x="248.75" y="-281.81" font-family="Helvetica,sans-Serif" font-size="14.00" fill="#2e1065">Tool Router</text>
</g>
<!-- Middleware&#45;&gt;Router -->
<g id="edge1" class="edge">
<title>Middleware&#45;&gt;Router</title>
<path fill="none" stroke="#6b7280" stroke-width="1.4" d="M140.71,-295.94C158.26,-294.57 178.27,-293.02 196.2,-291.62"/>
<polygon fill="#6b7280" stroke="#6b7280" stroke-width="1.4" points="196.05,-294.44 203.81,-291.03 195.62,-288.86 196.05,-294.44"/>
</g>
<!-- qa_hub -->
<g id="node5" class="node">
<title>qa_hub</title>
<path fill="#f3e8ff" stroke="#7c3aed" d="M557.75,-237.61C557.75,-237.61 449.5,-237.61 449.5,-237.61 443.5,-237.61 437.5,-231.61 437.5,-225.61 437.5,-225.61 437.5,-213.61 437.5,-213.61 437.5,-207.61 443.5,-201.61 449.5,-201.61 449.5,-201.61 557.75,-201.61 557.75,-201.61 563.75,-201.61 569.75,-207.61 569.75,-213.61 569.75,-213.61 569.75,-225.61 569.75,-225.61 569.75,-231.61 563.75,-237.61 557.75,-237.61"/>
<text text-anchor="middle" x="503.62" y="-213.81" font-family="Helvetica,sans-Serif" font-size="14.00" fill="#2e1065">qa_hub (Main Tool)</text>
</g>
<!-- Router&#45;&gt;qa_hub -->
<g id="edge2" class="edge">
<title>Router&#45;&gt;qa_hub</title>
<path fill="none" stroke="#6b7280" stroke-width="1.4" d="M291.51,-276.38C328.36,-266.47 382.98,-251.78 427.43,-239.83"/>
<polygon fill="#6b7280" stroke="#6b7280" stroke-width="1.4" points="428,-242.57 434.99,-237.79 426.54,-237.17 428,-242.57"/>
</g>
<!-- Resources -->
<g id="node11" class="node">
<title>Resources</title>
<path fill="#dcfce7" stroke="#16a34a" d="M543.12,-306.61C543.12,-306.61 464.12,-306.61 464.12,-306.61 458.12,-306.61 452.12,-300.61 452.12,-294.61 452.12,-294.61 452.12,-280.61 452.12,-280.61 452.12,-274.61 458.12,-268.61 464.12,-268.61 464.12,-268.61 543.12,-268.61 543.12,-268.61 549.12,-268.61 555.12,-274.61 555.12,-280.61 555.12,-280.61 555.12,-294.61 555.12,-294.61 555.12,-300.61 549.12,-306.61 543.12,-306.61"/>
<text text-anchor="middle" x="503.62" y="-289.31" font-family="Helvetica,sans-Serif" font-size="14.00" fill="#052e16">Resources</text>
<text text-anchor="middle" x="503.62" y="-274.31" font-family="Helvetica,sans-Serif" font-size="14.00" fill="#052e16">prompts • logs</text>
</g>
<!-- Router&#45;&gt;Resources -->
<g id="edge3" class="edge">
<title>Router&#45;&gt;Resources</title>
<path fill="none" stroke="#6b7280" stroke-width="1.4" d="M291.51,-287.61C332.41,-287.61 395.21,-287.61 441.68,-287.61"/>
<polygon fill="#6b7280" stroke="#6b7280" stroke-width="1.4" points="441.52,-290.41 449.52,-287.61 441.52,-284.81 441.52,-290.41"/>
</g>
<!-- qa_hub&#45;&gt;Client -->
<g id="edge24" class="edge">
<title>qa_hub&#45;&gt;Client</title>
<path fill="none" stroke="#6b7280" stroke-width="1.4" d="M546.01,-238C555.02,-243.74 563.66,-250.91 569.75,-259.61 592.65,-292.31 562.75,-316.48 587.75,-347.61 595.49,-357.24 606.34,-364.37 617.58,-369.63"/>
<polygon fill="#6b7280" stroke="#6b7280" stroke-width="1.4" points="616.22,-372.09 624.68,-372.63 618.4,-366.93 616.22,-372.09"/>
</g>
<!-- FS -->
<g id="node6" class="node">
<title>FS</title>
<path fill="#fff6d5" stroke="#a16207" d="M709,-237.61C709,-237.61 630,-237.61 630,-237.61 624,-237.61 618,-231.61 618,-225.61 618,-225.61 618,-213.61 618,-213.61 618,-207.61 624,-201.61 630,-201.61 630,-201.61 709,-201.61 709,-201.61 715,-201.61 721,-207.61 721,-213.61 721,-213.61 721,-225.61 721,-225.61 721,-231.61 715,-237.61 709,-237.61"/>
<text text-anchor="middle" x="669.5" y="-213.81" font-family="Helvetica,sans-Serif" font-size="14.00" fill="#3f2d1c">file_discoverer</text>
</g>
<!-- qa_hub&#45;&gt;FS -->
<g id="edge4" class="edge">
<title>qa_hub&#45;&gt;FS</title>
<path fill="none" stroke="#9ca3af" stroke-width="1.4" stroke-dasharray="5,2" d="M569.86,-219.61C582.4,-219.61 595.48,-219.61 607.86,-219.61"/>
<polygon fill="#9ca3af" stroke="#9ca3af" stroke-width="1.4" points="607.5,-222.41 615.5,-219.61 607.5,-216.81 607.5,-222.41"/>
</g>
<!-- KG -->
<g id="node7" class="node">
<title>KG</title>
<path fill="#fff6d5" stroke="#a16207" d="M714.25,-291.61C714.25,-291.61 624.75,-291.61 624.75,-291.61 618.75,-291.61 612.75,-285.61 612.75,-279.61 612.75,-279.61 612.75,-267.61 612.75,-267.61 612.75,-261.61 618.75,-255.61 624.75,-255.61 624.75,-255.61 714.25,-255.61 714.25,-255.61 720.25,-255.61 726.25,-261.61 726.25,-267.61 726.25,-267.61 726.25,-279.61 726.25,-279.61 726.25,-285.61 720.25,-291.61 714.25,-291.61"/>
<text text-anchor="middle" x="669.5" y="-267.81" font-family="Helvetica,sans-Serif" font-size="14.00" fill="#3f2d1c">query_expander</text>
</g>
<!-- qa_hub&#45;&gt;KG -->
<g id="edge5" class="edge">
<title>qa_hub&#45;&gt;KG</title>
<path fill="none" stroke="#9ca3af" stroke-width="1.4" stroke-dasharray="5,2" d="M560.56,-238.04C574.2,-242.53 588.91,-247.38 602.95,-252"/>
<polygon fill="#9ca3af" stroke="#9ca3af" stroke-width="1.4" points="602.05,-254.66 610.52,-254.5 603.8,-249.34 602.05,-254.66"/>
</g>
<!-- RET -->
<g id="node8" class="node">
<title>RET</title>
<path fill="#fff6d5" stroke="#a16207" d="M712,-75.61C712,-75.61 627,-75.61 627,-75.61 621,-75.61 615,-69.61 615,-63.61 615,-63.61 615,-51.61 615,-51.61 615,-45.61 621,-39.61 627,-39.61 627,-39.61 712,-39.61 712,-39.61 718,-39.61 724,-45.61 724,-51.61 724,-51.61 724,-63.61 724,-63.61 724,-69.61 718,-75.61 712,-75.61"/>
<text text-anchor="middle" x="669.5" y="-51.81" font-family="Helvetica,sans-Serif" font-size="14.00" fill="#3f2d1c">chunk_retriever</text>
</g>
<!-- qa_hub&#45;&gt;RET -->
<g id="edge6" class="edge">
<title>qa_hub&#45;&gt;RET</title>
<path fill="none" stroke="#9ca3af" stroke-width="1.4" stroke-dasharray="5,2" d="M512.96,-201.28C526.87,-172.61 557.4,-117.07 598.75,-84.61 601,-82.84 603.38,-81.18 605.85,-79.61"/>
<polygon fill="#9ca3af" stroke="#9ca3af" stroke-width="1.4" points="607.13,-82.11 612.7,-75.72 604.36,-77.24 607.13,-82.11"/>
</g>
<!-- FL -->
<g id="node9" class="node">
<title>FL</title>
<path fill="#fff6d5" stroke="#a16207" d="M700,-129.61C700,-129.61 639,-129.61 639,-129.61 633,-129.61 627,-123.61 627,-117.61 627,-117.61 627,-105.61 627,-105.61 627,-99.61 633,-93.61 639,-93.61 639,-93.61 700,-93.61 700,-93.61 706,-93.61 712,-99.61 712,-105.61 712,-105.61 712,-117.61 712,-117.61 712,-123.61 706,-129.61 700,-129.61"/>
<text text-anchor="middle" x="669.5" y="-105.81" font-family="Helvetica,sans-Serif" font-size="14.00" fill="#3f2d1c">file_indexer</text>
</g>
<!-- qa_hub&#45;&gt;FL -->
<g id="edge7" class="edge">
<title>qa_hub&#45;&gt;FL</title>
<path fill="none" stroke="#9ca3af" stroke-width="1.4" stroke-dasharray="5,2" d="M522.26,-201.12C540.16,-183.21 569.35,-156.23 598.75,-138.61 604.72,-135.03 611.25,-131.76 617.85,-128.84"/>
<polygon fill="#9ca3af" stroke="#9ca3af" stroke-width="1.4" points="618.59,-131.56 624.88,-125.88 616.42,-126.4 618.59,-131.56"/>
</g>
<!-- FC -->
<g id="node10" class="node">
<title>FC</title>
<path fill="#fff6d5" stroke="#a16207" d="M700.38,-183.61C700.38,-183.61 638.62,-183.61 638.62,-183.61 632.62,-183.61 626.62,-177.61 626.62,-171.61 626.62,-171.61 626.62,-159.61 626.62,-159.61 626.62,-153.61 632.62,-147.61 638.62,-147.61 638.62,-147.61 700.38,-147.61 700.38,-147.61 706.38,-147.61 712.38,-153.61 712.38,-159.61 712.38,-159.61 712.38,-171.61 712.38,-171.61 712.38,-177.61 706.38,-183.61 700.38,-183.61"/>
<text text-anchor="middle" x="669.5" y="-159.81" font-family="Helvetica,sans-Serif" font-size="14.00" fill="#3f2d1c">file_counter</text>
</g>
<!-- qa_hub&#45;&gt;FC -->
<g id="edge8" class="edge">
<title>qa_hub&#45;&gt;FC</title>
<path fill="none" stroke="#9ca3af" stroke-width="1.4" stroke-dasharray="5,2" d="M560.56,-201.17C578.88,-195.14 599.13,-188.46 617.1,-182.54"/>
<polygon fill="#9ca3af" stroke="#9ca3af" stroke-width="1.4" points="617.53,-185.35 624.25,-180.19 615.78,-180.03 617.53,-185.35"/>
</g>
<!-- Service -->
<g id="node12" class="node">
<title>Service</title>
<path fill="#dcfce7" stroke="#16a34a" d="M855.75,-354.61C855.75,-354.61 781.25,-354.61 781.25,-354.61 775.25,-354.61 769.25,-348.61 769.25,-342.61 769.25,-342.61 769.25,-330.61 769.25,-330.61 769.25,-324.61 775.25,-318.61 781.25,-318.61 781.25,-318.61 855.75,-318.61 855.75,-318.61 861.75,-318.61 867.75,-324.61 867.75,-330.61 867.75,-330.61 867.75,-342.61 867.75,-342.61 867.75,-348.61 861.75,-354.61 855.75,-354.61"/>
<text text-anchor="middle" x="818.5" y="-330.81" font-family="Helvetica,sans-Serif" font-size="14.00" fill="#052e16">Service Layer</text>
</g>
<!-- qa_hub&#45;&gt;Service -->
<g id="edge10" class="edge">
<title>qa_hub&#45;&gt;Service</title>
<path fill="none" stroke="#6b7280" stroke-width="1.4" d="M507.17,-201.4C513.85,-161.5 535.9,-66.79 598.75,-27.61 652.87,6.14 692.1,11.8 742.25,-27.61 786.64,-62.49 808.13,-238.82 814.98,-308.36"/>
<polygon fill="#6b7280" stroke="#6b7280" stroke-width="1.4" points="812.17,-308.38 815.72,-316.08 817.74,-307.85 812.17,-308.38"/>
</g>
<!-- FS&#45;&gt;Service -->
<g id="edge13" class="edge">
<title>FS&#45;&gt;Service</title>
<path fill="none" stroke="#6b7280" stroke-width="1.4" d="M721.2,-234.89C728.58,-238.18 735.85,-242.06 742.25,-246.61 766.27,-263.65 787.16,-290.15 800.8,-309.99"/>
<polygon fill="#6b7280" stroke="#6b7280" stroke-width="1.4" points="798.41,-311.46 805.18,-316.55 803.06,-308.34 798.41,-311.46"/>
</g>
<!-- KG&#45;&gt;Service -->
<g id="edge14" class="edge">
<title>KG&#45;&gt;Service</title>
<path fill="none" stroke="#6b7280" stroke-width="1.4" d="M726.52,-289.58C731.89,-291.47 737.21,-293.48 742.25,-295.61 754.26,-300.66 766.86,-307.05 778.24,-313.28"/>
<polygon fill="#6b7280" stroke="#6b7280" stroke-width="1.4" points="776.87,-315.72 785.22,-317.18 779.6,-310.83 776.87,-315.72"/>
</g>
<!-- RET&#45;&gt;Service -->
<g id="edge15" class="edge">
<title>RET&#45;&gt;Service</title>
<path fill="none" stroke="#6b7280" stroke-width="1.4" d="M724.14,-71.31C730.87,-74.8 737.17,-79.16 742.25,-84.61 801.7,-148.36 814.33,-257.18 816.91,-308.39"/>
<polygon fill="#6b7280" stroke="#6b7280" stroke-width="1.4" points="814.11,-308.41 817.23,-316.29 819.7,-308.18 814.11,-308.41"/>
</g>
<!-- FL&#45;&gt;Service -->
<g id="edge16" class="edge">
<title>FL&#45;&gt;Service</title>
<path fill="none" stroke="#6b7280" stroke-width="1.4" d="M712.3,-120.68C723.14,-124.7 734.05,-130.43 742.25,-138.61 789.67,-185.87 807.7,-266.06 814.16,-308.43"/>
<polygon fill="#6b7280" stroke="#6b7280" stroke-width="1.4" points="811.37,-308.72 815.27,-316.25 816.92,-307.93 811.37,-308.72"/>
</g>
<!-- FC&#45;&gt;Service -->
<g id="edge17" class="edge">
<title>FC&#45;&gt;Service</title>
<path fill="none" stroke="#6b7280" stroke-width="1.4" d="M712.81,-175.76C723.28,-179.74 733.88,-185.2 742.25,-192.61 778.04,-224.29 799.42,-277.13 809.79,-309.23"/>
<polygon fill="#6b7280" stroke="#6b7280" stroke-width="1.4" points="806.98,-309.65 812.03,-316.46 812.33,-307.99 806.98,-309.65"/>
</g>
<!-- Service&#45;&gt;qa_hub -->
<g id="edge23" class="edge">
<title>Service&#45;&gt;qa_hub</title>
<path fill="none" stroke="#6b7280" stroke-width="1.4" d="M769.02,-346.78C721.39,-353.94 648.79,-356.96 598.75,-322.61 573.34,-305.16 590.21,-282.66 569.75,-259.61 564.37,-253.54 557.85,-248.09 551.04,-243.31"/>
<polygon fill="#6b7280" stroke="#6b7280" stroke-width="1.4" points="552.96,-241.22 544.73,-239.18 549.88,-245.91 552.96,-241.22"/>
</g>
<!-- Core -->
<g id="node13" class="node">
<title>Core</title>
<path fill="#e6f4ff" stroke="#2563eb" d="M993.5,-354.61C993.5,-354.61 916.75,-354.61 916.75,-354.61 910.75,-354.61 904.75,-348.61 904.75,-342.61 904.75,-342.61 904.75,-330.61 904.75,-330.61 904.75,-324.61 910.75,-318.61 916.75,-318.61 916.75,-318.61 993.5,-318.61 993.5,-318.61 999.5,-318.61 1005.5,-324.61 1005.5,-330.61 1005.5,-330.61 1005.5,-342.61 1005.5,-342.61 1005.5,-348.61 999.5,-354.61 993.5,-354.61"/>
<text text-anchor="middle" x="955.12" y="-330.81" font-family="Helvetica,sans-Serif" font-size="14.00" fill="#0f172a">Core Modules</text>
</g>
<!-- Service&#45;&gt;Core -->
<g id="edge11" class="edge">
<title>Service&#45;&gt;Core</title>
<path fill="none" stroke="#6b7280" stroke-width="1.4" d="M868.1,-336.61C876.75,-336.61 885.84,-336.61 894.75,-336.61"/>
<polygon fill="#6b7280" stroke="#6b7280" stroke-width="1.4" points="894.57,-339.41 902.57,-336.61 894.57,-333.81 894.57,-339.41"/>
</g>
<!-- KB -->
<g id="node14" class="node">
<title>KB</title>
<path fill="#e6f4ff" stroke="#2563eb" d="M720.25,-564.61C720.25,-564.61 618.75,-564.61 618.75,-564.61 612.75,-564.61 606.75,-558.61 606.75,-552.61 606.75,-552.61 606.75,-540.61 606.75,-540.61 606.75,-534.61 612.75,-528.61 618.75,-528.61 618.75,-528.61 720.25,-528.61 720.25,-528.61 726.25,-528.61 732.25,-534.61 732.25,-540.61 732.25,-540.61 732.25,-552.61 732.25,-552.61 732.25,-558.61 726.25,-564.61 720.25,-564.61"/>
<text text-anchor="middle" x="669.5" y="-540.81" font-family="Helvetica,sans-Serif" font-size="14.00" fill="#0f172a">Dify KB / Datasets</text>
</g>
<!-- Core&#45;&gt;KB -->
<g id="edge12" class="edge">
<title>Core&#45;&gt;KB</title>
<path fill="none" stroke="#6b7280" stroke-width="1.4" d="M943.26,-354.78C928.34,-378.71 899.72,-421.17 867.75,-450.61 822.62,-492.15 807.36,-499.82 751.25,-524.61 748.17,-525.97 744.98,-527.26 741.73,-528.5"/>
<polygon fill="#6b7280" stroke="#6b7280" stroke-width="1.4" points="741.05,-525.76 734.45,-531.08 742.92,-531.04 741.05,-525.76"/>
</g>
<!-- LLM -->
<g id="node15" class="node">
<title>LLM</title>
<path fill="#e6f4ff" stroke="#2563eb" d="M691.75,-456.61C691.75,-456.61 647.25,-456.61 647.25,-456.61 641.25,-456.61 635.25,-450.61 635.25,-444.61 635.25,-444.61 635.25,-432.61 635.25,-432.61 635.25,-426.61 641.25,-420.61 647.25,-420.61 647.25,-420.61 691.75,-420.61 691.75,-420.61 697.75,-420.61 703.75,-426.61 703.75,-432.61 703.75,-432.61 703.75,-444.61 703.75,-444.61 703.75,-450.61 697.75,-456.61 691.75,-456.61"/>
<text text-anchor="middle" x="669.5" y="-432.81" font-family="Helvetica,sans-Serif" font-size="14.00" fill="#0f172a">LLM API</text>
</g>
<!-- Core&#45;&gt;LLM -->
<g id="edge18" class="edge">
<title>Core&#45;&gt;LLM</title>
<path fill="none" stroke="#6b7280" stroke-width="1.4" d="M905.5,-355.07C864.5,-370.52 804.21,-392.97 751.25,-411.61 739.04,-415.9 725.73,-420.42 713.5,-424.51"/>
<polygon fill="#6b7280" stroke="#6b7280" stroke-width="1.4" points="712.69,-421.82 705.99,-427.01 714.46,-427.14 712.69,-421.82"/>
</g>
<!-- Rerank -->
<g id="node16" class="node">
<title>Rerank</title>
<path fill="#e6f4ff" stroke="#2563eb" d="M706,-510.61C706,-510.61 633,-510.61 633,-510.61 627,-510.61 621,-504.61 621,-498.61 621,-498.61 621,-486.61 621,-486.61 621,-480.61 627,-474.61 633,-474.61 633,-474.61 706,-474.61 706,-474.61 712,-474.61 718,-480.61 718,-486.61 718,-486.61 718,-498.61 718,-498.61 718,-504.61 712,-510.61 706,-510.61"/>
<text text-anchor="middle" x="669.5" y="-486.81" font-family="Helvetica,sans-Serif" font-size="14.00" fill="#0f172a">Reranker API</text>
</g>
<!-- Core&#45;&gt;Rerank -->
<g id="edge19" class="edge">
<title>Core&#45;&gt;Rerank</title>
<path fill="none" stroke="#6b7280" stroke-width="1.4" d="M932.64,-355.06C897.28,-384.42 823.5,-441.52 751.25,-471.61 743.83,-474.69 735.84,-477.43 727.87,-479.82"/>
<polygon fill="#6b7280" stroke="#6b7280" stroke-width="1.4" points="727.17,-477.11 720.24,-481.99 728.7,-482.5 727.17,-477.11"/>
</g>
<!-- KB&#45;&gt;Service -->
<g id="edge20" class="edge">
<title>KB&#45;&gt;Service</title>
<path fill="none" stroke="#6b7280" stroke-width="1.4" d="M731.12,-528.23C735.14,-525.71 738.91,-522.85 742.25,-519.61 786.38,-476.79 805.59,-404.38 813.15,-364.69"/>
<polygon fill="#6b7280" stroke="#6b7280" stroke-width="1.4" points="815.88,-365.33 814.53,-356.97 810.37,-364.35 815.88,-365.33"/>
</g>
<!-- LLM&#45;&gt;Service -->
<g id="edge21" class="edge">
<title>LLM&#45;&gt;Service</title>
<path fill="none" stroke="#6b7280" stroke-width="1.4" d="M704.04,-429.28C716.59,-424.96 730.61,-419.1 742.25,-411.61 763.04,-398.22 782.7,-378.29 796.7,-362.34"/>
<polygon fill="#6b7280" stroke="#6b7280" stroke-width="1.4" points="798.64,-364.37 801.72,-356.48 794.39,-360.73 798.64,-364.37"/>
</g>
<!-- Rerank&#45;&gt;Service -->
<g id="edge22" class="edge">
<title>Rerank&#45;&gt;Service</title>
<path fill="none" stroke="#6b7280" stroke-width="1.4" d="M718.19,-479.92C726.79,-476.22 735.23,-471.53 742.25,-465.61 774.64,-438.25 796.35,-393.21 807.81,-364.24"/>
<polygon fill="#6b7280" stroke="#6b7280" stroke-width="1.4" points="810.32,-365.53 810.55,-357.06 805.09,-363.54 810.32,-365.53"/>
</g>
</g>
</svg>
