<?xml version="1.0" encoding="UTF-8" standalone="no"?>
<!DOCTYPE svg PUBLIC "-//W3C//DTD SVG 1.1//EN"
 "http://www.w3.org/Graphics/SVG/1.1/DTD/svg11.dtd">
<!-- Generated by graphviz version 12.2.1 (20241206.2353)
 -->
<!-- Title: G Pages: 1 -->
<svg width="1512pt" height="72pt"
 viewBox="0.00 0.00 1512.00 72.00" xmlns="http://www.w3.org/2000/svg" xmlns:xlink="http://www.w3.org/1999/xlink">
<g id="graph0" class="graph" transform="scale(1 1) rotate(0) translate(4 68)">
<title>G</title>
<polygon fill="white" stroke="none" points="-4,4 -4,-68 1508,-68 1508,4 -4,4"/>
<!-- Plan -->
<g id="node1" class="node">
<title>Plan</title>
<path fill="#e6f4ff" stroke="#2563eb" d="M125.5,-41C125.5,-41 12,-41 12,-41 6,-41 0,-35 0,-29 0,-29 0,-17 0,-17 0,-11 6,-5 12,-5 12,-5 125.5,-5 125.5,-5 131.5,-5 137.5,-11 137.5,-17 137.5,-17 137.5,-29 137.5,-29 137.5,-35 131.5,-41 125.5,-41"/>
<text text-anchor="middle" x="68.75" y="-17.2" font-family="Helvetica,sans-Serif" font-size="14.00" fill="#0f172a">Design APIs + Tools</text>
</g>
<!-- Impl -->
<g id="node2" class="node">
<title>Impl</title>
<path fill="#e6f4ff" stroke="#2563eb" d="M451.25,-64C451.25,-64 185.5,-64 185.5,-64 179.5,-64 173.5,-58 173.5,-52 173.5,-52 173.5,-40 173.5,-40 173.5,-34 179.5,-28 185.5,-28 185.5,-28 451.25,-28 451.25,-28 457.25,-28 463.25,-34 463.25,-40 463.25,-40 463.25,-52 463.25,-52 463.25,-58 457.25,-64 451.25,-64"/>
<text text-anchor="middle" x="318.38" y="-40.2" font-family="Helvetica,sans-Serif" font-size="14.00" fill="#0f172a">Implement Server + Middleware + Resources</text>
</g>
<!-- Plan&#45;&gt;Impl -->
<g id="edge1" class="edge">
<title>Plan&#45;&gt;Impl</title>
<path fill="none" stroke="#6b7280" stroke-width="1.4" d="M137.74,-29.32C145.86,-30.07 154.37,-30.86 163.11,-31.67"/>
<polygon fill="#6b7280" stroke="#6b7280" stroke-width="1.4" points="162.72,-34.45 170.94,-32.4 163.24,-28.87 162.72,-34.45"/>
</g>
<!-- Test -->
<g id="node3" class="node">
<title>Test</title>
<path fill="#e6f4ff" stroke="#2563eb" d="M648,-64C648,-64 511.25,-64 511.25,-64 505.25,-64 499.25,-58 499.25,-52 499.25,-52 499.25,-40 499.25,-40 499.25,-34 505.25,-28 511.25,-28 511.25,-28 648,-28 648,-28 654,-28 660,-34 660,-40 660,-40 660,-52 660,-52 660,-58 654,-64 648,-64"/>
<text text-anchor="middle" x="579.62" y="-40.2" font-family="Helvetica,sans-Serif" font-size="14.00" fill="#0f172a">Unit + Integration + E2E</text>
</g>
<!-- Impl&#45;&gt;Test -->
<g id="edge2" class="edge">
<title>Impl&#45;&gt;Test</title>
<path fill="none" stroke="#6b7280" stroke-width="1.4" d="M463.4,-46C472.02,-46 480.55,-46 488.84,-46"/>
<polygon fill="#6b7280" stroke="#6b7280" stroke-width="1.4" points="488.71,-48.8 496.71,-46 488.71,-43.2 488.71,-48.8"/>
</g>
<!-- Package -->
<g id="node4" class="node">
<title>Package</title>
<path fill="#e6f4ff" stroke="#2563eb" d="M874,-64C874,-64 708,-64 708,-64 702,-64 696,-58 696,-52 696,-52 696,-40 696,-40 696,-34 702,-28 708,-28 708,-28 874,-28 874,-28 880,-28 886,-34 886,-40 886,-40 886,-52 886,-52 886,-58 880,-64 874,-64"/>
<text text-anchor="middle" x="791" y="-40.2" font-family="Helvetica,sans-Serif" font-size="14.00" fill="#0f172a">Versioning + pyproject + lock</text>
</g>
<!-- Test&#45;&gt;Package -->
<g id="edge3" class="edge">
<title>Test&#45;&gt;Package</title>
<path fill="none" stroke="#6b7280" stroke-width="1.4" d="M660.38,-46C668.68,-46 677.21,-46 685.74,-46"/>
<polygon fill="#6b7280" stroke="#6b7280" stroke-width="1.4" points="685.61,-48.8 693.61,-46 685.61,-43.2 685.61,-48.8"/>
</g>
<!-- Deploy -->
<g id="node5" class="node">
<title>Deploy</title>
<path fill="#e6f4ff" stroke="#2563eb" d="M1067.75,-64C1067.75,-64 934,-64 934,-64 928,-64 922,-58 922,-52 922,-52 922,-40 922,-40 922,-34 928,-28 934,-28 934,-28 1067.75,-28 1067.75,-28 1073.75,-28 1079.75,-34 1079.75,-40 1079.75,-40 1079.75,-52 1079.75,-52 1079.75,-58 1073.75,-64 1067.75,-64"/>
<text text-anchor="middle" x="1000.88" y="-40.2" font-family="Helvetica,sans-Serif" font-size="14.00" fill="#0f172a">Run FastMCP (uvicorn)</text>
</g>
<!-- Package&#45;&gt;Deploy -->
<g id="edge4" class="edge">
<title>Package&#45;&gt;Deploy</title>
<path fill="none" stroke="#6b7280" stroke-width="1.4" d="M886.21,-46C894.61,-46 903.09,-46 911.44,-46"/>
<polygon fill="#6b7280" stroke="#6b7280" stroke-width="1.4" points="911.43,-48.8 919.43,-46 911.43,-43.2 911.43,-48.8"/>
</g>
<!-- Monitor -->
<g id="node6" class="node">
<title>Monitor</title>
<path fill="#e6f4ff" stroke="#2563eb" d="M1245,-64C1245,-64 1127.75,-64 1127.75,-64 1121.75,-64 1115.75,-58 1115.75,-52 1115.75,-52 1115.75,-40 1115.75,-40 1115.75,-34 1121.75,-28 1127.75,-28 1127.75,-28 1245,-28 1245,-28 1251,-28 1257,-34 1257,-40 1257,-40 1257,-52 1257,-52 1257,-58 1251,-64 1245,-64"/>
<text text-anchor="middle" x="1186.38" y="-40.2" font-family="Helvetica,sans-Serif" font-size="14.00" fill="#0f172a">Logs + Metrics + QA</text>
</g>
<!-- Deploy&#45;&gt;Monitor -->
<g id="edge5" class="edge">
<title>Deploy&#45;&gt;Monitor</title>
<path fill="none" stroke="#6b7280" stroke-width="1.4" d="M1080.23,-46C1088.54,-46 1097,-46 1105.33,-46"/>
<polygon fill="#6b7280" stroke="#6b7280" stroke-width="1.4" points="1105.29,-48.8 1113.29,-46 1105.29,-43.2 1105.29,-48.8"/>
</g>
<!-- Iterate -->
<g id="node7" class="node">
<title>Iterate</title>
<path fill="#fff6d5" stroke="#a16207" d="M1492,-41C1492,-41 1305,-41 1305,-41 1299,-41 1293,-35 1293,-29 1293,-29 1293,-17 1293,-17 1293,-11 1299,-5 1305,-5 1305,-5 1492,-5 1492,-5 1498,-5 1504,-11 1504,-17 1504,-17 1504,-29 1504,-29 1504,-35 1498,-41 1492,-41"/>
<text text-anchor="middle" x="1398.5" y="-17.2" font-family="Helvetica,sans-Serif" font-size="14.00" fill="#3f2d1c">Refine prompts + tools + configs</text>
</g>
<!-- Monitor&#45;&gt;Iterate -->
<g id="edge6" class="edge">
<title>Monitor&#45;&gt;Iterate</title>
<path fill="none" stroke="#6b7280" stroke-width="1.4" d="M1257.34,-38.34C1265.58,-37.44 1274.15,-36.5 1282.8,-35.55"/>
<polygon fill="#6b7280" stroke="#6b7280" stroke-width="1.4" points="1282.84,-38.37 1290.49,-34.71 1282.24,-32.8 1282.84,-38.37"/>
</g>
<!-- Iterate&#45;&gt;Plan -->
<g id="edge7" class="edge">
<title>Iterate&#45;&gt;Plan</title>
<path fill="none" stroke="#6b7280" stroke-width="1.4" d="M1292.64,-13.58C1212.96,-7.23 1100.6,0 1001.88,0 578.62,0 578.62,0 578.62,0 425.79,0 247.41,-10.48 147.61,-17.29"/>
<polygon fill="#6b7280" stroke="#6b7280" stroke-width="1.4" points="147.52,-14.49 139.73,-17.84 147.9,-20.08 147.52,-14.49"/>
</g>
</g>
</svg>
