<?xml version="1.0" encoding="UTF-8"?>
<svg xmlns="http://www.w3.org/2000/svg" width="880" height="360" viewBox="0 0 880 360" font-family="ui-monospace, 'SF Mono', Menlo, Consolas, monospace" font-size="11">
<text x="440" y="22" text-anchor="middle" font-family="system-ui, sans-serif" font-size="15" font-weight="600" fill="#1f2328">Real-data sanity check: three slots from a 500-block Scroll window</text>
<text x="440" y="40" text-anchor="middle" font-family="system-ui, sans-serif" font-size="11" fill="#57606a">Source = <tspan font-family="ui-monospace, monospace">rpc</tspan> Transfer-log surrogate (reads + non-Transfer writes invisible). Window [33,400,000, 33,400,500). Idle threshold = 50 blocks.</text>
<line x1="170" y1="68" x2="850" y2="68" stroke="#d0d7de" stroke-width="1"/>
<line x1="170.0" y1="64" x2="170.0" y2="72" stroke="#57606a"/>
<text x="170.0" y="58" text-anchor="middle" font-family="system-ui, sans-serif" font-size="10" fill="#57606a">block 0</text>
<line x1="306.0" y1="64" x2="306.0" y2="72" stroke="#57606a"/>
<text x="306.0" y="58" text-anchor="middle" font-family="system-ui, sans-serif" font-size="10" fill="#57606a">+100</text>
<line x1="442.0" y1="64" x2="442.0" y2="72" stroke="#57606a"/>
<text x="442.0" y="58" text-anchor="middle" font-family="system-ui, sans-serif" font-size="10" fill="#57606a">+200</text>
<line x1="578.0" y1="64" x2="578.0" y2="72" stroke="#57606a"/>
<text x="578.0" y="58" text-anchor="middle" font-family="system-ui, sans-serif" font-size="10" fill="#57606a">+300</text>
<line x1="714.0" y1="64" x2="714.0" y2="72" stroke="#57606a"/>
<text x="714.0" y="58" text-anchor="middle" font-family="system-ui, sans-serif" font-size="10" fill="#57606a">+400</text>
<line x1="850.0" y1="64" x2="850.0" y2="72" stroke="#57606a"/>
<text x="850.0" y="58" text-anchor="middle" font-family="system-ui, sans-serif" font-size="10" fill="#57606a">+500</text>
<rect x="170.0" y="80" width="680.0" height="40" fill="#c8e6c9" stroke="#a8d0a9" stroke-width="0.5"/>
<text x="160" y="98" text-anchor="end" font-family="system-ui, sans-serif" font-size="11" font-weight="600" fill="#1f2328">heavy hitter</text>
<text x="160" y="112" text-anchor="end" font-family="system-ui, sans-serif" font-size="9" fill="#57606a">system contract activity</text>
<text x="878" y="104" text-anchor="end" font-family="system-ui, sans-serif" font-size="10" fill="#57606a">n=87</text>
<line x1="178.2" y1="80" x2="178.2" y2="120" stroke="#1f2328" stroke-width="1"/>
<line x1="185.0" y1="80" x2="185.0" y2="120" stroke="#1f2328" stroke-width="1"/>
<line x1="190.4" y1="80" x2="190.4" y2="120" stroke="#1f2328" stroke-width="1"/>
<line x1="232.6" y1="80" x2="232.6" y2="120" stroke="#1f2328" stroke-width="1"/>
<line x1="233.9" y1="80" x2="233.9" y2="120" stroke="#1f2328" stroke-width="1"/>
<line x1="239.4" y1="80" x2="239.4" y2="120" stroke="#1f2328" stroke-width="1"/>
<line x1="244.8" y1="80" x2="244.8" y2="120" stroke="#1f2328" stroke-width="1"/>
<line x1="251.6" y1="80" x2="251.6" y2="120" stroke="#1f2328" stroke-width="1"/>
<line x1="255.7" y1="80" x2="255.7" y2="120" stroke="#1f2328" stroke-width="1"/>
<line x1="261.1" y1="80" x2="261.1" y2="120" stroke="#1f2328" stroke-width="1"/>
<line x1="263.8" y1="80" x2="263.8" y2="120" stroke="#1f2328" stroke-width="1"/>
<line x1="270.6" y1="80" x2="270.6" y2="120" stroke="#1f2328" stroke-width="1"/>
<line x1="281.5" y1="80" x2="281.5" y2="120" stroke="#1f2328" stroke-width="1"/>
<line x1="284.2" y1="80" x2="284.2" y2="120" stroke="#1f2328" stroke-width="1"/>
<line x1="285.6" y1="80" x2="285.6" y2="120" stroke="#1f2328" stroke-width="1"/>
<line x1="287.0" y1="80" x2="287.0" y2="120" stroke="#1f2328" stroke-width="1"/>
<line x1="292.4" y1="80" x2="292.4" y2="120" stroke="#1f2328" stroke-width="1"/>
<line x1="295.1" y1="80" x2="295.1" y2="120" stroke="#1f2328" stroke-width="1"/>
<line x1="301.9" y1="80" x2="301.9" y2="120" stroke="#1f2328" stroke-width="1"/>
<line x1="304.6" y1="80" x2="304.6" y2="120" stroke="#1f2328" stroke-width="1"/>
<line x1="306.0" y1="80" x2="306.0" y2="120" stroke="#1f2328" stroke-width="1"/>
<line x1="308.7" y1="80" x2="308.7" y2="120" stroke="#1f2328" stroke-width="1"/>
<line x1="315.5" y1="80" x2="315.5" y2="120" stroke="#1f2328" stroke-width="1"/>
<line x1="374.0" y1="80" x2="374.0" y2="120" stroke="#1f2328" stroke-width="1"/>
<line x1="379.4" y1="80" x2="379.4" y2="120" stroke="#1f2328" stroke-width="1"/>
<line x1="383.5" y1="80" x2="383.5" y2="120" stroke="#1f2328" stroke-width="1"/>
<line x1="397.1" y1="80" x2="397.1" y2="120" stroke="#1f2328" stroke-width="1"/>
<line x1="402.6" y1="80" x2="402.6" y2="120" stroke="#1f2328" stroke-width="1"/>
<line x1="405.3" y1="80" x2="405.3" y2="120" stroke="#1f2328" stroke-width="1"/>
<line x1="423.0" y1="80" x2="423.0" y2="120" stroke="#1f2328" stroke-width="1"/>
<line x1="427.0" y1="80" x2="427.0" y2="120" stroke="#1f2328" stroke-width="1"/>
<line x1="442.0" y1="80" x2="442.0" y2="120" stroke="#1f2328" stroke-width="1"/>
<line x1="446.1" y1="80" x2="446.1" y2="120" stroke="#1f2328" stroke-width="1"/>
<line x1="450.2" y1="80" x2="450.2" y2="120" stroke="#1f2328" stroke-width="1"/>
<line x1="454.2" y1="80" x2="454.2" y2="120" stroke="#1f2328" stroke-width="1"/>
<line x1="499.1" y1="80" x2="499.1" y2="120" stroke="#1f2328" stroke-width="1"/>
<line x1="500.5" y1="80" x2="500.5" y2="120" stroke="#1f2328" stroke-width="1"/>
<line x1="501.8" y1="80" x2="501.8" y2="120" stroke="#1f2328" stroke-width="1"/>
<line x1="503.2" y1="80" x2="503.2" y2="120" stroke="#1f2328" stroke-width="1"/>
<line x1="505.9" y1="80" x2="505.9" y2="120" stroke="#1f2328" stroke-width="1"/>
<line x1="507.3" y1="80" x2="507.3" y2="120" stroke="#1f2328" stroke-width="1"/>
<line x1="508.6" y1="80" x2="508.6" y2="120" stroke="#1f2328" stroke-width="1"/>
<line x1="512.7" y1="80" x2="512.7" y2="120" stroke="#1f2328" stroke-width="1"/>
<line x1="512.7" y1="80" x2="512.7" y2="120" stroke="#1f2328" stroke-width="1"/>
<line x1="514.1" y1="80" x2="514.1" y2="120" stroke="#1f2328" stroke-width="1"/>
<line x1="515.4" y1="80" x2="515.4" y2="120" stroke="#1f2328" stroke-width="1"/>
<line x1="516.8" y1="80" x2="516.8" y2="120" stroke="#1f2328" stroke-width="1"/>
<line x1="518.2" y1="80" x2="518.2" y2="120" stroke="#1f2328" stroke-width="1"/>
<line x1="520.9" y1="80" x2="520.9" y2="120" stroke="#1f2328" stroke-width="1"/>
<line x1="522.2" y1="80" x2="522.2" y2="120" stroke="#1f2328" stroke-width="1"/>
<line x1="522.2" y1="80" x2="522.2" y2="120" stroke="#1f2328" stroke-width="1"/>
<line x1="527.7" y1="80" x2="527.7" y2="120" stroke="#1f2328" stroke-width="1"/>
<line x1="534.5" y1="80" x2="534.5" y2="120" stroke="#1f2328" stroke-width="1"/>
<line x1="535.8" y1="80" x2="535.8" y2="120" stroke="#1f2328" stroke-width="1"/>
<line x1="537.2" y1="80" x2="537.2" y2="120" stroke="#1f2328" stroke-width="1"/>
<line x1="538.6" y1="80" x2="538.6" y2="120" stroke="#1f2328" stroke-width="1"/>
<line x1="541.3" y1="80" x2="541.3" y2="120" stroke="#1f2328" stroke-width="1"/>
<line x1="548.1" y1="80" x2="548.1" y2="120" stroke="#1f2328" stroke-width="1"/>
<line x1="550.8" y1="80" x2="550.8" y2="120" stroke="#1f2328" stroke-width="1"/>
<line x1="556.2" y1="80" x2="556.2" y2="120" stroke="#1f2328" stroke-width="1"/>
<line x1="575.3" y1="80" x2="575.3" y2="120" stroke="#1f2328" stroke-width="1"/>
<line x1="601.1" y1="80" x2="601.1" y2="120" stroke="#1f2328" stroke-width="1"/>
<line x1="606.6" y1="80" x2="606.6" y2="120" stroke="#1f2328" stroke-width="1"/>
<line x1="665.0" y1="80" x2="665.0" y2="120" stroke="#1f2328" stroke-width="1"/>
<line x1="666.4" y1="80" x2="666.4" y2="120" stroke="#1f2328" stroke-width="1"/>
<line x1="667.8" y1="80" x2="667.8" y2="120" stroke="#1f2328" stroke-width="1"/>
<line x1="678.6" y1="80" x2="678.6" y2="120" stroke="#1f2328" stroke-width="1"/>
<line x1="716.7" y1="80" x2="716.7" y2="120" stroke="#1f2328" stroke-width="1"/>
<line x1="719.4" y1="80" x2="719.4" y2="120" stroke="#1f2328" stroke-width="1"/>
<line x1="722.2" y1="80" x2="722.2" y2="120" stroke="#1f2328" stroke-width="1"/>
<line x1="724.9" y1="80" x2="724.9" y2="120" stroke="#1f2328" stroke-width="1"/>
<line x1="748.0" y1="80" x2="748.0" y2="120" stroke="#1f2328" stroke-width="1"/>
<line x1="750.7" y1="80" x2="750.7" y2="120" stroke="#1f2328" stroke-width="1"/>
<line x1="753.4" y1="80" x2="753.4" y2="120" stroke="#1f2328" stroke-width="1"/>
<line x1="761.6" y1="80" x2="761.6" y2="120" stroke="#1f2328" stroke-width="1"/>
<line x1="767.0" y1="80" x2="767.0" y2="120" stroke="#1f2328" stroke-width="1"/>
<line x1="773.8" y1="80" x2="773.8" y2="120" stroke="#1f2328" stroke-width="1"/>
<line x1="775.2" y1="80" x2="775.2" y2="120" stroke="#1f2328" stroke-width="1"/>
<line x1="777.9" y1="80" x2="777.9" y2="120" stroke="#1f2328" stroke-width="1"/>
<line x1="782.0" y1="80" x2="782.0" y2="120" stroke="#1f2328" stroke-width="1"/>
<line x1="790.2" y1="80" x2="790.2" y2="120" stroke="#1f2328" stroke-width="1"/>
<line x1="795.6" y1="80" x2="795.6" y2="120" stroke="#1f2328" stroke-width="1"/>
<line x1="828.2" y1="80" x2="828.2" y2="120" stroke="#1f2328" stroke-width="1"/>
<line x1="835.0" y1="80" x2="835.0" y2="120" stroke="#1f2328" stroke-width="1"/>
<line x1="839.1" y1="80" x2="839.1" y2="120" stroke="#1f2328" stroke-width="1"/>
<line x1="840.5" y1="80" x2="840.5" y2="120" stroke="#1f2328" stroke-width="1"/>
<line x1="848.6" y1="80" x2="848.6" y2="120" stroke="#1f2328" stroke-width="1"/>
<rect x="170.0" y="130" width="123.8" height="40" fill="#c8e6c9" stroke="#a8d0a9" stroke-width="0.5"/>
<rect x="293.8" y="130" width="461.0" height="40" fill="#e0e0e0" stroke="#bcbcbc" stroke-width="0.5"/>
<rect x="754.8" y="130" width="70.7" height="40" fill="#c8e6c9" stroke="#a8d0a9" stroke-width="0.5"/>
<rect x="825.5" y="130" width="24.5" height="40" fill="#e0e0e0" stroke="#bcbcbc" stroke-width="0.5"/>
<text x="160" y="148" text-anchor="end" font-family="system-ui, sans-serif" font-size="11" font-weight="600" fill="#1f2328">reactivates</text>
<text x="160" y="162" text-anchor="end" font-family="system-ui, sans-serif" font-size="9" fill="#57606a">two-burst slot</text>
<text x="878" y="154" text-anchor="end" font-family="system-ui, sans-serif" font-size="10" fill="#57606a">n=6</text>
<line x1="186.3" y1="130" x2="186.3" y2="170" stroke="#1f2328" stroke-width="1"/>
<line x1="189.0" y1="130" x2="189.0" y2="170" stroke="#1f2328" stroke-width="1"/>
<line x1="224.4" y1="130" x2="224.4" y2="170" stroke="#1f2328" stroke-width="1"/>
<line x1="225.8" y1="130" x2="225.8" y2="170" stroke="#1f2328" stroke-width="1"/>
<line x1="757.5" y1="130" x2="757.5" y2="170" stroke="#1f2328" stroke-width="1"/>
<text x="754.8" y="158" text-anchor="middle" font-size="22" fill="#b91c1c" font-weight="bold">★</text>
<rect x="170.0" y="180" width="102.0" height="40" fill="#c8e6c9" stroke="#a8d0a9" stroke-width="0.5"/>
<rect x="272.0" y="180" width="578.0" height="40" fill="#e0e0e0" stroke="#bcbcbc" stroke-width="0.5"/>
<text x="160" y="198" text-anchor="end" font-family="system-ui, sans-serif" font-size="11" font-weight="600" fill="#1f2328">one-shot</text>
<text x="160" y="212" text-anchor="end" font-family="system-ui, sans-serif" font-size="9" fill="#57606a">single touch, then dead</text>
<text x="878" y="204" text-anchor="end" font-family="system-ui, sans-serif" font-size="10" fill="#57606a">n=1</text>
<line x1="204.0" y1="180" x2="204.0" y2="220" stroke="#1f2328" stroke-width="1"/>
<line x1="170" y1="230" x2="850" y2="230" stroke="#d0d7de" stroke-width="1"/>
<line x1="170.0" y1="230" x2="170.0" y2="236" stroke="#57606a"/>
<line x1="306.0" y1="230" x2="306.0" y2="236" stroke="#57606a"/>
<line x1="442.0" y1="230" x2="442.0" y2="236" stroke="#57606a"/>
<line x1="578.0" y1="230" x2="578.0" y2="236" stroke="#57606a"/>
<line x1="714.0" y1="230" x2="714.0" y2="236" stroke="#57606a"/>
<line x1="850.0" y1="230" x2="850.0" y2="236" stroke="#57606a"/>
<text x="510.0" y="252" text-anchor="middle" font-family="system-ui, sans-serif" font-size="11" fill="#57606a">block offset from window start →</text>
<g font-family="system-ui, sans-serif" font-size="11" fill="#1f2328">
<rect x="60" y="282" width="20" height="14" fill="#c8e6c9" stroke="#a8d0a9"/><text x="86" y="293">hot (in RAM)</text>
<rect x="200" y="282" width="20" height="14" fill="#e0e0e0" stroke="#bcbcbc"/><text x="226" y="293">cold (demoted)</text>
<line x1="360" y1="282" x2="360" y2="296" stroke="#1f2328" stroke-width="1"/><text x="370" y="293">access (hot hit)</text>
<text x="510" y="295" font-size="20" fill="#b91c1c" font-weight="bold">★</text><text x="528" y="293">reactivation (cold-tier hit)</text>
</g>
<text x="440" y="332" text-anchor="middle" font-family="system-ui, sans-serif" font-size="10" font-style="italic" fill="#57606a">Real Scroll mainnet data; the timeline shows what the RPC extractor was able to observe, not the full state-access surface.</text>
</svg>
