<?xml version="1.0" encoding="UTF-8" standalone="no"?>
<!DOCTYPE svg PUBLIC "-//W3C//DTD SVG 1.1//EN"
 "http://www.w3.org/Graphics/SVG/1.1/DTD/svg11.dtd">
<!-- Generated by graphviz version 12.2.1 (20241206.2353)
 -->
<!-- Title: zksp_arch Pages: 1 -->
<svg width="617pt" height="1110pt"
 viewBox="0.00 0.00 616.60 1109.52" xmlns="http://www.w3.org/2000/svg" xmlns:xlink="http://www.w3.org/1999/xlink">
<g id="graph0" class="graph" transform="scale(1 1) rotate(0) translate(10.8 1098.72)">
<title>zksp_arch</title>
<polygon fill="#ffffff" stroke="none" points="-10.8,10.8 -10.8,-1098.72 605.8,-1098.72 605.8,10.8 -10.8,10.8"/>
<g id="clust1" class="cluster">
<title>cluster_sources</title>
<path fill="#ffffff" stroke="#6c8d4a" stroke-dasharray="5,2" d="M247,-1004.67C247,-1004.67 575,-1004.67 575,-1004.67 581,-1004.67 587,-1010.67 587,-1016.67 587,-1016.67 587,-1067.92 587,-1067.92 587,-1073.92 581,-1079.92 575,-1079.92 575,-1079.92 247,-1079.92 247,-1079.92 241,-1079.92 235,-1073.92 235,-1067.92 235,-1067.92 235,-1016.67 235,-1016.67 235,-1010.67 241,-1004.67 247,-1004.67"/>
<text text-anchor="middle" x="283.12" y="-1066.42" font-family="Times New Roman" font-size="10.00" fill="#2a5a1a">Extractor interface</text>
</g>
<g id="clust2" class="cluster">
<title>cluster_storage</title>
<path fill="#ffffff" stroke="#8c5656" stroke-dasharray="5,2" d="M296,-819.42C296,-819.42 544,-819.42 544,-819.42 550,-819.42 556,-825.42 556,-831.42 556,-831.42 556,-963.67 556,-963.67 556,-969.67 550,-975.67 544,-975.67 544,-975.67 296,-975.67 296,-975.67 290,-975.67 284,-969.67 284,-963.67 284,-963.67 284,-831.42 284,-831.42 284,-825.42 290,-819.42 296,-819.42"/>
<text text-anchor="middle" x="344.88" y="-962.17" font-family="Times New Roman" font-size="10.00" fill="#5a1b1b">SQLite · internal/storage</text>
</g>
<g id="clust3" class="cluster">
<title>cluster_analysis</title>
<path fill="#ffffff" stroke="#5e5388" stroke-dasharray="5,2" d="M20,-464.17C20,-464.17 364,-464.17 364,-464.17 370,-464.17 376,-470.17 376,-476.17 376,-476.17 376,-786.42 376,-786.42 376,-792.42 370,-798.42 364,-798.42 364,-798.42 20,-798.42 20,-798.42 14,-798.42 8,-792.42 8,-786.42 8,-786.42 8,-476.17 8,-476.17 8,-470.17 14,-464.17 20,-464.17"/>
<text text-anchor="middle" x="92.88" y="-784.92" font-family="Times New Roman" font-size="10.00" fill="#2d2565">Survival analysis · internal/analysis</text>
</g>
<g id="clust4" class="cluster">
<title>cluster_policies</title>
<path fill="#ffffff" stroke="#96693a" stroke-dasharray="5,2" d="M107,-73.64C107,-73.64 401,-73.64 401,-73.64 407,-73.64 413,-79.64 413,-85.64 413,-85.64 413,-311.53 413,-311.53 413,-317.53 407,-323.53 401,-323.53 401,-323.53 107,-323.53 107,-323.53 101,-323.53 95,-317.53 95,-311.53 95,-311.53 95,-85.64 95,-85.64 95,-79.64 101,-73.64 107,-73.64"/>
<text text-anchor="middle" x="173.12" y="-310.03" font-family="Times New Roman" font-size="10.00" fill="#6a3d10">Tiering policies · internal/pruning</text>
</g>
<!-- mock -->
<g id="node1" class="node">
<title>mock</title>
<path fill="#e9f1dc" stroke="#2b2b2b" stroke-width="0.5" d="M396.76,-1050.67C396.76,-1050.67 257.24,-1050.67 257.24,-1050.67 251.24,-1050.67 245.24,-1044.67 245.24,-1038.67 245.24,-1038.67 245.24,-1026.67 245.24,-1026.67 245.24,-1020.67 251.24,-1014.67 257.24,-1014.67 257.24,-1014.67 396.76,-1014.67 396.76,-1014.67 402.76,-1014.67 408.76,-1020.67 408.76,-1026.67 408.76,-1026.67 408.76,-1038.67 408.76,-1038.67 408.76,-1044.67 402.76,-1050.67 396.76,-1050.67"/>
<text text-anchor="middle" x="327" y="-1034.42" font-family="Times New Roman" font-size="10.00">MockExtractor</text>
<text text-anchor="middle" x="327" y="-1023.17" font-family="Times New Roman" font-size="10.00">power&#45;law · co&#45;access · seasonal</text>
</g>
<!-- events -->
<g id="node3" class="node">
<title>events</title>
<path fill="#f3dede" stroke="#2b2b2b" stroke-width="0.5" d="M413.64,-946.42C413.64,-946.42 354.36,-946.42 354.36,-946.42 348.36,-946.42 342.36,-940.42 342.36,-934.42 342.36,-934.42 342.36,-922.42 342.36,-922.42 342.36,-916.42 348.36,-910.42 354.36,-910.42 354.36,-910.42 413.64,-910.42 413.64,-910.42 419.64,-910.42 425.64,-916.42 425.64,-922.42 425.64,-922.42 425.64,-934.42 425.64,-934.42 425.64,-940.42 419.64,-946.42 413.64,-946.42"/>
<text text-anchor="middle" x="384" y="-930.17" font-family="Times New Roman" font-size="10.00">access_events</text>
<text text-anchor="middle" x="384" y="-918.92" font-family="Times New Roman" font-size="10.00">+ unique index</text>
</g>
<!-- mock&#45;&gt;events -->
<g id="edge1" class="edge">
<title>mock&#45;&gt;events</title>
<path fill="none" stroke="#6c8d4a" stroke-width="0.55" d="M336.41,-1014.79C345.98,-997.62 360.87,-970.91 371.44,-951.95"/>
<polygon fill="#6c8d4a" stroke="#6c8d4a" stroke-width="0.55" points="373.08,-953.32 374.17,-947.06 369.41,-951.27 373.08,-953.32"/>
<text text-anchor="middle" x="367.46" y="-985.07" font-family="Times New Roman" font-size="8.00">Extract()</text>
</g>
<!-- rpc -->
<g id="node2" class="node">
<title>rpc</title>
<path fill="#e9f1dc" stroke="#2b2b2b" stroke-width="0.5" d="M565.14,-1050.67C565.14,-1050.67 442.86,-1050.67 442.86,-1050.67 436.86,-1050.67 430.86,-1044.67 430.86,-1038.67 430.86,-1038.67 430.86,-1026.67 430.86,-1026.67 430.86,-1020.67 436.86,-1014.67 442.86,-1014.67 442.86,-1014.67 565.14,-1014.67 565.14,-1014.67 571.14,-1014.67 577.14,-1020.67 577.14,-1026.67 577.14,-1026.67 577.14,-1038.67 577.14,-1038.67 577.14,-1044.67 571.14,-1050.67 565.14,-1050.67"/>
<text text-anchor="middle" x="504" y="-1034.42" font-family="Times New Roman" font-size="10.00">RPCExtractor</text>
<text text-anchor="middle" x="504" y="-1023.17" font-family="Times New Roman" font-size="10.00">Scroll JSON&#45;RPC (surrogate)</text>
</g>
<!-- rpc&#45;&gt;events -->
<g id="edge2" class="edge">
<title>rpc&#45;&gt;events</title>
<path fill="none" stroke="#6c8d4a" stroke-width="0.55" d="M482.95,-1014.74C474.59,-1007.94 464.91,-1000 456.25,-992.67 439.92,-978.86 421.82,-963.02 407.82,-950.64"/>
<polygon fill="#6c8d4a" stroke="#6c8d4a" stroke-width="0.55" points="409.37,-949.2 403.48,-946.8 406.58,-952.35 409.37,-949.2"/>
<text text-anchor="middle" x="471.62" y="-985.07" font-family="Times New Roman" font-size="8.00">Extract()</text>
</g>
<!-- meta -->
<g id="node6" class="node">
<title>meta</title>
<path fill="#f3dede" stroke="#2b2b2b" stroke-width="0.5" d="M534.39,-865.42C534.39,-865.42 473.61,-865.42 473.61,-865.42 467.61,-865.42 461.61,-859.42 461.61,-853.42 461.61,-853.42 461.61,-841.42 461.61,-841.42 461.61,-835.42 467.61,-829.42 473.61,-829.42 473.61,-829.42 534.39,-829.42 534.39,-829.42 540.39,-829.42 546.39,-835.42 546.39,-841.42 546.39,-841.42 546.39,-853.42 546.39,-853.42 546.39,-859.42 540.39,-865.42 534.39,-865.42"/>
<text text-anchor="middle" x="504" y="-849.17" font-family="Times New Roman" font-size="10.00">schema_meta</text>
<text text-anchor="middle" x="504" y="-837.92" font-family="Times New Roman" font-size="10.00">· version · hwm</text>
</g>
<!-- rpc&#45;&gt;meta -->
<g id="edge3" class="edge">
<title>rpc&#45;&gt;meta</title>
<path fill="none" stroke="#6c8d4a" stroke-width="0.55" stroke-dasharray="5,2" d="M504,-1014.76C504,-981.89 504,-909.35 504,-871.86"/>
<polygon fill="#6c8d4a" stroke="#6c8d4a" stroke-width="0.55" points="506.1,-872.12 504,-866.12 501.9,-872.12 506.1,-872.12"/>
<text text-anchor="middle" x="512.62" y="-925.32" font-family="Times New Roman" font-size="8.00">hwm</text>
</g>
<!-- slots -->
<g id="node4" class="node">
<title>slots</title>
<path fill="#f3dede" stroke="#2b2b2b" stroke-width="0.5" d="M347.64,-865.42C347.64,-865.42 306.36,-865.42 306.36,-865.42 300.36,-865.42 294.36,-859.42 294.36,-853.42 294.36,-853.42 294.36,-841.42 294.36,-841.42 294.36,-835.42 300.36,-829.42 306.36,-829.42 306.36,-829.42 347.64,-829.42 347.64,-829.42 353.64,-829.42 359.64,-835.42 359.64,-841.42 359.64,-841.42 359.64,-853.42 359.64,-853.42 359.64,-859.42 353.64,-865.42 347.64,-865.42"/>
<text text-anchor="middle" x="327" y="-843.54" font-family="Times New Roman" font-size="10.00">state_slots</text>
</g>
<!-- events&#45;&gt;slots -->
<!-- contracts -->
<g id="node5" class="node">
<title>contracts</title>
<path fill="#f3dede" stroke="#2b2b2b" stroke-width="0.5" d="M427.89,-865.42C427.89,-865.42 394.11,-865.42 394.11,-865.42 388.11,-865.42 382.11,-859.42 382.11,-853.42 382.11,-853.42 382.11,-841.42 382.11,-841.42 382.11,-835.42 388.11,-829.42 394.11,-829.42 394.11,-829.42 427.89,-829.42 427.89,-829.42 433.89,-829.42 439.89,-835.42 439.89,-841.42 439.89,-841.42 439.89,-853.42 439.89,-853.42 439.89,-859.42 433.89,-865.42 427.89,-865.42"/>
<text text-anchor="middle" x="411" y="-843.54" font-family="Times New Roman" font-size="10.00">contracts</text>
</g>
<!-- events&#45;&gt;contracts -->
<!-- events&#45;&gt;meta -->
<!-- bi -->
<g id="node7" class="node">
<title>bi</title>
<path fill="#f4f4f4" stroke="#2b2b2b" stroke-width="0.5" d="M289.26,-769.17C289.26,-769.17 206.74,-769.17 206.74,-769.17 200.74,-769.17 194.74,-763.17 194.74,-757.17 194.74,-757.17 194.74,-745.17 194.74,-745.17 194.74,-739.17 200.74,-733.17 206.74,-733.17 206.74,-733.17 289.26,-733.17 289.26,-733.17 295.26,-733.17 301.26,-739.17 301.26,-745.17 301.26,-745.17 301.26,-757.17 301.26,-757.17 301.26,-763.17 295.26,-769.17 289.26,-769.17"/>
<text text-anchor="middle" x="248" y="-752.92" font-family="Times New Roman" font-size="10.00">BuildIntervals</text>
<text text-anchor="middle" x="248" y="-741.67" font-family="Times New Roman" font-size="10.00">censoring · left&#45;trunc</text>
</g>
<!-- events&#45;&gt;bi -->
<g id="edge7" class="edge">
<title>events&#45;&gt;bi</title>
<path fill="none" stroke="#555555" stroke-width="0.55" d="M342.51,-924.28C304.13,-918.92 249.09,-904.45 222.25,-865.42 203.5,-838.16 219.37,-799.31 233.18,-774.94"/>
<polygon fill="#555555" stroke="#555555" stroke-width="0.55" points="234.98,-776.02 236.2,-769.79 231.35,-773.9 234.98,-776.02"/>
<text text-anchor="middle" x="252.62" y="-844.32" font-family="Times New Roman" font-size="8.00">IterateSlotEvents</text>
</g>
<!-- slots&#45;&gt;bi -->
<g id="edge8" class="edge">
<title>slots&#45;&gt;bi</title>
<path fill="none" stroke="#555555" stroke-width="0.55" stroke-dasharray="5,2" d="M312.88,-829.57C299.84,-814.02 280.42,-790.85 266.23,-773.92"/>
<polygon fill="#555555" stroke="#555555" stroke-width="0.55" points="268,-772.76 262.54,-769.51 264.78,-775.46 268,-772.76"/>
</g>
<!-- eda -->
<g id="node8" class="node">
<title>eda</title>
<path fill="#f4f4f4" stroke="#2b2b2b" stroke-width="0.5" d="M134.14,-688.17C134.14,-688.17 29.86,-688.17 29.86,-688.17 23.86,-688.17 17.86,-682.17 17.86,-676.17 17.86,-676.17 17.86,-664.17 17.86,-664.17 17.86,-658.17 23.86,-652.17 29.86,-652.17 29.86,-652.17 134.14,-652.17 134.14,-652.17 140.14,-652.17 146.14,-658.17 146.14,-664.17 146.14,-664.17 146.14,-676.17 146.14,-676.17 146.14,-682.17 140.14,-688.17 134.14,-688.17"/>
<text text-anchor="middle" x="82" y="-671.92" font-family="Times New Roman" font-size="10.00">EDAReport</text>
<text text-anchor="middle" x="82" y="-660.67" font-family="Times New Roman" font-size="10.00">Hill α · Jaccard · autocorr</text>
</g>
<!-- bi&#45;&gt;eda -->
<g id="edge9" class="edge">
<title>bi&#45;&gt;eda</title>
<path fill="none" stroke="#555555" stroke-width="0.55" d="M212.39,-733.22C186.35,-720.83 150.95,-703.98 123.61,-690.97"/>
<polygon fill="#555555" stroke="#555555" stroke-width="0.55" points="124.62,-689.13 118.3,-688.45 122.82,-692.92 124.62,-689.13"/>
</g>
<!-- km -->
<g id="node9" class="node">
<title>km</title>
<path fill="#f4f4f4" stroke="#2b2b2b" stroke-width="0.5" d="M232.26,-688.17C232.26,-688.17 179.74,-688.17 179.74,-688.17 173.74,-688.17 167.74,-682.17 167.74,-676.17 167.74,-676.17 167.74,-664.17 167.74,-664.17 167.74,-658.17 173.74,-652.17 179.74,-652.17 179.74,-652.17 232.26,-652.17 232.26,-652.17 238.26,-652.17 244.26,-658.17 244.26,-664.17 244.26,-664.17 244.26,-676.17 244.26,-676.17 244.26,-682.17 238.26,-688.17 232.26,-688.17"/>
<text text-anchor="middle" x="206" y="-671.92" font-family="Times New Roman" font-size="10.00">Kaplan–Meier</text>
<text text-anchor="middle" x="206" y="-660.67" font-family="Times New Roman" font-size="10.00">stratifiable</text>
</g>
<!-- bi&#45;&gt;km -->
<g id="edge10" class="edge">
<title>bi&#45;&gt;km</title>
<path fill="none" stroke="#555555" stroke-width="0.55" d="M239.09,-733.42C232.97,-721.89 224.76,-706.46 218.05,-693.84"/>
<polygon fill="#555555" stroke="#555555" stroke-width="0.55" points="219.96,-692.95 215.29,-688.63 216.25,-694.92 219.96,-692.95"/>
</g>
<!-- cox -->
<g id="node10" class="node">
<title>cox</title>
<path fill="#f4f4f4" stroke="#2b2b2b" stroke-width="0.5" d="M353.51,-688.17C353.51,-688.17 278.49,-688.17 278.49,-688.17 272.49,-688.17 266.49,-682.17 266.49,-676.17 266.49,-676.17 266.49,-664.17 266.49,-664.17 266.49,-658.17 272.49,-652.17 278.49,-652.17 278.49,-652.17 353.51,-652.17 353.51,-652.17 359.51,-652.17 365.51,-658.17 365.51,-664.17 365.51,-664.17 365.51,-676.17 365.51,-676.17 365.51,-682.17 359.51,-688.17 353.51,-688.17"/>
<text text-anchor="middle" x="316" y="-671.92" font-family="Times New Roman" font-size="10.00">Cox PH</text>
<text text-anchor="middle" x="316" y="-660.67" font-family="Times New Roman" font-size="10.00">stratified baselines</text>
</g>
<!-- bi&#45;&gt;cox -->
<g id="edge11" class="edge">
<title>bi&#45;&gt;cox</title>
<path fill="none" stroke="#555555" stroke-width="0.55" d="M262.42,-733.42C272.61,-721.58 286.35,-705.61 297.37,-692.81"/>
<polygon fill="#555555" stroke="#555555" stroke-width="0.55" points="298.73,-694.45 301.06,-688.53 295.55,-691.71 298.73,-694.45"/>
</g>
<!-- sim -->
<g id="node18" class="node">
<title>sim</title>
<path fill="#ffedd4" stroke="#2b2b2b" stroke-width="0.5" d="M331.39,-119.64C331.39,-119.64 276.61,-119.64 276.61,-119.64 270.61,-119.64 264.61,-113.64 264.61,-107.64 264.61,-107.64 264.61,-95.64 264.61,-95.64 264.61,-89.64 270.61,-83.64 276.61,-83.64 276.61,-83.64 331.39,-83.64 331.39,-83.64 337.39,-83.64 343.39,-89.64 343.39,-95.64 343.39,-95.64 343.39,-107.64 343.39,-107.64 343.39,-113.64 337.39,-119.64 331.39,-119.64"/>
<text text-anchor="middle" x="304" y="-103.39" font-family="Times New Roman" font-size="10.00">Simulator.Run</text>
<text text-anchor="middle" x="304" y="-92.14" font-family="Times New Roman" font-size="10.00">pure fn</text>
</g>
<!-- bi&#45;&gt;sim -->
<g id="edge26" class="edge">
<title>bi&#45;&gt;sim</title>
<path fill="none" stroke="#555555" stroke-width="0.55" d="M301.05,-741.78C365.58,-730.03 466,-706.14 466,-671.17 466,-671.17 466,-671.17 466,-181.64 466,-129.64 397.73,-111.86 349.83,-105.79"/>
<polygon fill="#555555" stroke="#555555" stroke-width="0.55" points="350.25,-103.72 344.04,-105.1 349.75,-107.89 350.25,-103.72"/>
<text text-anchor="middle" x="480.62" y="-444.57" font-family="Times New Roman" font-size="8.00">intervals</text>
</g>
<!-- ph -->
<g id="node11" class="node">
<title>ph</title>
<path fill="#f4f4f4" stroke="#2b2b2b" stroke-width="0.5" d="M241.39,-599.17C241.39,-599.17 162.61,-599.17 162.61,-599.17 156.61,-599.17 150.61,-593.17 150.61,-587.17 150.61,-587.17 150.61,-575.17 150.61,-575.17 150.61,-569.17 156.61,-563.17 162.61,-563.17 162.61,-563.17 241.39,-563.17 241.39,-563.17 247.39,-563.17 253.39,-569.17 253.39,-575.17 253.39,-575.17 253.39,-587.17 253.39,-587.17 253.39,-593.17 247.39,-599.17 241.39,-599.17"/>
<text text-anchor="middle" x="202" y="-577.29" font-family="Times New Roman" font-size="10.00">Schoenfeld PH test</text>
</g>
<!-- cox&#45;&gt;ph -->
<g id="edge12" class="edge">
<title>cox&#45;&gt;ph</title>
<path fill="none" stroke="#555555" stroke-width="0.55" d="M293.75,-652.19C275.39,-638.18 249.25,-618.23 229.56,-603.21"/>
<polygon fill="#555555" stroke="#555555" stroke-width="0.55" points="230.9,-601.58 224.86,-599.61 228.35,-604.92 230.9,-601.58"/>
<text text-anchor="middle" x="272.54" y="-622.57" font-family="Times New Roman" font-size="8.00">check</text>
</g>
<!-- iso -->
<g id="node12" class="node">
<title>iso</title>
<path fill="#f4f4f4" stroke="#2b2b2b" stroke-width="0.5" d="M344.14,-599.17C344.14,-599.17 287.86,-599.17 287.86,-599.17 281.86,-599.17 275.86,-593.17 275.86,-587.17 275.86,-587.17 275.86,-575.17 275.86,-575.17 275.86,-569.17 281.86,-563.17 287.86,-563.17 287.86,-563.17 344.14,-563.17 344.14,-563.17 350.14,-563.17 356.14,-569.17 356.14,-575.17 356.14,-575.17 356.14,-587.17 356.14,-587.17 356.14,-593.17 350.14,-599.17 344.14,-599.17"/>
<text text-anchor="middle" x="316" y="-582.92" font-family="Times New Roman" font-size="10.00">Isotonic PAV</text>
<text text-anchor="middle" x="316" y="-571.67" font-family="Times New Roman" font-size="10.00">+ bin&#45;wise KM</text>
</g>
<!-- cox&#45;&gt;iso -->
<g id="edge13" class="edge">
<title>cox&#45;&gt;iso</title>
<path fill="none" stroke="#555555" stroke-width="0.55" d="M316,-652.4C316,-639.04 316,-620.19 316,-605.38"/>
<polygon fill="#555555" stroke="#555555" stroke-width="0.55" points="318.1,-605.73 316,-599.73 313.9,-605.73 318.1,-605.73"/>
<text text-anchor="middle" x="338.12" y="-622.57" font-family="Times New Roman" font-size="8.00">30% holdout</text>
</g>
<!-- stat -->
<g id="node17" class="node">
<title>stat</title>
<path fill="#ffc87c" stroke="#a65c00" stroke-width="0.5" d="M390.89,-294.28C390.89,-294.28 273.11,-294.28 273.11,-294.28 267.11,-294.28 261.11,-288.28 261.11,-282.28 261.11,-282.28 261.11,-257.64 261.11,-257.64 261.11,-251.64 267.11,-245.64 273.11,-245.64 273.11,-245.64 390.89,-245.64 390.89,-245.64 396.89,-245.64 402.89,-251.64 402.89,-257.64 402.89,-257.64 402.89,-282.28 402.89,-282.28 402.89,-288.28 396.89,-294.28 390.89,-294.28"/>
<text text-anchor="start" x="294.5" y="-281.46" font-family="Times New Roman" font-weight="bold" font-size="10.00">StatisticalPolicy</text>
<text text-anchor="start" x="291.12" y="-271.46" font-family="Times New Roman" font-size="10.00">T* search over idle</text>
<text text-anchor="start" x="269.75" y="-261.46" font-family="Times New Roman" font-size="10.00">d* = argmin</text>
<text text-anchor="start" x="320" y="-261.46" font-family="Times New Roman" baseline-shift="sub" font-size="10.00">d</text>
<text text-anchor="start" x="324.5" y="-261.46" font-family="Times New Roman" font-size="10.00"> c(d) + ℓ(d)·p</text>
<text text-anchor="start" x="381.5" y="-261.46" font-family="Times New Roman" baseline-shift="sub" font-size="10.00">i</text>
<text text-anchor="start" x="383" y="-261.46" font-family="Times New Roman" font-size="10.00">(τ)</text>
<text text-anchor="start" x="304.25" y="-251.46" font-family="Times New Roman" font-size="10.00">p* = c · τ / ℓ</text>
</g>
<!-- cox&#45;&gt;stat -->
<g id="edge19" class="edge">
<title>cox&#45;&gt;stat</title>
<path fill="none" stroke="#555555" stroke-width="0.55" d="M343.13,-652.38C364.25,-637 390,-612.11 390,-582.17 390,-582.17 390,-582.17 390,-390.85 390,-357.03 371.06,-322.72 354.83,-299.52"/>
<polygon fill="#555555" stroke="#555555" stroke-width="0.55" points="356.68,-298.49 351.48,-294.83 353.26,-300.93 356.68,-298.49"/>
<text text-anchor="start" x="390" y="-489.07" font-family="Times New Roman" font-size="8.00">S(u+τ)/S(u)</text>
</g>
<!-- modelfile -->
<g id="node20" class="node">
<title>modelfile</title>
<polygon fill="#e6e2f5" stroke="#5c529c" stroke-width="0.5" points="220.76,-421.17 217.76,-425.17 196.76,-425.17 193.76,-421.17 105.23,-421.17 105.23,-362.53 220.76,-362.53 220.76,-421.17"/>
<text text-anchor="start" x="113.88" y="-408.35" font-family="Times New Roman" font-weight="bold" font-size="10.00">ModelFile v3</text>
<text text-anchor="start" x="173.12" y="-408.35" font-family="Times New Roman" font-size="10.00"> &#160;(JSON)</text>
<text text-anchor="start" x="120.25" y="-398.35" font-family="Times New Roman" font-size="10.00">Cox coeffs · scales</text>
<text text-anchor="start" x="136.75" y="-388.35" font-family="Times New Roman" font-size="10.00">isotonic grid</text>
<text text-anchor="start" x="140.88" y="-378.35" font-family="Times New Roman" font-size="10.00">ε</text>
<text text-anchor="start" x="146.12" y="-378.35" font-family="Times New Roman" baseline-shift="sub" font-size="10.00">pt</text>
<text text-anchor="start" x="152.88" y="-378.35" font-family="Times New Roman" font-size="10.00"> · ε</text>
<text text-anchor="start" x="167.12" y="-378.35" font-family="Times New Roman" baseline-shift="sub" font-size="10.00">cond</text>
<text text-anchor="start" x="130.75" y="-368.35" font-family="Times New Roman" font-size="10.00">per&#45;stratum H</text>
<text text-anchor="start" x="190.75" y="-368.35" font-family="Times New Roman" baseline-shift="sub" font-size="10.00">0</text>
</g>
<!-- cox&#45;&gt;modelfile -->
<g id="edge15" class="edge">
<title>cox&#45;&gt;modelfile</title>
<path fill="none" stroke="#5c529c" stroke-width="0.55" d="M266.63,-652.71C217.24,-635.76 147.55,-610.29 140,-599.17 104.9,-547.43 127.93,-471.08 146.43,-427.22"/>
<polygon fill="#5c529c" stroke="#5c529c" stroke-width="0.55" points="148.33,-428.1 148.78,-421.76 144.48,-426.44 148.33,-428.1"/>
<text text-anchor="middle" x="137.26" y="-533.57" font-family="Times New Roman" font-size="8.00">fit &#45;&#45;save</text>
</g>
<!-- conf -->
<g id="node13" class="node">
<title>conf</title>
<path fill="#f4f4f4" stroke="#2b2b2b" stroke-width="0.5" d="M286.39,-510.17C286.39,-510.17 213.61,-510.17 213.61,-510.17 207.61,-510.17 201.61,-504.17 201.61,-498.17 201.61,-498.17 201.61,-486.17 201.61,-486.17 201.61,-480.17 207.61,-474.17 213.61,-474.17 213.61,-474.17 286.39,-474.17 286.39,-474.17 292.39,-474.17 298.39,-480.17 298.39,-486.17 298.39,-486.17 298.39,-498.17 298.39,-498.17 298.39,-504.17 292.39,-510.17 286.39,-510.17"/>
<text text-anchor="start" x="214" y="-493.67" font-family="Times New Roman" font-size="10.00">split&#45;conformal ε</text>
<text text-anchor="start" x="210.25" y="-483.67" font-family="Times New Roman" font-style="italic" font-size="10.00">point + conditional</text>
</g>
<!-- iso&#45;&gt;conf -->
<g id="edge14" class="edge">
<title>iso&#45;&gt;conf</title>
<path fill="none" stroke="#555555" stroke-width="0.55" d="M296.47,-563.38C289.53,-556.86 281.97,-549.06 276,-541.17 270.17,-533.46 264.86,-524.27 260.58,-516.01"/>
<polygon fill="#555555" stroke="#555555" stroke-width="0.55" points="262.46,-515.07 257.89,-510.66 258.71,-516.96 262.46,-515.07"/>
<text text-anchor="middle" x="295.5" y="-533.57" font-family="Times New Roman" font-size="8.00">disjoint half</text>
</g>
<!-- iso&#45;&gt;stat -->
<g id="edge20" class="edge">
<title>iso&#45;&gt;stat</title>
<path fill="none" stroke="#555555" stroke-width="0.55" d="M316.86,-563.55C319.44,-513.68 327.14,-364.88 330.45,-300.82"/>
<polygon fill="#555555" stroke="#555555" stroke-width="0.55" points="332.54,-301.1 330.76,-295 328.35,-300.88 332.54,-301.1"/>
<text text-anchor="start" x="323.08" y="-444.57" font-family="Times New Roman" font-size="8.00">p̂(τ) @ u=0</text>
</g>
<!-- iso&#45;&gt;modelfile -->
<g id="edge16" class="edge">
<title>iso&#45;&gt;modelfile</title>
<path fill="none" stroke="#5c529c" stroke-width="0.55" stroke-dasharray="5,2" d="M276.09,-567.54C248.17,-556.67 212.22,-538.25 191,-510.17 173.03,-486.4 166.39,-452.81 164.03,-427.66"/>
<polygon fill="#5c529c" stroke="#5c529c" stroke-width="0.55" points="166.15,-427.77 163.56,-421.96 161.96,-428.12 166.15,-427.77"/>
</g>
<!-- conf&#45;&gt;stat -->
<g id="edge21" class="edge">
<title>conf&#45;&gt;stat</title>
<path fill="none" stroke="#555555" stroke-width="0.55" d="M252.73,-474.51C257.14,-449.58 266.87,-401.34 282,-362.53 290.51,-340.7 303.19,-317.54 313.65,-299.98"/>
<polygon fill="#555555" stroke="#555555" stroke-width="0.55" points="315.38,-301.19 316.67,-294.96 311.78,-299.02 315.38,-301.19"/>
<text text-anchor="middle" x="298.5" y="-388.75" font-family="Times New Roman" font-size="8.00">ε bounds</text>
</g>
<!-- conf&#45;&gt;modelfile -->
<g id="edge17" class="edge">
<title>conf&#45;&gt;modelfile</title>
<path fill="none" stroke="#5c529c" stroke-width="0.55" stroke-dasharray="5,2" d="M235.24,-474.49C223.47,-461.18 206.61,-442.13 192.14,-425.78"/>
<polygon fill="#5c529c" stroke="#5c529c" stroke-width="0.55" points="193.83,-424.52 188.28,-421.42 190.69,-427.31 193.83,-424.52"/>
</g>
<!-- polif -->
<g id="node14" class="node">
<title>polif</title>
<polygon fill="#ffe7c2" stroke="#2b2b2b" stroke-width="0.5" points="279.39,-200.64 200.61,-200.64 200.61,-164.64 285.39,-164.64 285.39,-194.64 279.39,-200.64"/>
<polyline fill="none" stroke="#2b2b2b" stroke-width="0.5" points="279.39,-200.64 279.39,-194.64"/>
<polyline fill="none" stroke="#2b2b2b" stroke-width="0.5" points="285.39,-194.64 279.39,-194.64"/>
<text text-anchor="middle" x="243" y="-184.39" font-family="Times New Roman" font-size="10.00">Policy interface</text>
<text text-anchor="middle" x="243" y="-173.14" font-family="Times New Roman" font-size="10.00">HotBlocks(it)</text>
</g>
<!-- polif&#45;&gt;sim -->
<g id="edge25" class="edge">
<title>polif&#45;&gt;sim</title>
<path fill="none" stroke="#555555" stroke-width="0.55" d="M255.94,-164.89C264.99,-153.16 277.19,-137.36 287.03,-124.62"/>
<polygon fill="#555555" stroke="#555555" stroke-width="0.55" points="288.57,-126.06 290.57,-120.03 285.24,-123.49 288.57,-126.06"/>
</g>
<!-- noprune -->
<g id="node15" class="node">
<title>noprune</title>
<path fill="#ffedd4" stroke="#2b2b2b" stroke-width="0.5" d="M148.76,-287.96C148.76,-287.96 117.23,-287.96 117.23,-287.96 111.23,-287.96 105.23,-281.96 105.23,-275.96 105.23,-275.96 105.23,-263.96 105.23,-263.96 105.23,-257.96 111.23,-251.96 117.23,-251.96 117.23,-251.96 148.76,-251.96 148.76,-251.96 154.76,-251.96 160.76,-257.96 160.76,-263.96 160.76,-263.96 160.76,-275.96 160.76,-275.96 160.76,-281.96 154.76,-287.96 148.76,-287.96"/>
<text text-anchor="middle" x="133" y="-266.08" font-family="Times New Roman" font-size="10.00">NoPrune</text>
</g>
<!-- noprune&#45;&gt;polif -->
<g id="edge22" class="edge">
<title>noprune&#45;&gt;polif</title>
<path fill="none" stroke="#555555" stroke-width="0.55" d="M154.73,-252.1C172.36,-238.43 197.29,-219.09 216.16,-204.46"/>
<polygon fill="#555555" stroke="#555555" stroke-width="0.55" points="217.2,-206.31 220.65,-200.97 214.63,-202.99 217.2,-206.31"/>
</g>
<!-- fixed -->
<g id="node16" class="node">
<title>fixed</title>
<path fill="#ffedd4" stroke="#2b2b2b" stroke-width="0.5" d="M227.51,-287.96C227.51,-287.96 194.49,-287.96 194.49,-287.96 188.49,-287.96 182.49,-281.96 182.49,-275.96 182.49,-275.96 182.49,-263.96 182.49,-263.96 182.49,-257.96 188.49,-251.96 194.49,-251.96 194.49,-251.96 227.51,-251.96 227.51,-251.96 233.51,-251.96 239.51,-257.96 239.51,-263.96 239.51,-263.96 239.51,-275.96 239.51,-275.96 239.51,-281.96 233.51,-287.96 227.51,-287.96"/>
<text text-anchor="middle" x="211" y="-271.71" font-family="Times New Roman" font-size="10.00">FixedIdle</text>
<text text-anchor="middle" x="211" y="-260.46" font-family="Times New Roman" font-size="10.00">30d, 90d</text>
</g>
<!-- fixed&#45;&gt;polif -->
<g id="edge23" class="edge">
<title>fixed&#45;&gt;polif</title>
<path fill="none" stroke="#555555" stroke-width="0.55" d="M217.32,-252.1C222.19,-239.13 228.96,-221.06 234.33,-206.74"/>
<polygon fill="#555555" stroke="#555555" stroke-width="0.55" points="236.26,-207.6 236.4,-201.24 232.33,-206.12 236.26,-207.6"/>
</g>
<!-- stat&#45;&gt;polif -->
<g id="edge24" class="edge">
<title>stat&#45;&gt;polif</title>
<path fill="none" stroke="#555555" stroke-width="0.55" d="M307.68,-245.65C294.39,-232.9 278.05,-217.24 265.12,-204.84"/>
<polygon fill="#555555" stroke="#555555" stroke-width="0.55" points="266.9,-203.65 261.12,-201.01 264,-206.68 266.9,-203.65"/>
</g>
<!-- result -->
<g id="node19" class="node">
<title>result</title>
<polygon fill="#ffc87c" stroke="#a65c00" stroke-width="0.5" points="375.26,-38.64 244.74,-38.64 244.74,-42.64 232.74,-42.64 232.74,0 375.26,0 375.26,-38.64"/>
<polyline fill="none" stroke="#a65c00" stroke-width="0.5" points="232.74,-38.64 244.74,-38.64"/>
<text text-anchor="start" x="279.62" y="-25.82" font-family="Times New Roman" font-weight="bold" font-size="10.00">SimResult</text>
<text text-anchor="start" x="241.38" y="-15.82" font-family="Times New Roman" font-size="10.00">RAMRatio · HotHitCoverage</text>
<text text-anchor="start" x="251.5" y="-5.82" font-family="Times New Roman" font-size="10.00">MissPenalty · TotalCost</text>
</g>
<!-- sim&#45;&gt;result -->
<g id="edge27" class="edge">
<title>sim&#45;&gt;result</title>
<path fill="none" stroke="#555555" stroke-width="0.55" d="M304,-84C304,-72.83 304,-57.92 304,-45.34"/>
<polygon fill="#555555" stroke="#555555" stroke-width="0.55" points="306.1,-45.45 304,-39.45 301.9,-45.45 306.1,-45.45"/>
</g>
<!-- modelfile&#45;&gt;stat -->
<g id="edge18" class="edge">
<title>modelfile&#45;&gt;stat</title>
<path fill="none" stroke="#5c529c" stroke-width="0.55" d="M168.74,-362.83C172.51,-351.38 178.7,-339.08 188.75,-331.53 211.05,-314.77 224.81,-333.14 251,-323.53 267.53,-317.46 284.14,-307.52 297.97,-297.91"/>
<polygon fill="#5c529c" stroke="#5c529c" stroke-width="0.55" points="298.97,-299.77 302.65,-294.59 296.54,-296.35 298.97,-299.77"/>
<text text-anchor="middle" x="218.38" y="-332.93" font-family="Times New Roman" font-size="8.00">simulate &#45;&#45;model</text>
</g>
</g>
</svg>
