<?xml version="1.0" encoding="UTF-8" standalone="no"?>
<!DOCTYPE svg PUBLIC "-//W3C//DTD SVG 1.1//EN"
 "http://www.w3.org/Graphics/SVG/1.1/DTD/svg11.dtd">
<!-- Generated by graphviz version 12.2.1 (20241206.2353)
 -->
<!-- Title: zksp_decision Pages: 1 -->
<svg width="387pt" height="685pt"
 viewBox="0.00 0.00 386.50 684.69" xmlns="http://www.w3.org/2000/svg" xmlns:xlink="http://www.w3.org/1999/xlink">
<g id="graph0" class="graph" transform="scale(1 1) rotate(0) translate(10.8 673.89)">
<title>zksp_decision</title>
<polygon fill="#ffffff" stroke="none" points="-10.8,10.8 -10.8,-673.89 375.7,-673.89 375.7,10.8 -10.8,10.8"/>
<!-- interval -->
<g id="node1" class="node">
<title>interval</title>
<polygon fill="#e4ecf7" stroke="#3c5e8c" stroke-width="0.5" points="242.53,-573.45 109.75,-573.45 109.75,-534.81 248.53,-534.81 248.53,-567.45 242.53,-573.45"/>
<polyline fill="none" stroke="#3c5e8c" stroke-width="0.5" points="242.53,-573.45 242.53,-567.45"/>
<polyline fill="none" stroke="#3c5e8c" stroke-width="0.5" points="248.53,-567.45 242.53,-567.45"/>
<text text-anchor="start" x="134.51" y="-560.63" font-family="Times New Roman" font-weight="bold" font-size="10.00">InterAccessInterval</text>
<text text-anchor="start" x="118.39" y="-550.63" font-family="Times New Roman" font-size="10.00">(slot id · duration · observed</text>
<text text-anchor="start" x="145.76" y="-540.63" font-family="Times New Roman" font-size="10.00">+ covariates x</text>
<text text-anchor="start" x="208.01" y="-540.63" font-family="Times New Roman" baseline-shift="sub" font-size="10.00">i</text>
<text text-anchor="start" x="209.51" y="-540.63" font-family="Times New Roman" font-size="10.00">)</text>
</g>
<!-- loop -->
<g id="node5" class="node">
<title>loop</title>
<path fill="#ffedd4" stroke="#96693a" stroke-width="0.5" d="M278.53,-482.49C278.53,-482.49 163.75,-482.49 163.75,-482.49 157.75,-482.49 151.75,-476.49 151.75,-470.49 151.75,-470.49 151.75,-458.49 151.75,-458.49 151.75,-452.49 157.75,-446.49 163.75,-446.49 163.75,-446.49 278.53,-446.49 278.53,-446.49 284.53,-446.49 290.53,-452.49 290.53,-458.49 290.53,-458.49 290.53,-470.49 290.53,-470.49 290.53,-476.49 284.53,-482.49 278.53,-482.49"/>
<text text-anchor="start" x="199.76" y="-465.99" font-family="Times New Roman" font-weight="bold" font-size="10.00">T</text>
<text text-anchor="start" x="205.76" y="-465.99" font-family="Times New Roman" font-weight="bold" baseline-shift="super" font-size="10.00">*</text>
<text text-anchor="start" x="208.76" y="-465.99" font-family="Times New Roman" font-weight="bold" font-size="10.00">&#45;search</text>
<text text-anchor="start" x="160.39" y="-455.99" font-family="Times New Roman" font-size="10.00">u ∈ {0, Δ, 2Δ, …, Duration}</text>
</g>
<!-- interval&#45;&gt;loop -->
<g id="edge3" class="edge">
<title>interval&#45;&gt;loop</title>
<path fill="none" stroke="#555555" stroke-width="0.55" d="M187.84,-534.97C194.32,-521.46 203.2,-502.92 210.16,-488.39"/>
<polygon fill="#555555" stroke="#555555" stroke-width="0.55" points="211.96,-489.51 212.66,-483.19 208.17,-487.69 211.96,-489.51"/>
</g>
<!-- costs -->
<g id="node2" class="node">
<title>costs</title>
<polygon fill="#fff2d9" stroke="#b58442" stroke-width="0.5" points="358.9,-663.09 267.38,-663.09 267.38,-614.45 364.9,-614.45 364.9,-657.09 358.9,-663.09"/>
<polyline fill="none" stroke="#b58442" stroke-width="0.5" points="358.9,-663.09 358.9,-657.09"/>
<polyline fill="none" stroke="#b58442" stroke-width="0.5" points="364.9,-657.09 358.9,-657.09"/>
<text text-anchor="start" x="287.64" y="-650.27" font-family="Times New Roman" font-weight="bold" font-size="10.00">CostParams</text>
<text text-anchor="start" x="276.01" y="-640.27" font-family="Times New Roman" font-size="10.00">c = RAM unit cost</text>
<text text-anchor="start" x="279.39" y="-630.27" font-family="Times New Roman" font-size="10.00">ℓ = miss penalty</text>
<text text-anchor="start" x="291.76" y="-620.27" font-family="Times New Roman" font-size="10.00">τ = horizon</text>
</g>
<!-- pstar -->
<g id="node4" class="node">
<title>pstar</title>
<path fill="#ffedd4" stroke="#96693a" stroke-width="0.5" d="M346.53,-573.45C346.53,-573.45 285.75,-573.45 285.75,-573.45 279.75,-573.45 273.75,-567.45 273.75,-561.45 273.75,-561.45 273.75,-546.81 273.75,-546.81 273.75,-540.81 279.75,-534.81 285.75,-534.81 285.75,-534.81 346.53,-534.81 346.53,-534.81 352.53,-534.81 358.53,-540.81 358.53,-546.81 358.53,-546.81 358.53,-561.45 358.53,-561.45 358.53,-567.45 352.53,-573.45 346.53,-573.45"/>
<text text-anchor="start" x="296.26" y="-560.63" font-family="Times New Roman" font-size="10.00">threshold</text>
<text text-anchor="start" x="285.76" y="-550.63" font-family="Times New Roman" font-size="10.00">p</text>
<text text-anchor="start" x="291.01" y="-550.63" font-family="Times New Roman" baseline-shift="super" font-size="10.00">*</text>
<text text-anchor="start" x="294.01" y="-550.63" font-family="Times New Roman" font-size="10.00"> = (c · τ) / ℓ</text>
<text text-anchor="start" x="282.39" y="-540.63" font-family="Times New Roman" font-size="10.00">clipped to [0, 1]</text>
</g>
<!-- costs&#45;&gt;pstar -->
<g id="edge1" class="edge">
<title>costs&#45;&gt;pstar</title>
<path fill="none" stroke="#555555" stroke-width="0.55" d="M316.14,-614.75C316.14,-603.91 316.14,-590.97 316.14,-579.92"/>
<polygon fill="#555555" stroke="#555555" stroke-width="0.55" points="318.24,-580.15 316.14,-574.15 314.04,-580.15 318.24,-580.15"/>
</g>
<!-- model -->
<g id="node3" class="node">
<title>model</title>
<polygon fill="#e6e2f5" stroke="#5c529c" stroke-width="0.5" points="120.78,-493.81 117.78,-497.81 96.78,-497.81 93.78,-493.81 25.5,-493.81 25.5,-435.17 120.78,-435.17 120.78,-493.81"/>
<text text-anchor="start" x="34.89" y="-480.99" font-family="Times New Roman" font-weight="bold" font-size="10.00">CalibratedModel</text>
<text text-anchor="start" x="51.39" y="-470.99" font-family="Times New Roman" font-size="10.00">β · scales</text>
<text text-anchor="start" x="34.14" y="-460.99" font-family="Times New Roman" font-size="10.00">H</text>
<text text-anchor="start" x="41.64" y="-460.99" font-family="Times New Roman" baseline-shift="sub" font-size="10.00">0</text>
<text text-anchor="start" x="46.14" y="-460.99" font-family="Times New Roman" baseline-shift="super" font-size="10.00">k</text>
<text text-anchor="start" x="50.64" y="-460.99" font-family="Times New Roman" font-size="10.00">(t) per stratum</text>
<text text-anchor="start" x="45.39" y="-450.99" font-family="Times New Roman" font-size="10.00">isotonic @ τ</text>
<text text-anchor="start" x="51.02" y="-440.99" font-family="Times New Roman" font-size="10.00">ε</text>
<text text-anchor="start" x="56.27" y="-440.99" font-family="Times New Roman" baseline-shift="sub" font-size="10.00">pt</text>
<text text-anchor="start" x="63.02" y="-440.99" font-family="Times New Roman" font-size="10.00"> · ε</text>
<text text-anchor="start" x="77.27" y="-440.99" font-family="Times New Roman" baseline-shift="sub" font-size="10.00">cond</text>
</g>
<!-- pred_point -->
<g id="node6" class="node">
<title>pred_point</title>
<path fill="#e0d9ef" stroke="#5e5388" stroke-width="0.5" d="M122.28,-384.85C122.28,-384.85 12,-384.85 12,-384.85 6,-384.85 0,-378.85 0,-372.85 0,-372.85 0,-360.85 0,-360.85 0,-354.85 6,-348.85 12,-348.85 12,-348.85 122.28,-348.85 122.28,-348.85 128.28,-348.85 134.28,-354.85 134.28,-360.85 134.28,-360.85 134.28,-372.85 134.28,-372.85 134.28,-378.85 128.28,-384.85 122.28,-384.85"/>
<text text-anchor="start" x="21.77" y="-368.6" font-family="Times New Roman" font-size="10.00">point predict at idle u</text>
<text text-anchor="start" x="8.64" y="-357.35" font-family="Times New Roman" font-size="10.00">p(u) = 1 − S(u+τ|x) / S(u|x)</text>
</g>
<!-- model&#45;&gt;pred_point -->
<g id="edge6" class="edge">
<title>model&#45;&gt;pred_point</title>
<path fill="none" stroke="#5c529c" stroke-width="0.55" d="M71.37,-435.31C70.5,-421.33 69.45,-404.64 68.61,-391.35"/>
<polygon fill="#5c529c" stroke="#5c529c" stroke-width="0.55" points="70.72,-391.44 68.25,-385.58 66.53,-391.7 70.72,-391.44"/>
</g>
<!-- pred_robust -->
<g id="node7" class="node">
<title>pred_robust</title>
<path fill="#e0d9ef" stroke="#5e5388" stroke-width="0.5" d="M261.15,-386.17C261.15,-386.17 171.12,-386.17 171.12,-386.17 165.12,-386.17 159.12,-380.17 159.12,-374.17 159.12,-374.17 159.12,-359.53 159.12,-359.53 159.12,-353.53 165.12,-347.53 171.12,-347.53 171.12,-347.53 261.15,-347.53 261.15,-347.53 267.15,-347.53 273.15,-353.53 273.15,-359.53 273.15,-359.53 273.15,-374.17 273.15,-374.17 273.15,-380.17 267.15,-386.17 261.15,-386.17"/>
<text text-anchor="start" x="167.76" y="-373.35" font-family="Times New Roman" font-size="10.00">robust predict at idle u</text>
<text text-anchor="start" x="181.64" y="-363.35" font-family="Times New Roman" font-size="10.00">u = 0: p̂(τ) + ε</text>
<text text-anchor="start" x="243.89" y="-363.35" font-family="Times New Roman" baseline-shift="sub" font-size="10.00">pt</text>
<text text-anchor="start" x="176.01" y="-353.35" font-family="Times New Roman" font-size="10.00">u &gt; 0: p(u) + ε</text>
<text text-anchor="start" x="238.26" y="-353.35" font-family="Times New Roman" baseline-shift="sub" font-size="10.00">cond</text>
</g>
<!-- model&#45;&gt;pred_robust -->
<g id="edge7" class="edge">
<title>model&#45;&gt;pred_robust</title>
<path fill="none" stroke="#5c529c" stroke-width="0.55" d="M88.98,-435.38C95.91,-425.07 104.83,-414.01 115.14,-406.17 126.4,-397.6 139.79,-390.75 153.09,-385.36"/>
<polygon fill="#5c529c" stroke="#5c529c" stroke-width="0.55" points="153.58,-387.42 158.41,-383.28 152.05,-383.51 153.58,-387.42"/>
</g>
<!-- pstar&#45;&gt;loop -->
<g id="edge2" class="edge">
<title>pstar&#45;&gt;loop</title>
<path fill="none" stroke="#555555" stroke-width="0.55" stroke-dasharray="5,2" d="M296.46,-534.97C281.29,-520.98 260.27,-501.59 244.29,-486.85"/>
<polygon fill="#555555" stroke="#555555" stroke-width="0.55" points="245.96,-485.53 240.12,-483 243.11,-488.61 245.96,-485.53"/>
</g>
<!-- loop&#45;&gt;pred_point -->
<g id="edge4" class="edge">
<title>loop&#45;&gt;pred_point</title>
<path fill="none" stroke="#555555" stroke-width="0.55" d="M193.96,-446.61C167.76,-430.34 128.08,-405.69 100.09,-388.31"/>
<polygon fill="#555555" stroke="#555555" stroke-width="0.55" points="101.22,-386.54 95.01,-385.16 99,-390.11 101.22,-386.54"/>
<text text-anchor="middle" x="164.27" y="-407.57" font-family="Times New Roman" font-size="8.00">default (point)</text>
</g>
<!-- loop&#45;&gt;pred_robust -->
<g id="edge5" class="edge">
<title>loop&#45;&gt;pred_robust</title>
<path fill="none" stroke="#555555" stroke-width="0.55" d="M220.27,-446.83C219.48,-431.81 218.32,-409.51 217.43,-392.44"/>
<polygon fill="#555555" stroke="#555555" stroke-width="0.55" points="219.54,-392.66 217.13,-386.78 215.35,-392.88 219.54,-392.66"/>
<text text-anchor="middle" x="232.74" y="-407.57" font-family="Times New Roman" font-size="8.00">&#45;&#45;robust</text>
</g>
<!-- cond -->
<g id="node8" class="node">
<title>cond</title>
<path fill="#fff5e6" stroke="#96693a" stroke-width="0.5" d="M204.78,-302.66C204.78,-302.66 174.66,-292.4 174.66,-292.4 168.98,-290.46 168.98,-286.6 174.66,-284.66 174.66,-284.66 204.78,-274.4 204.78,-274.4 210.46,-272.46 221.82,-272.46 227.5,-274.4 227.5,-274.4 257.62,-284.66 257.62,-284.66 263.3,-286.6 263.3,-290.46 257.62,-292.4 257.62,-292.4 227.5,-302.66 227.5,-302.66 221.82,-304.6 210.46,-304.6 204.78,-302.66"/>
<text text-anchor="start" x="193.64" y="-285.65" font-family="Times New Roman" font-size="10.00">p(u) &lt; p</text>
<text text-anchor="start" x="227.39" y="-285.65" font-family="Times New Roman" baseline-shift="super" font-size="10.00">*</text>
<text text-anchor="start" x="230.39" y="-285.65" font-family="Times New Roman" font-size="10.00"> ?</text>
</g>
<!-- pred_point&#45;&gt;cond -->
<g id="edge8" class="edge">
<title>pred_point&#45;&gt;cond</title>
<path fill="none" stroke="#555555" stroke-width="0.55" d="M100.21,-348.91C127.4,-334.99 165.38,-315.53 190.36,-302.74"/>
<polygon fill="#555555" stroke="#555555" stroke-width="0.55" points="191.29,-304.62 195.67,-300.01 189.37,-300.88 191.29,-304.62"/>
</g>
<!-- pred_robust&#45;&gt;cond -->
<g id="edge9" class="edge">
<title>pred_robust&#45;&gt;cond</title>
<path fill="none" stroke="#555555" stroke-width="0.55" d="M216.14,-347.76C216.14,-337.4 216.14,-324.27 216.14,-313.1"/>
<polygon fill="#555555" stroke="#555555" stroke-width="0.55" points="218.24,-313.27 216.14,-307.27 214.04,-313.27 218.24,-313.27"/>
</g>
<!-- cond&#45;&gt;loop -->
<g id="edge11" class="edge">
<title>cond&#45;&gt;loop</title>
<path fill="none" stroke="#555555" stroke-width="0.55" stroke-dasharray="5,2" d="M236.03,-299.53C252.87,-309.23 275.87,-325.68 286.14,-347.53 302.16,-381.6 271.37,-419.33 246.92,-442.23"/>
<polygon fill="#555555" stroke="#555555" stroke-width="0.55" points="245.76,-440.45 242.75,-446.04 248.59,-443.55 245.76,-440.45"/>
<text text-anchor="middle" x="308.19" y="-363.75" font-family="Times New Roman" font-size="8.00">no, next u</text>
</g>
<!-- demote -->
<g id="node9" class="node">
<title>demote</title>
<path fill="#f3c7c7" stroke="#8c3a3a" stroke-width="0.5" d="M191.15,-221.53C191.15,-221.53 107.12,-221.53 107.12,-221.53 101.12,-221.53 95.12,-215.53 95.12,-209.53 95.12,-209.53 95.12,-194.89 95.12,-194.89 95.12,-188.89 101.12,-182.89 107.12,-182.89 107.12,-182.89 191.15,-182.89 191.15,-182.89 197.15,-182.89 203.15,-188.89 203.15,-194.89 203.15,-194.89 203.15,-209.53 203.15,-209.53 203.15,-215.53 197.15,-221.53 191.15,-221.53"/>
<text text-anchor="start" x="136.01" y="-208.71" font-family="Times New Roman" font-size="10.00">T</text>
<text text-anchor="start" x="142.01" y="-208.71" font-family="Times New Roman" baseline-shift="super" font-size="10.00">*</text>
<text text-anchor="start" x="145.01" y="-208.71" font-family="Times New Roman" font-size="10.00"> = u</text>
<text text-anchor="start" x="117.64" y="-198.71" font-family="Times New Roman" font-size="10.00">HotBlocks = u</text>
<text text-anchor="start" x="103.76" y="-188.71" font-family="Times New Roman" font-size="10.00">Cold on [u, Duration]</text>
</g>
<!-- cond&#45;&gt;demote -->
<g id="edge10" class="edge">
<title>cond&#45;&gt;demote</title>
<path fill="none" stroke="#555555" stroke-width="0.55" d="M205.67,-274.35C195.49,-261.54 179.8,-241.79 167.53,-226.35"/>
<polygon fill="#555555" stroke="#555555" stroke-width="0.55" points="169.41,-225.34 164.03,-221.95 166.12,-227.95 169.41,-225.34"/>
<text text-anchor="middle" x="206.53" y="-242.93" font-family="Times New Roman" font-size="8.00">yes (first u)</text>
</g>
<!-- keep -->
<g id="node10" class="node">
<title>keep</title>
<path fill="#cfe1cf" stroke="#3a703a" stroke-width="0.5" d="M328.03,-221.53C328.03,-221.53 240.25,-221.53 240.25,-221.53 234.25,-221.53 228.25,-215.53 228.25,-209.53 228.25,-209.53 228.25,-194.89 228.25,-194.89 228.25,-188.89 234.25,-182.89 240.25,-182.89 240.25,-182.89 328.03,-182.89 328.03,-182.89 334.03,-182.89 340.03,-188.89 340.03,-194.89 340.03,-194.89 340.03,-209.53 340.03,-209.53 340.03,-215.53 334.03,-221.53 328.03,-221.53"/>
<text text-anchor="start" x="255.26" y="-208.71" font-family="Times New Roman" font-size="10.00">T</text>
<text text-anchor="start" x="261.26" y="-208.71" font-family="Times New Roman" baseline-shift="super" font-size="10.00">*</text>
<text text-anchor="start" x="264.26" y="-208.71" font-family="Times New Roman" font-size="10.00"> = Duration</text>
<text text-anchor="start" x="236.89" y="-198.71" font-family="Times New Roman" font-size="10.00">HotBlocks = Duration</text>
<text text-anchor="start" x="251.89" y="-188.71" font-family="Times New Roman" font-size="10.00">Hot throughout</text>
</g>
<!-- cond&#45;&gt;keep -->
<g id="edge12" class="edge">
<title>cond&#45;&gt;keep</title>
<path fill="none" stroke="#555555" stroke-width="0.55" d="M226.76,-274.35C237.1,-261.54 253.02,-241.79 265.48,-226.35"/>
<polygon fill="#555555" stroke="#555555" stroke-width="0.55" points="266.9,-227.94 269.03,-221.95 263.63,-225.3 266.9,-227.94"/>
<text text-anchor="middle" x="283.68" y="-242.93" font-family="Times New Roman" font-size="8.00">search exhausted</text>
</g>
<!-- score -->
<g id="node11" class="node">
<title>score</title>
<polygon fill="#ffedd4" stroke="#96693a" stroke-width="0.5" points="308.4,-141.89 135.88,-141.89 135.88,-145.89 123.87,-145.89 123.87,-77 308.4,-77 308.4,-141.89"/>
<polyline fill="none" stroke="#96693a" stroke-width="0.5" points="123.87,-141.89 135.88,-141.89"/>
<text text-anchor="middle" x="216.14" y="-128.07" font-family="Times New Roman" font-size="10.00">Simulator.Run</text>
<text text-anchor="middle" x="216.14" y="-116.82" font-family="Times New Roman" font-size="10.00">hot_blocks += HotBlocks</text>
<text text-anchor="middle" x="216.14" y="-105.57" font-family="Times New Roman" font-size="10.00">cold_blocks += Duration − HotBlocks</text>
<text text-anchor="middle" x="216.14" y="-94.32" font-family="Times New Roman" font-size="10.00">if observed and HotBlocks &lt; Duration:</text>
<text text-anchor="middle" x="216.14" y="-83.07" font-family="Times New Roman" font-size="10.00"> &#160;&#160;&#160;miss_count += 1</text>
</g>
<!-- demote&#45;&gt;score -->
<g id="edge13" class="edge">
<title>demote&#45;&gt;score</title>
<path fill="none" stroke="#555555" stroke-width="0.55" d="M162.38,-183.28C170.05,-172.88 180,-159.4 189.25,-146.88"/>
<polygon fill="#555555" stroke="#555555" stroke-width="0.55" points="190.79,-148.32 192.67,-142.25 187.41,-145.83 190.79,-148.32"/>
</g>
<!-- keep&#45;&gt;score -->
<g id="edge14" class="edge">
<title>keep&#45;&gt;score</title>
<path fill="none" stroke="#555555" stroke-width="0.55" d="M270.71,-183.28C262.92,-172.88 252.82,-159.4 243.43,-146.88"/>
<polygon fill="#555555" stroke="#555555" stroke-width="0.55" points="245.24,-145.78 239.96,-142.24 241.88,-148.3 245.24,-145.78"/>
</g>
<!-- totalcost -->
<g id="node12" class="node">
<title>totalcost</title>
<polygon fill="#ffc87c" stroke="#a65c00" stroke-width="0.5" points="334.28,-36 110,-36 110,-40 98,-40 98,0 334.28,0 334.28,-36"/>
<polyline fill="none" stroke="#a65c00" stroke-width="0.5" points="98,-36 110,-36"/>
<text text-anchor="start" x="106.64" y="-16.43" font-family="Times New Roman" font-weight="bold" font-size="11.00">TotalCost</text>
<text text-anchor="start" x="156.14" y="-16.43" font-family="Times New Roman" font-size="11.00"> = c · Σ hot_blocks + ℓ · miss_count</text>
</g>
<!-- score&#45;&gt;totalcost -->
<g id="edge15" class="edge">
<title>score&#45;&gt;totalcost</title>
<path fill="none" stroke="#555555" stroke-width="0.55" d="M216.14,-77.16C216.14,-65.76 216.14,-53.06 216.14,-42.45"/>
<polygon fill="#555555" stroke="#555555" stroke-width="0.55" points="218.24,-42.65 216.14,-36.65 214.04,-42.65 218.24,-42.65"/>
</g>
</g>
</svg>
