<?xml version="1.0" encoding="UTF-8" standalone="no"?>
<!DOCTYPE svg PUBLIC "-//W3C//DTD SVG 1.1//EN"
 "http://www.w3.org/Graphics/SVG/1.1/DTD/svg11.dtd">
<!-- Generated by graphviz version 12.2.1 (20241206.2353)
 -->
<!-- Title: G Pages: 1 -->
<svg width="806pt" height="748pt"
 viewBox="0.00 0.00 805.75 747.75" xmlns="http://www.w3.org/2000/svg" xmlns:xlink="http://www.w3.org/1999/xlink">
<g id="graph0" class="graph" transform="scale(1 1) rotate(0) translate(4 743.75)">
<title>G</title>
<polygon fill="white" stroke="none" points="-4,4 -4,-743.75 801.75,-743.75 801.75,4 -4,4"/>
<!-- BASE -->
<g id="node1" class="node">
<title>BASE</title>
<path fill="#e0f2fe" stroke="#0ea5e9" stroke-width="3" d="M620.12,-739.75C620.12,-739.75 332.88,-739.75 332.88,-739.75 326.88,-739.75 320.88,-733.75 320.88,-727.75 320.88,-727.75 320.88,-335.5 320.88,-335.5 320.88,-329.5 326.88,-323.5 332.88,-323.5 332.88,-323.5 620.12,-323.5 620.12,-323.5 626.12,-323.5 632.12,-329.5 632.12,-335.5 632.12,-335.5 632.12,-727.75 632.12,-727.75 632.12,-733.75 626.12,-739.75 620.12,-739.75"/>
<text text-anchor="start" x="364.75" y="-708.05" font-family="Helvetica,sans-Serif" font-weight="bold" font-size="26.00" fill="#0c4a6e">PayAsYouGoBase</text>
<text text-anchor="start" x="388.38" y="-679.5" font-family="Helvetica,sans-Serif" font-style="italic" font-size="20.00" fill="#666666">Blueprint / Template</text>
<text text-anchor="start" x="475" y="-657.1" font-family="Helvetica,sans-Serif" font-size="12.00" fill="#0c4a6e"> </text>
<text text-anchor="start" x="332.88" y="-631.65" font-family="Helvetica,sans-Serif" font-weight="bold" font-size="18.00" fill="#0c4a6e">Core PAYG Functionality:</text>
<text text-anchor="start" x="332.88" y="-609.6" font-family="Helvetica,sans-Serif" font-size="12.00" fill="#0c4a6e"> </text>
<text text-anchor="start" x="332.88" y="-586.05" font-family="Helvetica,sans-Serif" font-weight="bold" font-size="16.00" fill="#0c4a6e">State:</text>
<text text-anchor="start" x="332.88" y="-562.45" font-family="Helvetica,sans-Serif" font-size="14.00" fill="#0c4a6e">• Service struct (id, price, provider, usageCount)</text>
<text text-anchor="start" x="332.88" y="-539.45" font-family="Helvetica,sans-Serif" font-size="14.00" fill="#0c4a6e">• services mapping</text>
<text text-anchor="start" x="332.88" y="-516.45" font-family="Helvetica,sans-Serif" font-size="14.00" fill="#0c4a6e">• earnings mapping</text>
<text text-anchor="start" x="332.88" y="-493.45" font-family="Helvetica,sans-Serif" font-size="14.00" fill="#0c4a6e">• serviceIds array</text>
<text text-anchor="start" x="475" y="-472.35" font-family="Helvetica,sans-Serif" font-size="12.00" fill="#0c4a6e"> </text>
<text text-anchor="start" x="332.88" y="-448.8" font-family="Helvetica,sans-Serif" font-weight="bold" font-size="16.00" fill="#0c4a6e">Functions:</text>
<text text-anchor="start" x="332.88" y="-425.2" font-family="Helvetica,sans-Serif" font-size="14.00" fill="#0c4a6e">• registerService() &#45; virtual</text>
<text text-anchor="start" x="332.88" y="-402.2" font-family="Helvetica,sans-Serif" font-size="14.00" fill="#0c4a6e">• useService() &#45; virtual, payable</text>
<text text-anchor="start" x="332.88" y="-379.2" font-family="Helvetica,sans-Serif" font-size="14.00" fill="#0c4a6e">• withdraw() &#45; virtual (CEI pattern)</text>
<text text-anchor="start" x="332.88" y="-356.2" font-family="Helvetica,sans-Serif" font-size="14.00" fill="#0c4a6e">• getService() &#45; view</text>
<text text-anchor="start" x="332.88" y="-333.2" font-family="Helvetica,sans-Serif" font-size="14.00" fill="#0c4a6e">• getServiceCount() &#45; view</text>
</g>
<!-- ARTICLE -->
<g id="node2" class="node">
<title>ARTICLE</title>
<path fill="#f3e8ff" stroke="#7c3aed" d="M291,-250C291,-250 12,-250 12,-250 6,-250 0,-244 0,-238 0,-238 0,-12 0,-12 0,-6 6,0 12,0 12,0 291,0 291,0 297,0 303,-6 303,-12 303,-12 303,-238 303,-238 303,-244 297,-250 291,-250"/>
<text text-anchor="start" x="39.75" y="-220.2" font-family="Helvetica,sans-Serif" font-weight="bold" font-size="24.00" fill="#2e1065">ArticleSubscription</text>
<text text-anchor="start" x="81.75" y="-193.15" font-family="Helvetica,sans-Serif" font-style="italic" font-size="18.00" fill="#666666">Extends Blueprint</text>
<text text-anchor="start" x="150" y="-171.1" font-family="Helvetica,sans-Serif" font-size="12.00" fill="#2e1065"> </text>
<text text-anchor="start" x="12" y="-147.55" font-family="Helvetica,sans-Serif" font-weight="bold" font-size="16.00" fill="#2e1065">Inherits:</text>
<text text-anchor="start" x="75" y="-147.55" font-family="Helvetica,sans-Serif" font-size="16.00" fill="#2e1065"> All base functionality</text>
<text text-anchor="start" x="150" y="-125.85" font-family="Helvetica,sans-Serif" font-size="12.00" fill="#2e1065"> </text>
<text text-anchor="start" x="12" y="-102.3" font-family="Helvetica,sans-Serif" font-weight="bold" font-size="16.00" fill="#2e1065">Adds Article&#45;Specific:</text>
<text text-anchor="start" x="12" y="-78.7" font-family="Helvetica,sans-Serif" font-size="14.00" fill="#2e1065">• Article struct (title, contentHash, publishDate)</text>
<text text-anchor="start" x="12" y="-55.7" font-family="Helvetica,sans-Serif" font-size="14.00" fill="#2e1065">• articles mapping</text>
<text text-anchor="start" x="12" y="-32.7" font-family="Helvetica,sans-Serif" font-size="14.00" fill="#2e1065">• hasRead tracking</text>
<text text-anchor="start" x="12" y="-9.7" font-family="Helvetica,sans-Serif" font-size="14.00" fill="#2e1065">• publishArticle(), readArticle()</text>
</g>
<!-- BASE&#45;&gt;ARTICLE -->
<g id="edge1" class="edge">
<title>BASE&#45;&gt;ARTICLE</title>
<path fill="none" stroke="#333333" stroke-width="2" d="M319.47,-335.13C299.09,-309.75 278.59,-284.23 259.27,-260.17"/>
<polygon fill="#333333" stroke="#333333" stroke-width="2" points="262.23,-258.27 253.24,-252.67 256.78,-262.66 262.23,-258.27"/>
<text text-anchor="middle" x="329.04" y="-290.3" font-family="Times,serif" font-size="16.00" fill="#0c4a6e">inherits</text>
<text text-anchor="middle" x="329.04" y="-271.55" font-family="Times,serif" font-size="16.00" fill="#0c4a6e">(blueprint)</text>
</g>
<!-- FUTURE1 -->
<g id="node3" class="node">
<title>FUTURE1</title>
<path fill="#fef3c7" stroke="#f59e0b" stroke-dasharray="5,2" d="M455.75,-144C455.75,-144 333.25,-144 333.25,-144 327.25,-144 321.25,-138 321.25,-132 321.25,-132 321.25,-118 321.25,-118 321.25,-112 327.25,-106 333.25,-106 333.25,-106 455.75,-106 455.75,-106 461.75,-106 467.75,-112 467.75,-118 467.75,-118 467.75,-132 467.75,-132 467.75,-138 461.75,-144 455.75,-144"/>
<text text-anchor="middle" x="394.5" y="-126.7" font-family="Helvetica,sans-Serif" font-size="14.00" fill="#4a2c0a">VideoStreaming</text>
<text text-anchor="middle" x="394.5" y="-111.7" font-family="Helvetica,sans-Serif" font-size="14.00" fill="#4a2c0a">&lt;i&gt;Future Service&lt;/i&gt;</text>
</g>
<!-- BASE&#45;&gt;FUTURE1 -->
<g id="edge2" class="edge">
<title>BASE&#45;&gt;FUTURE1</title>
<path fill="none" stroke="#333333" stroke-dasharray="5,2" d="M434.24,-322.09C420.96,-256.57 407.86,-191.92 400.51,-155.67"/>
<polygon fill="#333333" stroke="#333333" points="403.97,-155.09 398.55,-145.98 397.11,-156.48 403.97,-155.09"/>
<text text-anchor="middle" x="459.84" y="-281.7" font-family="Times,serif" font-size="14.00" fill="#666666">can extend</text>
</g>
<!-- FUTURE2 -->
<g id="node4" class="node">
<title>FUTURE2</title>
<path fill="#fef3c7" stroke="#f59e0b" stroke-dasharray="5,2" d="M620.75,-144C620.75,-144 498.25,-144 498.25,-144 492.25,-144 486.25,-138 486.25,-132 486.25,-132 486.25,-118 486.25,-118 486.25,-112 492.25,-106 498.25,-106 498.25,-106 620.75,-106 620.75,-106 626.75,-106 632.75,-112 632.75,-118 632.75,-118 632.75,-132 632.75,-132 632.75,-138 626.75,-144 620.75,-144"/>
<text text-anchor="middle" x="559.5" y="-126.7" font-family="Helvetica,sans-Serif" font-size="14.00" fill="#4a2c0a">APIAccess</text>
<text text-anchor="middle" x="559.5" y="-111.7" font-family="Helvetica,sans-Serif" font-size="14.00" fill="#4a2c0a">&lt;i&gt;Future Service&lt;/i&gt;</text>
</g>
<!-- BASE&#45;&gt;FUTURE2 -->
<g id="edge3" class="edge">
<title>BASE&#45;&gt;FUTURE2</title>
<path fill="none" stroke="#333333" stroke-dasharray="5,2" d="M519.28,-322.09C532.72,-256.57 545.98,-191.92 553.41,-155.67"/>
<polygon fill="#333333" stroke="#333333" points="556.82,-156.48 555.4,-145.98 549.96,-155.07 556.82,-156.48"/>
<text text-anchor="middle" x="559.53" y="-281.7" font-family="Times,serif" font-size="14.00" fill="#666666">can extend</text>
</g>
<!-- FUTURE3 -->
<g id="node5" class="node">
<title>FUTURE3</title>
<path fill="#fef3c7" stroke="#f59e0b" stroke-dasharray="5,2" d="M785.75,-144C785.75,-144 663.25,-144 663.25,-144 657.25,-144 651.25,-138 651.25,-132 651.25,-132 651.25,-118 651.25,-118 651.25,-112 657.25,-106 663.25,-106 663.25,-106 785.75,-106 785.75,-106 791.75,-106 797.75,-112 797.75,-118 797.75,-118 797.75,-132 797.75,-132 797.75,-138 791.75,-144 785.75,-144"/>
<text text-anchor="middle" x="724.5" y="-126.7" font-family="Helvetica,sans-Serif" font-size="14.00" fill="#4a2c0a">DataSubscription</text>
<text text-anchor="middle" x="724.5" y="-111.7" font-family="Helvetica,sans-Serif" font-size="14.00" fill="#4a2c0a">&lt;i&gt;Future Service&lt;/i&gt;</text>
</g>
<!-- BASE&#45;&gt;FUTURE3 -->
<g id="edge4" class="edge">
<title>BASE&#45;&gt;FUTURE3</title>
<path fill="none" stroke="#333333" stroke-dasharray="5,2" d="M604.31,-322.09C645,-255.72 685.13,-190.24 707.18,-154.26"/>
<polygon fill="#333333" stroke="#333333" points="710.13,-156.14 712.37,-145.79 704.16,-152.49 710.13,-156.14"/>
<text text-anchor="middle" x="666.45" y="-281.7" font-family="Times,serif" font-size="14.00" fill="#666666">can extend</text>
</g>
</g>
</svg>
