<?xml version="1.0" encoding="UTF-8" standalone="no"?>
<!DOCTYPE svg PUBLIC "-//W3C//DTD SVG 1.1//EN"
 "http://www.w3.org/Graphics/SVG/1.1/DTD/svg11.dtd">
<!-- Generated by graphviz version 12.2.1 (20241206.2353)
 -->
<!-- Title: G Pages: 1 -->
<svg width="795pt" height="140pt"
 viewBox="0.00 0.00 794.75 140.25" xmlns="http://www.w3.org/2000/svg" xmlns:xlink="http://www.w3.org/1999/xlink">
<g id="graph0" class="graph" transform="scale(1 1) rotate(0) translate(4 136.25)">
<title>G</title>
<polygon fill="white" stroke="none" points="-4,4 -4,-136.25 790.75,-136.25 790.75,4 -4,4"/>
<!-- USER -->
<g id="node1" class="node">
<title>USER</title>
<path fill="#e0f2fe" stroke="#0ea5e9" d="M169.75,-69.88C169.75,-69.88 12,-69.88 12,-69.88 6,-69.88 0,-63.88 0,-57.88 0,-57.88 0,-36.38 0,-36.38 0,-30.38 6,-24.38 12,-24.38 12,-24.38 169.75,-24.38 169.75,-24.38 175.75,-24.38 181.75,-30.38 181.75,-36.38 181.75,-36.38 181.75,-57.88 181.75,-57.88 181.75,-63.88 175.75,-69.88 169.75,-69.88"/>
<text text-anchor="middle" x="90.88" y="-48.77" font-family="Helvetica,sans-Serif" font-size="18.00" fill="#0c4a6e">User</text>
<text text-anchor="middle" x="90.88" y="-30.02" font-family="Helvetica,sans-Serif" font-size="18.00" fill="#0c4a6e">Wants to use service</text>
</g>
<!-- CONTRACT -->
<g id="node2" class="node">
<title>CONTRACT</title>
<path fill="#f3e8ff" stroke="#7c3aed" d="M453.5,-132.25C453.5,-132.25 323.5,-132.25 323.5,-132.25 317.5,-132.25 311.5,-126.25 311.5,-120.25 311.5,-120.25 311.5,-80 311.5,-80 311.5,-74 317.5,-68 323.5,-68 323.5,-68 453.5,-68 453.5,-68 459.5,-68 465.5,-74 465.5,-80 465.5,-80 465.5,-120.25 465.5,-120.25 465.5,-126.25 459.5,-132.25 453.5,-132.25"/>
<text text-anchor="middle" x="388.5" y="-111.15" font-family="Helvetica,sans-Serif" font-size="18.00" fill="#2e1065">PAYG Contract</text>
<text text-anchor="middle" x="388.5" y="-92.4" font-family="Helvetica,sans-Serif" font-size="18.00" fill="#2e1065">Handles payment</text>
<text text-anchor="middle" x="388.5" y="-73.65" font-family="Helvetica,sans-Serif" font-size="18.00" fill="#2e1065">&amp; access control</text>
</g>
<!-- USER&#45;&gt;CONTRACT -->
<g id="edge1" class="edge">
<title>USER&#45;&gt;CONTRACT</title>
<path fill="none" stroke="#333333" d="M182.18,-63.31C219.57,-70.02 262.78,-77.77 299.89,-84.42"/>
<polygon fill="#333333" stroke="#333333" points="299.24,-87.86 309.71,-86.18 300.48,-80.97 299.24,-87.86"/>
<text text-anchor="middle" x="246.62" y="-86.53" font-family="Times,serif" font-size="16.00" fill="#333333">1. pays per use</text>
</g>
<!-- SERVICE -->
<g id="node4" class="node">
<title>SERVICE</title>
<path fill="#fef3c7" stroke="#f59e0b" d="M774.75,-64.25C774.75,-64.25 629,-64.25 629,-64.25 623,-64.25 617,-58.25 617,-52.25 617,-52.25 617,-12 617,-12 617,-6 623,0 629,0 629,0 774.75,0 774.75,0 780.75,0 786.75,-6 786.75,-12 786.75,-12 786.75,-52.25 786.75,-52.25 786.75,-58.25 780.75,-64.25 774.75,-64.25"/>
<text text-anchor="middle" x="701.88" y="-43.15" font-family="Helvetica,sans-Serif" font-size="18.00" fill="#4a2c0a">Service</text>
<text text-anchor="middle" x="701.88" y="-24.4" font-family="Helvetica,sans-Serif" font-size="18.00" fill="#4a2c0a">Article / Video / API</text>
<text text-anchor="middle" x="701.88" y="-5.65" font-family="Helvetica,sans-Serif" font-size="18.00" fill="#4a2c0a">etc.</text>
</g>
<!-- USER&#45;&gt;SERVICE -->
<g id="edge4" class="edge">
<title>USER&#45;&gt;SERVICE</title>
<path fill="none" stroke="#333333" stroke-dasharray="5,2" d="M182.16,-44.16C221.84,-42.9 268.98,-41.48 311.5,-40.38 411.68,-37.77 526.37,-35.42 605.2,-33.9"/>
<polygon fill="#333333" stroke="#333333" points="605.12,-37.4 615.05,-33.71 604.98,-30.4 605.12,-37.4"/>
<text text-anchor="middle" x="388.5" y="-43.92" font-family="Times,serif" font-size="16.00" fill="#666666">4. accesses</text>
</g>
<!-- PROVIDER -->
<g id="node3" class="node">
<title>PROVIDER</title>
<path fill="#dcfce7" stroke="#16a34a" d="M768.38,-128.88C768.38,-128.88 635.38,-128.88 635.38,-128.88 629.38,-128.88 623.38,-122.88 623.38,-116.88 623.38,-116.88 623.38,-95.38 623.38,-95.38 623.38,-89.38 629.38,-83.38 635.38,-83.38 635.38,-83.38 768.38,-83.38 768.38,-83.38 774.38,-83.38 780.38,-89.38 780.38,-95.38 780.38,-95.38 780.38,-116.88 780.38,-116.88 780.38,-122.88 774.38,-128.88 768.38,-128.88"/>
<text text-anchor="middle" x="701.88" y="-107.78" font-family="Helvetica,sans-Serif" font-size="18.00" fill="#14532d">Service Provider</text>
<text text-anchor="middle" x="701.88" y="-89.03" font-family="Helvetica,sans-Serif" font-size="18.00" fill="#14532d">Earns from usage</text>
</g>
<!-- CONTRACT&#45;&gt;PROVIDER -->
<g id="edge2" class="edge">
<title>CONTRACT&#45;&gt;PROVIDER</title>
<path fill="none" stroke="#333333" d="M465.67,-101.59C509.74,-102.44 565.42,-103.51 611.55,-104.4"/>
<polygon fill="#333333" stroke="#333333" points="611.48,-107.9 621.54,-104.6 611.61,-100.9 611.48,-107.9"/>
<text text-anchor="middle" x="541.25" y="-107.56" font-family="Times,serif" font-size="16.00" fill="#333333">2. credits earnings</text>
</g>
<!-- CONTRACT&#45;&gt;SERVICE -->
<g id="edge3" class="edge">
<title>CONTRACT&#45;&gt;SERVICE</title>
<path fill="none" stroke="#333333" d="M465.93,-83.23C471.88,-81.92 477.79,-80.63 483.5,-79.38 523.5,-70.61 567.66,-61 605.67,-52.75"/>
<polygon fill="#333333" stroke="#333333" points="606.22,-56.21 615.25,-50.67 604.74,-49.37 606.22,-56.21"/>
<text text-anchor="middle" x="541.25" y="-82.92" font-family="Times,serif" font-size="16.00" fill="#333333">3. unlocks access</text>
</g>
</g>
</svg>
